<?xml version="1.0" encoding="UTF-8" standalone="no"?>
<!-- Created with Inkscape (http://www.inkscape.org/) -->

<svg
   version="1.1"
   id="svg2"
   xml:space="preserve"
   width="226.66667"
   height="189.33333"
   viewBox="0 0 226.66667 189.33333"
   sodipodi:docname="constrcited_box.svg"
   inkscape:version="1.1.2 (0a00cf5339, 2022-02-04)"
   xmlns:inkscape="http://www.inkscape.org/namespaces/inkscape"
   xmlns:sodipodi="http://sodipodi.sourceforge.net/DTD/sodipodi-0.dtd"
   xmlns="http://www.w3.org/2000/svg"
   xmlns:svg="http://www.w3.org/2000/svg"><defs
     id="defs6" /><sodipodi:namedview
     id="namedview4"
     pagecolor="#ffffff"
     bordercolor="#666666"
     borderopacity="1.0"
     inkscape:pageshadow="2"
     inkscape:pageopacity="0.0"
     inkscape:pagecheckerboard="0"
     showgrid="false"
     inkscape:zoom="3.3274649"
     inkscape:cx="113.29947"
     inkscape:cy="94.666664"
     inkscape:window-width="1920"
     inkscape:window-height="1007"
     inkscape:window-x="0"
     inkscape:window-y="0"
     inkscape:window-maximized="1"
     inkscape:current-layer="g8" /><g
     id="g8"
     inkscape:groupmode="layer"
     inkscape:label="constrcited_box"
     transform="matrix(1.3333333,0,0,-1.3333333,0,189.33333)"><g
       id="g10"
       transform="matrix(0.06,0,0,-0.06,0,142)"><g
         id="g12"><g
           id="g14" /></g><g
         id="g16"><g
           id="g18" /><g
           id="g20"
           transform="matrix(47.216667,0,0,-47.34,0,2367)"><path
             d="m 5.125,17.612537 h 1.05 m 0.3835,0 h 0.013 m 0.3835,0 h 1.56 m 0.3835,0 h 0.013 m 0.3835,0 h 1.56 m 0.3835,0 h 0.013 m 0.3835,0 h 1.56 m 0.3835,0 h 0.013 m 0.3835,0 h 1.56 m 0.3835,0 h 0.013 m 0.3835,0 h 1.56 m 0.3835,0 h 0.013 m 0.3835,0 h 1.56 m 0.3835,0 h 0.013 m 0.3835,0 h 1.56 m 0.3835,0 h 0.013 m 0.3835,0 h 1.56 m 0.3835,0 h 0.013 m 0.3835,0 h 1.56 m 0.3835,0 h 0.013 m 0.3835,0 h 1.56 m 0.3835,0 h 0.013 m 0.3835,0 h 1.56 m 0.3835,0 h 0.013 m 0.3835,0 h 1.56 m 0.3835,0 h 0.013 m 0.3835,0 h 1.56 m 0.3835,0 h 0.013 m 0.3835,0 h 1.56 m 0.3835,0 h 0.013 m 0.3835,0 h 1.56 m 0.3835,0 h 0.013 m 0.3835,0 h 1.56 m 0.3835,0 h 0.013 m 0.3835,0 h 1.56 m 0.3835,0 h 0.013 m 0.3835,0 h 1.56 m 0.3835,0 h 0.013 m 0.3835,0 h 1.05"
             style="fill:none;stroke:#000000;stroke-width:0.13;stroke-linecap:round;stroke-linejoin:round;stroke-miterlimit:10;stroke-dasharray:none;stroke-opacity:1"
             id="path22" /></g><g
           id="g24"
           transform="matrix(0,-1.2410945,1.2378612,0,1382.7799,889.06079)"><g
             id="g26"><text
               transform="translate(0,143)"
               style="font-variant:normal;font-weight:normal;font-size:133px;font-family:'Noto Sans';-inkscape-font-specification:NotoSans-Regular;writing-mode:lr-tb;fill:#008000;fill-opacity:1;fill-rule:nonzero;stroke:none"
               id="text30"><tspan
                 x="0"
                 y="0"
                 id="tspan28">i</tspan></text></g></g><g
           id="g32"
           transform="matrix(47.216667,0,0,-47.34,0,2367)"><path
             d="M 33.625,37.733326 V 25.612537"
             style="fill:none;stroke:#008000;stroke-width:0.13;stroke-linecap:round;stroke-linejoin:round;stroke-miterlimit:10;stroke-dasharray:none;stroke-opacity:1"
             id="path34" /></g><g
           id="g36"><path
             d="m 1587.6604,817.40435 -19.6556,-118.35 h 39.3112 z"
             style="fill:#008000;fill-opacity:1;fill-rule:evenodd;stroke:none"
             id="path38" /></g><g
           id="g40"
           transform="matrix(47.216667,0,0,-47.34,0,2367)"><path
             d="m 33.625,32.733326 -0.416285,2.5 h 0.83257 z"
             style="fill:#008000;fill-opacity:1;fill-rule:evenodd;stroke:#008000;stroke-width:0.13;stroke-linecap:round;stroke-linejoin:round;stroke-miterlimit:10;stroke-dasharray:none;stroke-opacity:1"
             id="path42" /></g><g
           id="g44"><path
             d="m 1587.6604,917.8025 19.6556,118.35 h -39.3112 z"
             style="fill:#008000;fill-opacity:1;fill-rule:evenodd;stroke:none"
             id="path46" /></g><g
           id="g48"
           transform="matrix(47.216667,0,0,-47.34,0,2367)"><path
             d="m 33.625,30.612537 0.416285,-2.5 h -0.83257 z"
             style="fill:#008000;fill-opacity:1;fill-rule:evenodd;stroke:#008000;stroke-width:0.13;stroke-linecap:round;stroke-linejoin:round;stroke-miterlimit:10;stroke-dasharray:none;stroke-opacity:1"
             id="path50" /><path
             d="M 40.490953,32.733326 H 32.375"
             style="fill:none;stroke:#008000;stroke-width:0.13;stroke-linecap:round;stroke-linejoin:round;stroke-miterlimit:10;stroke-dasharray:none;stroke-opacity:1"
             id="path52" /><path
             d="M 34.333191,30.612537 H 32.375"
             style="fill:none;stroke:#008000;stroke-width:0.13;stroke-linecap:round;stroke-linejoin:round;stroke-miterlimit:10;stroke-dasharray:none;stroke-opacity:1"
             id="path54" /></g><g
           id="g56"
           transform="matrix(0.79568182,-0.95073358,0.94825666,0.79776019,1772.7726,1125.7097)"><g
             id="g58"><text
               transform="translate(0,143)"
               style="font-variant:normal;font-weight:normal;font-size:133px;font-family:'Noto Sans';-inkscape-font-specification:NotoSans-Regular;writing-mode:lr-tb;fill:#800000;fill-opacity:1;fill-rule:nonzero;stroke:none"
               id="text62"><tspan
                 x="0"
                 y="0"
                 id="tspan60">α</tspan></text></g></g><g
           id="g64"
           transform="matrix(47.216667,0,0,-47.34,0,2367)" /><g
           id="g66"
           transform="matrix(0.31827273,-0.38029343,0.37930267,0.31910408,1919.2049,1116.4054)"><g
             id="g68"><text
               transform="translate(0,143)"
               style="font-variant:normal;font-weight:normal;font-size:133px;font-family:'Noto Sans';-inkscape-font-specification:NotoSans-Regular;writing-mode:lr-tb;fill:#800000;fill-opacity:1;fill-rule:nonzero;stroke:none"
               id="text72"><tspan
                 x="0"
                 y="0"
                 id="tspan70">1</tspan></text></g></g><g
           id="g74"
           transform="matrix(47.216667,0,0,-47.34,0,2367)"><path
             d="m 46.148522,27.986062 0.37467,-2.124863"
             style="fill:none;stroke:#800000;stroke-width:0.13;stroke-linecap:round;stroke-linejoin:round;stroke-miterlimit:10;stroke-dasharray:none;stroke-opacity:1"
             id="path76" /><path
             d="M 45.321801,19.612537 H 38.779942"
             style="fill:none;stroke:#800000;stroke-width:0.13;stroke-linecap:round;stroke-linejoin:round;stroke-miterlimit:10;stroke-dasharray:none;stroke-opacity:1"
             id="path78" /><path
             d="m 46.306132,27.092209 -0.174185,-0.03281 -0.173371,-0.03687 -0.172464,-0.04091 -0.171463,-0.04492 -0.170367,-0.04891 -0.16918,-0.05287 -0.1679,-0.0568 -0.166529,-0.06071 -0.165067,-0.06458 -0.163515,-0.06841 -0.161874,-0.07221 -0.160144,-0.07597 -0.158329,-0.07968 -0.156426,-0.08335 -0.154439,-0.08698 -0.152366,-0.09056 -0.150212,-0.09409 -0.147975,-0.09757 -0.145657,-0.101 -0.143262,-0.104371 -0.140786,-0.107685 -0.138236,-0.110942 -0.135608,-0.114137 -0.132909,-0.117271 -0.130135,-0.12034 -0.127292,-0.123344 -0.124379,-0.126281 -0.121399,-0.12915 -0.118351,-0.131947 -0.11524,-0.134673 -0.112066,-0.137325 -0.108831,-0.139903 -0.105536,-0.142405 -0.102185,-0.144829 -0.09878,-0.147173 -0.09532,-0.149439 -0.0918,-0.151623 -0.08824,-0.153723 -0.08463,-0.155741 -0.08097,-0.157673 -0.07727,-0.159519 -0.07353,-0.16128 -0.06974,-0.162951 -0.06592,-0.164534 -0.06206,-0.166028 -0.05817,-0.167431 -0.05425,-0.168743 -0.0503,-0.169963 -0.04632,-0.17109 -0.04231,-0.172124 -0.03828,-0.173065 -0.03423,-0.173911 -0.03017,-0.174663 -0.02608,-0.175319 -0.02198,-0.17588 -0.01787,-0.176345 -0.01375,-0.176714 -0.0096,-0.176987 -0.0055,-0.177164 -0.0014,-0.146789"
             style="fill:none;stroke:#800000;stroke-width:0.13;stroke-linecap:round;stroke-linejoin:round;stroke-miterlimit:10;stroke-dasharray:none;stroke-opacity:1"
             id="path80" /></g><g
           id="g82"><path
             d="m 2186.4212,1084.4548 -104.7807,57.9539 -13.0769,-37.1692 z"
             style="fill:#800000;fill-opacity:1;fill-rule:evenodd;stroke:none"
             id="path84" /></g><g
           id="g86"
           transform="matrix(47.216667,0,0,-47.34,0,2367)"><path
             d="M 46.306132,27.092209 44.086985,25.868003 43.81003,26.653157 Z"
             style="fill:#800000;fill-opacity:1;fill-rule:evenodd;stroke:#800000;stroke-width:0.13;stroke-linecap:round;stroke-linejoin:round;stroke-miterlimit:10;stroke-dasharray:none;stroke-opacity:1"
             id="path88" /></g><g
           id="g90"><path
             d="m 1890.0804,1438.5425 -0.05,-119.9795 38.7799,6.4575 -38.7298,113.522 z"
             style="fill:#800000;fill-opacity:1;fill-rule:evenodd;stroke:none"
             id="path92" /></g><g
           id="g94"
           transform="matrix(47.216667,0,0,-47.34,0,2367)"><path
             d="m 40.029942,19.612537 -0.0011,2.534421 0.821318,-0.136407 -0.820256,-2.398014 z"
             style="fill:#800000;fill-opacity:1;fill-rule:evenodd;stroke:#800000;stroke-width:0.13;stroke-linecap:round;stroke-linejoin:round;stroke-miterlimit:10;stroke-dasharray:none;stroke-opacity:1"
             id="path96" /><path
             d="m 27.625,2.1125369 v 1.07 m 0,0.3835 v 0.013 m 0,0.3835 v 1.56 m 0,0.3835 v 0.013 m 0,0.3835 v 1.56 m 0,0.3835 v 0.013 m 0,0.3835 v 1.5600001 m 0,0.3835 v 0.013 m 0,0.3835 v 1.56 m 0,0.3835 v 0.013 m 0,0.3835 v 1.56 m 0,0.3835 v 0.013 m 0,0.3835 v 1.56 m 0,0.3835 v 0.013 m 0,0.3835 v 1.56 m 0,0.3835 v 0.013 m 0,0.3835 v 1.56 m 0,0.3835 v 0.013 m 0,0.3835 v 1.56 m 0,0.3835 v 0.013 m 0,0.3835 v 1.56 m 0,0.3835 v 0.013 m 0,0.3835 v 1.56 m 0,0.3835 v 0.013 m 0,0.3835 v 1.56 m 0,0.3835 v 0.013 m 0,0.3835 v 1.07"
             style="fill:none;stroke:#000000;stroke-width:0.13;stroke-linecap:round;stroke-linejoin:round;stroke-miterlimit:10;stroke-dasharray:none;stroke-opacity:1"
             id="path98" /><path
             d="M 5.125,19.612537 H 5.9468007"
             style="fill:none;stroke:#000000;stroke-width:0.25;stroke-linecap:round;stroke-linejoin:round;stroke-miterlimit:10;stroke-dasharray:none;stroke-opacity:1"
             id="path100" /><path
             d="M 50.125,19.612537 H 49.303199"
             style="fill:none;stroke:#000000;stroke-width:0.25;stroke-linecap:round;stroke-linejoin:round;stroke-miterlimit:10;stroke-dasharray:none;stroke-opacity:1"
             id="path102" /><path
             d="M 5.125,15.612537 H 5.9468007"
             style="fill:none;stroke:#000000;stroke-width:0.25;stroke-linecap:round;stroke-linejoin:round;stroke-miterlimit:10;stroke-dasharray:none;stroke-opacity:1"
             id="path104" /><path
             d="M 50.125,15.612537 H 49.303199"
             style="fill:none;stroke:#000000;stroke-width:0.25;stroke-linecap:round;stroke-linejoin:round;stroke-miterlimit:10;stroke-dasharray:none;stroke-opacity:1"
             id="path106" /><path
             d="m 7.9164162,21.26524 1.2935923,7.336327"
             style="fill:none;stroke:#000000;stroke-width:0.25;stroke-linecap:round;stroke-linejoin:round;stroke-miterlimit:10;stroke-dasharray:none;stroke-opacity:1"
             id="path108" /><path
             d="m 47.333584,21.26524 -1.293593,7.336327"
             style="fill:none;stroke:#000000;stroke-width:0.25;stroke-linecap:round;stroke-linejoin:round;stroke-miterlimit:10;stroke-dasharray:none;stroke-opacity:1"
             id="path110" /><path
             d="M 47.333584,13.959833 46.039991,6.623507"
             style="fill:none;stroke:#000000;stroke-width:0.25;stroke-linecap:round;stroke-linejoin:round;stroke-miterlimit:10;stroke-dasharray:none;stroke-opacity:1"
             id="path112" /><path
             d="M 7.9164162,13.959833 9.2100085,6.623507"
             style="fill:none;stroke:#000000;stroke-width:0.25;stroke-linecap:round;stroke-linejoin:round;stroke-miterlimit:10;stroke-dasharray:none;stroke-opacity:1"
             id="path114" /><path
             d="m 5.9468007,19.612537 0.1770207,0.0078 0.1756311,0.02349 0.172863,0.03894 0.1687379,0.05409 0.1632885,0.06881 0.1565572,0.08299 0.148597,0.09652 0.1394705,0.109298 0.1292492,0.121212 0.1180133,0.132178 0.1058511,0.142103 0.092858,0.150915 0.079136,0.158542 0.064793,0.164923 0.049941,0.170012 0.027608,0.130831"
             style="fill:none;stroke:#000000;stroke-width:0.25;stroke-linecap:round;stroke-linejoin:round;stroke-miterlimit:10;stroke-dasharray:none;stroke-opacity:1"
             id="path116" /><path
             d="m 49.303199,19.612537 -0.17702,0.0078 -0.175632,0.02349 -0.172863,0.03894 -0.168737,0.05409 -0.163289,0.06881 -0.156557,0.08299 -0.148597,0.09652 -0.139471,0.109298 -0.129249,0.121212 -0.118013,0.132178 -0.105851,0.142103 -0.09286,0.150915 -0.07914,0.158542 -0.06479,0.164923 -0.04994,0.170012 -0.02761,0.130831"
             style="fill:none;stroke:#000000;stroke-width:0.25;stroke-linecap:round;stroke-linejoin:round;stroke-miterlimit:10;stroke-dasharray:none;stroke-opacity:1"
             id="path118" /><path
             d="m 49.303199,15.612537 -0.17702,-0.0078 -0.175632,-0.02349 -0.172863,-0.03894 -0.168737,-0.05409 -0.163289,-0.06881 -0.156557,-0.08299 -0.148597,-0.09652 L 48.001033,15.1306 47.871784,15.009387 47.753771,14.87721 47.64792,14.735106 47.55506,14.584191 47.47592,14.42565 47.41113,14.260726 47.36119,14.090715 47.33358,13.959883"
             style="fill:none;stroke:#000000;stroke-width:0.25;stroke-linecap:round;stroke-linejoin:round;stroke-miterlimit:10;stroke-dasharray:none;stroke-opacity:1"
             id="path120" /><path
             d="m 5.9468007,15.612537 0.1770207,-0.0078 0.1756311,-0.02349 0.172863,-0.03894 0.1687379,-0.05409 0.1632885,-0.06881 0.1565572,-0.08299 0.148597,-0.09652 0.1394705,-0.109297 0.1292492,-0.121213 0.1180133,-0.132177 0.1058511,-0.142104 0.092858,-0.150915 0.079136,-0.158541 0.064793,-0.164924 0.049941,-0.170011 0.027608,-0.130832"
             style="fill:none;stroke:#000000;stroke-width:0.25;stroke-linecap:round;stroke-linejoin:round;stroke-miterlimit:10;stroke-dasharray:none;stroke-opacity:1"
             id="path122" /><path
             d="m 5.9468007,19.612537 h 0.6440997 m 0.39,0 H 7.625"
             style="fill:none;stroke:#000000;stroke-width:0.13;stroke-linecap:round;stroke-linejoin:round;stroke-miterlimit:10;stroke-dasharray:none;stroke-opacity:1"
             id="path124" /><path
             d="M 49.303199,19.612537 H 48.6591 m -0.39,0 H 47.625"
             style="fill:none;stroke:#000000;stroke-width:0.13;stroke-linecap:round;stroke-linejoin:round;stroke-miterlimit:10;stroke-dasharray:none;stroke-opacity:1"
             id="path126" /><path
             d="m 7.625,19.612537 0.1118467,0.634314 m 0.067723,0.384075 0.1118467,0.634314"
             style="fill:none;stroke:#000000;stroke-width:0.13;stroke-linecap:round;stroke-linejoin:round;stroke-miterlimit:10;stroke-dasharray:none;stroke-opacity:1"
             id="path128" /><path
             d="M 20.291809,30.612537 H 27.625"
             style="fill:none;stroke:#000000;stroke-width:0.25;stroke-linecap:round;stroke-linejoin:round;stroke-miterlimit:10;stroke-dasharray:none;stroke-opacity:1"
             id="path130" /><path
             d="M 34.958191,30.612537 H 27.625"
             style="fill:none;stroke:#000000;stroke-width:0.25;stroke-linecap:round;stroke-linejoin:round;stroke-miterlimit:10;stroke-dasharray:none;stroke-opacity:1"
             id="path132" /><path
             d="M 20.291809,4.6125369 H 27.625"
             style="fill:none;stroke:#000000;stroke-width:0.25;stroke-linecap:round;stroke-linejoin:round;stroke-miterlimit:10;stroke-dasharray:none;stroke-opacity:1"
             id="path134" /><path
             d="M 34.958191,4.6125369 H 27.625"
             style="fill:none;stroke:#000000;stroke-width:0.25;stroke-linecap:round;stroke-linejoin:round;stroke-miterlimit:10;stroke-dasharray:none;stroke-opacity:1"
             id="path136" /><path
             d="m 17.212928,31.672931 -0.141566,0.10665 -0.145257,0.101565 -0.148766,0.09635 -0.152088,0.09102 -0.155218,0.08557 -0.158153,0.08002 -0.16089,0.07436 -0.163424,0.06861 -0.165754,0.06278 -0.167874,0.05686 -0.169785,0.05088 -0.171481,0.04483 -0.172962,0.03872 -0.174226,0.03257 -0.17527,0.02637 -0.176095,0.02014 -0.176698,0.01389 -0.17708,0.0076 -0.177238,0.0013 -0.177175,-0.0049 -0.176887,-0.01122 -0.176379,-0.01749 -0.175648,-0.02373 -0.174697,-0.02994 -0.173526,-0.03611 -0.172137,-0.04224 -0.170532,-0.04831 -0.168712,-0.05433 -0.166681,-0.06027 -0.16444,-0.06614 -0.161993,-0.07193 -0.159341,-0.07762 -0.15649,-0.08322 -0.153442,-0.08872 -0.150201,-0.0941 L 11.25805,31.823386 11.114893,31.718882 10.975529,31.60937 10.840134,31.494987 10.708879,31.375877 10.581927,31.252189 10.45944,31.12408 10.341569,30.991711 10.228465,30.855246 10.120268,30.714859 10.017115,30.570725 9.919135,30.423025 9.826452,30.271946 9.739182,30.117676 9.657434,29.96041 9.581312,29.800346 9.510911,29.637684 9.446319,29.472629 9.387618,29.305389 9.334881,29.136173 9.288175,28.965194 9.247558,28.792668 9.213082,28.61881 9.210012,28.60156"
             style="fill:none;stroke:#000000;stroke-width:0.25;stroke-linecap:round;stroke-linejoin:round;stroke-miterlimit:10;stroke-dasharray:none;stroke-opacity:1"
             id="path138" /><path
             d="m 38.037072,31.672931 0.141566,0.10665 0.145257,0.101565 0.148766,0.09635 0.152088,0.09102 0.155217,0.08557 0.158154,0.08002 0.16089,0.07436 0.163424,0.06861 0.165754,0.06278 0.167874,0.05686 0.169785,0.05088 0.171481,0.04483 0.172962,0.03872 0.174226,0.03257 0.17527,0.02637 0.176095,0.02014 0.176698,0.01389 0.17708,0.0076 0.177238,0.0013 0.177174,-0.0049 0.176888,-0.01122 0.176379,-0.01749 0.175648,-0.02373 0.174697,-0.02994 0.173526,-0.03611 0.172137,-0.04224 0.170532,-0.04831 0.168712,-0.05433 0.166681,-0.06027 0.16444,-0.06614 0.161993,-0.07193 0.159341,-0.07762 0.15649,-0.08322 0.153442,-0.08872 0.150201,-0.0941 0.146772,-0.09936 0.143157,-0.104504 0.139364,-0.109512 0.135395,-0.114383 0.131255,-0.11911 0.126952,-0.123688 0.122487,-0.128109 0.117871,-0.132369 0.113104,-0.136465 0.108197,-0.140387 0.103153,-0.144134 0.09798,-0.1477 0.09268,-0.151079 0.08727,-0.15427 0.08175,-0.157266 0.07612,-0.160064 0.0704,-0.162662 0.06459,-0.165055 0.0587,-0.16724 0.05274,-0.169216 0.04671,-0.170979 0.04062,-0.172526 0.03448,-0.173858 0.0031,-0.01725"
             style="fill:none;stroke:#000000;stroke-width:0.25;stroke-linecap:round;stroke-linejoin:round;stroke-miterlimit:10;stroke-dasharray:none;stroke-opacity:1"
             id="path140" /><path
             d="M 17.212928,3.5521424 17.071362,3.4454926 16.926105,3.3439273 16.777339,3.2475743 16.625251,3.1565545 16.470033,3.0709823 16.31188,2.9909653 16.15099,2.916604 15.987566,2.8479919 15.821812,2.7852152 15.653938,2.7283527 15.484153,2.6774759 15.312672,2.6326488 15.13971,2.5939277 l -0.174226,-0.032567 -0.17527,-0.026371 -0.176095,-0.020142 -0.176698,-0.013888 -0.17708,-0.00762 -0.177238,-0.00134 -0.177175,0.00495 -0.176887,0.011224 -0.176379,0.017486 -0.175648,0.023726 -0.174697,0.029937 -0.173526,0.03611 -0.172137,0.042238 -0.170532,0.048312 -0.168712,0.054326 -0.166681,0.060271 -0.16444,0.066141 -0.161993,0.071928 -0.159341,0.077624 -0.15649,0.083223 -0.153442,0.088717 -0.150201,0.0941 -0.146772,0.099364 -0.143157,0.104504 L 10.975529,3.615693 10.840134,3.730076 10.708879,3.8491859 10.581927,3.9728731 10.45944,4.1009822 10.341569,4.2333521 10.228465,4.3698165 10.120268,4.5102039 10.017115,4.654338 9.919135,4.8020375 9.826452,4.953117 9.739182,5.1073865 9.657434,5.2646523 9.581312,5.4247166 9.510911,5.5873783 9.446319,5.7524331 9.387618,5.9196736 9.334881,6.0888894 9.288175,6.2598682 9.247558,6.4323949 9.213082,6.6062528 9.210012,6.6235018"
             style="fill:none;stroke:#000000;stroke-width:0.25;stroke-linecap:round;stroke-linejoin:round;stroke-miterlimit:10;stroke-dasharray:none;stroke-opacity:1"
             id="path142" /><path
             d="m 38.037072,3.5521424 0.141566,-0.1066498 0.145257,-0.1015653 0.148766,-0.096353 0.152088,-0.09102 0.155217,-0.085572 0.158154,-0.080017 0.16089,-0.074361 0.163424,-0.068612 0.165754,-0.062777 0.167874,-0.056863 0.169785,-0.050877 0.171481,-0.044827 0.172962,-0.038721 0.174226,-0.032567 0.17527,-0.026371 0.176095,-0.020142 0.176698,-0.013888 0.17708,-0.00762 0.177238,-0.00134 0.177174,0.00495 0.176888,0.011224 0.176379,0.017486 0.175648,0.023726 0.174697,0.029937 0.173526,0.03611 0.172137,0.042238 0.170532,0.048312 0.168712,0.054326 0.166681,0.060271 0.16444,0.066141 0.161993,0.071928 0.159341,0.077624 0.15649,0.083223 0.153442,0.088717 0.150201,0.0941 0.146772,0.099364 0.143157,0.104504 0.139364,0.1095123 0.135395,0.114383 0.131255,0.1191099 0.126952,0.1236872 0.122487,0.1281091 0.117871,0.1323699 0.113104,0.1364644 0.108197,0.1403874 0.103153,0.1441341 0.09798,0.1476995 0.09268,0.1510795 0.08727,0.1542695 0.08175,0.1572658 0.07612,0.1600643 0.0704,0.1626617 0.06459,0.1650548 0.0587,0.1672405 0.05274,0.1692158 0.04671,0.1709788 0.04062,0.1725267 0.03448,0.1738579 0.0031,0.017249"
             style="fill:none;stroke:#000000;stroke-width:0.25;stroke-linecap:round;stroke-linejoin:round;stroke-miterlimit:10;stroke-dasharray:none;stroke-opacity:1"
             id="path144" /><path
             d="m 17.212928,31.672931 0.141567,-0.10665 0.145257,-0.101565 0.148766,-0.09635 0.152087,-0.09102 0.155218,-0.08557 0.158153,-0.08002 0.16089,-0.07436 0.163425,-0.06861 0.165753,-0.06278 0.167875,-0.05686 0.169784,-0.05088 0.171481,-0.04483 0.172962,-0.03872 0.174226,-0.03257 0.175271,-0.02637 0.176095,-0.02014 0.176698,-0.01389 0.17708,-0.0076 0.126293,-0.0016"
             style="fill:none;stroke:#000000;stroke-width:0.25;stroke-linecap:round;stroke-linejoin:round;stroke-miterlimit:10;stroke-dasharray:none;stroke-opacity:1"
             id="path146" /><path
             d="m 38.037072,31.672931 -0.141567,-0.10665 -0.145257,-0.101565 -0.148766,-0.09635 -0.152087,-0.09102 -0.155218,-0.08557 -0.158153,-0.08002 -0.16089,-0.07436 -0.163425,-0.06861 -0.165754,-0.06278 -0.167874,-0.05686 -0.169785,-0.05088 -0.17148,-0.04483 -0.172963,-0.03872 -0.174225,-0.03257 -0.175271,-0.02637 -0.176095,-0.02014 -0.176698,-0.01389 -0.17708,-0.0076 -0.126293,-0.0016"
             style="fill:none;stroke:#000000;stroke-width:0.25;stroke-linecap:round;stroke-linejoin:round;stroke-miterlimit:10;stroke-dasharray:none;stroke-opacity:1"
             id="path148" /><path
             d="m 17.212928,3.5521424 0.141567,0.1066498 0.145257,0.1015652 0.148766,0.096353 0.152087,0.09102 0.155218,0.085572 0.158153,0.080017 0.16089,0.074361 0.163425,0.068612 0.165753,0.062777 0.167875,0.056862 0.169784,0.050877 0.171481,0.044827 0.172962,0.038721 0.174226,0.032566 0.175271,0.026371 0.176095,0.020142 0.176698,0.013888 0.17708,0.00762 0.126293,0.0016"
             style="fill:none;stroke:#000000;stroke-width:0.25;stroke-linecap:round;stroke-linejoin:round;stroke-miterlimit:10;stroke-dasharray:none;stroke-opacity:1"
             id="path150" /><path
             d="m 38.037072,3.5521424 -0.141567,0.1066498 -0.145257,0.1015652 -0.148766,0.096353 -0.152087,0.09102 -0.155218,0.085572 -0.158153,0.080017 -0.16089,0.074361 -0.163425,0.068612 -0.165754,0.062777 -0.167874,0.056862 -0.169785,0.050877 -0.17148,0.044827 -0.172963,0.038721 -0.174225,0.032566 -0.175271,0.026371 -0.176095,0.020142 -0.176698,0.013888 -0.17708,0.00762 -0.126293,0.0016"
             style="fill:none;stroke:#000000;stroke-width:0.25;stroke-linecap:round;stroke-linejoin:round;stroke-miterlimit:10;stroke-dasharray:none;stroke-opacity:1"
             id="path152" /><path
             d="M 45.311451,32.733326 H 44.395 m -0.39,0 h -1.56 m -0.39,0 h -1.56 m -0.39,0 h -1.56 m -0.39,0 h -1.56 m -0.39,0 h -1.56 m -0.39,0 h -1.56 m -0.39,0 h -1.56 m -0.39,0 h -1.56 m -0.39,0 h -1.56 m -0.39,0 h -1.56 m -0.39,0 h -1.56 m -0.39,0 h -1.56 m -0.39,0 h -1.56 m -0.39,0 h -1.56 m -0.39,0 h -1.56 m -0.39,0 h -1.56 m -0.39,0 h -1.56 m -0.39,0 H 9.9385491"
             style="fill:none;stroke:#000000;stroke-width:0.13;stroke-linecap:round;stroke-linejoin:round;stroke-miterlimit:10;stroke-dasharray:none;stroke-opacity:1"
             id="path154" /><path
             d="M 9.9385491,32.733326 9.7774472,31.819671 M 9.7097242,31.435596 9.438833,29.899296 M 9.3711104,29.515221 9.2100085,28.601567"
             style="fill:none;stroke:#000000;stroke-width:0.13;stroke-linecap:round;stroke-linejoin:round;stroke-miterlimit:10;stroke-dasharray:none;stroke-opacity:1"
             id="path156" /><path
             d="M 7.9164162,21.26524 7.8045695,20.630926 M 7.7368467,20.246851 7.625,19.612537"
             style="fill:none;stroke:#000000;stroke-width:0.13;stroke-linecap:round;stroke-linejoin:round;stroke-miterlimit:10;stroke-dasharray:none;stroke-opacity:1"
             id="path158" /><path
             d="m 46.039991,28.601567 -0.161102,0.913654 m -0.06772,0.384075 -0.270891,1.5363 m -0.06772,0.384075 -0.161102,0.913655"
             style="fill:none;stroke:#000000;stroke-width:0.13;stroke-linecap:round;stroke-linejoin:round;stroke-miterlimit:10;stroke-dasharray:none;stroke-opacity:1"
             id="path160" /><path
             d="m 47.625,19.612537 -0.111847,0.634314 m -0.06772,0.384075 -0.111846,0.634314"
             style="fill:none;stroke:#000000;stroke-width:0.13;stroke-linecap:round;stroke-linejoin:round;stroke-miterlimit:10;stroke-dasharray:none;stroke-opacity:1"
             id="path162" /></g><g
           id="g164"
           transform="matrix(1.1695606,0.40655674,-0.40549755,1.1726156,598.29047,1235.0748)"><g
             id="g166"><text
               transform="translate(0,143)"
               style="font-variant:normal;font-weight:normal;font-size:133px;font-family:'Noto Sans';-inkscape-font-specification:NotoSans-Regular;writing-mode:lr-tb;fill:#008000;fill-opacity:1;fill-rule:nonzero;stroke:none"
               id="text170"><tspan
                 x="0"
                 y="0"
                 id="tspan168">r</tspan></text></g></g><g
           id="g172"
           transform="matrix(47.216667,0,0,-47.34,0,2367)" /><g
           id="g174"
           transform="matrix(0.46782424,0.1626227,-0.16219902,0.46904623,627.73324,1358.0141)"><g
             id="g176"><text
               transform="translate(0,143)"
               style="font-variant:normal;font-weight:normal;font-size:133px;font-family:'Noto Sans';-inkscape-font-specification:NotoSans-Regular;writing-mode:lr-tb;fill:#008000;fill-opacity:1;fill-rule:nonzero;stroke:none"
               id="text180"><tspan
                 x="0"
                 y="0"
                 id="tspan178">1</tspan></text></g></g><g
           id="g182"
           transform="matrix(47.216667,0,0,-47.34,0,2367)"><path
             d="M 5.9468007,21.612537 14.388831,18.685606"
             style="fill:none;stroke:#008000;stroke-width:0.13;stroke-linecap:round;stroke-linejoin:round;stroke-miterlimit:10;stroke-dasharray:none;stroke-opacity:1"
             id="path184" /></g><g
           id="g186"><path
             d="m 370.01096,1374.8777 117.96733,20.1494 -12.87752,37.2392 z"
             style="fill:#008000;fill-opacity:1;fill-rule:evenodd;stroke:none"
             id="path188" /></g><g
           id="g190"
           transform="matrix(47.216667,0,0,-47.34,0,2367)"><path
             d="M 7.8364482,20.957378 10.334874,20.531746 10.062141,19.745115 Z"
             style="fill:#008000;fill-opacity:1;fill-rule:evenodd;stroke:#008000;stroke-width:0.13;stroke-linecap:round;stroke-linejoin:round;stroke-miterlimit:10;stroke-dasharray:none;stroke-opacity:1"
             id="path192" /></g><g
           id="g194"
           transform="matrix(0.24864872,1.2157985,-1.212631,0.2492982,764.73753,499.39321)"><g
             id="g196"><text
               transform="translate(0,143)"
               style="font-variant:normal;font-weight:normal;font-size:133px;font-family:'Noto Sans';-inkscape-font-specification:NotoSans-Regular;writing-mode:lr-tb;fill:#008000;fill-opacity:1;fill-rule:nonzero;stroke:none"
               id="text200"><tspan
                 x="0"
                 y="0"
                 id="tspan198">r</tspan></text></g></g><g
           id="g202"
           transform="matrix(47.216667,0,0,-47.34,0,2367)" /><g
           id="g204"
           transform="matrix(0.09945949,0.48631941,-0.48505242,0.09971928,674.35003,587.55693)"><g
             id="g206"><text
               transform="translate(0,143)"
               style="font-variant:normal;font-weight:normal;font-size:133px;font-family:'Noto Sans';-inkscape-font-specification:NotoSans-Regular;writing-mode:lr-tb;fill:#008000;fill-opacity:1;fill-rule:nonzero;stroke:none"
               id="text210"><tspan
                 x="0"
                 y="0"
                 id="tspan208">2</tspan></text></g></g><g
           id="g212"
           transform="matrix(47.216667,0,0,-47.34,0,2367)"><path
             d="M 14.134047,27.733326 11.690452,39.65046"
             style="fill:none;stroke:#008000;stroke-width:0.13;stroke-linecap:round;stroke-linejoin:round;stroke-miterlimit:10;stroke-dasharray:none;stroke-opacity:1"
             id="path214" /></g><g
           id="g216"><path
             d="m 619.94063,822.22878 -42.96594,-111.97927 38.5099,-7.91704 z"
             style="fill:#008000;fill-opacity:1;fill-rule:evenodd;stroke:none"
             id="path218" /></g><g
           id="g220"
           transform="matrix(47.216667,0,0,-47.34,0,2367)"><path
             d="m 13.129699,32.631416 -0.909974,2.365426 0.8156,0.167238 0.09437,-2.532664 z"
             style="fill:#008000;fill-opacity:1;fill-rule:evenodd;stroke:#008000;stroke-width:0.13;stroke-linecap:round;stroke-linejoin:round;stroke-miterlimit:10;stroke-dasharray:none;stroke-opacity:1"
             id="path222" /></g><g
           id="g224"
           transform="matrix(0.33133228,-1.1958095,1.1926941,0.33219774,618.7222,1132.3973)"><g
             id="g226"><text
               transform="translate(0,143)"
               style="font-variant:normal;font-weight:normal;font-size:133px;font-family:'Noto Sans';-inkscape-font-specification:NotoSans-Regular;writing-mode:lr-tb;fill:#008000;fill-opacity:1;fill-rule:nonzero;stroke:none"
               id="text230"><tspan
                 x="0"
                 y="0"
                 id="tspan228">r</tspan></text></g></g><g
           id="g232"
           transform="matrix(47.216667,0,0,-47.34,0,2367)" /><g
           id="g234"
           transform="matrix(0.13253291,-0.47832379,0.47707763,0.1328791,739.25275,1095.2238)"><g
             id="g236"><text
               transform="translate(0,143)"
               style="font-variant:normal;font-weight:normal;font-size:133px;font-family:'Noto Sans';-inkscape-font-specification:NotoSans-Regular;writing-mode:lr-tb;fill:#008000;fill-opacity:1;fill-rule:nonzero;stroke:none"
               id="text240"><tspan
                 x="0"
                 y="0"
                 id="tspan238">4</tspan></text></g></g><g
           id="g242"
           transform="matrix(47.216667,0,0,-47.34,0,2367)"><path
             d="M 20.291809,35.612537 17.023711,23.848392"
             style="fill:none;stroke:#008000;stroke-width:0.13;stroke-linecap:round;stroke-linejoin:round;stroke-miterlimit:10;stroke-dasharray:none;stroke-opacity:1"
             id="path244" /></g><g
           id="g246"><path
             d="M 894.92032,909.16579 882.26306,1028.4723 844.3863,1017.9226 Z"
             style="fill:#008000;fill-opacity:1;fill-rule:evenodd;stroke:none"
             id="path248" /></g><g
           id="g250"
           transform="matrix(47.216667,0,0,-47.34,0,2367)"><path
             d="m 18.953484,30.794977 -0.268068,-2.520205 -0.802191,0.22285 z"
             style="fill:#008000;fill-opacity:1;fill-rule:evenodd;stroke:#008000;stroke-width:0.13;stroke-linecap:round;stroke-linejoin:round;stroke-miterlimit:10;stroke-dasharray:none;stroke-opacity:1"
             id="path252" /></g><g
           id="g254"
           transform="matrix(0,-1.2410945,1.2378612,0,2328.1867,1176.347)"><g
             id="g256"><text
               transform="translate(0,143)"
               style="font-variant:normal;font-weight:normal;font-size:133px;font-family:'Noto Sans';-inkscape-font-specification:NotoSans-Regular;writing-mode:lr-tb;fill:#008000;fill-opacity:1;fill-rule:nonzero;stroke:none"
               id="text260"><tspan
                 x="0"
                 y="0"
                 id="tspan258">d</tspan></text></g></g><g
           id="g262"
           transform="matrix(47.216667,0,0,-47.34,0,2367)"><path
             d="M 53.625,32.733326 V 19.612537"
             style="fill:none;stroke:#008000;stroke-width:0.13;stroke-linecap:round;stroke-linejoin:round;stroke-miterlimit:10;stroke-dasharray:none;stroke-opacity:1"
             id="path264" /></g><g
           id="g266"><path
             d="m 2531.9938,817.40435 19.6555,118.35 h -39.3111 z"
             style="fill:#008000;fill-opacity:1;fill-rule:evenodd;stroke:none"
             id="path268" /></g><g
           id="g270"
           transform="matrix(47.216667,0,0,-47.34,0,2367)"><path
             d="m 53.625,32.733326 0.416285,-2.5 h -0.83257 z"
             style="fill:#008000;fill-opacity:1;fill-rule:evenodd;stroke:#008000;stroke-width:0.13;stroke-linecap:round;stroke-linejoin:round;stroke-miterlimit:10;stroke-dasharray:none;stroke-opacity:1"
             id="path272" /></g><g
           id="g274"><path
             d="m 2531.9938,1438.5425 -19.6556,-118.35 h 39.3111 z"
             style="fill:#008000;fill-opacity:1;fill-rule:evenodd;stroke:none"
             id="path276" /></g><g
           id="g278"
           transform="matrix(47.216667,0,0,-47.34,0,2367)"><path
             d="m 53.625,19.612537 -0.416285,2.5 h 0.83257 z"
             style="fill:#008000;fill-opacity:1;fill-rule:evenodd;stroke:#008000;stroke-width:0.13;stroke-linecap:round;stroke-linejoin:round;stroke-miterlimit:10;stroke-dasharray:none;stroke-opacity:1"
             id="path280" /><path
             d="M 45.936451,32.733326 H 54.875"
             style="fill:none;stroke:#008000;stroke-width:0.13;stroke-linecap:round;stroke-linejoin:round;stroke-miterlimit:10;stroke-dasharray:none;stroke-opacity:1"
             id="path282" /><path
             d="m 50.75,19.612537 h 4.125"
             style="fill:none;stroke:#008000;stroke-width:0.13;stroke-linecap:round;stroke-linejoin:round;stroke-miterlimit:10;stroke-dasharray:none;stroke-opacity:1"
             id="path284" /></g><g
           id="g286"
           transform="matrix(1.2378612,0,0,1.2410945,1211.4241,47.978485)"><g
             id="g288"><text
               transform="translate(0,143)"
               style="font-variant:normal;font-weight:normal;font-size:133px;font-family:'Noto Sans';-inkscape-font-specification:NotoSans-Regular;writing-mode:lr-tb;fill:#800000;fill-opacity:1;fill-rule:nonzero;stroke:none"
               id="text292"><tspan
                 x="0"
                 y="0"
                 id="tspan290">b</tspan></text></g></g><g
           id="g294"
           transform="matrix(47.216667,0,0,-47.34,0,2367)" /><g
           id="g296"
           transform="matrix(0.49514446,0,0,0.49643782,1312.658,154.4644)"><g
             id="g298"><text
               transform="translate(0,143)"
               style="font-variant:normal;font-weight:normal;font-size:133px;font-family:'Noto Sans';-inkscape-font-specification:NotoSans-Regular;writing-mode:lr-tb;fill:#800000;fill-opacity:1;fill-rule:nonzero;stroke:none"
               id="text302"><tspan
                 x="0 71.015625"
                 y="0"
                 sodipodi:role="line"
                 id="tspan300">kn</tspan></text></g></g><g
           id="g304"
           transform="matrix(47.216667,0,0,-47.34,0,2367)"><path
             d="m 7.625,44.612537 h 40"
             style="fill:none;stroke:#800000;stroke-width:0.13;stroke-linecap:round;stroke-linejoin:round;stroke-miterlimit:10;stroke-dasharray:none;stroke-opacity:1"
             id="path306" /></g><g
           id="g308"><path
             d="m 360.02708,255.0425 118.04167,-19.70691 v 39.41383 z"
             style="fill:#800000;fill-opacity:1;fill-rule:evenodd;stroke:none"
             id="path310" /></g><g
           id="g312"
           transform="matrix(47.216667,0,0,-47.34,0,2367)"><path
             d="m 7.625,44.612537 2.5,0.416284 v -0.832569 z"
             style="fill:#800000;fill-opacity:1;fill-rule:evenodd;stroke:#800000;stroke-width:0.13;stroke-linecap:round;stroke-linejoin:round;stroke-miterlimit:10;stroke-dasharray:none;stroke-opacity:1"
             id="path314" /></g><g
           id="g316"><path
             d="m 2248.6937,255.0425 -118.0416,19.70692 v -39.41383 z"
             style="fill:#800000;fill-opacity:1;fill-rule:evenodd;stroke:none"
             id="path318" /></g><g
           id="g320"
           transform="matrix(47.216667,0,0,-47.34,0,2367)"><path
             d="m 47.625,44.612537 -2.5,-0.416285 v 0.832569 z"
             style="fill:#800000;fill-opacity:1;fill-rule:evenodd;stroke:#800000;stroke-width:0.13;stroke-linecap:round;stroke-linejoin:round;stroke-miterlimit:10;stroke-dasharray:none;stroke-opacity:1"
             id="path322" /><path
             d="m 7.625,20.237537 v 25.625"
             style="fill:none;stroke:#800000;stroke-width:0.13;stroke-linecap:round;stroke-linejoin:round;stroke-miterlimit:10;stroke-dasharray:none;stroke-opacity:1"
             id="path324" /><path
             d="m 47.625,20.237537 v 25.625"
             style="fill:none;stroke:#800000;stroke-width:0.13;stroke-linecap:round;stroke-linejoin:round;stroke-miterlimit:10;stroke-dasharray:none;stroke-opacity:1"
             id="path326" /></g><g
           id="g328"
           transform="matrix(1.2378612,0,0,1.2410945,1229.2338,237.33848)"><g
             id="g330"><text
               transform="translate(0,143)"
               style="font-variant:normal;font-weight:normal;font-size:133px;font-family:'Noto Sans';-inkscape-font-specification:NotoSans-Regular;writing-mode:lr-tb;fill:#800000;fill-opacity:1;fill-rule:nonzero;stroke:none"
               id="text334"><tspan
                 x="0"
                 y="0"
                 id="tspan332">b</tspan></text></g></g><g
           id="g336"
           transform="matrix(47.216667,0,0,-47.34,0,2367)" /><g
           id="g338"
           transform="matrix(0.49514446,0,0,0.49643782,1330.4677,343.8244)"><g
             id="g340"><text
               transform="translate(0,143)"
               style="font-variant:normal;font-weight:normal;font-size:133px;font-family:'Noto Sans';-inkscape-font-specification:NotoSans-Regular;writing-mode:lr-tb;fill:#800000;fill-opacity:1;fill-rule:nonzero;stroke:none"
               id="text344"><tspan
                 x="0"
                 y="0"
                 id="tspan342">d</tspan></text></g></g><g
           id="g346"
           transform="matrix(47.216667,0,0,-47.34,0,2367)"><path
             d="M 9.9385491,40.612537 H 45.311451"
             style="fill:none;stroke:#800000;stroke-width:0.13;stroke-linecap:round;stroke-linejoin:round;stroke-miterlimit:10;stroke-dasharray:none;stroke-opacity:1"
             id="path348" /></g><g
           id="g350"><path
             d="m 469.26516,444.4025 118.04167,-19.70691 v 39.41383 z"
             style="fill:#800000;fill-opacity:1;fill-rule:evenodd;stroke:none"
             id="path352" /></g><g
           id="g354"
           transform="matrix(47.216667,0,0,-47.34,0,2367)"><path
             d="m 9.9385491,40.612537 2.4999999,0.416284 v -0.832569 z"
             style="fill:#800000;fill-opacity:1;fill-rule:evenodd;stroke:#800000;stroke-width:0.13;stroke-linecap:round;stroke-linejoin:round;stroke-miterlimit:10;stroke-dasharray:none;stroke-opacity:1"
             id="path356" /></g><g
           id="g358"><path
             d="M 2139.4557,444.4025 2021.414,464.10942 V 424.69559 Z"
             style="fill:#800000;fill-opacity:1;fill-rule:evenodd;stroke:none"
             id="path360" /></g><g
           id="g362"
           transform="matrix(47.216667,0,0,-47.34,0,2367)"><path
             d="m 45.311451,40.612537 -2.5,-0.416285 v 0.832569 z"
             style="fill:#800000;fill-opacity:1;fill-rule:evenodd;stroke:#800000;stroke-width:0.13;stroke-linecap:round;stroke-linejoin:round;stroke-miterlimit:10;stroke-dasharray:none;stroke-opacity:1"
             id="path364" /><path
             d="m 9.9385491,33.358326 v 8.504211"
             style="fill:none;stroke:#800000;stroke-width:0.13;stroke-linecap:round;stroke-linejoin:round;stroke-miterlimit:10;stroke-dasharray:none;stroke-opacity:1"
             id="path366" /><path
             d="m 45.311451,33.358326 v 8.504211"
             style="fill:none;stroke:#800000;stroke-width:0.13;stroke-linecap:round;stroke-linejoin:round;stroke-miterlimit:10;stroke-dasharray:none;stroke-opacity:1"
             id="path368" /></g></g></g></g></svg>
