<?xml version="1.0" encoding="UTF-8" standalone="no"?>
<!-- Created with Inkscape (http://www.inkscape.org/) -->

<svg
   version="1.1"
   id="svg2"
   xml:space="preserve"
   width="245.33333"
   height="189.33333"
   viewBox="0 0 245.33333 189.33333"
   sodipodi:docname="false_round.svg"
   inkscape:version="1.1.2 (0a00cf5339, 2022-02-04)"
   xmlns:inkscape="http://www.inkscape.org/namespaces/inkscape"
   xmlns:sodipodi="http://sodipodi.sourceforge.net/DTD/sodipodi-0.dtd"
   xmlns="http://www.w3.org/2000/svg"
   xmlns:svg="http://www.w3.org/2000/svg"><defs
     id="defs6" /><sodipodi:namedview
     id="namedview4"
     pagecolor="#ffffff"
     bordercolor="#666666"
     borderopacity="1.0"
     inkscape:pageshadow="2"
     inkscape:pageopacity="0.0"
     inkscape:pagecheckerboard="0"
     showgrid="false"
     inkscape:zoom="3.3274649"
     inkscape:cx="59.50476"
     inkscape:cy="94.666664"
     inkscape:window-width="1920"
     inkscape:window-height="1007"
     inkscape:window-x="0"
     inkscape:window-y="0"
     inkscape:window-maximized="1"
     inkscape:current-layer="g8" /><g
     id="g8"
     inkscape:groupmode="layer"
     inkscape:label="false_round"
     transform="matrix(1.3333333,0,0,-1.3333333,0,189.33333)"><g
       id="g10"
       transform="matrix(0.06,0,0,-0.06,0,142)"><g
         id="g12"><g
           id="g14" /></g><g
         id="g16"><g
           id="g18" /><g
           id="g20"
           transform="matrix(47.184615,0,0,-47.34,0,2367)"><path
             d="m 11.827542,25 h 1.05 m 0.38,0 h 0.02 m 0.38,0 h 1.56 m 0.38,0 h 0.02 m 0.38,0 h 1.56 m 0.38,0 h 0.02 m 0.38,0 h 1.56 m 0.38,0 h 0.02 m 0.38,0 h 1.56 m 0.38,0 h 0.02 m 0.38,0 h 1.56 m 0.38,0 h 0.02 m 0.38,0 h 1.56 m 0.38,0 h 0.02 m 0.38,0 h 1.56 m 0.38,0 h 0.02 m 0.38,0 h 1.56 m 0.38,0 h 0.02 m 0.38,0 h 1.56 m 0.38,0 h 0.02 m 0.38,0 h 1.56 m 0.38,0 h 0.02 m 0.38,0 h 1.56 m 0.38,0 h 0.02 m 0.38,0 h 1.56 m 0.38,0 h 0.02 m 0.38,0 h 1.56 m 0.38,0 h 0.02 m 0.38,0 h 1.56 m 0.38,0 h 0.02 m 0.38,0 h 1.56 m 0.38,0 h 0.02 m 0.38,0 h 1.56 m 0.38,0 h 0.02 m 0.38,0 h 1.56 m 0.38,0 h 0.02 m 0.38,0 h 1.56 m 0.38,0 h 0.02 m 0.38,0 h 1.05"
             style="fill:none;stroke:#000000;stroke-width:0.13;stroke-linecap:round;stroke-linejoin:round;stroke-miterlimit:10;stroke-dasharray:none;stroke-opacity:1"
             id="path22" /><path
             d="m 34.327542,2.5 v 1.05 m 0,0.38 v 0.02 m 0,0.38 v 1.56 m 0,0.38 v 0.02 m 0,0.38 v 1.56 m 0,0.38 v 0.02 m 0,0.38 v 1.56 m 0,0.38 v 0.02 m 0,0.38 v 1.56 m 0,0.38 v 0.02 m 0,0.38 v 1.56 m 0,0.38 v 0.02 m 0,0.38 v 1.56 m 0,0.38 v 0.02 m 0,0.38 v 1.56 m 0,0.38 v 0.02 m 0,0.38 v 1.56 m 0,0.38 v 0.02 m 0,0.38 v 1.56 m 0,0.38 v 0.02 m 0,0.38 v 1.56 m 0,0.38 v 0.02 m 0,0.38 v 1.56 m 0,0.38 v 0.02 m 0,0.38 v 1.56 m 0,0.38 v 0.02 m 0,0.38 v 1.56 m 0,0.38 v 0.02 m 0,0.38 v 1.56 m 0,0.38 v 0.02 m 0,0.38 v 1.56 m 0,0.38 v 0.02 m 0,0.38 v 1.56 m 0,0.38 v 0.02 m 0,0.38 v 1.56 m 0,0.38 v 0.02 m 0,0.38 v 1.56 m 0,0.38 v 0.02 m 0,0.38 v 1.05"
             style="fill:none;stroke:#000000;stroke-width:0.13;stroke-linecap:round;stroke-linejoin:round;stroke-miterlimit:10;stroke-dasharray:none;stroke-opacity:1"
             id="path24" /><path
             d="m 16.327542,16.282202 0.07797,-0.159183 0.07938,-0.158485 0.08078,-0.157776 0.08217,-0.157054 0.08356,-0.15632 0.08494,-0.155572 0.08632,-0.154814 0.08769,-0.154043 0.08905,-0.153259 0.0904,-0.152465 0.09175,-0.151657 0.09309,-0.150838 0.09443,-0.150007 0.09575,-0.149164 0.09707,-0.14831 0.09838,-0.147443 0.09968,-0.146567 0.100978,-0.145677 0.102265,-0.144776 0.103544,-0.143864 0.104815,-0.142941 0.106077,-0.142006 0.107332,-0.141061 0.108578,-0.140104 0.109816,-0.139136 0.111044,-0.138157 0.112264,-0.137168 0.113476,-0.136168 0.114677,-0.135156 0.115871,-0.134135 0.117056,-0.133103 0.11823,-0.13206 0.119396,-0.131007 0.120553,-0.129944 0.121699,-0.12887 0.122837,-0.127786 0.123964,-0.126693 0.125082,-0.12559 0.126191,-0.124476 0.127288,-0.123352 0.128377,-0.12222 0.129455,-0.121077 0.130523,-0.119925 0.131581,-0.118764 0.132628,-0.1175927 0.133665,-0.1164128 0.134692,-0.1152236 0.135707,-0.1140253 0.136712,-0.1128182 0.137707,-0.1116022 0.138691,-0.1103773 0.139664,-0.1091439 0.140625,-0.1079018 0.141576,-0.1066512 0.142516,-0.1053924 0.143444,-0.1041252 0.144361,-0.1028498 0.145267,-0.1015663 0.146162,-0.100275 0.147044,-0.098976 0.147916,-0.097669 0.148776,-0.096354 0.149624,-0.095031 0.15046,-0.093702 0.151285,-0.092365 0.152097,-0.09102 0.152898,-0.089669 0.153687,-0.08831 0.154463,-0.086945 0.155228,-0.085572 0.15598,-0.084193 0.15672,-0.082808 0.157448,-0.081415 0.158163,-0.080017 0.158866,-0.078612 0.159557,-0.077201 0.160234,-0.075784 0.1609,-0.074361 0.161553,-0.072932 0.162192,-0.071497 0.16282,-0.070057 0.163435,-0.068611 0.164036,-0.06716 0.164624,-0.065704 0.165201,-0.064242 0.165763,-0.062775 0.166314,-0.061304 0.16685,-0.059827 0.167374,-0.058346 0.167884,-0.056861 0.168381,-0.055371 0.168866,-0.053876 0.169337,-0.052378 0.169794,-0.050875 0.170238,-0.049368 0.170669,-0.047857 0.171087,-0.046343 0.17149,-0.044825 0.171881,-0.043303 0.172258,-0.041778 0.172622,-0.04025 0.172972,-0.038718 0.173308,-0.037184 0.17363,-0.035647 0.17394,-0.034106 0.174235,-0.032564 0.174517,-0.031018 0.174785,-0.02947 0.175039,-0.02792 0.17528,-0.026368 0.175507,-0.024813 0.175719,-0.023257 0.175919,-0.021698 0.176105,-0.020139 0.176275,-0.018577 0.176434,-0.017014 0.176577,-0.01545 0.176708,-0.013884 0.176823,-0.012317 0.176926,-0.01075 0.177014,-0.00918 0.177088,-0.00761 0.17715,-0.00604 0.177195,-0.00447 0.177228,-0.0029 0.177247,-0.00133 0.177252,2.399e-4 0.177243,0.00181 0.17722,0.00338 0.177182,0.00495 0.177132,0.00652 0.177068,0.00809 0.176988,0.00966 0.176896,0.011229 0.17679,0.012796 0.176669,0.014362 0.176535,0.015928 0.176387,0.017491 0.176225,0.019054 0.176049,0.020615 0.175859,0.022175 0.175656,0.023732 0.175439,0.025288 0.175208,0.026842 0.174963,0.028393 0.174705,0.029943 0.174432,0.03149 0.174146,0.033035 0.173847,0.034577 0.173534,0.036116 0.173206,0.037653 0.172867,0.039186 0.172512,0.040717 0.172144,0.042244 0.171763,0.043768 0.171369,0.045289 0.17096,0.046806 0.170539,0.048319 0.170105,0.049828 0.169655,0.051334 0.169195,0.052836 0.168719,0.054333 0.168231,0.055826 0.16773,0.057315 0.167215,0.058799 0.166688,0.060279 0.166146,0.061754 0.165593,0.063224 0.165026,0.064689 0.164447,0.066149 0.163853,0.067604 0.163249,0.069053 0.162629,0.070497 0.161999,0.071936 0.161354,0.073369 0.160698,0.074796 0.160029,0.076217 0.159347,0.077632 0.158653,0.079041 0.157946,0.080444 0.157227,0.081841 0.156496,0.083231 0.155751,0.084615 0.154996,0.085992 0.154227,0.087362 0.153447,0.088726 0.152655,0.090082 0.151851,0.091431 0.151034,0.092774 0.150206,0.094109 0.149366,0.095436 0.148514,0.096756 0.147652,0.098069 0.146776,0.099373 0.145889,0.1006701 0.144992,0.1019591 0.144083,0.1032401 0.143162,0.1045129 0.142229,0.1057777 0.141287,0.107034 0.140333,0.1082819 0.139368,0.1095214 0.138391,0.1107523 0.137405,0.1119744 0.136407,0.1131877 0.135398,0.1143923 0.134379,0.1155876 0.13335,0.1167743 0.132309,0.117951 0.131259,0.11912 0.130198,0.120278 0.129127,0.121427 0.128045,0.122566 0.126955,0.123697 0.125853,0.124817 0.124742,0.125927 0.123621,0.127028 0.12249,0.128119 0.12135,0.129199 0.120201,0.130269 0.119041,0.13133 0.117872,0.13238 0.116695,0.133419 0.115508,0.134448 0.114311,0.135466 0.113107,0.136474 0.111892,0.137471 0.11067,0.138458 0.109439,0.139432 0.108198,0.140398 0.10695,0.14135 0.105693,0.142293 0.104428,0.143224 0.103154,0.144144 0.101873,0.145052 0.100583,0.14595 0.09929,0.146835 0.09798,0.14771 0.09667,0.148572 0.09535,0.149423 0.09402,0.150262 0.09268,0.151089 0.09134,0.151905 0.08999,0.152708 0.08863,0.1535 0.08727,0.154279 0.0859,0.155047 0.08452,0.155802 0.08314,0.156545 0.08175,0.157276 0.08035,0.157994 0.07895,0.1587 0.05401,0.11065"
             style="fill:none;stroke:#000000;stroke-width:0.25;stroke-linecap:round;stroke-linejoin:round;stroke-miterlimit:10;stroke-dasharray:none;stroke-opacity:1"
             id="path26" /><path
             d="m 52.327542,33.717798 -0.07797,0.159183 -0.07938,0.158485 -0.08078,0.157776 -0.08217,0.157054 -0.08356,0.15632 -0.08494,0.155572 -0.08632,0.154814 -0.08769,0.154043 -0.08905,0.153259 -0.0904,0.152465 -0.09175,0.151657 -0.09309,0.150837 -0.09443,0.150008 -0.09575,0.149164 -0.09707,0.14831 -0.09838,0.147443 -0.09968,0.146566 -0.100978,0.145677 -0.102265,0.144777 -0.103544,0.143864 -0.104815,0.142941 -0.106078,0.142006 -0.107332,0.141061 -0.108578,0.140104 -0.109815,0.139136 -0.111044,0.138157 -0.112264,0.137168 -0.113476,0.136167 -0.114678,0.135157 -0.115871,0.134135 -0.117055,0.133103 -0.11823,0.13206 -0.119397,0.131007 -0.120552,0.129943 -0.121699,0.128871 -0.122837,0.127786 -0.123964,0.126693 -0.125083,0.12559 -0.12619,0.124476 -0.127289,0.123352 -0.128377,0.12222 -0.129455,0.121077 -0.130523,0.119925 -0.13158,0.118764 -0.132628,0.117593 -0.133665,0.116412 -0.134692,0.115224 -0.135707,0.114025 -0.136713,0.112819 -0.137707,0.111602 -0.138691,0.110377 -0.139663,0.109144 -0.140625,0.107902 -0.141576,0.106651 -0.142516,0.105392 -0.143444,0.104125 -0.144362,0.10285 -0.145267,0.101567 -0.146161,0.100275 -0.147045,0.09897 -0.147916,0.09767 -0.148775,0.09635 -0.149624,0.09503 -0.150461,0.0937 -0.151284,0.09236 -0.152098,0.09102 -0.152898,0.08967 -0.153686,0.08831 -0.154463,0.08695 -0.155228,0.08557 -0.15598,0.08419 -0.15672,0.08281 -0.157448,0.08141 -0.158163,0.08002 -0.158867,0.07861 -0.159556,0.0772 -0.160235,0.07578 -0.1609,0.07436 -0.161552,0.07293 -0.162193,0.0715 -0.16282,0.07006 -0.163434,0.06861 -0.164036,0.06716 -0.164625,0.0657 -0.1652,0.06424 -0.165764,0.06277 -0.166313,0.0613 -0.16685,0.05983 -0.167374,0.05835 -0.167884,0.05686 -0.168382,0.05537 -0.168865,0.05388 -0.169337,0.05238 -0.169794,0.05087 -0.170238,0.04937 -0.17067,0.04786 -0.171086,0.04634 -0.171491,0.04482 -0.171881,0.0433 -0.172258,0.04178 -0.172622,0.04025 -0.172971,0.03872 -0.173308,0.03718 -0.173631,0.03565 -0.173939,0.03411 -0.174236,0.03256 -0.174516,0.03102 -0.174785,0.02947 -0.17504,0.02792 -0.17528,0.02637 -0.175506,0.02481 -0.17572,0.02326 -0.175919,0.0217 -0.176104,0.02014 -0.176276,0.01858 -0.176433,0.01701 -0.176578,0.01545 -0.176707,0.01389 -0.176824,0.01232 -0.176925,0.01075 -0.177014,0.0092 -0.177089,0.0076 -0.177149,0.006 -0.177195,0.0045 -0.177229,0.0029 -0.177247,0.0013 L 34.327542,45"
             style="fill:none;stroke:#000000;stroke-width:0.25;stroke-linecap:round;stroke-linejoin:round;stroke-miterlimit:10;stroke-dasharray:none;stroke-opacity:1"
             id="path28" /><path
             d="m 34.327542,45 -0.17725,-7.86e-4 -0.177237,-0.0024 -0.177208,-0.0039 -0.177167,-0.0055 -0.177111,-0.0071 -0.177042,-0.0086 -0.176958,-0.0102 -0.17686,-0.01177 -0.176749,-0.01334 -0.176625,-0.01491 -0.176485,-0.01647 -0.176332,-0.01803 -0.176165,-0.0196 -0.175985,-0.02116 -0.175791,-0.02272 -0.175582,-0.02427 -0.17536,-0.02583 -0.175124,-0.02738 -0.174875,-0.02893 -0.174612,-0.03048 -0.174334,-0.03203 -0.174044,-0.03357 -0.17374,-0.03511 -0.173421,-0.03665 -0.17309,-0.03819 -0.172745,-0.03972 -0.172386,-0.04125 -0.172013,-0.04277 -0.171628,-0.0443 -0.171229,-0.04582 -0.170815,-0.04733 -0.17039,-0.04884 -0.16995,-0.05035 -0.169497,-0.05186 -0.16903,-0.05336 -0.168551,-0.05485 -0.168059,-0.05634 -0.167553,-0.05783 -0.167033,-0.05931 -0.166501,-0.06079 -0.165956,-0.06226 -0.165398,-0.06373 -0.164826,-0.0652 -0.164242,-0.06666 -0.163645,-0.06811 -0.163034,-0.06956 -0.162412,-0.071 -0.161777,-0.07243 -0.161128,-0.07386 -0.160467,-0.07529 -0.159793,-0.07671 -0.159107,-0.07812 -0.158409,-0.07953 -0.157698,-0.08093 -0.156974,-0.08233 -0.156239,-0.08371 -0.15549,-0.08509 -0.15473,-0.08647 -0.153958,-0.08784 -0.153173,-0.0892 -0.152377,-0.09055 -0.151569,-0.0919 -0.150747,-0.09324 -0.149916,-0.09457 -0.149072,-0.0959 -0.148216,-0.09721 -0.147348,-0.09852 -0.14647,-0.09982 -0.145579,-0.101119 -0.144677,-0.102405 -0.143764,-0.103683 -0.142839,-0.104953 -0.141904,-0.106215 -0.140957,-0.107469 -0.139999,-0.108713 -0.139029,-0.10995 -0.13805,-0.111178 -0.13706,-0.112397 -0.136057,-0.113607 -0.135046,-0.114808 -0.134022,-0.116001 -0.13299,-0.117184 -0.131946,-0.118358 -0.130891,-0.119523 -0.129827,-0.120678 -0.128753,-0.121824 -0.127667,-0.12296 L 20.263214,39.219517 20.137745,39.094314 20.013391,38.968003 19.890162,38.840595 19.768067,38.7121 19.647115,38.582528 19.527316,38.451889 19.40868,38.320193 19.291215,38.187452 19.174932,38.053674 19.059839,37.918871 18.945944,37.783054 18.833259,37.646232 18.72179,37.508417 18.611546,37.36962 l -0.109008,-0.139769 -0.107766,-0.14073 -0.106514,-0.141679 -0.105255,-0.142618 -0.103986,-0.143545 -0.10271,-0.14446 -0.101426,-0.145366 -0.100134,-0.146258 -0.09883,-0.14714 -0.09752,-0.148011 -0.09621,-0.148868 -0.09489,-0.149716 -0.09356,-0.150551 -0.09222,-0.151374 -0.09087,-0.152185 -0.08952,-0.152985 -0.08816,-0.153772 -0.08679,-0.154547 -0.08542,-0.155311 -0.08404,-0.156061 -0.08266,-0.1568 -0.08126,-0.157527 -0.07986,-0.15824 -0.07846,-0.158942 -0.02692,-0.05537"
             style="fill:none;stroke:#000000;stroke-width:0.25;stroke-linecap:round;stroke-linejoin:round;stroke-miterlimit:10;stroke-dasharray:none;stroke-opacity:1"
             id="path30" /><path
             d="M 9.8275419,27 H 11.820386"
             style="fill:none;stroke:#000000;stroke-width:0.25;stroke-linecap:round;stroke-linejoin:round;stroke-miterlimit:10;stroke-dasharray:none;stroke-opacity:1"
             id="path32" /><path
             d="m 56.834698,27 h 1.992844"
             style="fill:none;stroke:#000000;stroke-width:0.25;stroke-linecap:round;stroke-linejoin:round;stroke-miterlimit:10;stroke-dasharray:none;stroke-opacity:1"
             id="path34" /><path
             d="M 9.8275419,23 H 11.820386"
             style="fill:none;stroke:#000000;stroke-width:0.25;stroke-linecap:round;stroke-linejoin:round;stroke-miterlimit:10;stroke-dasharray:none;stroke-opacity:1"
             id="path36" /><path
             d="m 56.834698,23 h 1.992844"
             style="fill:none;stroke:#000000;stroke-width:0.25;stroke-linecap:round;stroke-linejoin:round;stroke-miterlimit:10;stroke-dasharray:none;stroke-opacity:1"
             id="path38" /><path
             d="M 16.327542,33.717798 13.620386,28.12822"
             style="fill:none;stroke:#000000;stroke-width:0.25;stroke-linecap:round;stroke-linejoin:round;stroke-miterlimit:10;stroke-dasharray:none;stroke-opacity:1"
             id="path40" /><path
             d="m 55.034698,28.12822 -2.707156,5.589578"
             style="fill:none;stroke:#000000;stroke-width:0.25;stroke-linecap:round;stroke-linejoin:round;stroke-miterlimit:10;stroke-dasharray:none;stroke-opacity:1"
             id="path42" /><path
             d="m 52.327542,16.282202 2.707156,5.589578"
             style="fill:none;stroke:#000000;stroke-width:0.25;stroke-linecap:round;stroke-linejoin:round;stroke-miterlimit:10;stroke-dasharray:none;stroke-opacity:1"
             id="path44" /><path
             d="m 13.620386,21.87178 2.707156,-5.589578"
             style="fill:none;stroke:#000000;stroke-width:0.25;stroke-linecap:round;stroke-linejoin:round;stroke-miterlimit:10;stroke-dasharray:none;stroke-opacity:1"
             id="path46" /><path
             d="m 11.820386,23 0.17702,-0.0079 0.175632,-0.02349 0.172863,-0.03894 0.168738,-0.05409 0.163288,-0.06881 0.156557,-0.08299 0.148597,-0.09652 0.139471,-0.109297 0.129249,-0.121213 0.118013,-0.132177 0.105851,-0.142104 0.09286,-0.150915 0.05186,-0.09982"
             style="fill:none;stroke:#000000;stroke-width:0.25;stroke-linecap:round;stroke-linejoin:round;stroke-miterlimit:10;stroke-dasharray:none;stroke-opacity:1"
             id="path48" /><path
             d="m 11.820386,27 0.17702,0.0078 0.175632,0.02349 0.172863,0.03894 0.168738,0.05409 0.163288,0.06881 0.156557,0.08299 0.148597,0.09652 0.139471,0.109298 0.129249,0.121213 0.118013,0.132177 0.105851,0.142103 0.09286,0.150915 0.05186,0.09982"
             style="fill:none;stroke:#000000;stroke-width:0.25;stroke-linecap:round;stroke-linejoin:round;stroke-miterlimit:10;stroke-dasharray:none;stroke-opacity:1"
             id="path50" /><path
             d="m 55.034698,28.12822 0.08423,-0.155897 0.09769,-0.14783 0.110395,-0.138603 0.122229,-0.128289 0.133105,-0.116966 0.142935,-0.104726 0.151644,-0.09166 0.159161,-0.07788 0.16543,-0.06349 0.1704,-0.0486 0.174033,-0.03332 0.176299,-0.01779 L 56.834698,27"
             style="fill:none;stroke:#000000;stroke-width:0.25;stroke-linecap:round;stroke-linejoin:round;stroke-miterlimit:10;stroke-dasharray:none;stroke-opacity:1"
             id="path52" /><path
             d="m 56.834698,23 -0.177021,-0.0079 -0.175631,-0.02349 -0.172863,-0.03894 -0.168738,-0.05409 -0.163288,-0.06881 -0.156558,-0.08299 -0.148596,-0.09652 -0.139471,-0.109297 -0.129249,-0.121213 -0.118014,-0.132177 -0.105851,-0.142104 -0.09286,-0.150915 -0.05186,-0.09982"
             style="fill:none;stroke:#000000;stroke-width:0.25;stroke-linecap:round;stroke-linejoin:round;stroke-miterlimit:10;stroke-dasharray:none;stroke-opacity:1"
             id="path54" /></g><g
           id="g56"
           transform="matrix(0.92456094,-0.82453833,0.82183194,0.92760563,1791.8803,752.93292)"><g
             id="g58"><text
               transform="translate(0,143)"
               style="font-variant:normal;font-weight:normal;font-size:133px;font-family:'Noto Sans';-inkscape-font-specification:NotoSans-Regular;writing-mode:lr-tb;fill:#008000;fill-opacity:1;fill-rule:nonzero;stroke:none"
               id="text62"><tspan
                 x="0"
                 y="0"
                 id="tspan60">r</tspan></text></g></g><g
           id="g64"
           transform="matrix(47.184615,0,0,-47.34,0,2367)" /><g
           id="g66"
           transform="matrix(0.36982437,-0.32981533,0.32873278,0.37104225,1913.1721,787.2363)"><g
             id="g68"><text
               transform="translate(0,143)"
               style="font-variant:normal;font-weight:normal;font-size:133px;font-family:'Noto Sans';-inkscape-font-specification:NotoSans-Regular;writing-mode:lr-tb;fill:#008000;fill-opacity:1;fill-rule:nonzero;stroke:none"
               id="text72"><tspan
                 x="0"
                 y="0"
                 id="tspan70">2</tspan></text></g></g><g
           id="g74"
           transform="matrix(47.184615,0,0,-47.34,0,2367)"><path
             d="M 34.327542,25 49.275728,38.287277"
             style="fill:none;stroke:#008000;stroke-width:0.13;stroke-linecap:round;stroke-linejoin:round;stroke-miterlimit:10;stroke-dasharray:none;stroke-opacity:1"
             id="path76" /></g><g
           id="g78"><path
             d="m 2325.0563,554.48032 -75.116,93.35659 -26.0992,-29.45827 z"
             style="fill:#008000;fill-opacity:1;fill-rule:evenodd;stroke:none"
             id="path80" /></g><g
           id="g82"
           transform="matrix(47.184615,0,0,-47.34,0,2367)"><path
             d="m 49.275728,38.287277 -1.591959,-1.972045 -0.553129,0.62227 z"
             style="fill:#008000;fill-opacity:1;fill-rule:evenodd;stroke:#008000;stroke-width:0.13;stroke-linecap:round;stroke-linejoin:round;stroke-miterlimit:10;stroke-dasharray:none;stroke-opacity:1"
             id="path84" /></g><g
           id="g86"
           transform="matrix(0.79058133,0.9545541,-0.95142095,0.79318481,480.25699,576.59336)"><g
             id="g88"><text
               transform="translate(0,143)"
               style="font-variant:normal;font-weight:normal;font-size:133px;font-family:'Noto Sans';-inkscape-font-specification:NotoSans-Regular;writing-mode:lr-tb;fill:#008000;fill-opacity:1;fill-rule:nonzero;stroke:none"
               id="text92"><tspan
                 x="0"
                 y="0"
                 id="tspan90">r</tspan></text></g></g><g
           id="g94"
           transform="matrix(47.184615,0,0,-47.34,0,2367)" /><g
           id="g96"
           transform="matrix(0.31623253,0.38182164,-0.38056838,0.31727392,442.04528,697.07451)"><g
             id="g98"><text
               transform="translate(0,143)"
               style="font-variant:normal;font-weight:normal;font-size:133px;font-family:'Noto Sans';-inkscape-font-specification:NotoSans-Regular;writing-mode:lr-tb;fill:#008000;fill-opacity:1;fill-rule:nonzero;stroke:none"
               id="text102"><tspan
                 x="0"
                 y="0"
                 id="tspan100">1</tspan></text></g></g><g
           id="g104"
           transform="matrix(47.184615,0,0,-47.34,0,2367)"><path
             d="M 11.820386,29 6.1097882,35.872389"
             style="fill:none;stroke:#008000;stroke-width:0.13;stroke-linecap:round;stroke-linejoin:round;stroke-miterlimit:10;stroke-dasharray:none;stroke-opacity:1"
             id="path106" /></g><g
           id="g108"><path
             d="m 497.42889,921.31945 -90.49663,-78.43097 30.21457,-25.18942 z"
             style="fill:#008000;fill-opacity:1;fill-rule:evenodd;stroke:none"
             id="path110" /></g><g
           id="g112"
           transform="matrix(47.184615,0,0,-47.34,0,2367)"><path
             d="m 10.542184,30.538245 -1.9179268,1.65676 0.640348,0.532096 z"
             style="fill:#008000;fill-opacity:1;fill-rule:evenodd;stroke:#008000;stroke-width:0.13;stroke-linecap:round;stroke-linejoin:round;stroke-miterlimit:10;stroke-dasharray:none;stroke-opacity:1"
             id="path114" /></g><g
           id="g116"
           transform="matrix(0,-1.2410945,1.2370209,0,2737.2324,711.03664)"><g
             id="g118"><text
               transform="translate(0,143)"
               style="font-variant:normal;font-weight:normal;font-size:133px;font-family:'Noto Sans';-inkscape-font-specification:NotoSans-Regular;writing-mode:lr-tb;fill:#008000;fill-opacity:1;fill-rule:nonzero;stroke:none"
               id="text122"><tspan
                 x="0"
                 y="0"
                 id="tspan120">d</tspan></text></g></g><g
           id="g124"
           transform="matrix(47.184615,0,0,-47.34,0,2367)"><path
             d="M 62.327542,45 V 27"
             style="fill:none;stroke:#008000;stroke-width:0.13;stroke-linecap:round;stroke-linejoin:round;stroke-miterlimit:10;stroke-dasharray:none;stroke-opacity:1"
             id="path126" /></g><g
           id="g128"><path
             d="m 2940.9011,236.7 19.6422,118.35 h -39.2845 z"
             style="fill:#008000;fill-opacity:1;fill-rule:evenodd;stroke:none"
             id="path130" /></g><g
           id="g132"
           transform="matrix(47.184615,0,0,-47.34,0,2367)"><path
             d="m 62.327542,45 0.416284,-2.5 h -0.832569 z"
             style="fill:#008000;fill-opacity:1;fill-rule:evenodd;stroke:#008000;stroke-width:0.13;stroke-linecap:round;stroke-linejoin:round;stroke-miterlimit:10;stroke-dasharray:none;stroke-opacity:1"
             id="path134" /></g><g
           id="g136"><path
             d="m 2940.9011,1088.82 -19.6423,-118.35 h 39.2845 z"
             style="fill:#008000;fill-opacity:1;fill-rule:evenodd;stroke:none"
             id="path138" /></g><g
           id="g140"
           transform="matrix(47.184615,0,0,-47.34,0,2367)"><path
             d="m 62.327542,27 -0.416285,2.5 h 0.832569 z"
             style="fill:#008000;fill-opacity:1;fill-rule:evenodd;stroke:#008000;stroke-width:0.13;stroke-linecap:round;stroke-linejoin:round;stroke-miterlimit:10;stroke-dasharray:none;stroke-opacity:1"
             id="path142" /><path
             d="m 34.952542,45 h 28.625"
             style="fill:none;stroke:#008000;stroke-width:0.13;stroke-linecap:round;stroke-linejoin:round;stroke-miterlimit:10;stroke-dasharray:none;stroke-opacity:1"
             id="path144" /><path
             d="m 59.452542,27 h 4.125"
             style="fill:none;stroke:#008000;stroke-width:0.13;stroke-linecap:round;stroke-linejoin:round;stroke-miterlimit:10;stroke-dasharray:none;stroke-opacity:1"
             id="path146" /></g><g
           id="g148"
           transform="matrix(0.65696763,1.0515997,-1.048148,0.65913111,967.18302,789.45512)"><g
             id="g150"><text
               transform="translate(0,143)"
               style="font-variant:normal;font-weight:normal;font-size:133px;font-family:'Noto Sans';-inkscape-font-specification:NotoSans-Regular;writing-mode:lr-tb;fill:#008000;fill-opacity:1;fill-rule:nonzero;stroke:none"
               id="text154"><tspan
                 x="0"
                 y="0"
                 id="tspan152">α</tspan></text></g></g><g
           id="g156"
           transform="matrix(47.184615,0,0,-47.34,0,2367)" /><g
           id="g158"
           transform="matrix(0.26278705,0.42063986,-0.41925919,0.26365244,930.97956,932.0097)"><g
             id="g160"><text
               transform="translate(0,143)"
               style="font-variant:normal;font-weight:normal;font-size:133px;font-family:'Noto Sans';-inkscape-font-specification:NotoSans-Regular;writing-mode:lr-tb;fill:#008000;fill-opacity:1;fill-rule:nonzero;stroke:none"
               id="text164"><tspan
                 x="0"
                 y="0"
                 id="tspan162">1</tspan></text></g></g><g
           id="g166"
           transform="matrix(47.184615,0,0,-47.34,0,2367)"><path
             d="M 14.952542,27 H 19.59882"
             style="fill:none;stroke:#008000;stroke-width:0.13;stroke-linecap:round;stroke-linejoin:round;stroke-miterlimit:10;stroke-dasharray:none;stroke-opacity:1"
             id="path168" /><path
             d="M 16.055111,33.155298 14.828358,30.622371"
             style="fill:none;stroke:#008000;stroke-width:0.13;stroke-linecap:round;stroke-linejoin:round;stroke-miterlimit:10;stroke-dasharray:none;stroke-opacity:1"
             id="path170" /><path
             d="m 18.34882,27 -0.003,0.177219 -0.0089,0.177019 -0.01487,0.17662 -0.0208,0.176019 -0.0267,0.175222 -0.03257,0.174226 -0.03841,0.173033 -0.0442,0.171645 -0.04994,0.170063 -0.05563,0.168289 -0.06125,0.166326 -0.0668,0.164174 -0.07228,0.161836 -0.07768,0.159317 -0.08299,0.156618 -0.0882,0.153741 -0.09332,0.15069 -0.09833,0.147471 -0.103225,0.144084 -0.108007,0.140535 -0.112667,0.136826 -0.117201,0.132964 -0.121603,0.128952 -0.125865,0.124793 -0.129988,0.120494 -0.133962,0.116059 -0.137786,0.111492 -0.141454,0.106801 -0.144962,0.101987 -0.148307,0.09706 -0.151484,0.09202 -0.15449,0.08688 -0.157322,0.08164 -0.05142,0.02525"
             style="fill:none;stroke:#008000;stroke-width:0.13;stroke-linecap:round;stroke-linejoin:round;stroke-miterlimit:10;stroke-dasharray:none;stroke-opacity:1"
             id="path172" /></g><g
           id="g174"><path
             d="M 865.78203,1088.82 818.9959,978.40395 857.18248,969.1511 Z"
             style="fill:#008000;fill-opacity:1;fill-rule:evenodd;stroke:none"
             id="path176" /></g><g
           id="g178"
           transform="matrix(47.184615,0,0,-47.34,0,2367)"><path
             d="m 18.34882,27 -0.991554,2.332405 0.809301,0.195455 z"
             style="fill:#008000;fill-opacity:1;fill-rule:evenodd;stroke:#008000;stroke-width:0.13;stroke-linecap:round;stroke-linejoin:round;stroke-miterlimit:10;stroke-dasharray:none;stroke-opacity:1"
             id="path180" /></g><g
           id="g182"><path
             d="m 725.3795,864.07947 103.60004,59.92754 -24.94538,30.44787 z"
             style="fill:#008000;fill-opacity:1;fill-rule:evenodd;stroke:none"
             id="path184" /></g><g
           id="g186"
           transform="matrix(47.184615,0,0,-47.34,0,2367)"><path
             d="M 15.37322,31.747371 17.568852,30.481474 17.040176,29.8383 Z"
             style="fill:#008000;fill-opacity:1;fill-rule:evenodd;stroke:#008000;stroke-width:0.13;stroke-linecap:round;stroke-linejoin:round;stroke-miterlimit:10;stroke-dasharray:none;stroke-opacity:1"
             id="path188" /></g><g
           id="g190"
           transform="matrix(1.048148,-0.65913111,0.65696763,1.0515997,133.35044,440.99456)"><g
             id="g192"><text
               transform="translate(0,143)"
               style="font-variant:normal;font-weight:normal;font-size:133px;font-family:'Noto Sans';-inkscape-font-specification:NotoSans-Regular;writing-mode:lr-tb;fill:#000000;fill-opacity:1;fill-rule:nonzero;stroke:none"
               id="text196"><tspan
                 x="0"
                 y="0"
                 id="tspan194">α</tspan></text></g></g><g
           id="g198"
           transform="matrix(47.184615,0,0,-47.34,0,2367)" /><g
           id="g200"
           transform="matrix(0.41925919,-0.26365244,0.26278705,0.42063986,275.43712,477.31724)"><g
             id="g202"><text
               transform="translate(0,143)"
               style="font-variant:normal;font-weight:normal;font-size:133px;font-family:'Noto Sans';-inkscape-font-specification:NotoSans-Regular;writing-mode:lr-tb;fill:#000000;fill-opacity:1;fill-rule:nonzero;stroke:none"
               id="text206"><tspan
                 x="0"
                 y="0"
                 id="tspan204">1</tspan></text></g></g><g
           id="g208"
           transform="matrix(47.184615,0,0,-47.34,0,2367)"><path
             d="M 11.820386,29.625 V 40.553253"
             style="fill:none;stroke:#000000;stroke-width:0.13;stroke-linecap:round;stroke-linejoin:round;stroke-miterlimit:10;stroke-dasharray:none;stroke-opacity:1"
             id="path210" /><path
             d="M 11.257886,29.272431 1.4224581,34.035946"
             style="fill:none;stroke:#000000;stroke-width:0.13;stroke-linecap:round;stroke-linejoin:round;stroke-miterlimit:10;stroke-dasharray:none;stroke-opacity:1"
             id="path212" /><path
             d="m 11.820386,39.303253 -0.177244,-0.0015 -0.177191,-0.0046 -0.177087,-0.0076 -0.176929,-0.01067 -0.17672,-0.01371 -0.176457,-0.01675 -0.176143,-0.01978 -0.175777,-0.02281 L 10.231479,39.18 10.05659,39.15116 9.882224,39.119316 9.7084312,39.084477 9.5352634,39.046653 9.3627719,39.005856 9.1910078,38.962098 9.0200218,38.915391 8.8498646,38.86575 8.6805866,38.813189 8.5122378,38.757724 8.3448681,38.699371 8.1785269,38.638147 8.0132636,38.574071 7.849127,38.507162 7.6861658,38.437438 7.524428,38.364922 7.3639617,38.289634 7.2048143,38.211597 7.0470329,38.130834 6.8906642,38.047368 6.7357545,37.961225 6.5823496,37.872429 6.4304949,37.781008 6.2802354,37.686988 6.1316155,37.590397 5.9846792,37.491263 5.8394701,37.389617 5.696031,37.285487 5.5544044,37.178906 5.4146323,37.069904 5.2767561,36.958513 5.1408164,36.844767 5.0068536,36.7287 4.8749073,36.610345 4.7450165,36.489738 4.6172198,36.366914 4.4915548,36.24191 4.3680589,36.114762 4.2467685,35.985509 4.1277195,35.854189 4.0109472,35.72084 3.8964862,35.585502 3.7843703,35.448215 3.6746327,35.30902 3.5673059,35.167957 3.4624216,35.025069 3.3600109,34.880398 l -0.099907,-0.146412 -0.097373,-0.148108 -0.094811,-0.149762 -0.092221,-0.151371 -0.089603,-0.152934 -0.086959,-0.154453 -0.084289,-0.155927 -0.081594,-0.157353 -0.078875,-0.158734 -0.00692,-0.01426"
             style="fill:none;stroke:#000000;stroke-width:0.13;stroke-linecap:round;stroke-linejoin:round;stroke-miterlimit:10;stroke-dasharray:none;stroke-opacity:1"
             id="path214" /></g><g
           id="g216"><path
             d="m 557.74036,506.384 -114.71731,33.8852 -4.75434,-39.12413 z"
             style="fill:#000000;fill-opacity:1;fill-rule:evenodd;stroke:none"
             id="path218" /></g><g
           id="g220"
           transform="matrix(47.184615,0,0,-47.34,0,2367)"><path
             d="M 11.820386,39.303253 9.389142,38.587469 9.2883815,39.413919 Z"
             style="fill:#000000;fill-opacity:1;fill-rule:evenodd;stroke:#000000;stroke-width:0.13;stroke-linecap:round;stroke-linejoin:round;stroke-miterlimit:10;stroke-dasharray:none;stroke-opacity:1"
             id="path222" /></g><g
           id="g224"><path
             d="m 120.20083,781.53209 47.37692,-110.16217 33.02377,21.34681 z"
             style="fill:#000000;fill-opacity:1;fill-rule:evenodd;stroke:none"
             id="path226" /></g><g
           id="g228"
           transform="matrix(47.184615,0,0,-47.34,0,2367)"><path
             d="M 2.5474581,33.491084 3.5515338,35.818126 4.251418,35.3672 Z"
             style="fill:#000000;fill-opacity:1;fill-rule:evenodd;stroke:#000000;stroke-width:0.13;stroke-linecap:round;stroke-linejoin:round;stroke-miterlimit:10;stroke-dasharray:none;stroke-opacity:1"
             id="path230" /></g><g
           id="g232"
           transform="matrix(1.048148,-0.65913111,0.65696763,1.0515997,1168.7641,598.06483)"><g
             id="g234"><text
               transform="translate(0,143)"
               style="font-variant:normal;font-weight:normal;font-size:133px;font-family:'Noto Sans';-inkscape-font-specification:NotoSans-Regular;writing-mode:lr-tb;fill:#000000;fill-opacity:1;fill-rule:nonzero;stroke:none"
               id="text238"><tspan
                 x="0"
                 y="0"
                 id="tspan236">α</tspan></text></g></g><g
           id="g240"
           transform="matrix(47.184615,0,0,-47.34,0,2367)" /><g
           id="g242"
           transform="matrix(0.41925919,-0.26365244,0.26278705,0.42063986,1310.8508,634.38751)"><g
             id="g244"><text
               transform="translate(0,143)"
               style="font-variant:normal;font-weight:normal;font-size:133px;font-family:'Noto Sans';-inkscape-font-specification:NotoSans-Regular;writing-mode:lr-tb;fill:#000000;fill-opacity:1;fill-rule:nonzero;stroke:none"
               id="text248"><tspan
                 x="0"
                 y="0"
                 id="tspan246">2</tspan></text></g></g><g
           id="g250"
           transform="matrix(47.184615,0,0,-47.34,0,2367)"><path
             d="M 34.327542,44.375 V 34.93034"
             style="fill:none;stroke:#000000;stroke-width:0.13;stroke-linecap:round;stroke-linejoin:round;stroke-miterlimit:10;stroke-dasharray:none;stroke-opacity:1"
             id="path252" /><path
             d="m 16.890042,33.445367 8.500194,-4.116832"
             style="fill:none;stroke:#000000;stroke-width:0.13;stroke-linecap:round;stroke-linejoin:round;stroke-miterlimit:10;stroke-dasharray:none;stroke-opacity:1"
             id="path254" /><path
             d="m 34.327542,36.18034 -0.177245,-0.0014 -0.177201,-0.0042 -0.177111,-0.007 -0.176978,-0.0098 -0.1768,-0.01263 L 33.26563,36.12987 33.089319,36.11164 32.91332,36.09061 32.737676,36.0668 32.562432,36.0402 32.387631,36.01083 32.213319,35.97869 32.039537,35.94379 31.866331,35.90614 31.693743,35.86575 31.521817,35.82263 31.350596,35.77679 31.180124,35.72824 31.010443,35.677 30.841595,35.62307 30.673623,35.56647 30.50657,35.50722 30.340478,35.44532 30.175387,35.3808 30.01134,35.31367 29.848378,35.24395 29.686542,35.17165 29.525872,35.0968 29.366409,35.01941 29.208193,34.9395 29.051264,34.85709 28.895661,34.77221 28.741423,34.68487 28.588589,34.5951 28.437197,34.50291 28.287287,34.40833 28.138894,34.31139 27.992056,34.21211 27.846812,34.110514 27.703196,34.006628 27.561245,33.900479 27.420994,33.792092 27.28248,33.681496 27.145736,33.568717 27.010797,33.453785 26.877698,33.336728 26.746471,33.217576 26.617149,33.096358 26.489765,32.973106 26.364351,32.847849 26.240939,32.72062 l -0.12138,-0.129169 -0.119317,-0.131078 -0.117224,-0.132952 -0.115101,-0.134795 -0.11295,-0.136602 -0.11077,-0.138375 -0.108562,-0.140115 -0.106328,-0.141817 -0.104066,-0.143486 -0.101778,-0.145117 -0.09947,-0.146713 -0.09713,-0.148271 -0.09476,-0.149792 -0.09238,-0.151275 -0.08997,-0.152721 -0.08754,-0.154129 -0.08508,-0.155496 -0.08261,-0.156826 -0.08011,-0.158115 -0.0492,-0.100306"
             style="fill:none;stroke:#000000;stroke-width:0.13;stroke-linecap:round;stroke-linejoin:round;stroke-miterlimit:10;stroke-dasharray:none;stroke-opacity:1"
             id="path256" /></g><g
           id="g258"><path
             d="m 1619.7319,654.22271 -115.0336,32.78826 -4.383,-39.16775 z"
             style="fill:#000000;fill-opacity:1;fill-rule:evenodd;stroke:none"
             id="path260" /></g><g
           id="g262"
           transform="matrix(47.184615,0,0,-47.34,0,2367)"><path
             d="m 34.327542,36.18034 -2.437946,-0.692612 -0.09289,0.827371 z"
             style="fill:#000000;fill-opacity:1;fill-rule:evenodd;stroke:#000000;stroke-width:0.13;stroke-linecap:round;stroke-linejoin:round;stroke-miterlimit:10;stroke-dasharray:none;stroke-opacity:1"
             id="path264" /></g><g
           id="g266"><path
             d="m 1144.9458,952.79338 46.3298,-110.60957 33.2248,21.03051 z"
             style="fill:#000000;fill-opacity:1;fill-rule:evenodd;stroke:none"
             id="path268" /></g><g
           id="g270"
           transform="matrix(47.184615,0,0,-47.34,0,2367)"><path
             d="m 24.265236,29.873397 0.981883,2.336493 0.704144,-0.444244 z"
             style="fill:#000000;fill-opacity:1;fill-rule:evenodd;stroke:#000000;stroke-width:0.13;stroke-linecap:round;stroke-linejoin:round;stroke-miterlimit:10;stroke-dasharray:none;stroke-opacity:1"
             id="path272" /></g></g></g></g></svg>
