<?xml version="1.0" encoding="UTF-8" standalone="no"?>
<!-- Created with Inkscape (http://www.inkscape.org/) -->

<svg
   version="1.1"
   id="svg2"
   xml:space="preserve"
   width="226.66667"
   height="189.33333"
   viewBox="0 0 226.66667 189.33333"
   sodipodi:docname="box.svg"
   inkscape:version="1.1.2 (0a00cf5339, 2022-02-04)"
   xmlns:inkscape="http://www.inkscape.org/namespaces/inkscape"
   xmlns:sodipodi="http://sodipodi.sourceforge.net/DTD/sodipodi-0.dtd"
   xmlns="http://www.w3.org/2000/svg"
   xmlns:svg="http://www.w3.org/2000/svg"><defs
     id="defs6" /><sodipodi:namedview
     id="namedview4"
     pagecolor="#ffffff"
     bordercolor="#666666"
     borderopacity="1.0"
     inkscape:pageshadow="2"
     inkscape:pageopacity="0.0"
     inkscape:pagecheckerboard="0"
     showgrid="false"
     inkscape:zoom="3.3274649"
     inkscape:cx="50.188358"
     inkscape:cy="94.666664"
     inkscape:window-width="1920"
     inkscape:window-height="1007"
     inkscape:window-x="0"
     inkscape:window-y="0"
     inkscape:window-maximized="1"
     inkscape:current-layer="g8" /><g
     id="g8"
     inkscape:groupmode="layer"
     inkscape:label="box"
     transform="matrix(1.3333333,0,0,-1.3333333,0,189.33333)"><g
       id="g10"
       transform="matrix(0.06,0,0,-0.06,0,142)"><g
         id="g12"><g
           id="g14" /></g><g
         id="g16"><g
           id="g18" /><g
           id="g20"
           transform="matrix(47.216667,0,0,-47.34,0,2367)"><path
             d="m 6.6410628,19.612537 h 1.05 m 0.3835,0 h 0.013 m 0.3835,0 h 1.5600002 m 0.3835,0 h 0.013 m 0.3835,0 h 1.56 m 0.3835,0 h 0.013 m 0.3835,0 h 1.56 m 0.3835,0 h 0.013 m 0.3835,0 h 1.56 m 0.3835,0 h 0.013 m 0.3835,0 h 1.56 m 0.3835,0 h 0.013 m 0.3835,0 h 1.56 m 0.3835,0 h 0.013 m 0.3835,0 h 1.56 m 0.3835,0 h 0.013 m 0.3835,0 h 1.56 m 0.3835,0 h 0.013 m 0.3835,0 h 1.56 m 0.3835,0 h 0.013 m 0.3835,0 h 1.56 m 0.3835,0 h 0.013 m 0.3835,0 h 1.56 m 0.3835,0 h 0.013 m 0.3835,0 h 1.56 m 0.3835,0 h 0.013 m 0.3835,0 h 1.56 m 0.3835,0 h 0.013 m 0.3835,0 h 1.56 m 0.3835,0 h 0.013 m 0.3835,0 h 1.56 m 0.3835,0 h 0.013 m 0.3835,0 h 1.56 m 0.3835,0 h 0.013 m 0.3835,0 h 1.56 m 0.3835,0 h 0.013 m 0.3835,0 h 1.56 m 0.3835,0 h 0.013 m 0.3835,0 h 1.05"
             style="fill:none;stroke:#000000;stroke-width:0.13;stroke-linecap:round;stroke-linejoin:round;stroke-miterlimit:10;stroke-dasharray:none;stroke-opacity:1"
             id="path22" /><path
             d="m 29.141063,4.1125369 v 1.07 m 0,0.3835 v 0.013 m 0,0.3835 v 1.56 m 0,0.3835 v 0.013 m 0,0.3835 v 1.56 m 0,0.3835001 v 0.013 m 0,0.3835 v 1.56 m 0,0.3835 v 0.013 m 0,0.3835 v 1.56 m 0,0.3835 v 0.013 m 0,0.3835 v 1.56 m 0,0.3835 v 0.013 m 0,0.3835 v 1.56 m 0,0.3835 v 0.013 m 0,0.3835 v 1.56 m 0,0.3835 v 0.013 m 0,0.3835 v 1.56 m 0,0.3835 v 0.013 m 0,0.3835 v 1.56 m 0,0.3835 v 0.013 m 0,0.3835 v 1.56 m 0,0.3835 v 0.013 m 0,0.3835 v 1.56 m 0,0.3835 v 0.013 m 0,0.3835 v 1.56 m 0,0.3835 v 0.013 m 0,0.3835 v 1.07"
             style="fill:none;stroke:#000000;stroke-width:0.13;stroke-linecap:round;stroke-linejoin:round;stroke-miterlimit:10;stroke-dasharray:none;stroke-opacity:1"
             id="path24" /><path
             d="m 50.819262,21.612537 h 0.821801"
             style="fill:none;stroke:#000000;stroke-width:0.25;stroke-linecap:round;stroke-linejoin:round;stroke-miterlimit:10;stroke-dasharray:none;stroke-opacity:1"
             id="path26" /><path
             d="M 6.6410628,21.612537 H 7.4628635"
             style="fill:none;stroke:#000000;stroke-width:0.25;stroke-linecap:round;stroke-linejoin:round;stroke-miterlimit:10;stroke-dasharray:none;stroke-opacity:1"
             id="path28" /><path
             d="M 6.6410628,17.612537 H 7.4628635"
             style="fill:none;stroke:#000000;stroke-width:0.25;stroke-linecap:round;stroke-linejoin:round;stroke-miterlimit:10;stroke-dasharray:none;stroke-opacity:1"
             id="path30" /><path
             d="m 50.819262,17.612537 h 0.821801"
             style="fill:none;stroke:#000000;stroke-width:0.25;stroke-linecap:round;stroke-linejoin:round;stroke-miterlimit:10;stroke-dasharray:none;stroke-opacity:1"
             id="path32" /><path
             d="m 13.111513,34.612537 h 32.0591"
             style="fill:none;stroke:#000000;stroke-width:0.25;stroke-linecap:round;stroke-linejoin:round;stroke-miterlimit:10;stroke-dasharray:none;stroke-opacity:1"
             id="path34" /><path
             d="m 13.111513,4.6125369 h 32.0591"
             style="fill:none;stroke:#000000;stroke-width:0.25;stroke-linecap:round;stroke-linejoin:round;stroke-miterlimit:10;stroke-dasharray:none;stroke-opacity:1"
             id="path36" /><path
             d="m 9.432479,23.26524 1.709418,9.694593"
             style="fill:none;stroke:#000000;stroke-width:0.25;stroke-linecap:round;stroke-linejoin:round;stroke-miterlimit:10;stroke-dasharray:none;stroke-opacity:1"
             id="path38" /><path
             d="m 48.849646,23.26524 -1.709418,9.694593"
             style="fill:none;stroke:#000000;stroke-width:0.25;stroke-linecap:round;stroke-linejoin:round;stroke-miterlimit:10;stroke-dasharray:none;stroke-opacity:1"
             id="path40" /><path
             d="M 48.849646,15.959833 47.140228,6.2652405"
             style="fill:none;stroke:#000000;stroke-width:0.25;stroke-linecap:round;stroke-linejoin:round;stroke-miterlimit:10;stroke-dasharray:none;stroke-opacity:1"
             id="path42" /><path
             d="M 9.432479,15.959833 11.141897,6.2652405"
             style="fill:none;stroke:#000000;stroke-width:0.25;stroke-linecap:round;stroke-linejoin:round;stroke-miterlimit:10;stroke-dasharray:none;stroke-opacity:1"
             id="path44" /><path
             d="m 7.4628635,17.612537 0.1475763,-0.0055 0.1467716,-0.01633 0.1451668,-0.02711 0.1427705,-0.03775 0.1395959,-0.04818 0.1356601,-0.05835 0.1309846,-0.0682 0.1255951,-0.07768 0.1195208,-0.08674 0.1127948,-0.09532 0.1054539,-0.103382 0.097538,-0.110882 0.08909,-0.117777 0.080157,-0.124029 0.070787,-0.129607 0.06103,-0.134475 0.050941,-0.138613 0.040574,-0.141994 0.027608,-0.130832"
             style="fill:none;stroke:#000000;stroke-width:0.25;stroke-linecap:round;stroke-linejoin:round;stroke-miterlimit:10;stroke-dasharray:none;stroke-opacity:1"
             id="path46" /><path
             d="m 11.141897,6.2652405 0.031,-0.1443875 0.04157,-0.1417067 0.05191,-0.1382535 0.06197,-0.1340463 0.07169,-0.1291084 0.08102,-0.1234666 0.08991,-0.1171516 0.09831,-0.1101978 0.106174,-0.1026433 0.113458,-0.094529 0.120124,-0.0859 0.126134,-0.076802 0.131458,-0.067285 0.136065,-0.057402 0.139929,-0.047205 0.143031,-0.036752 0.145352,-0.026097 0.146882,-0.015301 0.133639,-0.00447"
             style="fill:none;stroke:#000000;stroke-width:0.25;stroke-linecap:round;stroke-linejoin:round;stroke-miterlimit:10;stroke-dasharray:none;stroke-opacity:1"
             id="path48" /><path
             d="m 45.170613,4.6125369 0.147576,0.00545 0.146772,0.016327 0.145166,0.027112 0.142771,0.03775 0.139596,0.048182 0.13566,0.058351 0.130985,0.068202 0.125595,0.077681 0.11952,0.086737 0.112795,0.095319 0.105454,0.1033826 0.09754,0.110882 0.08909,0.1177768 0.08016,0.1240296 0.07079,0.1296061 0.06103,0.134476 0.05094,0.1386127 0.04057,0.1419937 0.02761,0.1308319"
             style="fill:none;stroke:#000000;stroke-width:0.25;stroke-linecap:round;stroke-linejoin:round;stroke-miterlimit:10;stroke-dasharray:none;stroke-opacity:1"
             id="path50" /><path
             d="m 48.849646,15.959833 0.031,0.144388 0.04156,0.141706 0.05191,0.138254 0.06197,0.134046 0.07169,0.129109 0.08102,0.123466 0.08991,0.117152 0.09831,0.110198 0.106173,0.102643 0.113458,0.09453 0.120124,0.0859 0.126135,0.0768 0.131458,0.06728 0.136064,0.0574 0.139929,0.04721 0.143031,0.03675 0.145352,0.0261 0.146883,0.0153 0.133638,0.0045"
             style="fill:none;stroke:#000000;stroke-width:0.25;stroke-linecap:round;stroke-linejoin:round;stroke-miterlimit:10;stroke-dasharray:none;stroke-opacity:1"
             id="path52" /><path
             d="m 48.849646,23.26524 0.031,-0.144387 0.04156,-0.141707 0.05191,-0.138253 0.06197,-0.134047 0.07169,-0.129108 0.08102,-0.123467 0.08991,-0.117151 0.09831,-0.110198 0.106173,-0.102643 0.113458,-0.09453 0.120124,-0.0859 0.126135,-0.0768 0.131458,-0.06729 0.136064,-0.0574 0.139929,-0.0472 0.143031,-0.03675 0.145352,-0.0261 0.146883,-0.0153 0.133638,-0.0045"
             style="fill:none;stroke:#000000;stroke-width:0.25;stroke-linecap:round;stroke-linejoin:round;stroke-miterlimit:10;stroke-dasharray:none;stroke-opacity:1"
             id="path54" /><path
             d="m 45.170613,34.612537 0.147576,-0.0055 0.146772,-0.01633 0.145166,-0.02711 0.142771,-0.03775 0.139596,-0.04818 0.13566,-0.05835 0.130985,-0.0682 0.125595,-0.07768 0.11952,-0.08674 0.112795,-0.09532 0.105454,-0.103382 0.09754,-0.110882 0.08909,-0.117777 0.08016,-0.124029 0.07079,-0.129607 0.06103,-0.134476 0.05094,-0.138612 0.04057,-0.141994 0.02761,-0.130832"
             style="fill:none;stroke:#000000;stroke-width:0.25;stroke-linecap:round;stroke-linejoin:round;stroke-miterlimit:10;stroke-dasharray:none;stroke-opacity:1"
             id="path56" /><path
             d="m 13.111513,34.612537 -0.147576,-0.0055 -0.146772,-0.01633 -0.145167,-0.02711 -0.142771,-0.03775 -0.139595,-0.04818 -0.13566,-0.05835 -0.130985,-0.0682 -0.125595,-0.07768 -0.119521,-0.08674 -0.112795,-0.09532 -0.105454,-0.103382 -0.09754,-0.110882 -0.08909,-0.117777 -0.08016,-0.124029 -0.07079,-0.129607 -0.06103,-0.134476 -0.05094,-0.138612 -0.04057,-0.141994 -0.02761,-0.130832"
             style="fill:none;stroke:#000000;stroke-width:0.25;stroke-linecap:round;stroke-linejoin:round;stroke-miterlimit:10;stroke-dasharray:none;stroke-opacity:1"
             id="path58" /><path
             d="M 9.432479,23.26524 9.4014834,23.120853 9.3599182,22.979146 9.30801,22.840893 9.2460418,22.706846 9.1743516,22.577738 9.0933301,22.454271 9.0034192,22.33712 8.9051089,22.226922 8.7989353,22.124279 8.6854774,22.02975 8.5653536,21.94385 8.4392188,21.86705 8.3077609,21.79976 8.1716965,21.74236 8.0317675,21.69516 7.8887367,21.65841 7.743384,21.63231 7.5965019,21.61701 7.4628635,21.61251"
             style="fill:none;stroke:#000000;stroke-width:0.25;stroke-linecap:round;stroke-linejoin:round;stroke-miterlimit:10;stroke-dasharray:none;stroke-opacity:1"
             id="path60" /><path
             d="m 7.4628635,21.612537 h 0.805 m 0.39,0 h 0.805"
             style="fill:none;stroke:#000000;stroke-width:0.13;stroke-linecap:round;stroke-linejoin:round;stroke-miterlimit:10;stroke-dasharray:none;stroke-opacity:1"
             id="path62" /><path
             d="m 9.0851827,21.295625 0.1397867,0.79277 m 0.067723,0.384075 0.1397868,0.79277"
             style="fill:none;stroke:#000000;stroke-width:0.13;stroke-linecap:round;stroke-linejoin:round;stroke-miterlimit:10;stroke-dasharray:none;stroke-opacity:1"
             id="path64" /><path
             d="m 48.849646,23.26524 0.139787,-0.79277 m 0.06772,-0.384075 0.139787,-0.79277"
             style="fill:none;stroke:#000000;stroke-width:0.13;stroke-linecap:round;stroke-linejoin:round;stroke-miterlimit:10;stroke-dasharray:none;stroke-opacity:1"
             id="path66" /><path
             d="m 48.819262,21.612537 h 0.805 m 0.39,0 h 0.805"
             style="fill:none;stroke:#000000;stroke-width:0.13;stroke-linecap:round;stroke-linejoin:round;stroke-miterlimit:10;stroke-dasharray:none;stroke-opacity:1"
             id="path68" /></g><g
           id="g70"
           transform="matrix(1.1483811,0.46329036,-0.46208336,1.1513808,342.89613,488.503)"><g
             id="g72"><text
               transform="translate(0,143)"
               style="font-variant:normal;font-weight:normal;font-size:133px;font-family:'Noto Sans';-inkscape-font-specification:NotoSans-Regular;writing-mode:lr-tb;fill:#008000;fill-opacity:1;fill-rule:nonzero;stroke:none"
               id="text76"><tspan
                 x="0"
                 y="0"
                 id="tspan74">r</tspan></text></g></g><g
           id="g78"
           transform="matrix(47.216667,0,0,-47.34,0,2367)" /><g
           id="g80"
           transform="matrix(0.45935245,0.18531614,-0.18483335,0.46055231,366.32062,612.73624)"><g
             id="g82"><text
               transform="translate(0,143)"
               style="font-variant:normal;font-weight:normal;font-size:133px;font-family:'Noto Sans';-inkscape-font-specification:NotoSans-Regular;writing-mode:lr-tb;fill:#008000;fill-opacity:1;fill-rule:nonzero;stroke:none"
               id="text86"><tspan
                 x="0"
                 y="0"
                 id="tspan84">2</tspan></text></g></g><g
           id="g88"
           transform="matrix(47.216667,0,0,-47.34,0,2367)"><path
             d="M 13.111513,32.612537 4.6078731,36.034215"
             style="fill:none;stroke:#008000;stroke-width:0.13;stroke-linecap:round;stroke-linejoin:round;stroke-miterlimit:10;stroke-dasharray:none;stroke-opacity:1"
             id="path90" /></g><g
           id="g92"><path
             d="m 531.4748,787.77924 -116.84617,-25.8967 14.67453,-36.56476 z"
             style="fill:#008000;fill-opacity:1;fill-rule:evenodd;stroke:none"
             id="path94" /></g><g
           id="g96"
           transform="matrix(47.216667,0,0,-47.34,0,2367)"><path
             d="m 11.256085,33.35912 -2.4746808,0.547037 0.3107912,0.772386 z"
             style="fill:#008000;fill-opacity:1;fill-rule:evenodd;stroke:#008000;stroke-width:0.13;stroke-linecap:round;stroke-linejoin:round;stroke-miterlimit:10;stroke-dasharray:none;stroke-opacity:1"
             id="path98" /></g><g
           id="g100"
           transform="matrix(1.094493,0.57977107,-0.57826061,1.0973519,682.68175,1189.9659)"><g
             id="g102"><text
               transform="translate(0,143)"
               style="font-variant:normal;font-weight:normal;font-size:133px;font-family:'Noto Sans';-inkscape-font-specification:NotoSans-Regular;writing-mode:lr-tb;fill:#008000;fill-opacity:1;fill-rule:nonzero;stroke:none"
               id="text106"><tspan
                 x="0"
                 y="0"
                 id="tspan104">r</tspan></text></g></g><g
           id="g108"
           transform="matrix(47.216667,0,0,-47.34,0,2367)" /><g
           id="g110"
           transform="matrix(0.4377972,0.23190843,-0.23130425,0.43894076,693.17859,1315.9608)"><g
             id="g112"><text
               transform="translate(0,143)"
               style="font-variant:normal;font-weight:normal;font-size:133px;font-family:'Noto Sans';-inkscape-font-specification:NotoSans-Regular;writing-mode:lr-tb;fill:#008000;fill-opacity:1;fill-rule:nonzero;stroke:none"
               id="text116"><tspan
                 x="0"
                 y="0"
                 id="tspan114">1</tspan></text></g></g><g
           id="g118"
           transform="matrix(47.216667,0,0,-47.34,0,2367)"><path
             d="M 7.4628635,23.612537 15.363916,19.438122"
             style="fill:none;stroke:#008000;stroke-width:0.13;stroke-linecap:round;stroke-linejoin:round;stroke-miterlimit:10;stroke-dasharray:none;stroke-opacity:1"
             id="path120" /></g><g
           id="g122"><path
             d="m 435.86767,1293.4118 113.55217,37.8621 -18.364,34.849 z"
             style="fill:#008000;fill-opacity:1;fill-rule:evenodd;stroke:none"
             id="path124" /></g><g
           id="g126"
           transform="matrix(47.216667,0,0,-47.34,0,2367)"><path
             d="m 9.231225,22.678247 2.404917,-0.799792 -0.388931,-0.736141 z"
             style="fill:#008000;fill-opacity:1;fill-rule:evenodd;stroke:#008000;stroke-width:0.13;stroke-linecap:round;stroke-linejoin:round;stroke-miterlimit:10;stroke-dasharray:none;stroke-opacity:1"
             id="path128" /><path
             d="m 47.140228,32.959833 -0.139787,0.79277 m -0.06772,0.384075 -0.139787,0.792771"
             style="fill:none;stroke:#000000;stroke-width:0.13;stroke-linecap:round;stroke-linejoin:round;stroke-miterlimit:10;stroke-dasharray:none;stroke-opacity:1"
             id="path130" /><path
             d="m 47.170613,34.612537 h -0.805 m -0.39,0 h -0.805"
             style="fill:none;stroke:#000000;stroke-width:0.13;stroke-linecap:round;stroke-linejoin:round;stroke-miterlimit:10;stroke-dasharray:none;stroke-opacity:1"
             id="path132" /><path
             d="M 11.489194,34.929449 11.349407,34.136678 M 11.281687,33.752603 11.1419,32.959833"
             style="fill:none;stroke:#000000;stroke-width:0.13;stroke-linecap:round;stroke-linejoin:round;stroke-miterlimit:10;stroke-dasharray:none;stroke-opacity:1"
             id="path134" /><path
             d="m 13.111513,34.612537 h -0.805 m -0.39,0 h -0.805"
             style="fill:none;stroke:#000000;stroke-width:0.13;stroke-linecap:round;stroke-linejoin:round;stroke-miterlimit:10;stroke-dasharray:none;stroke-opacity:1"
             id="path136" /></g><g
           id="g138"
           transform="matrix(1.2378612,0,0,1.2410945,1300.8173,379.35848)"><g
             id="g140"><text
               transform="translate(0,143)"
               style="font-variant:normal;font-weight:normal;font-size:133px;font-family:'Noto Sans';-inkscape-font-specification:NotoSans-Regular;writing-mode:lr-tb;fill:#800000;fill-opacity:1;fill-rule:nonzero;stroke:none"
               id="text144"><tspan
                 x="0"
                 y="0"
                 id="tspan142">b</tspan></text></g></g><g
           id="g146"
           transform="matrix(47.216667,0,0,-47.34,0,2367)" /><g
           id="g148"
           transform="matrix(0.49514446,0,0,0.49643782,1402.0511,485.8444)"><g
             id="g150"><text
               transform="translate(0,143)"
               style="font-variant:normal;font-weight:normal;font-size:133px;font-family:'Noto Sans';-inkscape-font-specification:NotoSans-Regular;writing-mode:lr-tb;fill:#800000;fill-opacity:1;fill-rule:nonzero;stroke:none"
               id="text154"><tspan
                 x="0"
                 y="0"
                 id="tspan152">d</tspan></text></g></g><g
           id="g156"
           transform="matrix(47.216667,0,0,-47.34,0,2367)"><path
             d="M 11.433313,37.612537 H 46.848812"
             style="fill:none;stroke:#800000;stroke-width:0.13;stroke-linecap:round;stroke-linejoin:round;stroke-miterlimit:10;stroke-dasharray:none;stroke-opacity:1"
             id="path158" /></g><g
           id="g160"><path
             d="m 539.84295,586.4225 118.04167,-19.70691 v 39.41383 z"
             style="fill:#800000;fill-opacity:1;fill-rule:evenodd;stroke:none"
             id="path162" /></g><g
           id="g164"
           transform="matrix(47.216667,0,0,-47.34,0,2367)"><path
             d="m 11.433313,37.612537 2.5,0.416284 v -0.832569 z"
             style="fill:#800000;fill-opacity:1;fill-rule:evenodd;stroke:#800000;stroke-width:0.13;stroke-linecap:round;stroke-linejoin:round;stroke-miterlimit:10;stroke-dasharray:none;stroke-opacity:1"
             id="path166" /></g><g
           id="g168"><path
             d="m 2212.0447,586.4225 -118.0416,19.70692 v -39.41383 z"
             style="fill:#800000;fill-opacity:1;fill-rule:evenodd;stroke:none"
             id="path170" /></g><g
           id="g172"
           transform="matrix(47.216667,0,0,-47.34,0,2367)"><path
             d="m 46.848812,37.612537 -2.5,-0.416285 v 0.832569 z"
             style="fill:#800000;fill-opacity:1;fill-rule:evenodd;stroke:#800000;stroke-width:0.13;stroke-linecap:round;stroke-linejoin:round;stroke-miterlimit:10;stroke-dasharray:none;stroke-opacity:1"
             id="path174" /><path
             d="m 11.433313,35.237537 v 3.625"
             style="fill:none;stroke:#800000;stroke-width:0.13;stroke-linecap:round;stroke-linejoin:round;stroke-miterlimit:10;stroke-dasharray:none;stroke-opacity:1"
             id="path176" /><path
             d="m 46.848812,35.237537 v 3.625"
             style="fill:none;stroke:#800000;stroke-width:0.13;stroke-linecap:round;stroke-linejoin:round;stroke-miterlimit:10;stroke-dasharray:none;stroke-opacity:1"
             id="path178" /></g><g
           id="g180"
           transform="matrix(1.2378612,0,0,1.2410945,1283.0076,142.65848)"><g
             id="g182"><text
               transform="translate(0,143)"
               style="font-variant:normal;font-weight:normal;font-size:133px;font-family:'Noto Sans';-inkscape-font-specification:NotoSans-Regular;writing-mode:lr-tb;fill:#800000;fill-opacity:1;fill-rule:nonzero;stroke:none"
               id="text186"><tspan
                 x="0"
                 y="0"
                 id="tspan184">b</tspan></text></g></g><g
           id="g188"
           transform="matrix(47.216667,0,0,-47.34,0,2367)" /><g
           id="g190"
           transform="matrix(0.49514446,0,0,0.49643782,1384.2414,249.1444)"><g
             id="g192"><text
               transform="translate(0,143)"
               style="font-variant:normal;font-weight:normal;font-size:133px;font-family:'Noto Sans';-inkscape-font-specification:NotoSans-Regular;writing-mode:lr-tb;fill:#800000;fill-opacity:1;fill-rule:nonzero;stroke:none"
               id="text196"><tspan
                 x="0 71.015625"
                 y="0"
                 sodipodi:role="line"
                 id="tspan194">kn</tspan></text></g></g><g
           id="g198"
           transform="matrix(47.216667,0,0,-47.34,0,2367)"><path
             d="M 9.1410628,42.612537 H 49.141063"
             style="fill:none;stroke:#800000;stroke-width:0.13;stroke-linecap:round;stroke-linejoin:round;stroke-miterlimit:10;stroke-dasharray:none;stroke-opacity:1"
             id="path200" /></g><g
           id="g202"><path
             d="m 431.61051,349.7225 118.04167,-19.70691 v 39.41383 z"
             style="fill:#800000;fill-opacity:1;fill-rule:evenodd;stroke:none"
             id="path204" /></g><g
           id="g206"
           transform="matrix(47.216667,0,0,-47.34,0,2367)"><path
             d="m 9.1410628,42.612537 2.5000002,0.416284 v -0.832569 z"
             style="fill:#800000;fill-opacity:1;fill-rule:evenodd;stroke:#800000;stroke-width:0.13;stroke-linecap:round;stroke-linejoin:round;stroke-miterlimit:10;stroke-dasharray:none;stroke-opacity:1"
             id="path208" /></g><g
           id="g210"><path
             d="m 2320.2772,349.7225 -118.0417,19.70692 v -39.41383 z"
             style="fill:#800000;fill-opacity:1;fill-rule:evenodd;stroke:none"
             id="path212" /></g><g
           id="g214"
           transform="matrix(47.216667,0,0,-47.34,0,2367)"><path
             d="m 49.141063,42.612537 -2.5,-0.416285 v 0.832569 z"
             style="fill:#800000;fill-opacity:1;fill-rule:evenodd;stroke:#800000;stroke-width:0.13;stroke-linecap:round;stroke-linejoin:round;stroke-miterlimit:10;stroke-dasharray:none;stroke-opacity:1"
             id="path216" /><path
             d="m 9.1410628,22.237537 v 21.625"
             style="fill:none;stroke:#800000;stroke-width:0.13;stroke-linecap:round;stroke-linejoin:round;stroke-miterlimit:10;stroke-dasharray:none;stroke-opacity:1"
             id="path218" /><path
             d="m 49.141063,22.237537 v 21.625"
             style="fill:none;stroke:#800000;stroke-width:0.13;stroke-linecap:round;stroke-linejoin:round;stroke-miterlimit:10;stroke-dasharray:none;stroke-opacity:1"
             id="path220" /></g><g
           id="g222"
           transform="matrix(0,-1.2410945,1.2378612,0,2352.5534,1084.5261)"><g
             id="g224"><text
               transform="translate(0,143)"
               style="font-variant:normal;font-weight:normal;font-size:133px;font-family:'Noto Sans';-inkscape-font-specification:NotoSans-Regular;writing-mode:lr-tb;fill:#008000;fill-opacity:1;fill-rule:nonzero;stroke:none"
               id="text228"><tspan
                 x="0"
                 y="0"
                 id="tspan226">d</tspan></text></g></g><g
           id="g230"
           transform="matrix(47.216667,0,0,-47.34,0,2367)"><path
             d="m 54.141063,34.612537 v -13"
             style="fill:none;stroke:#008000;stroke-width:0.13;stroke-linecap:round;stroke-linejoin:round;stroke-miterlimit:10;stroke-dasharray:none;stroke-opacity:1"
             id="path232" /></g><g
           id="g234"><path
             d="m 2556.3605,728.4425 19.6556,118.35 h -39.3112 z"
             style="fill:#008000;fill-opacity:1;fill-rule:evenodd;stroke:none"
             id="path236" /></g><g
           id="g238"
           transform="matrix(47.216667,0,0,-47.34,0,2367)"><path
             d="m 54.141063,34.612537 0.416284,-2.5 h -0.832569 z"
             style="fill:#008000;fill-opacity:1;fill-rule:evenodd;stroke:#008000;stroke-width:0.13;stroke-linecap:round;stroke-linejoin:round;stroke-miterlimit:10;stroke-dasharray:none;stroke-opacity:1"
             id="path240" /></g><g
           id="g242"><path
             d="m 2556.3605,1343.8625 -19.6556,-118.35 h 39.3112 z"
             style="fill:#008000;fill-opacity:1;fill-rule:evenodd;stroke:none"
             id="path244" /></g><g
           id="g246"
           transform="matrix(47.216667,0,0,-47.34,0,2367)"><path
             d="m 54.141063,21.612537 -0.416285,2.5 h 0.832569 z"
             style="fill:#008000;fill-opacity:1;fill-rule:evenodd;stroke:#008000;stroke-width:0.13;stroke-linecap:round;stroke-linejoin:round;stroke-miterlimit:10;stroke-dasharray:none;stroke-opacity:1"
             id="path248" /><path
             d="m 47.473812,34.612537 h 7.917251"
             style="fill:none;stroke:#008000;stroke-width:0.13;stroke-linecap:round;stroke-linejoin:round;stroke-miterlimit:10;stroke-dasharray:none;stroke-opacity:1"
             id="path250" /><path
             d="m 52.266063,21.612537 h 3.125"
             style="fill:none;stroke:#008000;stroke-width:0.13;stroke-linecap:round;stroke-linejoin:round;stroke-miterlimit:10;stroke-dasharray:none;stroke-opacity:1"
             id="path252" /></g><g
           id="g254"
           transform="matrix(0.79568182,-0.95073358,0.94825666,0.79776019,1827.4574,1016.813)"><g
             id="g256"><text
               transform="translate(0,143)"
               style="font-variant:normal;font-weight:normal;font-size:133px;font-family:'Noto Sans';-inkscape-font-specification:NotoSans-Regular;writing-mode:lr-tb;fill:#800000;fill-opacity:1;fill-rule:nonzero;stroke:none"
               id="text260"><tspan
                 x="0"
                 y="0"
                 id="tspan258">α</tspan></text></g></g><g
           id="g262"
           transform="matrix(47.216667,0,0,-47.34,0,2367)" /><g
           id="g264"
           transform="matrix(0.31827273,-0.38029343,0.37930267,0.31910408,1973.8897,1007.5087)"><g
             id="g266"><text
               transform="translate(0,143)"
               style="font-variant:normal;font-weight:normal;font-size:133px;font-family:'Noto Sans';-inkscape-font-specification:NotoSans-Regular;writing-mode:lr-tb;fill:#800000;fill-opacity:1;fill-rule:nonzero;stroke:none"
               id="text270"><tspan
                 x="0"
                 y="0"
                 id="tspan268">1</tspan></text></g></g><g
           id="g272"
           transform="matrix(47.216667,0,0,-47.34,0,2367)"><path
             d="m 47.248758,32.344328 0.709369,-4.023027"
             style="fill:none;stroke:#800000;stroke-width:0.13;stroke-linecap:round;stroke-linejoin:round;stroke-miterlimit:10;stroke-dasharray:none;stroke-opacity:1"
             id="path274" /><path
             d="M 46.837863,21.612537 H 39.828805"
             style="fill:none;stroke:#800000;stroke-width:0.13;stroke-linecap:round;stroke-linejoin:round;stroke-miterlimit:10;stroke-dasharray:none;stroke-opacity:1"
             id="path276" /><path
             d="m 47.741066,29.552311 -0.145223,-0.02698 -0.144705,-0.02964 -0.144137,-0.03228 -0.143522,-0.03492 -0.142858,-0.03754 -0.142146,-0.04015 -0.141387,-0.04275 -0.14058,-0.04533 -0.139726,-0.0479 -0.138825,-0.05045 -0.137877,-0.05299 -0.136883,-0.05551 -0.135844,-0.058 -0.134758,-0.06048 -0.133627,-0.06294 -0.132452,-0.06538 -0.131232,-0.06779 -0.129968,-0.07019 -0.12866,-0.07256 -0.12731,-0.0749 -0.125916,-0.07722 -0.12448,-0.07951 -0.123002,-0.08178 -0.121484,-0.08402 -0.119924,-0.08623 -0.118324,-0.08842 -0.116684,-0.09057 -0.115006,-0.09269 -0.113288,-0.09478 -0.111533,-0.09684 -0.10974,-0.09887 -0.10791,-0.100862 -0.106044,-0.102822 -0.104143,-0.104748 -0.102206,-0.106638 -0.100235,-0.108493 -0.09823,-0.11031 -0.09619,-0.112092 -0.09412,-0.113835 -0.09202,-0.115541 -0.08989,-0.117207 -0.08773,-0.118834 -0.08554,-0.120421 -0.08332,-0.121969 -0.08107,-0.123474 -0.07879,-0.124938 -0.07649,-0.126361 -0.07416,-0.127741 -0.07181,-0.129079 -0.06943,-0.130372 -0.06703,-0.131623 -0.06461,-0.132828 -0.06217,-0.13399 -0.0597,-0.135106 -0.05721,-0.136177 -0.05471,-0.137203 -0.05219,-0.138181 -0.04965,-0.139115 -0.04709,-0.140001 -0.04452,-0.14084 -0.04193,-0.141632 -0.03933,-0.142376 -0.03671,-0.143074 -0.03409,-0.143721 -0.03145,-0.144322 -0.0288,-0.144874 -0.02614,-0.145377 -0.02347,-0.145832 -0.0208,-0.146237 -0.01811,-0.146594 -0.01543,-0.146901 -0.01273,-0.147158 -0.01003,-0.147368 -0.0073,-0.147526 -0.0046,-0.147636 -0.0019,-0.147696 -6e-5,-0.03104"
             style="fill:none;stroke:#800000;stroke-width:0.13;stroke-linecap:round;stroke-linejoin:round;stroke-miterlimit:10;stroke-dasharray:none;stroke-opacity:1"
             id="path278" /></g><g
           id="g280"><path
             d="m 2254.174,967.99361 -105.3272,56.94929 -12.7228,-37.29252 z"
             style="fill:#800000;fill-opacity:1;fill-rule:evenodd;stroke:none"
             id="path282" /></g><g
           id="g284"
           transform="matrix(47.216667,0,0,-47.34,0,2367)"><path
             d="m 47.741066,29.552311 -2.230721,-1.202986 -0.269455,0.78776 z"
             style="fill:#800000;fill-opacity:1;fill-rule:evenodd;stroke:#800000;stroke-width:0.13;stroke-linecap:round;stroke-linejoin:round;stroke-miterlimit:10;stroke-dasharray:none;stroke-opacity:1"
             id="path286" /></g><g
           id="g288"><path
             d="m 1939.6042,1343.8625 -1.1914,-119.9736 38.8396,6.0864 z"
             style="fill:#800000;fill-opacity:1;fill-rule:evenodd;stroke:none"
             id="path290" /></g><g
           id="g292"
           transform="matrix(47.216667,0,0,-47.34,0,2367)"><path
             d="m 41.078805,21.612537 -0.02523,2.534296 0.822583,-0.128568 -0.797349,-2.405728 z"
             style="fill:#800000;fill-opacity:1;fill-rule:evenodd;stroke:#800000;stroke-width:0.13;stroke-linecap:round;stroke-linejoin:round;stroke-miterlimit:10;stroke-dasharray:none;stroke-opacity:1"
             id="path294" /></g></g></g></g></svg>
