<?xml version="1.0" encoding="UTF-8" standalone="no"?>
<!-- Created with Inkscape (http://www.inkscape.org/) -->

<svg
   version="1.1"
   id="svg2"
   xml:space="preserve"
   width="226.66667"
   height="132"
   viewBox="0 0 226.66667 132"
   sodipodi:docname="constricted_swedish_oval.svg"
   inkscape:version="1.1.2 (0a00cf5339, 2022-02-04)"
   xmlns:inkscape="http://www.inkscape.org/namespaces/inkscape"
   xmlns:sodipodi="http://sodipodi.sourceforge.net/DTD/sodipodi-0.dtd"
   xmlns="http://www.w3.org/2000/svg"
   xmlns:svg="http://www.w3.org/2000/svg"><defs
     id="defs6" /><sodipodi:namedview
     id="namedview4"
     pagecolor="#ffffff"
     bordercolor="#666666"
     borderopacity="1.0"
     inkscape:pageshadow="2"
     inkscape:pageopacity="0.0"
     inkscape:pagecheckerboard="0"
     showgrid="false"
     inkscape:zoom="4.7727273"
     inkscape:cx="69.142857"
     inkscape:cy="66"
     inkscape:window-width="1920"
     inkscape:window-height="1007"
     inkscape:window-x="0"
     inkscape:window-y="0"
     inkscape:window-maximized="1"
     inkscape:current-layer="g8" /><g
     id="g8"
     inkscape:groupmode="layer"
     inkscape:label="constricted_swedish_oval"
     transform="matrix(1.3333333,0,0,-1.3333333,0,132)"><g
       id="g10"
       transform="matrix(0.06,0,0,-0.06,0,99)"><g
         id="g12"><g
           id="g14" /></g><g
         id="g16"><g
           id="g18" /><g
           id="g20"
           transform="matrix(47.216667,0,0,-47.142857,0,1650)"><path
             d="m 4.625,12.612537 h 1.05 m 0.3835,0 h 0.013 m 0.3835,0 h 1.56 m 0.3835,0 h 0.013 m 0.3835,0 h 1.56 m 0.3835,0 h 0.013 m 0.3835,0 h 1.56 m 0.3835,0 h 0.013 m 0.3835,0 h 1.56 m 0.3835,0 h 0.013 m 0.3835,0 h 1.56 m 0.3835,0 h 0.013 m 0.3835,0 h 1.56 m 0.3835,0 h 0.013 m 0.3835,0 h 1.56 m 0.3835,0 h 0.013 m 0.3835,0 h 1.56 m 0.3835,0 h 0.013 m 0.3835,0 h 1.56 m 0.3835,0 h 0.013 m 0.3835,0 h 1.56 m 0.3835,0 h 0.013 m 0.3835,0 h 1.56 m 0.3835,0 h 0.013 m 0.3835,0 h 1.56 m 0.3835,0 h 0.013 m 0.3835,0 h 1.56 m 0.3835,0 h 0.013 m 0.3835,0 h 1.56 m 0.3835,0 h 0.013 m 0.3835,0 h 1.56 m 0.3835,0 h 0.013 m 0.3835,0 h 1.56 m 0.3835,0 h 0.013 m 0.3835,0 h 1.56 m 0.3835,0 h 0.013 m 0.3835,0 h 1.56 m 0.3835,0 h 0.013 m 0.3835,0 h 1.05"
             style="fill:none;stroke:#000000;stroke-width:0.13;stroke-linecap:round;stroke-linejoin:round;stroke-miterlimit:10;stroke-dasharray:none;stroke-opacity:1"
             id="path22" /></g><g
           id="g24"
           transform="matrix(0,-1.2359261,1.2378612,0,1342.4962,780.37623)"><g
             id="g26"><text
               transform="translate(0,143)"
               style="font-variant:normal;font-weight:normal;font-size:133px;font-family:'Noto Sans';-inkscape-font-specification:NotoSans-Regular;writing-mode:lr-tb;fill:#008000;fill-opacity:1;fill-rule:nonzero;stroke:none"
               id="text30"><tspan
                 x="0"
                 y="0"
                 id="tspan28">i</tspan></text></g></g><g
           id="g32"
           transform="matrix(47.216667,0,0,-47.142857,0,1650)"><path
             d="M 33.125,28.389607 V 17.151236"
             style="fill:none;stroke:#008000;stroke-width:0.13;stroke-linecap:round;stroke-linejoin:round;stroke-miterlimit:10;stroke-dasharray:none;stroke-opacity:1"
             id="path34" /></g><g
           id="g36"><path
             d="m 1564.0521,547.34709 -19.6556,-117.85714 h 39.3112 z"
             style="fill:#008000;fill-opacity:1;fill-rule:evenodd;stroke:none"
             id="path38" /></g><g
           id="g40"
           transform="matrix(47.216667,0,0,-47.142857,0,1650)"><path
             d="m 33.125,23.389607 -0.416285,2.5 h 0.83257 z"
             style="fill:#008000;fill-opacity:1;fill-rule:evenodd;stroke:#008000;stroke-width:0.13;stroke-linecap:round;stroke-linejoin:round;stroke-miterlimit:10;stroke-dasharray:none;stroke-opacity:1"
             id="path42" /></g><g
           id="g44"><path
             d="m 1564.0521,605.72742 19.6556,117.85715 h -39.3112 z"
             style="fill:#008000;fill-opacity:1;fill-rule:evenodd;stroke:none"
             id="path46" /></g><g
           id="g48"
           transform="matrix(47.216667,0,0,-47.142857,0,1650)"><path
             d="m 33.125,22.151236 0.416285,-2.5 h -0.83257 z"
             style="fill:#008000;fill-opacity:1;fill-rule:evenodd;stroke:#008000;stroke-width:0.13;stroke-linecap:round;stroke-linejoin:round;stroke-miterlimit:10;stroke-dasharray:none;stroke-opacity:1"
             id="path50" /><path
             d="M 34.651862,23.389607 H 31.875"
             style="fill:none;stroke:#008000;stroke-width:0.13;stroke-linecap:round;stroke-linejoin:round;stroke-miterlimit:10;stroke-dasharray:none;stroke-opacity:1"
             id="path52" /><path
             d="M 31.081711,22.151236 H 34.375"
             style="fill:none;stroke:#008000;stroke-width:0.13;stroke-linecap:round;stroke-linejoin:round;stroke-miterlimit:10;stroke-dasharray:none;stroke-opacity:1"
             id="path54" /></g><g
           id="g56"
           transform="matrix(0.47370896,-1.1418468,1.1436346,0.47296845,1559.3094,777.53444)"><g
             id="g58"><text
               transform="translate(0,143)"
               style="font-variant:normal;font-weight:normal;font-size:133px;font-family:'Noto Sans';-inkscape-font-specification:NotoSans-Regular;writing-mode:lr-tb;fill:#800000;fill-opacity:1;fill-rule:nonzero;stroke:none"
               id="text62"><tspan
                 x="0"
                 y="0"
                 id="tspan60">α</tspan></text></g></g><g
           id="g64"
           transform="matrix(47.216667,0,0,-47.142857,0,1650)" /><g
           id="g66"
           transform="matrix(0.18948358,-0.45673874,0.45745384,0.18918738,1696.1738,724.73347)"><g
             id="g68"><text
               transform="translate(0,143)"
               style="font-variant:normal;font-weight:normal;font-size:133px;font-family:'Noto Sans';-inkscape-font-specification:NotoSans-Regular;writing-mode:lr-tb;fill:#800000;fill-opacity:1;fill-rule:nonzero;stroke:none"
               id="text72"><tspan
                 x="0"
                 y="0"
                 id="tspan70">1</tspan></text></g></g><g
           id="g74"
           transform="matrix(47.216667,0,0,-47.142857,0,1650)"><path
             d="m 39.738515,20.999022 0.751166,-0.751166"
             style="fill:none;stroke:#800000;stroke-width:0.13;stroke-linecap:round;stroke-linejoin:round;stroke-miterlimit:10;stroke-dasharray:none;stroke-opacity:1"
             id="path76" /><path
             d="m 43.843146,14.612537 h -8.18769"
             style="fill:none;stroke:#800000;stroke-width:0.13;stroke-linecap:round;stroke-linejoin:round;stroke-miterlimit:10;stroke-dasharray:none;stroke-opacity:1"
             id="path78" /><path
             d="m 39.605798,21.131739 -0.104428,-0.106128 -0.102701,-0.107801 -0.100946,-0.109445 -0.09917,-0.111061 -0.09736,-0.112648 -0.09553,-0.114206 -0.09367,-0.115733 -0.09179,-0.117231 -0.08989,-0.118698 -0.08796,-0.120134 -0.08601,-0.121539 -0.08403,-0.122912 -0.08203,-0.124252 -0.08002,-0.125562 -0.07798,-0.126837 -0.07592,-0.12808 -0.07384,-0.129289 -0.07174,-0.130465 -0.06963,-0.131606 -0.0675,-0.132714 -0.06534,-0.133786 -0.06317,-0.134824 -0.06099,-0.135827 -0.05879,-0.136794 -0.05657,-0.137725 -0.05434,-0.138621 -0.05209,-0.139481 -0.04983,-0.140303 -0.04756,-0.14109 -0.04528,-0.141839 -0.04298,-0.142553 -0.04067,-0.143227 -0.03835,-0.143866 -0.03603,-0.144466 -0.03369,-0.14503 -0.03134,-0.145554 -0.02899,-0.146042 -0.02662,-0.146491 -0.02426,-0.146901 -0.02188,-0.147274 -0.0195,-0.147609 -0.01711,-0.147903 -0.01472,-0.148161 -0.01233,-0.14838 -0.0099,-0.148559 -0.0075,-0.1487 -0.0051,-0.148802 -0.0027,-0.148866 -4.81e-4,-0.09419"
             style="fill:none;stroke:#800000;stroke-width:0.13;stroke-linecap:round;stroke-linejoin:round;stroke-miterlimit:10;stroke-dasharray:none;stroke-opacity:1"
             id="path80" /></g><g
           id="g82"><path
             d="m 1870.0537,653.78943 -55.7703,105.71107 -31.2993,-23.74765 z"
             style="fill:#800000;fill-opacity:1;fill-rule:evenodd;stroke:none"
             id="path84" /></g><g
           id="g86"
           transform="matrix(47.216667,0,0,-47.142857,0,1650)"><path
             d="M 39.605798,21.131739 38.42464,18.889383 37.761753,19.393121 Z"
             style="fill:#800000;fill-opacity:1;fill-rule:evenodd;stroke:#800000;stroke-width:0.13;stroke-linecap:round;stroke-linejoin:round;stroke-miterlimit:10;stroke-dasharray:none;stroke-opacity:1"
             id="path88" /></g><g
           id="g90"><path
             d="m 1742.5526,961.12326 -3.5199,-119.42818 38.9504,5.30525 z"
             style="fill:#800000;fill-opacity:1;fill-rule:evenodd;stroke:none"
             id="path92" /></g><g
           id="g94"
           transform="matrix(47.216667,0,0,-47.142857,0,1650)"><path
             d="m 36.905456,14.612537 -0.07455,2.533325 0.824929,-0.112536 -0.75038,-2.420789 z"
             style="fill:#800000;fill-opacity:1;fill-rule:evenodd;stroke:#800000;stroke-width:0.13;stroke-linecap:round;stroke-linejoin:round;stroke-miterlimit:10;stroke-dasharray:none;stroke-opacity:1"
             id="path96" /><path
             d="m 27.125,1.1125369 v 0.58 m 0,0.3835 v 0.013 m 0,0.3835 v 1.56 m 0,0.3835 v 0.013 m 0,0.3835 v 1.56 m 0,0.3835 v 0.013 m 0,0.3835 v 1.56 m 0,0.3835 v 0.013 m 0,0.3835 v 1.5600001 m 0,0.3835 v 0.013 m 0,0.3835 v 1.56 m 0,0.3835 v 0.013 m 0,0.3835 v 1.56 m 0,0.3835 v 0.013 m 0,0.3835 v 1.56 m 0,0.3835 v 0.013 m 0,0.3835 v 1.56 m 0,0.3835 v 0.013 m 0,0.3835 v 1.56 m 0,0.3835 v 0.013 m 0,0.3835 v 0.58"
             style="fill:none;stroke:#000000;stroke-width:0.13;stroke-linecap:round;stroke-linejoin:round;stroke-miterlimit:10;stroke-dasharray:none;stroke-opacity:1"
             id="path98" /><path
             d="M 4.625,14.612537 H 6.4681457"
             style="fill:none;stroke:#000000;stroke-width:0.25;stroke-linecap:round;stroke-linejoin:round;stroke-miterlimit:10;stroke-dasharray:none;stroke-opacity:1"
             id="path100" /><path
             d="M 4.625,10.612537 H 6.4681457"
             style="fill:none;stroke:#000000;stroke-width:0.25;stroke-linecap:round;stroke-linejoin:round;stroke-miterlimit:10;stroke-dasharray:none;stroke-opacity:1"
             id="path102" /><path
             d="M 47.781854,14.612537 H 49.625"
             style="fill:none;stroke:#000000;stroke-width:0.25;stroke-linecap:round;stroke-linejoin:round;stroke-miterlimit:10;stroke-dasharray:none;stroke-opacity:1"
             id="path104" /><path
             d="M 47.781854,10.612537 H 49.625"
             style="fill:none;stroke:#000000;stroke-width:0.25;stroke-linecap:round;stroke-linejoin:round;stroke-miterlimit:10;stroke-dasharray:none;stroke-opacity:1"
             id="path106" /><path
             d="m 9.2965729,15.78411 6.1410311,6.141031"
             style="fill:none;stroke:#000000;stroke-width:0.25;stroke-linecap:round;stroke-linejoin:round;stroke-miterlimit:10;stroke-dasharray:none;stroke-opacity:1"
             id="path108" /><path
             d="m 44.953427,15.78411 -6.141031,6.141031"
             style="fill:none;stroke:#000000;stroke-width:0.25;stroke-linecap:round;stroke-linejoin:round;stroke-miterlimit:10;stroke-dasharray:none;stroke-opacity:1"
             id="path110" /><path
             d="M 9.2965729,9.440964 15.437604,3.2999327"
             style="fill:none;stroke:#000000;stroke-width:0.25;stroke-linecap:round;stroke-linejoin:round;stroke-miterlimit:10;stroke-dasharray:none;stroke-opacity:1"
             id="path112" /><path
             d="M 44.953427,9.440964 38.812396,3.2999327"
             style="fill:none;stroke:#000000;stroke-width:0.25;stroke-linecap:round;stroke-linejoin:round;stroke-miterlimit:10;stroke-dasharray:none;stroke-opacity:1"
             id="path114" /><path
             d="m 6.4681457,14.612537 0.1488578,0.0028 0.1486516,0.0083 0.1482394,0.01384 0.1476218,0.01934 0.1467999,0.02482 0.1457743,0.03027 0.144547,0.03567 0.1431194,0.04103 0.1414934,0.04632 0.1396715,0.05156 0.1376561,0.05672 0.1354499,0.0618 0.1330561,0.0668 0.130478,0.07171 0.1277191,0.07651 0.1247832,0.08121 0.1216746,0.0858 0.1183972,0.09027 0.114956,0.09461 0.1113553,0.09882 0.1076006,0.102901 0.010525,0.01049"
             style="fill:none;stroke:#000000;stroke-width:0.25;stroke-linecap:round;stroke-linejoin:round;stroke-miterlimit:10;stroke-dasharray:none;stroke-opacity:1"
             id="path116" /><path
             d="m 6.4681457,10.612537 0.1488578,-0.0028 0.1486516,-0.0083 0.1482394,-0.01383 0.1476218,-0.01934 0.1467999,-0.02482 0.1457743,-0.03027 0.144547,-0.03567 0.1431194,-0.04103 0.1414934,-0.04633 0.1396715,-0.05156 0.1376561,-0.05672 0.1354499,-0.0618 0.1330561,-0.0668 0.130478,-0.07171 L 8.587281,10.005047 8.7120642,9.923834 8.8337388,9.838034 8.952136,9.7477868 9.067092,9.6531747 9.1784473,9.5543501 9.2860479,9.45145 9.2965729,9.440964"
             style="fill:none;stroke:#000000;stroke-width:0.25;stroke-linecap:round;stroke-linejoin:round;stroke-miterlimit:10;stroke-dasharray:none;stroke-opacity:1"
             id="path118" /><path
             d="m 44.953427,15.78411 0.107218,-0.103299 0.110987,-0.09924 0.114604,-0.09504 0.118061,-0.09071 0.121355,-0.08625 0.124481,-0.08168 0.127434,-0.07699 0.130211,-0.07219 0.132807,-0.06729 0.135219,-0.06231 0.137445,-0.05723 0.139479,-0.05208 0.14132,-0.04685 0.142966,-0.04156 0.144413,-0.03621 0.145661,-0.03081 0.146707,-0.02537 0.147549,-0.01989 0.148187,-0.01439 0.14862,-0.0089 0.148846,-0.0033 0.01486,-2.7e-5"
             style="fill:none;stroke:#000000;stroke-width:0.25;stroke-linecap:round;stroke-linejoin:round;stroke-miterlimit:10;stroke-dasharray:none;stroke-opacity:1"
             id="path120" /><path
             d="m 44.953427,9.440964 0.107218,0.1032991 0.110987,0.099237 0.114604,0.095038 0.118061,0.090708 0.121355,0.086251 0.124481,0.081675 0.127434,0.076987 0.130211,0.07219 0.132807,0.06729 0.135219,0.06231 0.137445,0.05723 0.139479,0.05208 0.14132,0.04685 0.142966,0.04156 0.144413,0.03621 0.145661,0.03081 0.146707,0.02537 0.147549,0.01989 0.148187,0.01438 0.14862,0.0089 0.148846,0.0033 0.01486,2.8e-5"
             style="fill:none;stroke:#000000;stroke-width:0.25;stroke-linecap:round;stroke-linejoin:round;stroke-miterlimit:10;stroke-dasharray:none;stroke-opacity:1"
             id="path122" /><path
             d="m 6.4681457,14.612537 h 0.6334272 m 0.39,0 H 8.125"
             style="fill:none;stroke:#000000;stroke-width:0.13;stroke-linecap:round;stroke-linejoin:round;stroke-miterlimit:10;stroke-dasharray:none;stroke-opacity:1"
             id="path124" /><path
             d="m 8.125,14.612537 0.4479006,0.4479 m 0.2757717,0.275772 0.4479006,0.447901"
             style="fill:none;stroke:#000000;stroke-width:0.13;stroke-linecap:round;stroke-linejoin:round;stroke-miterlimit:10;stroke-dasharray:none;stroke-opacity:1"
             id="path126" /><path
             d="m 44.953427,15.78411 0.447901,-0.447901 m 0.275771,-0.275772 0.447901,-0.4479"
             style="fill:none;stroke:#000000;stroke-width:0.13;stroke-linecap:round;stroke-linejoin:round;stroke-miterlimit:10;stroke-dasharray:none;stroke-opacity:1"
             id="path128" /><path
             d="m 46.125,14.612537 h 0.633427 m 0.39,0 h 0.633427"
             style="fill:none;stroke:#000000;stroke-width:0.13;stroke-linecap:round;stroke-linejoin:round;stroke-miterlimit:10;stroke-dasharray:none;stroke-opacity:1"
             id="path130" /></g><g
           id="g132"
           transform="matrix(1.2378612,0,0,1.2359261,1187.8796,0.63582606)"><g
             id="g134"><text
               transform="translate(0,143)"
               style="font-variant:normal;font-weight:normal;font-size:133px;font-family:'Noto Sans';-inkscape-font-specification:NotoSans-Regular;writing-mode:lr-tb;fill:#800000;fill-opacity:1;fill-rule:nonzero;stroke:none"
               id="text138"><tspan
                 x="0"
                 y="0"
                 id="tspan136">b</tspan></text></g></g><g
           id="g140"
           transform="matrix(47.216667,0,0,-47.142857,0,1650)" /><g
           id="g142"
           transform="matrix(0.49514446,0,0,0.49437045,1289.1134,106.67829)"><g
             id="g144"><text
               transform="translate(0,143)"
               style="font-variant:normal;font-weight:normal;font-size:133px;font-family:'Noto Sans';-inkscape-font-specification:NotoSans-Regular;writing-mode:lr-tb;fill:#800000;fill-opacity:1;fill-rule:nonzero;stroke:none"
               id="text148"><tspan
                 x="0 71.015625"
                 y="0"
                 sodipodi:role="line"
                 id="tspan146">kn</tspan></text></g></g><g
           id="g150"
           transform="matrix(47.216667,0,0,-47.142857,0,1650)"><path
             d="m 8.125,30.612537 h 38"
             style="fill:none;stroke:#800000;stroke-width:0.13;stroke-linecap:round;stroke-linejoin:round;stroke-miterlimit:10;stroke-dasharray:none;stroke-opacity:1"
             id="path152" /></g><g
           id="g154"><path
             d="M 383.63542,206.83755 501.67708,187.2127 v 39.2497 z"
             style="fill:#800000;fill-opacity:1;fill-rule:evenodd;stroke:none"
             id="path156" /></g><g
           id="g158"
           transform="matrix(47.216667,0,0,-47.142857,0,1650)"><path
             d="m 8.125,30.612537 2.5,0.416284 v -0.832569 z"
             style="fill:#800000;fill-opacity:1;fill-rule:evenodd;stroke:#800000;stroke-width:0.13;stroke-linecap:round;stroke-linejoin:round;stroke-miterlimit:10;stroke-dasharray:none;stroke-opacity:1"
             id="path160" /></g><g
           id="g162"><path
             d="M 2177.8688,206.83755 2059.8271,226.4624 V 187.2127 Z"
             style="fill:#800000;fill-opacity:1;fill-rule:evenodd;stroke:none"
             id="path164" /></g><g
           id="g166"
           transform="matrix(47.216667,0,0,-47.142857,0,1650)"><path
             d="m 46.125,30.612537 -2.5,-0.416285 v 0.832569 z"
             style="fill:#800000;fill-opacity:1;fill-rule:evenodd;stroke:#800000;stroke-width:0.13;stroke-linecap:round;stroke-linejoin:round;stroke-miterlimit:10;stroke-dasharray:none;stroke-opacity:1"
             id="path168" /><path
             d="m 8.125,15.237537 v 16.625"
             style="fill:none;stroke:#800000;stroke-width:0.13;stroke-linecap:round;stroke-linejoin:round;stroke-miterlimit:10;stroke-dasharray:none;stroke-opacity:1"
             id="path170" /><path
             d="m 46.125,15.237537 v 16.625"
             style="fill:none;stroke:#800000;stroke-width:0.13;stroke-linecap:round;stroke-linejoin:round;stroke-miterlimit:10;stroke-dasharray:none;stroke-opacity:1"
             id="path172" /><path
             d="m 21.383213,22.770422 -0.131503,0.06981 -0.133523,0.06587 -0.135426,0.06186 -0.137207,0.0578 -0.138867,0.05369 -0.140405,0.04954 -0.141817,0.04533 -0.143105,0.04109 -0.144264,0.03681 -0.145296,0.0325 -0.146199,0.02816 -0.146974,0.02379 -0.147616,0.01941 -0.148129,0.015 -0.148509,0.01059 -0.14876,0.0062 -0.148876,0.0017 -0.148862,-0.0027 -0.148716,-0.0071 -0.148437,-0.01156 -0.148027,-0.01598 -0.147486,-0.02037 -0.146814,-0.02476 -0.146011,-0.02912 -0.14508,-0.03345 -0.14402,-0.03776 -0.142831,-0.04203 -0.141517,-0.04626 -0.140077,-0.05045 -0.138512,-0.0546 -0.136825,-0.0587 -0.135017,-0.06275 -0.133088,-0.06674 -0.131042,-0.07068 -0.12888,-0.07455 -0.126603,-0.07835 -0.124214,-0.08209 -0.121715,-0.08575 -0.119108,-0.08933 -0.116396,-0.09284 -0.113579,-0.09626 -0.110663,-0.0996 -0.107648,-0.102855 -0.02797,-0.02774"
             style="fill:none;stroke:#000000;stroke-width:0.25;stroke-linecap:round;stroke-linejoin:round;stroke-miterlimit:10;stroke-dasharray:none;stroke-opacity:1"
             id="path174" /><path
             d="m 32.866787,22.770422 0.131503,0.06981 0.133523,0.06587 0.135425,0.06186 0.137208,0.0578 0.138867,0.05369 0.140405,0.04954 0.141817,0.04533 0.143104,0.04109 0.144265,0.03681 0.145296,0.0325 0.146199,0.02816 0.146973,0.02379 0.147617,0.01941 0.148128,0.015 0.14851,0.01059 0.148759,0.0062 0.148877,0.0017 0.148862,-0.0027 0.148716,-0.0071 0.148437,-0.01156 0.148027,-0.01598 0.147486,-0.02037 0.146814,-0.02476 0.146011,-0.02912 0.14508,-0.03345 0.14402,-0.03776 0.142831,-0.04203 0.141517,-0.04626 0.140077,-0.05045 0.138512,-0.0546 0.136825,-0.0587 0.135017,-0.06275 0.133088,-0.06674 0.131042,-0.07068 0.12888,-0.07455 0.126603,-0.07835 0.124214,-0.08209 0.121715,-0.08575 0.119108,-0.08933 0.116395,-0.09284 0.11358,-0.09626 0.110663,-0.0996 0.107648,-0.102855 0.02797,-0.02774"
             style="fill:none;stroke:#000000;stroke-width:0.25;stroke-linecap:round;stroke-linejoin:round;stroke-miterlimit:10;stroke-dasharray:none;stroke-opacity:1"
             id="path176" /><path
             d="M 21.383213,2.4546519 21.25171,2.3848365 21.118187,2.3189674 20.982761,2.257103 20.845554,2.1992982 20.706687,2.1456042 20.566282,2.0960687 20.424465,2.0507356 20.28136,2.009645 20.137096,1.972833 19.9918,1.940333 19.845601,1.912174 19.698627,1.88838 19.551011,1.868972 19.402882,1.853968 19.254373,1.843381 l -0.14876,-0.00616 -0.148876,-0.00173 -0.148862,0.00271 -0.148716,0.00714 -0.148437,0.011561 -0.148027,0.015975 -0.147486,0.020376 -0.146814,0.024758 -0.146011,0.029118 -0.14508,0.033452 -0.14402,0.037757 -0.142831,0.042028 -0.141517,0.046263 -0.140077,0.050456 -0.138512,0.054604 -0.136825,0.058704 -0.135017,0.062752 -0.133088,0.066744 -0.131042,0.070677 -0.12888,0.074547 -0.126603,0.078351 -0.124214,0.082086 -0.121715,0.085748 -0.119108,0.089334 -0.116396,0.092841 -0.113579,0.096265 -0.110663,0.099604 -0.107648,0.1028547 -0.02797,0.027745"
             style="fill:none;stroke:#000000;stroke-width:0.25;stroke-linecap:round;stroke-linejoin:round;stroke-miterlimit:10;stroke-dasharray:none;stroke-opacity:1"
             id="path178" /><path
             d="m 32.866787,2.4546519 0.131503,-0.069815 0.133523,-0.065869 0.135425,-0.061864 0.137208,-0.057805 0.138867,-0.053694 0.140405,-0.049536 0.141817,-0.045333 0.143104,-0.041091 0.144265,-0.036812 0.145296,-0.0325 0.146199,-0.028159 0.146973,-0.023794 0.147617,-0.019408 0.148128,-0.015004 0.14851,-0.010587 0.148759,-0.00616 0.148877,-0.00173 0.148862,0.00271 0.148716,0.00714 0.148437,0.011561 0.148027,0.015975 0.147486,0.020376 0.146814,0.024758 0.146011,0.029118 0.14508,0.033452 0.14402,0.037757 0.142831,0.042028 0.141517,0.046263 0.140077,0.050456 0.138512,0.054604 0.136825,0.058704 0.135017,0.062752 0.133088,0.066744 0.131042,0.070677 0.12888,0.074547 0.126603,0.078351 0.124214,0.082086 0.121715,0.085748 0.119108,0.089334 0.116395,0.092841 0.11358,0.096265 0.110663,0.099604 0.107648,0.1028547 0.02797,0.027745"
             style="fill:none;stroke:#000000;stroke-width:0.25;stroke-linecap:round;stroke-linejoin:round;stroke-miterlimit:10;stroke-dasharray:none;stroke-opacity:1"
             id="path180" /><path
             d="M 23.793289,22.151236 H 27.125"
             style="fill:none;stroke:#000000;stroke-width:0.25;stroke-linecap:round;stroke-linejoin:round;stroke-miterlimit:10;stroke-dasharray:none;stroke-opacity:1"
             id="path182" /><path
             d="M 30.456711,22.151236 H 27.125"
             style="fill:none;stroke:#000000;stroke-width:0.25;stroke-linecap:round;stroke-linejoin:round;stroke-miterlimit:10;stroke-dasharray:none;stroke-opacity:1"
             id="path184" /><path
             d="M 30.456711,3.0738373 H 27.125"
             style="fill:none;stroke:#000000;stroke-width:0.25;stroke-linecap:round;stroke-linejoin:round;stroke-miterlimit:10;stroke-dasharray:none;stroke-opacity:1"
             id="path186" /><path
             d="M 23.793289,3.0738373 H 27.125"
             style="fill:none;stroke:#000000;stroke-width:0.25;stroke-linecap:round;stroke-linejoin:round;stroke-miterlimit:10;stroke-dasharray:none;stroke-opacity:1"
             id="path188" /><path
             d="m 21.383213,22.770422 0.131503,-0.06982 0.133524,-0.06587 0.135425,-0.06186 0.137207,-0.05781 0.138868,-0.05369 0.140405,-0.04953 0.141817,-0.04533 0.143104,-0.04109 0.144264,-0.03681 0.145297,-0.0325 0.146199,-0.02816 0.146973,-0.02379 0.147616,-0.01941 0.148129,-0.015 0.14851,-0.01059 0.148759,-0.0062 0.132476,-0.0018"
             style="fill:none;stroke:#000000;stroke-width:0.25;stroke-linecap:round;stroke-linejoin:round;stroke-miterlimit:10;stroke-dasharray:none;stroke-opacity:1"
             id="path190" /><path
             d="m 32.866787,22.770422 -0.131503,-0.06982 -0.133524,-0.06587 -0.135425,-0.06186 -0.137208,-0.05781 -0.138867,-0.05369 -0.140405,-0.04953 -0.141817,-0.04533 -0.143104,-0.04109 -0.144264,-0.03681 -0.145297,-0.0325 -0.146199,-0.02816 -0.146973,-0.02379 -0.147617,-0.01941 -0.148128,-0.015 -0.14851,-0.01059 -0.148759,-0.0062 -0.132476,-0.0018"
             style="fill:none;stroke:#000000;stroke-width:0.25;stroke-linecap:round;stroke-linejoin:round;stroke-miterlimit:10;stroke-dasharray:none;stroke-opacity:1"
             id="path192" /><path
             d="m 21.383213,2.4546519 0.131503,0.069815 0.133524,0.065869 0.135425,0.061864 0.137207,0.057805 0.138868,0.053694 0.140405,0.049535 0.141817,0.045333 0.143104,0.041091 0.144264,0.036812 0.145297,0.0325 0.146199,0.02816 0.146973,0.023794 0.147616,0.019408 0.148129,0.015004 0.14851,0.010587 0.148759,0.00616 0.132476,0.00176"
             style="fill:none;stroke:#000000;stroke-width:0.25;stroke-linecap:round;stroke-linejoin:round;stroke-miterlimit:10;stroke-dasharray:none;stroke-opacity:1"
             id="path194" /><path
             d="m 32.866787,2.4546519 -0.131503,0.069815 -0.133524,0.065869 -0.135425,0.061864 -0.137208,0.057805 -0.138867,0.053694 -0.140405,0.049535 -0.141817,0.045333 -0.143104,0.041091 -0.144264,0.036812 -0.145297,0.0325 -0.146199,0.02816 -0.146973,0.023794 -0.147617,0.019408 -0.148128,0.015004 -0.14851,0.010587 -0.148759,0.00616 -0.132476,0.00176"
             style="fill:none;stroke:#000000;stroke-width:0.25;stroke-linecap:round;stroke-linejoin:round;stroke-miterlimit:10;stroke-dasharray:none;stroke-opacity:1"
             id="path196" /><path
             d="M 16.90207,23.389607 H 18.155 m 0.39,0 h 1.56 m 0.39,0 h 1.56 m 0.39,0 h 1.56 m 0.39,0 h 1.56 m 0.39,0 h 1.56 m 0.39,0 h 1.56 m 0.39,0 h 1.56 m 0.39,0 h 1.56 m 0.39,0 h 1.56 m 0.39,0 h 1.25293"
             style="fill:none;stroke:#000000;stroke-width:0.13;stroke-linecap:round;stroke-linejoin:round;stroke-miterlimit:10;stroke-dasharray:none;stroke-opacity:1"
             id="path198" /><path
             d="M 16.90207,23.389607 16.307723,22.79526 m -0.275772,-0.275772 -0.594347,-0.594347"
             style="fill:none;stroke:#000000;stroke-width:0.13;stroke-linecap:round;stroke-linejoin:round;stroke-miterlimit:10;stroke-dasharray:none;stroke-opacity:1"
             id="path200" /><path
             d="m 39.605798,21.131739 -0.991049,0.991048 m -0.275771,0.275772 -0.991048,0.991048"
             style="fill:none;stroke:#000000;stroke-width:0.13;stroke-linecap:round;stroke-linejoin:round;stroke-miterlimit:10;stroke-dasharray:none;stroke-opacity:1"
             id="path202" /></g><g
           id="g204"
           transform="matrix(0,-1.2359261,1.2378612,0,2351.795,802.31077)"><g
             id="g206"><text
               transform="translate(0,143)"
               style="font-variant:normal;font-weight:normal;font-size:133px;font-family:'Noto Sans';-inkscape-font-specification:NotoSans-Regular;writing-mode:lr-tb;fill:#008000;fill-opacity:1;fill-rule:nonzero;stroke:none"
               id="text210"><tspan
                 x="0"
                 y="0"
                 id="tspan208">d</tspan></text></g></g><g
           id="g212"
           transform="matrix(47.216667,0,0,-47.142857,0,1650)"><path
             d="m 54.125,23.389607 v -8.77707"
             style="fill:none;stroke:#008000;stroke-width:0.13;stroke-linecap:round;stroke-linejoin:round;stroke-miterlimit:10;stroke-dasharray:none;stroke-opacity:1"
             id="path214" /></g><g
           id="g216"><path
             d="m 2555.6021,547.34709 19.6556,117.85714 h -39.3112 z"
             style="fill:#008000;fill-opacity:1;fill-rule:evenodd;stroke:none"
             id="path218" /></g><g
           id="g220"
           transform="matrix(47.216667,0,0,-47.142857,0,1650)"><path
             d="m 54.125,23.389607 0.416285,-2.5 h -0.83257 z"
             style="fill:#008000;fill-opacity:1;fill-rule:evenodd;stroke:#008000;stroke-width:0.13;stroke-linecap:round;stroke-linejoin:round;stroke-miterlimit:10;stroke-dasharray:none;stroke-opacity:1"
             id="path222" /></g><g
           id="g224"><path
             d="m 2555.6021,961.12326 -19.6556,-117.85714 h 39.3112 z"
             style="fill:#008000;fill-opacity:1;fill-rule:evenodd;stroke:none"
             id="path226" /></g><g
           id="g228"
           transform="matrix(47.216667,0,0,-47.142857,0,1650)"><path
             d="m 54.125,14.612537 -0.416285,2.5 h 0.83257 z"
             style="fill:#008000;fill-opacity:1;fill-rule:evenodd;stroke:#008000;stroke-width:0.13;stroke-linecap:round;stroke-linejoin:round;stroke-miterlimit:10;stroke-dasharray:none;stroke-opacity:1"
             id="path230" /><path
             d="M 37.97293,23.389607 H 55.375"
             style="fill:none;stroke:#008000;stroke-width:0.13;stroke-linecap:round;stroke-linejoin:round;stroke-miterlimit:10;stroke-dasharray:none;stroke-opacity:1"
             id="path232" /><path
             d="m 50.25,14.612537 h 5.125"
             style="fill:none;stroke:#008000;stroke-width:0.13;stroke-linecap:round;stroke-linejoin:round;stroke-miterlimit:10;stroke-dasharray:none;stroke-opacity:1"
             id="path234" /></g><g
           id="g236"
           transform="matrix(0.7129556,1.0103443,-1.0119262,0.71184111,680.9665,946.75349)"><g
             id="g238"><text
               transform="translate(0,143)"
               style="font-variant:normal;font-weight:normal;font-size:133px;font-family:'Noto Sans';-inkscape-font-specification:NotoSans-Regular;writing-mode:lr-tb;fill:#008000;fill-opacity:1;fill-rule:nonzero;stroke:none"
               id="text242"><tspan
                 x="0"
                 y="0"
                 id="tspan240">r</tspan></text></g></g><g
           id="g244"
           transform="matrix(47.216667,0,0,-47.142857,0,1650)" /><g
           id="g246"
           transform="matrix(0.28518224,0.40413772,-0.40477047,0.28473644,633.3001,1063.3195)"><g
             id="g248"><text
               transform="translate(0,143)"
               style="font-variant:normal;font-weight:normal;font-size:133px;font-family:'Noto Sans';-inkscape-font-specification:NotoSans-Regular;writing-mode:lr-tb;fill:#008000;fill-opacity:1;fill-rule:nonzero;stroke:none"
               id="text252"><tspan
                 x="0"
                 y="0"
                 id="tspan250">1</tspan></text></g></g><g
           id="g254"
           transform="matrix(47.216667,0,0,-47.142857,0,1650)"><path
             d="M 6.4681457,18.612537 12.766261,9.6733721"
             style="fill:none;stroke:#008000;stroke-width:0.13;stroke-linecap:round;stroke-linejoin:round;stroke-miterlimit:10;stroke-dasharray:none;stroke-opacity:1"
             id="path256" /></g><g
           id="g258"><path
             d="m 414.18348,926.70512 84.05503,85.04268 -32.13606,22.6062 z"
             style="fill:#008000;fill-opacity:1;fill-rule:evenodd;stroke:none"
             id="path260" /></g><g
           id="g262"
           transform="matrix(47.216667,0,0,-47.142857,0,1650)"><path
             d="M 8.7719763,15.342619 10.552175,13.538682 9.8715663,13.059158 Z"
             style="fill:#008000;fill-opacity:1;fill-rule:evenodd;stroke:#008000;stroke-width:0.13;stroke-linecap:round;stroke-linejoin:round;stroke-miterlimit:10;stroke-dasharray:none;stroke-opacity:1"
             id="path264" /></g><g
           id="g266"
           transform="matrix(0.72804422,0.99956033,-1.0011253,0.72690613,755.64809,239.97938)"><g
             id="g268"><text
               transform="translate(0,143)"
               style="font-variant:normal;font-weight:normal;font-size:133px;font-family:'Noto Sans';-inkscape-font-specification:NotoSans-Regular;writing-mode:lr-tb;fill:#008000;fill-opacity:1;fill-rule:nonzero;stroke:none"
               id="text272"><tspan
                 x="0"
                 y="0"
                 id="tspan270">r</tspan></text></g></g><g
           id="g274"
           transform="matrix(47.216667,0,0,-47.142857,0,1650)" /><g
           id="g276"
           transform="matrix(0.29121769,0.39982413,-0.40045012,0.29076245,709.73709,357.24565)"><g
             id="g278"><text
               transform="translate(0,143)"
               style="font-variant:normal;font-weight:normal;font-size:133px;font-family:'Noto Sans';-inkscape-font-specification:NotoSans-Regular;writing-mode:lr-tb;fill:#008000;fill-opacity:1;fill-rule:nonzero;stroke:none"
               id="text282"><tspan
                 x="0"
                 y="0"
                 id="tspan280">2</tspan></text></g></g><g
           id="g284"
           transform="matrix(47.216667,0,0,-47.142857,0,1650)"><path
             d="m 18.973138,18.389607 -7.154856,9.838561"
             style="fill:none;stroke:#008000;stroke-width:0.13;stroke-linecap:round;stroke-linejoin:round;stroke-miterlimit:10;stroke-dasharray:none;stroke-opacity:1"
             id="path286" /></g><g
           id="g288"><path
             d="m 756.99665,592.42648 -85.32236,-83.77516 31.79305,-23.08458 z"
             style="fill:#008000;fill-opacity:1;fill-rule:evenodd;stroke:none"
             id="path290" /></g><g
           id="g292"
           transform="matrix(47.216667,0,0,-47.142857,0,1650)"><path
             d="m 16.032403,22.433378 -1.807039,1.777048 0.673344,0.489673 z"
             style="fill:#008000;fill-opacity:1;fill-rule:evenodd;stroke:#008000;stroke-width:0.13;stroke-linecap:round;stroke-linejoin:round;stroke-miterlimit:10;stroke-dasharray:none;stroke-opacity:1"
             id="path294" /></g><g
           id="g296"
           transform="matrix(0.13353335,-1.2287139,1.2306377,0.13332461,861.54355,868.36386)"><g
             id="g298"><text
               transform="translate(0,143)"
               style="font-variant:normal;font-weight:normal;font-size:133px;font-family:'Noto Sans';-inkscape-font-specification:NotoSans-Regular;writing-mode:lr-tb;fill:#008000;fill-opacity:1;fill-rule:nonzero;stroke:none"
               id="text302"><tspan
                 x="0"
                 y="0"
                 id="tspan300">r</tspan></text></g></g><g
           id="g304"
           transform="matrix(47.216667,0,0,-47.142857,0,1650)" /><g
           id="g306"
           transform="matrix(0.05341334,-0.49148557,0.49225507,0.05332985,974.46617,812.31983)"><g
             id="g308"><text
               transform="translate(0,143)"
               style="font-variant:normal;font-weight:normal;font-size:133px;font-family:'Noto Sans';-inkscape-font-specification:NotoSans-Regular;writing-mode:lr-tb;fill:#008000;fill-opacity:1;fill-rule:nonzero;stroke:none"
               id="text312"><tspan
                 x="0"
                 y="0"
                 id="tspan310">4</tspan></text></g></g><g
           id="g314"
           transform="matrix(47.216667,0,0,-47.142857,0,1650)"><path
             d="M 23.793289,27.151236 22.476182,15.012834"
             style="fill:none;stroke:#008000;stroke-width:0.13;stroke-linecap:round;stroke-linejoin:round;stroke-miterlimit:10;stroke-dasharray:none;stroke-opacity:1"
             id="path316" /></g><g
           id="g318"><path
             d="m 1097.9725,604.35192 6.8072,119.28641 -39.0818,-4.23403 z"
             style="fill:#008000;fill-opacity:1;fill-rule:evenodd;stroke:none"
             id="path320" /></g><g
           id="g322"
           transform="matrix(47.216667,0,0,-47.142857,0,1650)"><path
             d="m 23.253917,22.180414 0.14417,-2.530318 -0.827711,0.08981 0.683541,2.440505 z"
             style="fill:#008000;fill-opacity:1;fill-rule:evenodd;stroke:#008000;stroke-width:0.13;stroke-linecap:round;stroke-linejoin:round;stroke-miterlimit:10;stroke-dasharray:none;stroke-opacity:1"
             id="path324" /></g><g
           id="g326"
           transform="matrix(1.2378612,0,0,1.2359261,1205.6932,189.20725)"><g
             id="g328"><text
               transform="translate(0,143)"
               style="font-variant:normal;font-weight:normal;font-size:133px;font-family:'Noto Sans';-inkscape-font-specification:NotoSans-Regular;writing-mode:lr-tb;fill:#800000;fill-opacity:1;fill-rule:nonzero;stroke:none"
               id="text332"><tspan
                 x="0"
                 y="0"
                 id="tspan330">b</tspan></text></g></g><g
           id="g334"
           transform="matrix(47.216667,0,0,-47.142857,0,1650)" /><g
           id="g336"
           transform="matrix(0.49514446,0,0,0.49437045,1306.927,295.24972)"><g
             id="g338"><text
               transform="translate(0,143)"
               style="font-variant:normal;font-weight:normal;font-size:133px;font-family:'Noto Sans';-inkscape-font-specification:NotoSans-Regular;writing-mode:lr-tb;fill:#800000;fill-opacity:1;fill-rule:nonzero;stroke:none"
               id="text342"><tspan
                 x="0"
                 y="0"
                 id="tspan340">d</tspan></text></g></g><g
           id="g344"
           transform="matrix(47.216667,0,0,-47.142857,0,1650)"><path
             d="M 16.90207,26.612537 H 37.34793"
             style="fill:none;stroke:#800000;stroke-width:0.13;stroke-linecap:round;stroke-linejoin:round;stroke-miterlimit:10;stroke-dasharray:none;stroke-opacity:1"
             id="path346" /></g><g
           id="g348"><path
             d="m 798.05942,395.40898 118.04166,-19.62485 v 39.24969 z"
             style="fill:#800000;fill-opacity:1;fill-rule:evenodd;stroke:none"
             id="path350" /></g><g
           id="g352"
           transform="matrix(47.216667,0,0,-47.142857,0,1650)"><path
             d="m 16.90207,26.612537 2.5,0.416284 v -0.832569 z"
             style="fill:#800000;fill-opacity:1;fill-rule:evenodd;stroke:#800000;stroke-width:0.13;stroke-linecap:round;stroke-linejoin:round;stroke-miterlimit:10;stroke-dasharray:none;stroke-opacity:1"
             id="path354" /></g><g
           id="g356"><path
             d="m 1763.4447,395.40898 -118.0416,19.62484 v -39.24969 z"
             style="fill:#800000;fill-opacity:1;fill-rule:evenodd;stroke:none"
             id="path358" /></g><g
           id="g360"
           transform="matrix(47.216667,0,0,-47.142857,0,1650)"><path
             d="m 37.34793,26.612537 -2.5,-0.416285 v 0.832569 z"
             style="fill:#800000;fill-opacity:1;fill-rule:evenodd;stroke:#800000;stroke-width:0.13;stroke-linecap:round;stroke-linejoin:round;stroke-miterlimit:10;stroke-dasharray:none;stroke-opacity:1"
             id="path362" /><path
             d="m 16.90207,24.014607 v 3.84793"
             style="fill:none;stroke:#800000;stroke-width:0.13;stroke-linecap:round;stroke-linejoin:round;stroke-miterlimit:10;stroke-dasharray:none;stroke-opacity:1"
             id="path364" /><path
             d="m 37.34793,24.014607 v 3.84793"
             style="fill:none;stroke:#800000;stroke-width:0.13;stroke-linecap:round;stroke-linejoin:round;stroke-miterlimit:10;stroke-dasharray:none;stroke-opacity:1"
             id="path366" /></g></g></g></g></svg>
