<?xml version="1.0" encoding="UTF-8" standalone="no"?>
<!-- Created with Inkscape (http://www.inkscape.org/) -->

<svg
   version="1.1"
   id="svg2"
   xml:space="preserve"
   width="226.66667"
   height="170.66667"
   viewBox="0 0 226.66667 170.66667"
   sodipodi:docname="diamond.svg"
   inkscape:version="1.1.2 (0a00cf5339, 2022-02-04)"
   xmlns:inkscape="http://www.inkscape.org/namespaces/inkscape"
   xmlns:sodipodi="http://sodipodi.sourceforge.net/DTD/sodipodi-0.dtd"
   xmlns="http://www.w3.org/2000/svg"
   xmlns:svg="http://www.w3.org/2000/svg"><defs
     id="defs6" /><sodipodi:namedview
     id="namedview4"
     pagecolor="#ffffff"
     bordercolor="#666666"
     borderopacity="1.0"
     inkscape:pageshadow="2"
     inkscape:pageopacity="0.0"
     inkscape:pagecheckerboard="0"
     showgrid="false"
     inkscape:zoom="3.6914061"
     inkscape:cx="113.23598"
     inkscape:cy="85.333336"
     inkscape:window-width="1920"
     inkscape:window-height="1007"
     inkscape:window-x="0"
     inkscape:window-y="0"
     inkscape:window-maximized="1"
     inkscape:current-layer="g8" /><g
     id="g8"
     inkscape:groupmode="layer"
     inkscape:label="diamond"
     transform="matrix(1.3333333,0,0,-1.3333333,0,170.66667)"><g
       id="g10"
       transform="matrix(0.06,0,0,-0.06,0,128)"><g
         id="g12"><g
           id="g14" /></g><g
         id="g16"><g
           id="g18" /><g
           id="g20"
           transform="matrix(47.216667,0,0,-47.4,0,2133)"><path
             d="m 5.5913108,18.612537 h 1.05 m 0.3835,0 h 0.013 m 0.3835,0 h 1.5600001 m 0.3835,0 h 0.013 m 0.3834999,0 h 1.5600002 m 0.3835,0 h 0.013 m 0.3835,0 h 1.56 m 0.3835,0 h 0.013 m 0.3835,0 h 1.56 m 0.3835,0 h 0.013 m 0.3835,0 h 1.56 m 0.3835,0 h 0.013 m 0.3835,0 h 1.56 m 0.3835,0 h 0.013 m 0.3835,0 h 1.56 m 0.3835,0 h 0.013 m 0.3835,0 h 1.56 m 0.3835,0 h 0.013 m 0.3835,0 h 1.56 m 0.3835,0 h 0.013 m 0.3835,0 h 1.56 m 0.3835,0 h 0.013 m 0.3835,0 h 1.56 m 0.3835,0 h 0.013 m 0.3835,0 h 1.56 m 0.3835,0 h 0.013 m 0.3835,0 h 1.56 m 0.3835,0 h 0.013 m 0.3835,0 h 1.56 m 0.3835,0 h 0.013 m 0.3835,0 h 1.56 m 0.3835,0 h 0.013 m 0.3835,0 h 1.56 m 0.3835,0 h 0.013 m 0.3835,0 h 1.56 m 0.3835,0 h 0.013 m 0.3835,0 h 1.56 m 0.3835,0 h 0.013 m 0.3835,0 h 1.05"
             style="fill:none;stroke:#000000;stroke-width:0.13;stroke-linecap:round;stroke-linejoin:round;stroke-miterlimit:10;stroke-dasharray:none;stroke-opacity:1"
             id="path22" /><path
             d="m 28.091311,3.1125369 v 1.07 m 0,0.3835 v 0.013 m 0,0.3835 v 1.56 m 0,0.3835 v 0.013 m 0,0.3835 v 1.56 m 0,0.3835 v 0.013 m 0,0.3835 v 1.5600001 m 0,0.3835 v 0.013 m 0,0.3835 v 1.56 m 0,0.3835 v 0.013 m 0,0.3835 v 1.56 m 0,0.3835 v 0.013 m 0,0.3835 v 1.56 m 0,0.3835 v 0.013 m 0,0.3835 v 1.56 m 0,0.3835 v 0.013 m 0,0.3835 v 1.56 m 0,0.3835 v 0.013 m 0,0.3835 v 1.56 m 0,0.3835 v 0.013 m 0,0.3835 v 1.56 m 0,0.3835 v 0.013 m 0,0.3835 v 1.56 m 0,0.3835 v 0.013 m 0,0.3835 v 1.56 m 0,0.3835 v 0.013 m 0,0.3835 v 1.07"
             style="fill:none;stroke:#000000;stroke-width:0.13;stroke-linecap:round;stroke-linejoin:round;stroke-miterlimit:10;stroke-dasharray:none;stroke-opacity:1"
             id="path24" /><path
             d="M 5.5913108,20.612537 H 7.9669552"
             style="fill:none;stroke:#000000;stroke-width:0.25;stroke-linecap:round;stroke-linejoin:round;stroke-miterlimit:10;stroke-dasharray:none;stroke-opacity:1"
             id="path26" /><path
             d="m 48.215666,20.612537 h 2.375645"
             style="fill:none;stroke:#000000;stroke-width:0.25;stroke-linecap:round;stroke-linejoin:round;stroke-miterlimit:10;stroke-dasharray:none;stroke-opacity:1"
             id="path28" /><path
             d="m 48.215666,16.612537 h 2.375645"
             style="fill:none;stroke:#000000;stroke-width:0.25;stroke-linecap:round;stroke-linejoin:round;stroke-miterlimit:10;stroke-dasharray:none;stroke-opacity:1"
             id="path30" /><path
             d="M 5.5913108,16.612537 H 7.9669552"
             style="fill:none;stroke:#000000;stroke-width:0.25;stroke-linecap:round;stroke-linejoin:round;stroke-miterlimit:10;stroke-dasharray:none;stroke-opacity:1"
             id="path32" /><path
             d="M 9.9669552,21.148435 26.091311,30.457836"
             style="fill:none;stroke:#000000;stroke-width:0.25;stroke-linecap:round;stroke-linejoin:round;stroke-miterlimit:10;stroke-dasharray:none;stroke-opacity:1"
             id="path34" /><path
             d="M 9.9669552,16.076638 26.091311,6.7672374"
             style="fill:none;stroke:#000000;stroke-width:0.25;stroke-linecap:round;stroke-linejoin:round;stroke-miterlimit:10;stroke-dasharray:none;stroke-opacity:1"
             id="path36" /><path
             d="M 30.091311,30.457836 46.215666,21.148435"
             style="fill:none;stroke:#000000;stroke-width:0.25;stroke-linecap:round;stroke-linejoin:round;stroke-miterlimit:10;stroke-dasharray:none;stroke-opacity:1"
             id="path38" /><path
             d="M 30.091311,6.7672374 46.215666,16.076638"
             style="fill:none;stroke:#000000;stroke-width:0.25;stroke-linecap:round;stroke-linejoin:round;stroke-miterlimit:10;stroke-dasharray:none;stroke-opacity:1"
             id="path40" /><path
             d="m 7.9669552,20.612537 0.1201519,0.0018 0.1200435,0.0054 0.1198268,0.009 0.1195018,0.01261 0.1190691,0.0162 0.1185288,0.01976 0.1178816,0.02332 0.1171281,0.02685 0.1162688,0.03035 0.1153045,0.03383 0.1142363,0.03728 0.113065,0.04069 0.1117915,0.04407 0.1104172,0.04741 0.1089432,0.05071 0.107371,0.05396 0.1057018,0.05716 0.044769,0.02546"
             style="fill:none;stroke:#000000;stroke-width:0.25;stroke-linecap:round;stroke-linejoin:round;stroke-miterlimit:10;stroke-dasharray:none;stroke-opacity:1"
             id="path42" /><path
             d="m 9.9669552,16.076638 -0.1049571,0.05851 -0.1066674,0.05533 -0.1082813,0.05211 -0.1097976,0.04883 -0.1112148,0.04551 -0.1125316,0.04215 -0.1137468,0.03875 -0.1148594,0.03531 -0.1158683,0.03185 -0.1167727,0.02835 -0.1175716,0.02483 -0.1182645,0.02129 -0.1188507,0.01773 -0.1193295,0.01415 -0.1197007,0.01056 -0.1199638,0.007 -0.1201188,0.0034 -0.051503,3.32e-4"
             style="fill:none;stroke:#000000;stroke-width:0.25;stroke-linecap:round;stroke-linejoin:round;stroke-miterlimit:10;stroke-dasharray:none;stroke-opacity:1"
             id="path44" /><path
             d="m 46.215666,21.148435 0.104958,-0.05851 0.106667,-0.05533 0.108281,-0.05211 0.109798,-0.04883 0.111215,-0.04551 0.112531,-0.04215 0.113747,-0.03875 0.114859,-0.03531 0.115869,-0.03185 0.116772,-0.02835 0.117572,-0.02483 0.118265,-0.02129 0.11885,-0.01773 0.11933,-0.01415 0.1197,-0.01056 0.119964,-0.007 0.120119,-0.0034 0.0515,-3.31e-4"
             style="fill:none;stroke:#000000;stroke-width:0.25;stroke-linecap:round;stroke-linejoin:round;stroke-miterlimit:10;stroke-dasharray:none;stroke-opacity:1"
             id="path46" /><path
             d="m 48.215666,16.612537 -0.120151,-0.0018 -0.120044,-0.0054 -0.119827,-0.009 -0.119501,-0.01261 -0.11907,-0.0162 -0.118528,-0.01976 -0.117882,-0.02332 -0.117128,-0.02685 -0.116269,-0.03035 -0.115305,-0.03383 -0.114236,-0.03728 -0.113065,-0.04069 -0.111791,-0.04407 -0.110417,-0.04741 -0.108944,-0.05071 -0.107371,-0.05396 -0.105701,-0.05716 -0.04477,-0.02547"
             style="fill:none;stroke:#000000;stroke-width:0.25;stroke-linecap:round;stroke-linejoin:round;stroke-miterlimit:10;stroke-dasharray:none;stroke-opacity:1"
             id="path48" /><path
             d="m 30.091311,30.457836 -0.104957,0.05851 -0.106668,0.05533 -0.108281,0.0521 -0.109798,0.04883 -0.111214,0.04551 -0.112532,0.04215 -0.113747,0.03875 -0.114859,0.03531 -0.115869,0.03185 -0.116772,0.02835 -0.117572,0.02483 -0.118264,0.02129 -0.118851,0.01773 -0.11933,0.01415 -0.1197,0.01056 -0.119964,0.007 -0.120119,0.0034 -0.120165,-2.58e-4 -0.120103,-0.0039 -0.119933,-0.0075 -0.119654,-0.01107 -0.119268,-0.01466 -0.118774,-0.01824 -0.118172,-0.0218 -0.117464,-0.02534 -0.11665,-0.02885 -0.11573,-0.03234 -0.114707,-0.03581 -0.11358,-0.03924 -0.112349,-0.04263 -0.111019,-0.04599 -0.109587,-0.0493 -0.108057,-0.05257 -0.106429,-0.05579 -0.08986,-0.05035"
             style="fill:none;stroke:#000000;stroke-width:0.25;stroke-linecap:round;stroke-linejoin:round;stroke-miterlimit:10;stroke-dasharray:none;stroke-opacity:1"
             id="path50" /><path
             d="m 26.091311,6.7672374 0.104957,-0.058513 0.106667,-0.055334 0.108282,-0.052105 0.109797,-0.048829 0.111215,-0.045509 0.112532,-0.042147 0.113746,-0.038748 0.11486,-0.035314 0.115868,-0.031848 0.116773,-0.028353 0.117571,-0.024832 0.118265,-0.02129 0.118851,-0.017728 0.119329,-0.01415 0.119701,-0.010559 0.119964,-0.00696 0.120118,-0.00335 0.120166,2.578e-4 0.120103,0.00387 0.119933,0.00747 0.119654,0.011072 0.119268,0.014661 0.118773,0.018237 0.118172,0.021797 0.117464,0.025337 0.11665,0.028854 0.115731,0.032345 0.114707,0.035806 0.113579,0.039236 0.11235,0.04263 0.111019,0.045985 0.109587,0.049299 0.108056,0.052569 0.106429,0.055791 0.08986,0.05035"
             style="fill:none;stroke:#000000;stroke-width:0.25;stroke-linecap:round;stroke-linejoin:round;stroke-miterlimit:10;stroke-dasharray:none;stroke-opacity:1"
             id="path52" /><path
             d="m 21.761184,27.957836 0.783753,0.4525 m 0.33775,0.195 1.350999,0.78 m 0.33775,0.195 1.351,0.78 m 0.33775,0.195 1.350999,0.78 m 0.33775,0.195 1.351,0.78 m 0.33775,0.195 0.783753,0.4525"
             style="fill:none;stroke:#000000;stroke-width:0.13;stroke-linecap:round;stroke-linejoin:round;stroke-miterlimit:10;stroke-dasharray:none;stroke-opacity:1"
             id="path54" /><path
             d="m 25.761184,32.957836 0.783753,-0.4525 m 0.33775,-0.195 1.350999,-0.78 m 0.33775,-0.195 1.351,-0.78 m 0.33775,-0.195 1.350999,-0.78 m 0.33775,-0.195 1.351,-0.78 m 0.33775,-0.195 0.783753,-0.4525"
             style="fill:none;stroke:#000000;stroke-width:0.13;stroke-linecap:round;stroke-linejoin:round;stroke-miterlimit:10;stroke-dasharray:none;stroke-opacity:1"
             id="path56" /></g><g
           id="g58"
           transform="matrix(0.42320963,1.1677854,-1.1632686,0.42485287,692.94704,1234.0408)"><g
             id="g60"><text
               transform="translate(0,143)"
               style="font-variant:normal;font-weight:normal;font-size:133px;font-family:'Noto Sans';-inkscape-font-specification:NotoSans-Regular;writing-mode:lr-tb;fill:#008000;fill-opacity:1;fill-rule:nonzero;stroke:none"
               id="text64"><tspan
                 x="0"
                 y="0"
                 id="tspan62">r</tspan></text></g></g><g
           id="g66"
           transform="matrix(47.216667,0,0,-47.4,0,2133)" /><g
           id="g68"
           transform="matrix(0.16928385,0.46711415,-0.46530744,0.16994115,616.38206,1334.6301)"><g
             id="g70"><text
               transform="translate(0,143)"
               style="font-variant:normal;font-weight:normal;font-size:133px;font-family:'Noto Sans';-inkscape-font-specification:NotoSans-Regular;writing-mode:lr-tb;fill:#008000;fill-opacity:1;fill-rule:nonzero;stroke:none"
               id="text74"><tspan
                 x="0"
                 y="0"
                 id="tspan72">1</tspan></text></g></g><g
           id="g76"
           transform="matrix(47.216667,0,0,-47.4,0,2133)"><path
             d="M 7.9669552,24.612537 11.705509,14.336441"
             style="fill:none;stroke:#008000;stroke-width:0.13;stroke-linecap:round;stroke-linejoin:round;stroke-miterlimit:10;stroke-dasharray:none;stroke-opacity:1"
             id="path78" /></g><g
           id="g80"><path
             d="m 440.74428,1144.5406 58.82815,104.6132 -36.94229,13.4922 z"
             style="fill:#008000;fill-opacity:1;fill-rule:evenodd;stroke:none"
             id="path82" /></g><g
           id="g84"
           transform="matrix(47.216667,0,0,-47.4,0,2133)"><path
             d="M 9.3345064,20.853574 10.580426,18.646544 9.7980262,18.361899 Z"
             style="fill:#008000;fill-opacity:1;fill-rule:evenodd;stroke:#008000;stroke-width:0.13;stroke-linecap:round;stroke-linejoin:round;stroke-miterlimit:10;stroke-dasharray:none;stroke-opacity:1"
             id="path86" /></g><g
           id="g88"
           transform="matrix(0.43685673,1.1627097,-1.1582126,0.43855296,1351.9055,333.96642)"><g
             id="g90"><text
               transform="translate(0,143)"
               style="font-variant:normal;font-weight:normal;font-size:133px;font-family:'Noto Sans';-inkscape-font-specification:NotoSans-Regular;writing-mode:lr-tb;fill:#008000;fill-opacity:1;fill-rule:nonzero;stroke:none"
               id="text94"><tspan
                 x="0"
                 y="0"
                 id="tspan92">r</tspan></text></g></g><g
           id="g96"
           transform="matrix(47.216667,0,0,-47.4,0,2133)" /><g
           id="g98"
           transform="matrix(0.17474269,0.46508389,-0.46328504,0.17542118,1276.5238,435.45246)"><g
             id="g100"><text
               transform="translate(0,143)"
               style="font-variant:normal;font-weight:normal;font-size:133px;font-family:'Noto Sans';-inkscape-font-specification:NotoSans-Regular;writing-mode:lr-tb;fill:#008000;fill-opacity:1;fill-rule:nonzero;stroke:none"
               id="text104"><tspan
                 x="0"
                 y="0"
                 id="tspan102">2</tspan></text></g></g><g
           id="g106"
           transform="matrix(47.216667,0,0,-47.4,0,2133)"><path
             d="m 28.091311,26.993735 -3.940298,10.44668"
             style="fill:none;stroke:#008000;stroke-width:0.13;stroke-linecap:round;stroke-linejoin:round;stroke-miterlimit:10;stroke-dasharray:none;stroke-opacity:1"
             id="path108" /></g><g
           id="g110"><path
             d="m 1259.7246,676.09654 -60.0492,-103.91164 36.7817,-13.92727 z"
             style="fill:#008000;fill-opacity:1;fill-rule:evenodd;stroke:none"
             id="path112" /></g><g
           id="g114"
           transform="matrix(47.216667,0,0,-47.4,0,2133)"><path
             d="m 26.679661,30.73636 -1.271781,2.192229 0.778999,0.293824 z"
             style="fill:#008000;fill-opacity:1;fill-rule:evenodd;stroke:#008000;stroke-width:0.13;stroke-linecap:round;stroke-linejoin:round;stroke-miterlimit:10;stroke-dasharray:none;stroke-opacity:1"
             id="path116" /></g><g
           id="g118"
           transform="matrix(1.2378612,0,0,1.2426675,1233.4418,95.439294)"><g
             id="g120"><text
               transform="translate(0,143)"
               style="font-variant:normal;font-weight:normal;font-size:133px;font-family:'Noto Sans';-inkscape-font-specification:NotoSans-Regular;writing-mode:lr-tb;fill:#800000;fill-opacity:1;fill-rule:nonzero;stroke:none"
               id="text124"><tspan
                 x="0"
                 y="0"
                 id="tspan122">b</tspan></text></g></g><g
           id="g126"
           transform="matrix(47.216667,0,0,-47.4,0,2133)" /><g
           id="g128"
           transform="matrix(0.49514446,0,0,0.49706702,1334.6756,202.06017)"><g
             id="g130"><text
               transform="translate(0,143)"
               style="font-variant:normal;font-weight:normal;font-size:133px;font-family:'Noto Sans';-inkscape-font-specification:NotoSans-Regular;writing-mode:lr-tb;fill:#800000;fill-opacity:1;fill-rule:nonzero;stroke:none"
               id="text134"><tspan
                 x="0 71.015625"
                 y="0"
                 sodipodi:role="line"
                 id="tspan132">kn</tspan></text></g></g><g
           id="g136"
           transform="matrix(47.216667,0,0,-47.4,0,2133)"><path
             d="M 9.0022314,38.612537 H 47.18039"
             style="fill:none;stroke:#800000;stroke-width:0.13;stroke-linecap:round;stroke-linejoin:round;stroke-miterlimit:10;stroke-dasharray:none;stroke-opacity:1"
             id="path138" /></g><g
           id="g140"><path
             d="m 425.05536,302.76575 118.04166,-19.73189 v 39.46378 z"
             style="fill:#800000;fill-opacity:1;fill-rule:evenodd;stroke:none"
             id="path142" /></g><g
           id="g144"
           transform="matrix(47.216667,0,0,-47.4,0,2133)"><path
             d="m 9.0022314,38.612537 2.4999996,0.416284 v -0.832569 z"
             style="fill:#800000;fill-opacity:1;fill-rule:evenodd;stroke:#800000;stroke-width:0.13;stroke-linecap:round;stroke-linejoin:round;stroke-miterlimit:10;stroke-dasharray:none;stroke-opacity:1"
             id="path146" /></g><g
           id="g148"><path
             d="m 2227.7008,302.76575 -118.0417,19.73189 v -39.46378 z"
             style="fill:#800000;fill-opacity:1;fill-rule:evenodd;stroke:none"
             id="path150" /></g><g
           id="g152"
           transform="matrix(47.216667,0,0,-47.4,0,2133)"><path
             d="m 47.18039,38.612537 -2.5,-0.416285 v 0.832569 z"
             style="fill:#800000;fill-opacity:1;fill-rule:evenodd;stroke:#800000;stroke-width:0.13;stroke-linecap:round;stroke-linejoin:round;stroke-miterlimit:10;stroke-dasharray:none;stroke-opacity:1"
             id="path154" /><path
             d="M 9.0022314,21.373833 V 39.862537"
             style="fill:none;stroke:#800000;stroke-width:0.13;stroke-linecap:round;stroke-linejoin:round;stroke-miterlimit:10;stroke-dasharray:none;stroke-opacity:1"
             id="path156" /><path
             d="M 47.18039,21.373833 V 39.862537"
             style="fill:none;stroke:#800000;stroke-width:0.13;stroke-linecap:round;stroke-linejoin:round;stroke-miterlimit:10;stroke-dasharray:none;stroke-opacity:1"
             id="path158" /></g><g
           id="g160"
           transform="matrix(0,-1.2426675,1.2378612,0,2303.4515,961.89409)"><g
             id="g162"><text
               transform="translate(0,143)"
               style="font-variant:normal;font-weight:normal;font-size:133px;font-family:'Noto Sans';-inkscape-font-specification:NotoSans-Regular;writing-mode:lr-tb;fill:#800000;fill-opacity:1;fill-rule:nonzero;stroke:none"
               id="text166"><tspan
                 x="0"
                 y="0"
                 id="tspan164">d</tspan></text></g></g><g
           id="g168"
           transform="matrix(47.216667,0,0,-47.4,0,2133)" /><g
           id="g170"
           transform="matrix(0,-0.49706702,0.49514446,0,2409.66,860.26719)"><g
             id="g172"><text
               transform="translate(0,143)"
               style="font-variant:normal;font-weight:normal;font-size:133px;font-family:'Noto Sans';-inkscape-font-specification:NotoSans-Regular;writing-mode:lr-tb;fill:#800000;fill-opacity:1;fill-rule:nonzero;stroke:none"
               id="text176"><tspan
                 x="0"
                 y="0"
                 id="tspan174">t</tspan></text></g></g><g
           id="g178"
           transform="matrix(47.216667,0,0,-47.4,0,2133)"><path
             d="m 53.158689,31.612537 v -11"
             style="fill:none;stroke:#800000;stroke-width:0.13;stroke-linecap:round;stroke-linejoin:round;stroke-miterlimit:10;stroke-dasharray:none;stroke-opacity:1"
             id="path180" /></g><g
           id="g182"><path
             d="m 2509.9761,634.56575 19.6556,118.5 h -39.3112 z"
             style="fill:#800000;fill-opacity:1;fill-rule:evenodd;stroke:none"
             id="path184" /></g><g
           id="g186"
           transform="matrix(47.216667,0,0,-47.4,0,2133)"><path
             d="m 53.158689,31.612537 0.416285,-2.5 h -0.83257 z"
             style="fill:#800000;fill-opacity:1;fill-rule:evenodd;stroke:#800000;stroke-width:0.13;stroke-linecap:round;stroke-linejoin:round;stroke-miterlimit:10;stroke-dasharray:none;stroke-opacity:1"
             id="path188" /></g><g
           id="g190"><path
             d="m 2509.9761,1155.9658 -19.6556,-118.5 h 39.3112 z"
             style="fill:#800000;fill-opacity:1;fill-rule:evenodd;stroke:none"
             id="path192" /></g><g
           id="g194"
           transform="matrix(47.216667,0,0,-47.4,0,2133)"><path
             d="m 53.158689,20.612537 -0.416285,2.5 h 0.83257 z"
             style="fill:#800000;fill-opacity:1;fill-rule:evenodd;stroke:#800000;stroke-width:0.13;stroke-linecap:round;stroke-linejoin:round;stroke-miterlimit:10;stroke-dasharray:none;stroke-opacity:1"
             id="path196" /><path
             d="M 28.716311,31.612537 H 54.408689"
             style="fill:none;stroke:#800000;stroke-width:0.13;stroke-linecap:round;stroke-linejoin:round;stroke-miterlimit:10;stroke-dasharray:none;stroke-opacity:1"
             id="path198" /><path
             d="m 51.216311,20.612537 h 3.192378"
             style="fill:none;stroke:#800000;stroke-width:0.13;stroke-linecap:round;stroke-linejoin:round;stroke-miterlimit:10;stroke-dasharray:none;stroke-opacity:1"
             id="path200" /></g><g
           id="g202"
           transform="matrix(1.2378612,0,0,1.2426675,1276.5735,877.13804)"><g
             id="g204"><text
               transform="translate(0,143)"
               style="font-variant:normal;font-weight:normal;font-size:133px;font-family:'Noto Sans';-inkscape-font-specification:NotoSans-Regular;writing-mode:lr-tb;fill:#800000;fill-opacity:1;fill-rule:nonzero;stroke:none"
               id="text208"><tspan
                 x="0"
                 y="0"
                 id="tspan206">δ</tspan></text></g></g><g
           id="g210"
           transform="matrix(47.216667,0,0,-47.4,0,2133)"><path
             d="m 10.508221,21.460935 10.495554,6.059611"
             style="fill:none;stroke:#800000;stroke-width:0.13;stroke-linecap:round;stroke-linejoin:round;stroke-miterlimit:10;stroke-dasharray:none;stroke-opacity:1"
             id="path212" /><path
             d="M 45.674401,21.460935 35.178846,27.520546"
             style="fill:none;stroke:#800000;stroke-width:0.13;stroke-linecap:round;stroke-linejoin:round;stroke-miterlimit:10;stroke-dasharray:none;stroke-opacity:1"
             id="path214" /><path
             d="m 19.921243,26.895546 0.06075,-0.103684 0.06206,-0.102903 0.06337,-0.102104 0.06466,-0.101288 0.06595,-0.100457 0.06722,-0.09961 0.06848,-0.09874 0.06974,-0.09786 0.07098,-0.09697 0.07221,-0.09605 0.07342,-0.09513 0.07463,-0.09419 0.07583,-0.09323 0.07701,-0.09225 0.07818,-0.09126 0.07933,-0.09026 0.08047,-0.08924 0.0816,-0.08821 0.08272,-0.08716 0.08382,-0.0861 0.08492,-0.08503 0.08599,-0.08394 0.08705,-0.08284 0.0881,-0.08172 0.08914,-0.0806 0.09015,-0.07945 0.09116,-0.0783 0.09215,-0.07713 0.09313,-0.07595 0.09408,-0.07476 0.09503,-0.07355 0.09596,-0.07234 0.09687,-0.07111 0.09777,-0.06987 0.09865,-0.06862 0.09952,-0.06736 0.100368,-0.06608 0.101202,-0.0648 0.102018,-0.0635 0.10282,-0.0622 0.103603,-0.06088 0.10437,-0.05956 0.105121,-0.05823 0.105854,-0.05688 0.106569,-0.05553 0.107269,-0.05417 0.107949,-0.0528 0.108614,-0.05142 0.109259,-0.05003 0.109888,-0.04863 0.110498,-0.04723 0.111092,-0.04582 0.111665,-0.0444 0.112222,-0.04298 0.112761,-0.04154 0.11328,-0.0401 0.113783,-0.03866 0.114265,-0.0372 0.11473,-0.03575 0.115176,-0.03428 0.115603,-0.03281 0.116012,-0.03134 0.116401,-0.02986 0.116772,-0.02837 0.117125,-0.02688 0.117457,-0.02539 0.117771,-0.02389 0.118065,-0.02239 0.118342,-0.02088 0.118597,-0.01937 0.118835,-0.01786 0.119052,-0.01634 0.119251,-0.01483 0.119431,-0.01331 0.11959,-0.01178 0.11973,-0.01026 0.119852,-0.0087 0.119953,-0.0072 0.120035,-0.0057 0.120097,-0.0041 0.120141,-0.0026 0.120164,-0.0011 0.120169,4.43e-4 0.120152,0.002 0.120119,0.0035 0.120063,0.005 0.11999,0.0066 0.119897,0.0081 0.119783,0.0096 0.119652,0.01114 0.1195,0.01267 0.119329,0.01419 0.119138,0.01571 0.118929,0.01722 0.1187,0.01873 0.118451,0.02024 0.118185,0.02175 0.117897,0.02326 0.117591,0.02476 0.117267,0.02625 0.116923,0.02774 0.11656,0.02923 0.116178,0.03071 0.115778,0.03219 0.115358,0.03366 0.11492,0.03513 0.114463,0.03659 0.113988,0.03805 0.113494,0.03949 0.112981,0.04094 0.112451,0.04237 0.111903,0.0438 0.111335,0.04522 0.11075,0.04664 0.110147,0.04804 0.109527,0.04944 0.108887,0.05083 0.108231,0.05222 0.107558,0.05359 0.106866,0.05496 0.106157,0.05631 0.105431,0.05766 0.104689,0.059 0.103928,0.06033 0.103151,0.06165 0.102358,0.06296 0.101548,0.06425 0.100721,0.06554 0.09988,0.06682 0.09902,0.06809 0.09814,0.06934 0.09725,0.07059 0.09634,0.07182 0.09542,0.07304 0.09448,0.07425 0.09353,0.07545 0.09256,0.07663 0.09158,0.07781 0.09058,0.07897 0.08957,0.08011 0.08854,0.08125 0.0875,0.08237 0.08644,0.08348 0.08537,0.08457 0.08429,0.08565 0.08319,0.08672 0.08208,0.08777 0.08095,0.08881 0.07981,0.08984 0.07866,0.09084 0.0775,0.09184 0.07632,0.09282 0.07514,0.09378 0.07393,0.09473 0.07272,0.09567 0.0715,0.09659 0.07026,0.09749 0.06901,0.09838 0.06776,0.09925 0.06649,0.100101 0.0652,0.10094 0.06392,0.101762 0.06261,0.102569 0.0613,0.103357 0.02542,0.04375"
             style="fill:none;stroke:#800000;stroke-width:0.13;stroke-linecap:round;stroke-linejoin:round;stroke-miterlimit:10;stroke-dasharray:none;stroke-opacity:1"
             id="path216" /></g><g
           id="g218"><path
             d="m 940.61472,858.1511 87.58358,81.85978 -31.14927,24.0741 z"
             style="fill:#800000;fill-opacity:1;fill-rule:evenodd;stroke:none"
             id="path220" /></g><g
           id="g222"
           transform="matrix(47.216667,0,0,-47.4,0,2133)"><path
             d="m 19.921243,26.895546 1.85493,-1.726999 -0.659709,-0.507893 z"
             style="fill:#800000;fill-opacity:1;fill-rule:evenodd;stroke:#800000;stroke-width:0.13;stroke-linecap:round;stroke-linejoin:round;stroke-miterlimit:10;stroke-dasharray:none;stroke-opacity:1"
             id="path224" /></g><g
           id="g226"><path
             d="m 1712.1414,858.1511 -56.4343,105.93388 -31.1493,-24.0741 z"
             style="fill:#800000;fill-opacity:1;fill-rule:evenodd;stroke:none"
             id="path228" /></g><g
           id="g230"
           transform="matrix(47.216667,0,0,-47.4,0,2133)"><path
             d="m 36.261378,26.895546 -1.19522,-2.234892 -0.65971,0.507893 z"
             style="fill:#800000;fill-opacity:1;fill-rule:evenodd;stroke:#800000;stroke-width:0.13;stroke-linecap:round;stroke-linejoin:round;stroke-miterlimit:10;stroke-dasharray:none;stroke-opacity:1"
             id="path232" /></g></g></g></g></svg>
