999
dxflib 3.26.4.0
  0
SECTION
  2
HEADER
  9
$ACADVER
  1
AC1015
  9
$HANDSEED
  5
FFFF
  9
$DIMADEC
 70
0
  9
$DIMASZ
 40
1.5
  9
$DIMATFIT
 70
0
  9
$DIMAUNIT
 70
0
  9
$DIMAZIN
 70
2
  9
$DIMBLK
  1
0
  9
$DIMBLK1
  1
0
  9
$DIMBLK2
  1
0
  9
$DIMDEC
 70
4
  9
$DIMDLI
 40
3.0
  9
$DIMDSEP
 70
46
  9
$DIMEXE
 40
0.75
  9
$DIMEXO
 40
0.375
  9
$DIMGAP
 40
0.375
  9
$DIMLFAC
 40
1.0
  9
$DIMLUNIT
 70
2
  9
$DIMSCALE
 40
1.0
  9
$DIMTAD
 70
1
  9
$DIMTIH
 70
0
  9
$DIMTSZ
 40
0.0
  9
$DIMTXT
 40
1.5
  9
$DIMZIN
 70
8
  9
$DWGCODEPAGE
  3
ANSI_1252
  9
$INSUNITS
 70
4
  9
$LTSCALE
 40
1.0
  9
$MAXACTVP
 70
64
  9
$MEASUREMENT
 70
1
  9
$MIRRTEXT
 70
0
  9
$PDMODE
 70
0
  9
$PDSIZE
 40
0.0
  0
ENDSEC
  0
SECTION
  2
TABLES
  0
TABLE
  2
VPORT
  5
8
100
AcDbSymbolTable
 70
1
  0
VPORT
  5
30
100
AcDbSymbolTableRecord
100
AcDbViewportTableRecord
  2
*Active
 70
0
 10
0.0
 20
0.0
 11
1.0
 21
1.0
 12
286.3055555555554861
 22
148.5
 13
0.0
 23
0.0
 14
10.0
 24
10.0
 15
10.0
 25
10.0
 16
0.0
 26
0.0
 36
1.0
 17
0.0
 27
0.0
 37
0.0
 40
297.0
 41
1.92798353909465
 42
50.0
 43
0.0
 44
0.0
 50
0.0
 51
0.0
 71
0
 72
100
 73
1
 74
3
 75
1
 76
1
 77
0
 78
0
281
0
 65
1
110
0.0
120
0.0
130
0.0
111
1.0
121
0.0
131
0.0
112
0.0
122
1.0
132
0.0
 79
0
146
0.0
  0
ENDTAB
  0
TABLE
  2
LTYPE
  5
5
100
AcDbSymbolTable
 70
41
  0
LTYPE
  5
16
100
AcDbSymbolTableRecord
100
AcDbLinetypeTableRecord
  2
Continuous
 70
0
  3
Solid line
 72
65
 73
0
 40
0.0
  0
LTYPE
  5
31
100
AcDbSymbolTableRecord
100
AcDbLinetypeTableRecord
  2
CENTER
 70
0
  3
Center ____ _ ____ _ ____ _ ____ _ ____ _ ____
 72
65
 73
4
 40
50.8000000000000043
 49
31.75
 74
0
 49
-6.3499999999999996
 74
0
 49
6.3499999999999996
 74
0
 49
-6.3499999999999996
 74
0
  0
LTYPE
  5
32
100
AcDbSymbolTableRecord
100
AcDbLinetypeTableRecord
  2
DOTX2
 70
0
  3
Dot (2x) .  .  .  .  .  .  .  .  .  .  .  .  .  .
 72
65
 73
2
 40
12.6999999999999993
 49
0.1
 74
0
 49
-12.5999999999999996
 74
0
  0
LTYPE
  5
33
100
AcDbSymbolTableRecord
100
AcDbLinetypeTableRecord
  2
BORDER2
 70
0
  3
Border (.5x) __.__.__.__.__.__.__.__.__.__.__.
 72
65
 73
6
 40
22.2250000000000014
 49
6.3499999999999996
 74
0
 49
-3.1749999999999998
 74
0
 49
6.3499999999999996
 74
0
 49
-3.125
 74
0
 49
0.1
 74
0
 49
-3.125
 74
0
  0
LTYPE
  5
34
100
AcDbSymbolTableRecord
100
AcDbLinetypeTableRecord
  2
ACAD_ISO02W100
 70
0
  3
ISO dash __ __ __ __ __ __ __ __ __ __ __ __ __
 72
65
 73
2
 40
15.0
 49
12.0
 74
0
 49
-3.0
 74
0
  0
LTYPE
  5
35
100
AcDbSymbolTableRecord
100
AcDbLinetypeTableRecord
  2
DOT
 70
0
  3
Dot . . . . . . . . . . . . . . . . . . . . . . . .
 72
65
 73
2
 40
6.3499999999999996
 49
0.1
 74
0
 49
-6.25
 74
0
  0
LTYPE
  5
36
100
AcDbSymbolTableRecord
100
AcDbLinetypeTableRecord
  2
ACAD_ISO08W100
 70
0
  3
ISO long-dash short-dash ____ __ ____ __ ____ _
 72
65
 73
4
 40
36.0
 49
24.0
 74
0
 49
-3.0
 74
0
 49
6.0
 74
0
 49
-3.0
 74
0
  0
LTYPE
  5
37
100
AcDbSymbolTableRecord
100
AcDbLinetypeTableRecord
  2
ACAD_ISO12W100
 70
0
  3
ISO dash double-dot __ . . __ . . __ . . __ . . 
 72
65
 73
6
 40
21.0
 49
12.0
 74
0
 49
-2.9500000000000002
 74
0
 49
0.1
 74
0
 49
-2.9000000000000004
 74
0
 49
0.1
 74
0
 49
-2.9500000000000002
 74
0
  0
LTYPE
  5
38
100
AcDbSymbolTableRecord
100
AcDbLinetypeTableRecord
  2
HIDDEN2
 70
0
  3
Hidden (.5x) _ _ _ _ _ _ _ _ _ _ _ _ _ _ _ _ _ 
 72
65
 73
2
 40
4.7624999999999993
 49
3.1749999999999998
 74
0
 49
-1.5874999999999999
 74
0
  0
LTYPE
  5
39
100
AcDbSymbolTableRecord
100
AcDbLinetypeTableRecord
  2
DASHDOTX2
 70
0
  3
Dash dot (2x) ____  .  ____  .  ____  .  ___
 72
65
 73
4
 40
50.7999999999999972
 49
25.3999999999999986
 74
0
 49
-12.6499999999999986
 74
0
 49
0.1
 74
0
 49
-12.6499999999999986
 74
0
  0
LTYPE
  5
14
100
AcDbSymbolTableRecord
100
AcDbLinetypeTableRecord
  2
BYBLOCK
 70
0
  3

 72
65
 73
0
 40
0.0
  0
LTYPE
  5
3A
100
AcDbSymbolTableRecord
100
AcDbLinetypeTableRecord
  2
PHANTOM
 70
0
  3
Phantom ______  __  __  ______  __  __  ______ 
 72
65
 73
6
 40
63.5000000000000071
 49
31.75
 74
0
 49
-6.3499999999999996
 74
0
 49
6.3499999999999996
 74
0
 49
-6.3499999999999996
 74
0
 49
6.3499999999999996
 74
0
 49
-6.3499999999999996
 74
0
  0
LTYPE
  5
3B
100
AcDbSymbolTableRecord
100
AcDbLinetypeTableRecord
  2
CENTER2
 70
0
  3
Center (.5x) ___ _ ___ _ ___ _ ___ _ ___ _ ___
 72
65
 73
4
 40
28.5750000000000028
 49
19.0500000000000007
 74
0
 49
-3.1749999999999998
 74
0
 49
3.1749999999999998
 74
0
 49
-3.1749999999999998
 74
0
  0
LTYPE
  5
3C
100
AcDbSymbolTableRecord
100
AcDbLinetypeTableRecord
  2
PHANTOMX2
 70
0
  3
Phantom (2x) ____________    ____    ____   _
 72
65
 73
6
 40
127.0000000000000142
 49
63.5
 74
0
 49
-12.6999999999999993
 74
0
 49
12.6999999999999993
 74
0
 49
-12.6999999999999993
 74
0
 49
12.6999999999999993
 74
0
 49
-12.6999999999999993
 74
0
  0
LTYPE
  5
3D
100
AcDbSymbolTableRecord
100
AcDbLinetypeTableRecord
  2
ACAD_ISO06W100
 70
0
  3
ISO long-dash triple-dot ____ ... ____ ... ____
 72
65
 73
8
 40
36.0000000000000071
 49
24.0
 74
0
 49
-2.9500000000000002
 74
0
 49
0.1
 74
0
 49
-2.9000000000000004
 74
0
 49
0.1
 74
0
 49
-2.9000000000000004
 74
0
 49
0.1
 74
0
 49
-2.9500000000000002
 74
0
  0
LTYPE
  5
3E
100
AcDbSymbolTableRecord
100
AcDbLinetypeTableRecord
  2
ACAD_ISO05W100
 70
0
  3
ISO long-dash double-dot ____ .. ____ .. ____ . 
 72
65
 73
6
 40
33.0000000000000071
 49
24.0
 74
0
 49
-2.9500000000000002
 74
0
 49
0.1
 74
0
 49
-2.9000000000000004
 74
0
 49
0.1
 74
0
 49
-2.9500000000000002
 74
0
  0
LTYPE
  5
3F
100
AcDbSymbolTableRecord
100
AcDbLinetypeTableRecord
  2
ACAD_ISO09W100
 70
0
  3
ISO long-dash double-short-dash ____ __ __ ____
 72
65
 73
6
 40
45.0
 49
24.0
 74
0
 49
-3.0
 74
0
 49
6.0
 74
0
 49
-3.0
 74
0
 49
6.0
 74
0
 49
-3.0
 74
0
  0
LTYPE
  5
40
100
AcDbSymbolTableRecord
100
AcDbLinetypeTableRecord
  2
DASHED2
 70
0
  3
Dashed (.5x) _ _ _ _ _ _ _ _ _ _ _ _ _ _ _ _ _ 
 72
65
 73
2
 40
9.5249999999999986
 49
6.3499999999999996
 74
0
 49
-3.1749999999999998
 74
0
  0
LTYPE
  5
41
100
AcDbSymbolTableRecord
100
AcDbLinetypeTableRecord
  2
DIVIDE2
 70
0
  3
Divide (.5x) __..__..__..__..__..__..__..__.._
 72
65
 73
6
 40
15.8749999999999982
 49
6.3499999999999996
 74
0
 49
-3.125
 74
0
 49
0.1
 74
0
 49
-3.0750000000000002
 74
0
 49
0.1
 74
0
 49
-3.125
 74
0
  0
LTYPE
  5
42
100
AcDbSymbolTableRecord
100
AcDbLinetypeTableRecord
  2
ACAD_ISO03W100
 70
0
  3
ISO dash space __    __    __    __    __    __
 72
65
 73
2
 40
30.0
 49
12.0
 74
0
 49
-18.0
 74
0
  0
LTYPE
  5
43
100
AcDbSymbolTableRecord
100
AcDbLinetypeTableRecord
  2
DOT2
 70
0
  3
Dot (.5x) ........................................
 72
65
 73
2
 40
3.1749999999999998
 49
0.1
 74
0
 49
-3.0749999999999997
 74
0
  0
LTYPE
  5
44
100
AcDbSymbolTableRecord
100
AcDbLinetypeTableRecord
  2
HIDDEN
 70
0
  3
Hidden __ __ __ __ __ __ __ __ __ __ __ __ __ __
 72
65
 73
2
 40
9.5249999999999986
 49
6.3499999999999996
 74
0
 49
-3.1749999999999998
 74
0
  0
LTYPE
  5
45
100
AcDbSymbolTableRecord
100
AcDbLinetypeTableRecord
  2
DASHDOT2
 70
0
  3
Dash dot (.5x) _._._._._._._._._._._._._._._.
 72
65
 73
4
 40
12.6999999999999993
 49
6.3499999999999996
 74
0
 49
-3.125
 74
0
 49
0.1
 74
0
 49
-3.125
 74
0
  0
LTYPE
  5
46
100
AcDbSymbolTableRecord
100
AcDbLinetypeTableRecord
  2
PHANTOM2
 70
0
  3
Phantom (.5x) ___ _ _ ___ _ _ ___ _ _ ___ _ _
 72
65
 73
6
 40
31.7500000000000036
 49
15.875
 74
0
 49
-3.1749999999999998
 74
0
 49
3.1749999999999998
 74
0
 49
-3.1749999999999998
 74
0
 49
3.1749999999999998
 74
0
 49
-3.1749999999999998
 74
0
  0
LTYPE
  5
15
100
AcDbSymbolTableRecord
100
AcDbLinetypeTableRecord
  2
BYLAYER
 70
0
  3

 72
65
 73
0
 40
0.0
  0
LTYPE
  5
47
100
AcDbSymbolTableRecord
100
AcDbLinetypeTableRecord
  2
HIDDENX2
 70
0
  3
Hidden (2x) ____ ____ ____ ____ ____ ____ ____ 
 72
65
 73
2
 40
19.0499999999999972
 49
12.6999999999999993
 74
0
 49
-6.3499999999999996
 74
0
  0
LTYPE
  5
48
100
AcDbSymbolTableRecord
100
AcDbLinetypeTableRecord
  2
ACAD_ISO13W100
 70
0
  3
ISO double-dash double-dot __ __ . . __ __ . . _
 72
65
 73
8
 40
36.0000000000000071
 49
12.0
 74
0
 49
-3.0
 74
0
 49
12.0
 74
0
 49
-2.9500000000000002
 74
0
 49
0.1
 74
0
 49
-2.9000000000000004
 74
0
 49
0.1
 74
0
 49
-2.9500000000000002
 74
0
  0
LTYPE
  5
49
100
AcDbSymbolTableRecord
100
AcDbLinetypeTableRecord
  2
ACAD_ISO04W100
 70
0
  3
ISO long-dash dot ____ . ____ . ____ . ____ . _
 72
65
 73
4
 40
30.0
 49
24.0
 74
0
 49
-2.9500000000000002
 74
0
 49
0.1
 74
0
 49
-2.9500000000000002
 74
0
  0
LTYPE
  5
4A
100
AcDbSymbolTableRecord
100
AcDbLinetypeTableRecord
  2
ACAD_ISO10W100
 70
0
  3
ISO dash dot __ . __ . __ . __ . __ . __ . __ . 
 72
65
 73
4
 40
18.0
 49
12.0
 74
0
 49
-2.9500000000000002
 74
0
 49
0.1
 74
0
 49
-2.9500000000000002
 74
0
  0
LTYPE
  5
4B
100
AcDbSymbolTableRecord
100
AcDbLinetypeTableRecord
  2
ACAD_ISO07W100
 70
0
  3
ISO dot . . . . . . . . . . . . . . . . . . . . 
 72
65
 73
2
 40
3.0
 49
0.1
 74
0
 49
-2.8999999999999999
 74
0
  0
LTYPE
  5
4C
100
AcDbSymbolTableRecord
100
AcDbLinetypeTableRecord
  2
DIVIDEX2
 70
0
  3
Divide (2x) ________  .  .  ________  .  .  _
 72
65
 73
6
 40
63.5
 49
25.3999999999999986
 74
0
 49
-12.6499999999999986
 74
0
 49
0.1
 74
0
 49
-12.5999999999999979
 74
0
 49
0.1
 74
0
 49
-12.6499999999999986
 74
0
  0
LTYPE
  5
4D
100
AcDbSymbolTableRecord
100
AcDbLinetypeTableRecord
  2
ACAD_ISO11W100
 70
0
  3
ISO double-dash dot __ __ . __ __ . __ __ . __ _
 72
65
 73
6
 40
33.0
 49
12.0
 74
0
 49
-3.0
 74
0
 49
12.0
 74
0
 49
-2.9500000000000002
 74
0
 49
0.1
 74
0
 49
-2.9500000000000002
 74
0
  0
LTYPE
  5
4E
100
AcDbSymbolTableRecord
100
AcDbLinetypeTableRecord
  2
DIVIDE
 70
0
  3
Divide ____ . . ____ . . ____ . . ____ . . ____
 72
65
 73
6
 40
31.7500000000000036
 49
12.6999999999999993
 74
0
 49
-6.2999999999999998
 74
0
 49
0.1
 74
0
 49
-6.25
 74
0
 49
0.1
 74
0
 49
-6.2999999999999998
 74
0
  0
LTYPE
  5
4F
100
AcDbSymbolTableRecord
100
AcDbLinetypeTableRecord
  2
ACAD_ISO14W100
 70
0
  3
ISO dash triple-dot __ . . . __ . . . __ . . . _
 72
65
 73
8
 40
24.0000000000000036
 49
12.0
 74
0
 49
-2.9500000000000002
 74
0
 49
0.1
 74
0
 49
-2.9000000000000004
 74
0
 49
0.1
 74
0
 49
-2.9000000000000004
 74
0
 49
0.1
 74
0
 49
-2.9500000000000002
 74
0
  0
LTYPE
  5
50
100
AcDbSymbolTableRecord
100
AcDbLinetypeTableRecord
  2
CENTERX2
 70
0
  3
Center (2x) ________  __  ________  __  _____
 72
65
 73
4
 40
101.6000000000000085
 49
63.5
 74
0
 49
-12.6999999999999993
 74
0
 49
12.6999999999999993
 74
0
 49
-12.6999999999999993
 74
0
  0
LTYPE
  5
51
100
AcDbSymbolTableRecord
100
AcDbLinetypeTableRecord
  2
BORDER
 70
0
  3
Border __ __ . __ __ . __ __ . __ __ . __ __ .
 72
65
 73
6
 40
44.4499999999999957
 49
12.6999999999999993
 74
0
 49
-6.3499999999999996
 74
0
 49
12.6999999999999993
 74
0
 49
-6.2999999999999998
 74
0
 49
0.1
 74
0
 49
-6.2999999999999998
 74
0
  0
LTYPE
  5
52
100
AcDbSymbolTableRecord
100
AcDbLinetypeTableRecord
  2
DASHDOT
 70
0
  3
Dash dot __ . __ . __ . __ . __ . __ . __ . __
 72
65
 73
4
 40
25.4000000000000021
 49
12.6999999999999993
 74
0
 49
-6.2999999999999998
 74
0
 49
0.1
 74
0
 49
-6.2999999999999998
 74
0
  0
LTYPE
  5
53
100
AcDbSymbolTableRecord
100
AcDbLinetypeTableRecord
  2
BORDERX2
 70
0
  3
Border (2x) ____  ____  .  ____  ____  .  ___
 72
65
 73
6
 40
88.8999999999999773
 49
25.3999999999999986
 74
0
 49
-12.6999999999999993
 74
0
 49
25.3999999999999986
 74
0
 49
-12.6499999999999986
 74
0
 49
0.1
 74
0
 49
-12.6499999999999986
 74
0
  0
LTYPE
  5
54
100
AcDbSymbolTableRecord
100
AcDbLinetypeTableRecord
  2
DASHEDX2
 70
0
  3
Dashed (2x) ____  ____  ____  ____  ____  ___
 72
65
 73
2
 40
38.0999999999999943
 49
25.3999999999999986
 74
0
 49
-12.6999999999999993
 74
0
  0
LTYPE
  5
55
100
AcDbSymbolTableRecord
100
AcDbLinetypeTableRecord
  2
DASHED
 70
0
  3
Dashed __ __ __ __ __ __ __ __ __ __ __ __ __ _
 72
65
 73
2
 40
19.0499999999999972
 49
12.6999999999999993
 74
0
 49
-6.3499999999999996
 74
0
  0
LTYPE
  5
56
100
AcDbSymbolTableRecord
100
AcDbLinetypeTableRecord
  2
ACAD_ISO15W100
 70
0
  3
ISO double-dash triple-dot __ __ . . . __ __ . .
 72
65
 73
10
 40
39.0000000000000071
 49
12.0
 74
0
 49
-3.0
 74
0
 49
12.0
 74
0
 49
-2.9500000000000002
 74
0
 49
0.1
 74
0
 49
-2.9000000000000004
 74
0
 49
0.1
 74
0
 49
-2.9000000000000004
 74
0
 49
0.1
 74
0
 49
-2.9500000000000002
 74
0
  0
ENDTAB
  0
TABLE
  2
LAYER
  5
2
100
AcDbSymbolTable
 70
5
  0
LAYER
  5
57
100
AcDbSymbolTableRecord
100
AcDbLayerTableRecord
  2
strichpunkt
 70
0
 62
7
420
0
  6
ACAD_ISO10W100
370
13
390
F
  0
LAYER
  5
58
100
AcDbSymbolTableRecord
100
AcDbLayerTableRecord
  2
mass
 70
0
 62
7
420
0
  6
Continuous
370
13
390
F
  0
LAYER
  5
59
100
AcDbSymbolTableRecord
100
AcDbLayerTableRecord
  2
punkte
 70
0
 62
94
420
32768
  6
Continuous
370
25
390
F
  0
LAYER
  5
10
100
AcDbSymbolTableRecord
100
AcDbLayerTableRecord
  2
0
 70
0
 62
7
420
0
  6
Continuous
370
25
390
F
  0
LAYER
  5
5A
100
AcDbSymbolTableRecord
100
AcDbLayerTableRecord
  2
koord
 70
0
 62
1
420
16711680
  6
Continuous
370
13
390
F
  0
ENDTAB
  0
TABLE
  2
STYLE
  5
3
100
AcDbSymbolTable
 70
17
  0
STYLE
  5
5B
100
AcDbSymbolTableRecord
100
AcDbTextStyleTableRecord
  2
Standard
 70
0
 40
0.0
 41
1.0
 50
0.0
 71
0
 42
2.5
  3

  4

1001
ACAD
1000
txt
1071
0
  0
STYLE
  5
5C
100
AcDbSymbolTableRecord
100
AcDbTextStyleTableRecord
  2
textstyle0
 70
0
 40
0.0
 41
1.0
 50
0.0
 71
0
 42
1.0
  3

  4

1001
ACAD
1000
Nimbus Sans [UKWN]
1071
0
  0
STYLE
  5
5D
100
AcDbSymbolTableRecord
100
AcDbTextStyleTableRecord
  2
textstyle1
 70
0
 40
0.0
 41
1.0
 50
0.0
 71
0
 42
1.0
  3

  4

1001
ACAD
1000
Nimbus Sans [UKWN]
1071
0
  0
STYLE
  5
5E
100
AcDbSymbolTableRecord
100
AcDbTextStyleTableRecord
  2
textstyle2
 70
0
 40
0.0
 41
1.0
 50
0.0
 71
0
 42
1.0
  3

  4

1001
ACAD
1000
Nimbus Sans [UKWN]
1071
0
  0
STYLE
  5
5F
100
AcDbSymbolTableRecord
100
AcDbTextStyleTableRecord
  2
textstyle3
 70
0
 40
0.0
 41
1.0
 50
0.0
 71
0
 42
1.0
  3

  4

1001
ACAD
1000
Nimbus Sans [UKWN]
1071
0
  0
STYLE
  5
60
100
AcDbSymbolTableRecord
100
AcDbTextStyleTableRecord
  2
textstyle4
 70
0
 40
0.0
 41
1.0
 50
0.0
 71
0
 42
1.0
  3

  4

1001
ACAD
1000
Nimbus Sans [UKWN]
1071
0
  0
STYLE
  5
61
100
AcDbSymbolTableRecord
100
AcDbTextStyleTableRecord
  2
textstyle5
 70
0
 40
0.0
 41
1.0
 50
0.0
 71
0
 42
1.0
  3

  4

1001
ACAD
1000
Nimbus Sans [UKWN]
1071
0
  0
STYLE
  5
62
100
AcDbSymbolTableRecord
100
AcDbTextStyleTableRecord
  2
textstyle6
 70
0
 40
0.0
 41
1.0
 50
0.0
 71
0
 42
1.0
  3

  4

1001
ACAD
1000
Nimbus Sans [UKWN]
1071
0
  0
STYLE
  5
63
100
AcDbSymbolTableRecord
100
AcDbTextStyleTableRecord
  2
textstyle7
 70
0
 40
0.0
 41
1.0
 50
0.0
 71
0
 42
1.0
  3

  4

1001
ACAD
1000
Nimbus Sans [UKWN]
1071
0
  0
STYLE
  5
64
100
AcDbSymbolTableRecord
100
AcDbTextStyleTableRecord
  2
textstyle8
 70
0
 40
0.0
 41
1.0
 50
0.0
 71
0
 42
1.0
  3

  4

1001
ACAD
1000
Nimbus Sans [UKWN]
1071
0
  0
STYLE
  5
65
100
AcDbSymbolTableRecord
100
AcDbTextStyleTableRecord
  2
textstyle9
 70
0
 40
0.0
 41
1.0
 50
0.0
 71
0
 42
1.0
  3

  4

1001
ACAD
1000
Nimbus Sans [UKWN]
1071
0
  0
STYLE
  5
66
100
AcDbSymbolTableRecord
100
AcDbTextStyleTableRecord
  2
textstyle10
 70
0
 40
0.0
 41
1.0
 50
0.0
 71
0
 42
1.0
  3

  4

1001
ACAD
1000
Nimbus Sans [UKWN]
1071
0
  0
STYLE
  5
67
100
AcDbSymbolTableRecord
100
AcDbTextStyleTableRecord
  2
textstyle11
 70
0
 40
0.0
 41
1.0
 50
0.0
 71
0
 42
1.0
  3

  4

1001
ACAD
1000
Nimbus Sans [UKWN]
1071
0
  0
STYLE
  5
68
100
AcDbSymbolTableRecord
100
AcDbTextStyleTableRecord
  2
textstyle12
 70
0
 40
0.0
 41
1.0
 50
0.0
 71
0
 42
1.0
  3

  4

1001
ACAD
1000
Nimbus Sans [UKWN]
1071
0
  0
STYLE
  5
69
100
AcDbSymbolTableRecord
100
AcDbTextStyleTableRecord
  2
textstyle13
 70
0
 40
0.0
 41
1.0
 50
0.0
 71
0
 42
1.0
  3

  4

1001
ACAD
1000
Nimbus Sans [UKWN]
1071
0
  0
STYLE
  5
6A
100
AcDbSymbolTableRecord
100
AcDbTextStyleTableRecord
  2
textstyle14
 70
0
 40
0.0
 41
1.0
 50
0.0
 71
0
 42
1.0
  3

  4

1001
ACAD
1000
Nimbus Sans [UKWN]
1071
0
  0
STYLE
  5
6B
100
AcDbSymbolTableRecord
100
AcDbTextStyleTableRecord
  2
textstyle15
 70
0
 40
0.0
 41
1.0
 50
0.0
 71
0
 42
2.5
  3

  4

1001
ACAD
1000
Nimbus Sans [UKWN]
1071
0
  0
ENDTAB
  0
TABLE
  2
VIEW
  5
6
100
AcDbSymbolTable
 70
0
  0
ENDTAB
  0
TABLE
  2
UCS
  5
7
100
AcDbSymbolTable
 70
0
  0
ENDTAB
  0
TABLE
  2
APPID
  5
9
100
AcDbSymbolTable
 70
1
  0
APPID
  5
12
100
AcDbSymbolTableRecord
100
AcDbRegAppTableRecord
  2
ACAD
 70
0
  0
APPID
  5
6C
100
AcDbSymbolTableRecord
100
AcDbRegAppTableRecord
  2
QCAD
 70
0
  0
ENDTAB
  0
TABLE
  2
DIMSTYLE
  5
A
100
AcDbSymbolTable
 70
1
100
AcDbDimStyleTable
 71
0
  0
DIMSTYLE
105
27
100
AcDbSymbolTableRecord
100
AcDbDimStyleTableRecord
  2
Standard
 41
1.5
 42
0.375
 43
3.75
 44
0.75
 70
0
 73
0
 74
0
 77
1
 78
8
140
1.5
141
2.5
143
0.03937007874016
147
0.375
171
3
172
1
271
2
272
2
274
3
278
44
283
0
284
8
340
5B
  0
ENDTAB
  0
TABLE
  2
BLOCK_RECORD
  5
1
100
AcDbSymbolTable
 70
1
  0
BLOCK_RECORD
  5
1F
100
AcDbSymbolTableRecord
100
AcDbBlockTableRecord
  2
*Model_Space
340
22
  0
BLOCK_RECORD
  5
1B
100
AcDbSymbolTableRecord
100
AcDbBlockTableRecord
  2
*Paper_Space
340
1E
  0
BLOCK_RECORD
  5
23
100
AcDbSymbolTableRecord
100
AcDbBlockTableRecord
  2
*Paper_Space0
340
26
  0
ENDTAB
  0
ENDSEC
  0
SECTION
  2
BLOCKS
  0
BLOCK
  5
20
100
AcDbEntity
  8
0
100
AcDbBlockBegin
  2
*Model_Space
 70
0
 10
0.0
 20
0.0
 30
0.0
  3
*Model_Space
  1

  0
ENDBLK
  5
21
100
AcDbEntity
  8
0
100
AcDbBlockEnd
  0
BLOCK
  5
1C
100
AcDbEntity
 67
1
  8
0
100
AcDbBlockBegin
  2
*Paper_Space
 70
0
 10
0.0
 20
0.0
 30
0.0
  3
*Paper_Space
  1

  0
ENDBLK
  5
1D
100
AcDbEntity
 67
1
  8
0
100
AcDbBlockEnd
  0
BLOCK
  5
24
100
AcDbEntity
  8
0
100
AcDbBlockBegin
  2
*Paper_Space0
 70
0
 10
0.0
 20
0.0
 30
0.0
  3
*Paper_Space0
  1

  0
ENDBLK
  5
25
100
AcDbEntity
  8
0
100
AcDbBlockEnd
  0
ENDSEC
  0
SECTION
  2
ENTITIES
  0
LINE
  5
6D
100
AcDbEntity
  8
strichpunkt
 62
256
370
-1
 48
1.0
  6
BYLAYER
100
AcDbLine
 10
-0.0000000000000004
 20
-7.0
 30
0.0
 11
0.0000000000000028
 21
45.0
 31
0.0
  0
LINE
  5
6E
100
AcDbEntity
  8
strichpunkt
 62
256
370
-1
 48
1.0
  6
BYLAYER
100
AcDbLine
 10
-4.0
 20
0.0
 30
0.0
 11
70.0
 21
0.0
 31
0.0
  0
LINE
  5
6F
100
AcDbEntity
  8
strichpunkt
 62
256
370
-1
 48
1.0
  6
BYLAYER
100
AcDbLine
 10
65.3867513459481273
 20
-9.3301270189221945
 30
0.0
 11
33.4567384258096467
 21
45.9742776450883994
 31
0.0
  0
LINE
  5
70
100
AcDbEntity
  8
0
 62
256
370
-1
 48
1.0
  6
BYLAYER
100
AcDbLine
 10
62.8867513459481415
 20
0.0
 30
0.0
 11
70.0
 21
0.0
 31
0.0
  0
LINE
  5
71
100
AcDbEntity
  8
0
 62
256
370
-1
 48
1.0
  6
BYLAYER
100
AcDbLine
 10
58.5566243270259363
 20
2.5000000000000009
 30
0.0
 11
39.926965716763263
 21
34.7675152406379766
 31
0.0
  0
LINE
  5
72
100
AcDbEntity
  8
0
 62
256
370
-1
 48
1.0
  6
BYLAYER
100
AcDbLine
 10
-4.0
 20
35.0
 30
0.0
 11
10.0
 21
35.0
 31
0.0
  0
ARC
  5
73
100
AcDbEntity
  8
0
 62
256
370
-1
 48
1.0
  6
BYLAYER
100
AcDbCircle
 10
62.8867513459481273
 20
4.9999999999999982
 30
0.0
 40
5.0
100
AcDbArc
 50
209.9999999999999716
 51
270.0000000000001705
  0
ARC
  5
74
100
AcDbEntity
  8
0
 62
256
370
-1
 48
1.0
  6
BYLAYER
100
AcDbCircle
 10
10.0
 20
40.0
 30
0.0
 40
5.0
100
AcDbArc
 50
270.0
 51
313.6839716214383316
  0
ARC
  5
75
100
AcDbEntity
  8
0
 62
256
370
-1
 48
1.0
  6
BYLAYER
100
AcDbCircle
 10
26.5763232507330436
 20
22.6441506261661978
 30
0.0
 40
19.0
100
AcDbArc
 50
69.5910347314100335
 51
133.68397162143836
  0
ARC
  5
76
100
AcDbEntity
  8
0
 62
256
370
-1
 48
1.0
  6
BYLAYER
100
AcDbCircle
 10
28.6686354675655579
 20
28.2675152406379766
 30
0.0
 40
13.0
100
AcDbArc
 50
29.9999999999999929
 51
69.5910347314100335
  0
LINE
  5
77
100
AcDbEntity
  8
strichpunkt
 62
256
370
-1
 48
1.0
  6
BYLAYER
100
AcDbLine
 10
-4.0
 20
41.6441506261661942
 30
0.0
 11
70.0
 21
41.6441506261661942
 31
0.0
  0
DIMENSION
  5
78
100
AcDbEntity
  8
mass
 62
256
370
-1
 48
1.0
  6
BYLAYER
100
AcDbDimension
 10
62.8867513459481415
 20
0.0000000000000693
 30
0.0
 11
67.2797969070253856
 21
12.6089781117508064
 31
0.0
 70
2
 71
8
 72
2
 74
0
 75
0
 41
1.0
 42
0.0
  1
\A1;\U+03b1\S^ 1;
  3
Standard
100
AcDb2LineAngularDimension
 13
62.8867513459481273
 23
5.0000000000000018
 33
0.0
 14
58.5566243270259292
 24
2.4999999999999813
 34
0.0
 15
62.8867513459481273
 25
5.0000000000000018
 35
0.0
 16
66.0
 26
11.9999999999999929
 36
0.0
  0
LINE
  5
79
100
AcDbEntity
  8
mass
 62
256
370
-1
 48
1.0
  6
BYLAYER
100
AcDbLine
 10
33.2019786040360145
 20
40.4514719053268479
 30
0.0
 11
26.5763232507330365
 21
22.6441506261661871
 31
0.0
  0
LINE
  5
7A
100
AcDbEntity
  8
mass
 62
256
370
-1
 48
1.0
  6
BYLAYER
100
AcDbLine
 10
39.926965716763263
 20
34.7675152406379766
 30
0.0
 11
28.6686354675655544
 21
28.2675152406379766
 31
0.0
  0
LINE
  5
7B
100
AcDbEntity
  8
mass
 62
256
370
-1
 48
1.0
  6
BYLAYER
100
AcDbLine
 10
13.4534006772360488
 20
36.3841980471179554
 30
0.0
 11
26.5763232507330542
 21
22.6441506261661694
 31
0.0
  0
LINE
  5
7C
100
AcDbEntity
  8
mass
 62
256
370
-1
 48
1.0
  6
BYLAYER
100
AcDbLine
 10
13.4534006772360506
 20
36.3841980471179554
 30
0.0
 11
10.0000000000000018
 21
40.0
 31
0.0
  0
LINE
  5
7D
100
AcDbEntity
  8
mass
 62
256
370
-1
 48
1.0
  6
BYLAYER
100
AcDbLine
 10
9.9999999999999982
 20
35.0
 30
0.0
 11
10.0000000000000018
 21
40.0
 31
0.0
  0
LINE
  5
7E
100
AcDbEntity
  8
mass
 62
256
370
-1
 48
1.0
  6
BYLAYER
100
AcDbLine
 10
26.5763232507330365
 20
22.6441506261661871
 30
0.0
 11
26.5763232507330365
 21
42.6441506261661871
 31
0.0
  0
LINE
  5
7F
100
AcDbEntity
  8
mass
 62
256
370
-1
 48
1.0
  6
BYLAYER
100
AcDbLine
 10
22.7436610568958031
 20
41.2535756712322268
 30
0.0
 11
26.5763232507330542
 21
22.6441506261661694
 31
0.0
  0
DIMENSION
  5
80
100
AcDbEntity
  8
mass
 62
256
370
-1
 48
1.0
  6
BYLAYER
100
AcDbDimension
 10
26.5763232507330365
 20
42.6441506261661942
 30
0.0
 11
25.0999999999999979
 21
39.1999999999999957
 31
0.0
 70
130
 71
8
 72
2
 74
0
 75
0
 41
1.0
 42
0.0
  1
\U+03b2
  3
Standard
100
AcDb2LineAngularDimension
 13
42.9155673402496944
 23
-56.6907666712205582
 33
0.0
 14
22.743661056895796
 24
41.2535756712322339
 34
0.0
 15
26.5763232507330365
 25
22.6441506261661836
 35
0.0
 16
25.7374659343225538
 26
37.5003323973025644
 36
0.0
  0
DIMENSION
  5
81
100
AcDbEntity
  8
mass
 62
256
370
-1
 48
1.0
  6
BYLAYER
100
AcDbDimension
 10
39.926965716763263
 20
34.7675152406379837
 30
0.0
 11
35.4023279605007488
 21
36.2344998444053985
 31
0.0
 70
2
 71
8
 72
2
 74
0
 75
0
 41
1.0
 42
0.0
  1
\A1;\U+03b1\S^ 2;
  3
Standard
100
AcDb2LineAngularDimension
 13
33.2019786040360145
 23
40.4514719053268479
 33
0.0
 14
26.5763232507330365
 24
22.6441506261661836
 34
0.0
 15
28.6686354675655579
 25
28.2675152406379695
 35
0.0
 16
36.0
 26
34.0
 36
0.0
  0
DIMENSION
  5
82
100
AcDbEntity
  8
mass
 62
256
370
-1
 48
1.0
  6
BYLAYER
100
AcDbDimension
 10
33.2019786040360145
 20
40.4514719053268479
 30
0.0
 11
21.9156396319209321
 21
32.537548323323719
 31
0.0
 70
130
 71
8
 72
2
 74
0
 75
0
 41
1.0
 42
0.0
  1
\A1;\U+03b1\S^ 3;
  3
Standard
100
AcDb2LineAngularDimension
 13
13.4534006772360488
 23
36.3841980471179554
 33
0.0
 14
26.5763232507330365
 24
22.6441506261661836
 34
0.0
 15
26.5763232507330365
 25
22.6441506261661836
 35
0.0
 16
22.0
 26
31.0
 36
0.0
  0
DIMENSION
  5
83
100
AcDbEntity
  8
mass
 62
256
370
-1
 48
1.0
  6
BYLAYER
100
AcDbDimension
 10
22.743661056895796
 20
41.2535756712322339
 30
0.0
 11
19.5561744488528007
 21
36.0378562099033175
 31
0.0
 70
2
 71
8
 72
2
 74
0
 75
0
 41
1.0
 42
0.0
  1
\U+03b1\S^ 3;/2
  3
Standard
100
AcDb2LineAngularDimension
 13
13.6260707110978476
 23
36.2034079494738492
 33
0.0
 14
20.3415817878113572
 24
29.1720900297658119
 34
0.0
 15
26.5763232507330542
 25
22.6441506261661658
 35
0.0
 16
20.0000000000000071
 26
35.0
 36
0.0
  0
DIMENSION
  5
84
100
AcDbEntity
  8
mass
 62
256
370
-1
 48
1.0
  6
BYLAYER
100
AcDbDimension
 10
13.4534006772360488
 20
36.3841980471179554
 30
0.0
 11
13.936157477818611
 21
30.1797803226865966
 31
0.0
 70
2
 71
8
 72
2
 74
0
 75
0
 41
1.0
 42
0.0
  1
\A1;\U+03b1\S^ 4;
  3
Standard
100
AcDb2LineAngularDimension
 13
9.9999999999999964
 23
35.0
 33
0.0
 14
10.0000000000000018
 24
40.0
 34
0.0
 15
10.0000000000000018
 25
40.0
 35
0.0
 16
13.9999999999999982
 26
29.0
 36
0.0
  0
DIMENSION
  5
85
100
AcDbEntity
  8
mass
 62
256
370
-1
 48
1.0
  6
BYLAYER
100
AcDbDimension
 10
10.0000000000000018
 20
40.0
 30
0.0
 11
12.5402557780164852
 21
38.9691141759370865
 31
0.0
 70
4
 71
8
 72
2
 74
0
 41
1.0
 42
0.0
  1
\A1;r\S^ 4;
  3
Standard
100
AcDbRadialDimension
 15
13.4534006772360488
 25
36.3841980471179554
 35
0.0
 40
0.0
1001
ACAD
1000
DSTYLE
1002
{
1070
144
1040
1.0
1070
40
1040
1.0
1002
}
  0
DIMENSION
  5
86
100
AcDbEntity
  8
mass
 62
256
370
-1
 48
1.0
  6
BYLAYER
100
AcDbDimension
 10
26.5763232507330436
 20
22.6441506261661978
 30
0.0
 11
25.4999999999999964
 21
33.7999999999999972
 31
0.0
 70
132
 71
8
 72
2
 74
0
 41
1.0
 42
0.0
  1
\A1;r\S^ 3;
  3
Standard
100
AcDbRadialDimension
 15
22.743661056895796
 25
41.2535756712322339
 35
0.0
 40
0.0
1001
ACAD
1000
DSTYLE
1002
{
1070
279
1070
2
1070
144
1040
1.0
1070
40
1040
1.0
1002
}
  0
DIMENSION
  5
87
100
AcDbEntity
  8
mass
 62
256
370
-1
 48
1.0
  6
BYLAYER
100
AcDbDimension
 10
28.6686354675655579
 20
28.2675152406379695
 30
0.0
 11
33.7353005921644069
 21
32.4917938198954701
 31
0.0
 70
4
 71
8
 72
2
 74
0
 41
1.0
 42
0.0
  1
\A1;r\S^ 2;
  3
Standard
100
AcDbRadialDimension
 15
39.926965716763263
 25
34.7675152406379837
 35
0.0
 40
0.0
1001
ACAD
1000
DSTYLE
1002
{
1070
144
1040
1.0
1070
40
1040
1.0
1002
}
  0
DIMENSION
  5
88
100
AcDbEntity
  8
mass
 62
256
370
-1
 48
1.0
  6
BYLAYER
100
AcDbDimension
 10
62.8867513459481273
 20
5.0000000000000018
 30
0.0
 11
61.7617513459481273
 21
2.5000000000000351
 31
0.0
 70
4
 71
8
 72
2
 74
0
 41
1.0
 42
0.0
  1
\A1;r\S^ 1;
  3
Standard
100
AcDbRadialDimension
 15
62.8867513459481273
 25
0.0000000000000684
 35
0.0
 40
0.0
1001
ACAD
1000
DSTYLE
1002
{
1070
144
1040
1.0
1070
40
1040
1.0
1002
}
  0
LINE
  5
89
100
AcDbEntity
  8
mass
 62
256
370
-1
 48
1.0
  6
BYLAYER
100
AcDbLine
 10
62.8867513459481273
 20
4.9999999999999982
 30
0.0
 11
58.5566243270259363
 21
2.5000000000000009
 31
0.0
  0
LINE
  5
8A
100
AcDbEntity
  8
mass
 62
256
370
-1
 48
1.0
  6
BYLAYER
100
AcDbLine
 10
28.6686354675655544
 20
28.2675152406379695
 30
0.0
 11
38.6686354675655508
 21
28.2675152406379695
 31
0.0
  0
DIMENSION
  5
8B
100
AcDbEntity
  8
mass
 62
256
370
-1
 48
1.0
  6
BYLAYER
100
AcDbDimension
 10
38.6686354675655508
 20
28.2675152406379624
 30
0.0
 11
39.3999999999999986
 21
31.0999999999999979
 31
0.0
 70
130
 71
8
 72
2
 74
0
 75
0
 41
1.0
 42
0.0
  1
\U+03b3
  3
Standard
100
AcDb2LineAngularDimension
 13
39.926965716763263
 23
34.7675152406379837
 33
0.0
 14
28.6686354675655579
 24
28.2675152406379695
 34
0.0
 15
28.6686354675655508
 25
28.2675152406379695
 35
0.0
 16
38.2999999999999972
 26
29.2000000000000028
 36
0.0
  0
DIMENSION
  5
8C
100
AcDbEntity
  8
mass
 62
256
370
-1
 48
1.0
  6
BYLAYER
100
AcDbDimension
 10
72.0
 20
41.6441506261661942
 30
0.0
 11
70.875
 21
20.8220753130831007
 31
0.0
 70
0
 71
8
 72
2
 74
0
 75
0
 41
1.0
 42
0.0
  1
d
  3
Standard
100
AcDbAlignedDimension
 13
26.5763232507330365
 23
41.6441506261661871
 33
0.0
 14
70.0
 24
0.0000000000000142
 34
0.0
 50
90.0
100
AcDbRotatedDimension
1001
ACAD
1000
DSTYLE
1002
{
1070
144
1040
1.0
1070
40
1040
1.0
1002
}
  0
DIMENSION
  5
8D
100
AcDbEntity
  8
mass
 62
256
370
-1
 48
1.0
  6
BYLAYER
100
AcDbDimension
 10
-6.0000000000000018
 20
35.0
 30
0.0
 11
-7.1250000000000018
 21
38.3220753130830971
 31
0.0
 70
0
 71
8
 72
2
 74
0
 75
0
 41
1.0
 42
0.0
  1
i
  3
Standard
100
AcDbAlignedDimension
 13
0.0000000000000021
 23
35.0
 33
0.0
 14
0.0000000000000025
 24
41.6441506261661942
 34
0.0
 50
90.0
100
AcDbRotatedDimension
1001
ACAD
1000
DSTYLE
1002
{
1070
144
1040
1.0
1070
40
1040
1.0
1002
}
  0
DIMENSION
  5
8E
100
AcDbEntity
  8
mass
 62
256
370
-1
 48
1.0
  6
BYLAYER
100
AcDbDimension
 10
72.0
 20
-0.0000000000000684
 30
0.0
 11
70.875
 21
-3.5000000000001115
 31
0.0
 70
0
 71
8
 72
2
 74
0
 75
0
 41
1.0
 42
0.0
  1
s/2
  3
Standard
100
AcDbAlignedDimension
 13
70.0
 23
0.0000000000000142
 33
0.0
 14
70.0
 24
-7.0000000000002371
 34
0.0
 50
90.0
100
AcDbRotatedDimension
1001
ACAD
1000
DSTYLE
1002
{
1070
144
1040
1.0
1070
40
1040
1.0
1002
}
  0
LINE
  5
8F
100
AcDbEntity
  8
strichpunkt
 62
256
370
-1
 48
1.0
  6
BYLAYER
100
AcDbLine
 10
-4.0
 20
-7.0
 30
0.0
 11
70.0
 21
-7.0
 31
0.0
  0
DIMENSION
  5
90
100
AcDbEntity
  8
mass
 62
256
370
-1
 48
1.0
  6
BYLAYER
100
AcDbDimension
 10
64.0414518843273868
 20
-9.8749999999998934
 30
0.0
 11
32.0207259421636934
 21
-8.7499999999998934
 31
0.0
 70
0
 71
8
 72
2
 74
0
 75
0
 41
1.0
 42
0.0
  1
b\S^ ks;/2
  3
Standard
100
AcDbAlignedDimension
 13
64.0414518843273868
 23
-6.9999999999997851
 33
0.0
 14
-0.0000000000000007
 24
-7.0
 34
0.0
 50
0.0
100
AcDbRotatedDimension
1001
ACAD
1000
DSTYLE
1002
{
1070
144
1040
1.0
1070
40
1040
1.0
1002
}
  0
DIMENSION
  5
91
100
AcDbEntity
  8
mass
 62
256
370
-1
 48
1.0
  6
BYLAYER
100
AcDbDimension
 10
60.0
 20
-2.4860428608810641
 30
0.0
 11
30.0
 21
-1.3610428608810641
 31
0.0
 70
0
 71
8
 72
2
 74
0
 75
0
 41
1.0
 42
0.0
  1
b\S^ kn;/2
  3
Standard
100
AcDbAlignedDimension
 13
60.0
 23
-0.0000000000000364
 33
0.0
 14
0.0
 24
0.0
 34
0.0
 50
0.0
100
AcDbRotatedDimension
1001
ACAD
1000
DSTYLE
1002
{
1070
144
1040
1.0
1070
40
1040
1.0
1002
}
  0
DIMENSION
  5
92
100
AcDbEntity
  8
mass
 62
256
370
-1
 48
1.0
  6
BYLAYER
100
AcDbDimension
 10
10.0
 20
28.2953000892803743
 30
0.0
 11
4.9999999999999991
 21
29.4203000892803743
 31
0.0
 70
0
 71
8
 72
2
 74
0
 75
0
 41
1.0
 42
0.0
  1
b\S^ d;'/2
  3
Standard
100
AcDbAlignedDimension
 13
9.9999999999999964
 23
30.0
 33
0.0
 14
0.0000000000000021
 24
35.0
 34
0.0
 50
0.0
100
AcDbRotatedDimension
1001
ACAD
1000
DSTYLE
1002
{
1070
144
1040
1.0
1070
40
1040
1.0
1002
}
  0
DIMENSION
  5
93
100
AcDbEntity
  8
mass
 62
256
370
-1
 48
1.0
  6
BYLAYER
100
AcDbDimension
 10
35.9567384258096538
 20
45.0
 30
0.0
 11
17.9783692129048269
 21
46.125
 31
0.0
 70
0
 71
8
 72
2
 74
0
 75
0
 41
1.0
 42
0.0
  1
b\S^ d;/2
  3
Standard
100
AcDbAlignedDimension
 13
35.9567384258096538
 23
41.6441506261661942
 33
0.0
 14
0.0000000000000025
 24
41.6441506261661942
 34
0.0
 50
0.0
100
AcDbRotatedDimension
1001
ACAD
1000
DSTYLE
1002
{
1070
144
1040
1.0
1070
40
1040
1.0
1002
}
  0
POINT
  5
94
100
AcDbEntity
  8
punkte
 62
256
370
-1
 48
1.0
  6
BYLAYER
100
AcDbPoint
 10
62.8867513459481273
 20
0.0
 30
0.0
  0
POINT
  5
95
100
AcDbEntity
  8
punkte
 62
256
370
-1
 48
1.0
  6
BYLAYER
100
AcDbPoint
 10
60.0
 20
0.0
 30
0.0
  0
POINT
  5
96
100
AcDbEntity
  8
punkte
 62
256
370
-1
 48
1.0
  6
BYLAYER
100
AcDbPoint
 10
58.5566243270259363
 20
2.5000000000000018
 30
0.0
  0
POINT
  5
97
100
AcDbEntity
  8
punkte
 62
256
370
-1
 48
1.0
  6
BYLAYER
100
AcDbPoint
 10
39.9269657167632701
 20
34.7675152406379766
 30
0.0
  0
POINT
  5
98
100
AcDbEntity
  8
punkte
 62
256
370
-1
 48
1.0
  6
BYLAYER
100
AcDbPoint
 10
33.2019786040360145
 20
40.4514719053268479
 30
0.0
  0
POINT
  5
99
100
AcDbEntity
  8
punkte
 62
256
370
-1
 48
1.0
  6
BYLAYER
100
AcDbPoint
 10
28.6686354675655686
 20
28.2675152406379731
 30
0.0
  0
POINT
  5
9A
100
AcDbEntity
  8
punkte
 62
256
370
-1
 48
1.0
  6
BYLAYER
100
AcDbPoint
 10
26.5763232507330542
 20
22.6441506261661623
 30
0.0
  0
POINT
  5
9B
100
AcDbEntity
  8
punkte
 62
256
370
-1
 48
1.0
  6
BYLAYER
100
AcDbPoint
 10
13.4534006772360506
 20
36.3841980471179554
 30
0.0
  0
POINT
  5
9C
100
AcDbEntity
  8
punkte
 62
256
370
-1
 48
1.0
  6
BYLAYER
100
AcDbPoint
 10
10.0
 20
35.0
 30
0.0
  0
POINT
  5
9D
100
AcDbEntity
  8
punkte
 62
256
370
-1
 48
1.0
  6
BYLAYER
100
AcDbPoint
 10
10.0000000000000036
 20
40.0
 30
0.0
  0
POINT
  5
9E
100
AcDbEntity
  8
punkte
 62
256
370
-1
 48
1.0
  6
BYLAYER
100
AcDbPoint
 10
0.0000000000000022
 20
35.0
 30
0.0
  0
POINT
  5
9F
100
AcDbEntity
  8
punkte
 62
256
370
-1
 48
1.0
  6
BYLAYER
100
AcDbPoint
 10
62.8867513459481273
 20
4.9999999999999964
 30
0.0
  0
POINT
  5
A0
100
AcDbEntity
  8
punkte
 62
256
370
-1
 48
1.0
  6
BYLAYER
100
AcDbPoint
 10
64.0414518843273868
 20
-6.9999999999999991
 30
0.0
  0
MTEXT
  5
A1
100
AcDbEntity
  8
punkte
 62
256
370
-1
 48
1.0
  6
BYLAYER
100
AcDbMText
 10
63.7999999999999972
 20
0.4999999999999999
 30
0.0
 40
1.0
 41
0.0
 71
9
 72
1
  1
1
  7
textstyle6
 50
0.0
 73
2
 44
1.0
  0
MTEXT
  5
A2
100
AcDbEntity
  8
punkte
 62
256
370
-1
 48
1.0
  6
BYLAYER
100
AcDbMText
 10
59.0999999999999943
 20
0.3
 30
0.0
 40
1.0
 41
0.0
 71
9
 72
1
  1
2
  7
textstyle8
 50
0.0
 73
2
 44
1.0
  0
MTEXT
  5
A3
100
AcDbEntity
  8
punkte
 62
256
370
-1
 48
1.0
  6
BYLAYER
100
AcDbMText
 10
57.5999999999999943
 20
1.9999999999999998
 30
0.0
 40
1.0
 41
0.0
 71
9
 72
1
  1
3
  7
textstyle7
 50
0.0
 73
2
 44
1.0
  0
MTEXT
  5
A4
100
AcDbEntity
  8
punkte
 62
256
370
-1
 48
1.0
  6
BYLAYER
100
AcDbMText
 10
64.8999999999999915
 20
3.9999999999999996
 30
0.0
 40
1.0
 41
0.0
 71
9
 72
1
  1
12
  7
textstyle3
 50
0.0
 73
2
 44
1.0
  0
MTEXT
  5
A5
100
AcDbEntity
  8
punkte
 62
256
370
-1
 48
1.0
  6
BYLAYER
100
AcDbMText
 10
41.1999999999999957
 20
34.3999999999999986
 30
0.0
 40
1.0
 41
0.0
 71
9
 72
1
  1
4
  7
textstyle2
 50
0.0
 73
2
 44
1.0
  0
MTEXT
  5
A6
100
AcDbEntity
  8
punkte
 62
256
370
-1
 48
1.0
  6
BYLAYER
100
AcDbMText
 10
34.5999999999999943
 20
40.3999999999999986
 30
0.0
 40
1.0
 41
0.0
 71
9
 72
1
  1
5
  7
textstyle5
 50
0.0
 73
2
 44
1.0
  0
MTEXT
  5
A7
100
AcDbEntity
  8
punkte
 62
256
370
-1
 48
1.0
  6
BYLAYER
100
AcDbMText
 10
14.9999999999999982
 20
35.8999999999999986
 30
0.0
 40
1.0
 41
0.0
 71
9
 72
1
  1
6
  7
textstyle4
 50
0.0
 73
2
 44
1.0
  0
MTEXT
  5
A8
100
AcDbEntity
  8
punkte
 62
256
370
-1
 48
1.0
  6
BYLAYER
100
AcDbMText
 10
10.9999999999999982
 20
33.5
 30
0.0
 40
1.0
 41
0.0
 71
9
 72
1
  1
7
  7
textstyle12
 50
0.0
 73
2
 44
1.0
  0
MTEXT
  5
A9
100
AcDbEntity
  8
punkte
 62
256
370
-1
 48
1.0
  6
BYLAYER
100
AcDbMText
 10
11.1999999999999993
 20
40.0
 30
0.0
 40
1.0
 41
0.0
 71
9
 72
1
  1
8
  7
textstyle11
 50
0.0
 73
2
 44
1.0
  0
MTEXT
  5
AA
100
AcDbEntity
  8
punkte
 62
256
370
-1
 48
1.0
  6
BYLAYER
100
AcDbMText
 10
1.0999999999999999
 20
35.3999999999999986
 30
0.0
 40
1.0
 41
0.0
 71
9
 72
1
  1
9
  7
textstyle14
 50
0.0
 73
2
 44
1.0
  0
MTEXT
  5
AB
100
AcDbEntity
  8
punkte
 62
256
370
-1
 48
1.0
  6
BYLAYER
100
AcDbMText
 10
28.5999999999999979
 20
21.9999999999999964
 30
0.0
 40
1.0
 41
0.0
 71
9
 72
1
  1
10
  7
textstyle13
 50
0.0
 73
2
 44
1.0
  0
MTEXT
  5
AC
100
AcDbEntity
  8
punkte
 62
256
370
-1
 48
1.0
  6
BYLAYER
100
AcDbMText
 10
29.9999999999999964
 20
26.7999999999999972
 30
0.0
 40
1.0
 41
0.0
 71
9
 72
1
  1
11
  7
textstyle10
 50
0.0
 73
2
 44
1.0
  0
MTEXT
  5
AD
100
AcDbEntity
  8
punkte
 62
256
370
-1
 48
1.0
  6
BYLAYER
100
AcDbMText
 10
65.6999999999999886
 20
-6.4999999999999991
 30
0.0
 40
1.0
 41
0.0
 71
9
 72
1
  1
13
  7
textstyle9
 50
0.0
 73
2
 44
1.0
  0
LEADER
  5
AE
100
AcDbEntity
  8
koord
 62
256
370
-1
 48
1.0
  6
BYLAYER
100
AcDbLeader
  3
Standard
 71
1
 72
0
 73
3
 74
0
 75
0
 40
1.0
 41
10.0
 76
2
 10
10.0
 20
0.0
 10
0.0
 20
0.0
1001
ACAD
1000
DSTYLE
1002
{
1070
40
1040
1.0
1002
}
  0
LEADER
  5
AF
100
AcDbEntity
  8
koord
 62
256
370
-1
 48
1.0
  6
BYLAYER
100
AcDbLeader
  3
Standard
 71
1
 72
0
 73
3
 74
0
 75
0
 40
1.0
 41
10.0
 76
2
 10
0.0
 20
10.0
 10
0.0
 20
0.0
1001
ACAD
1000
DSTYLE
1002
{
1070
40
1040
1.0
1002
}
  0
MTEXT
  5
B0
100
AcDbEntity
  8
koord
 62
256
370
-1
 48
1.0
  6
BYLAYER
100
AcDbMText
 10
10.0
 20
0.4999999999999999
 30
0.0
 40
1.0
 41
0.0
 71
9
 72
1
  1
z
  7
textstyle1
 50
0.0
 73
2
 44
1.0
  0
MTEXT
  5
B1
100
AcDbEntity
  8
koord
 62
256
370
-1
 48
1.0
  6
BYLAYER
100
AcDbMText
 10
1.3999999999999999
 20
9.0
 30
0.0
 40
1.0
 41
0.0
 71
9
 72
1
  1
y
  7
textstyle0
 50
0.0
 73
2
 44
1.0
  0
CIRCLE
  5
B2
100
AcDbEntity
  8
koord
 62
256
370
-1
 48
1.0
  6
BYLAYER
100
AcDbCircle
 10
0.0
 20
0.0
 30
0.0
 40
0.9999999999999999
  0
POINT
  5
B3
100
AcDbEntity
  8
koord
 62
256
370
-1
 48
1.0
  6
BYLAYER
100
AcDbPoint
 10
0.0
 20
0.0
 30
0.0
  0
MTEXT
  5
B4
100
AcDbEntity
  8
koord
 62
256
370
-1
 48
1.0
  6
BYLAYER
100
AcDbMText
 10
1.5999999999999999
 20
0.8999999999999999
 30
0.0
 40
2.5
 41
0.0
 71
9
 72
1
  1
\H1;x
  7
textstyle15
 50
0.0
 73
2
 44
1.0
  0
ENDSEC
  0
SECTION
  2
OBJECTS
  0
DICTIONARY
  5
C
100
AcDbDictionary
280
0
281
1
  3
ACAD_GROUP
350
D
  3
ACAD_LAYOUT
350
1A
  3
ACAD_MLINESTYLE
350
17
  3
ACAD_PLOTSETTINGS
350
19
  3
ACAD_PLOTSTYLENAME
350
E
  3
AcDbVariableDictionary
350
B5
  3
QCAD_OBJECTS
350
B6
  0
DICTIONARY
  5
D
100
AcDbDictionary
280
0
281
1
  0
ACDBDICTIONARYWDFLT
  5
E
100
AcDbDictionary
281
1
  3
Normal
350
F
100
AcDbDictionaryWithDefault
340
F
  0
ACDBPLACEHOLDER
  5
F
  0
DICTIONARY
  5
17
100
AcDbDictionary
280
0
281
1
  3
Standard
350
18
  0
MLINESTYLE
  5
18
100
AcDbMlineStyle
  2
STANDARD
 70
0
  3

 62
256
 51
90.0
 52
90.0
 71
2
 49
0.5
 62
256
  6
BYLAYER
 49
-0.5
 62
256
  6
BYLAYER
  0
DICTIONARY
  5
19
100
AcDbDictionary
280
0
281
1
  0
DICTIONARY
  5
1A
100
AcDbDictionary
281
1
  3
Layout1
350
1E
  3
Layout2
350
26
  3
Model
350
22
  0
LAYOUT
  5
1E
100
AcDbPlotSettings
  1

  2
none_device
  4

  6

 40
0.0
 41
0.0
 42
0.0
 43
0.0
 44
0.0
 45
0.0
 46
0.0
 47
0.0
 48
0.0
 49
0.0
140
0.0
141
0.0
142
1.0
143
1.0
 70
688
 72
0
 73
0
 74
5
  7

 75
16
147
1.0
148
0.0
149
0.0
100
AcDbLayout
  1
Layout1
 70
1
 71
1
 10
0.0
 20
0.0
 11
420.0
 21
297.0
 12
0.0
 22
0.0
 32
0.0
 14
100000000000000000000.0
 24
100000000000000000000.0
 34
100000000000000000000.0
 15
-100000000000000000000.0
 25
-100000000000000000000.0
 35
-100000000000000000000.0
146
0.0
 13
0.0
 23
0.0
 33
0.0
 16
1.0
 26
0.0
 36
0.0
 17
0.0
 27
1.0
 37
0.0
 76
0
330
1B
  0
LAYOUT
  5
22
100
AcDbPlotSettings
  1

  2
none_device
  4

  6

 40
0.0
 41
0.0
 42
0.0
 43
0.0
 44
0.0
 45
0.0
 46
0.0
 47
0.0
 48
0.0
 49
0.0
140
0.0
141
0.0
142
1.0
143
1.0
 70
1712
 72
0
 73
0
 74
0
  7

 75
0
147
1.0
148
0.0
149
0.0
100
AcDbLayout
  1
Model
 70
1
 71
0
 10
0.0
 20
0.0
 11
12.0
 21
9.0
 12
0.0
 22
0.0
 32
0.0
 14
0.0
 24
0.0
 34
0.0
 15
0.0
 25
0.0
 35
0.0
146
0.0
 13
0.0
 23
0.0
 33
0.0
 16
1.0
 26
0.0
 36
0.0
 17
0.0
 27
1.0
 37
0.0
 76
0
330
1F
  0
LAYOUT
  5
26
100
AcDbPlotSettings
  1

  2
none_device
  4

  6

 40
0.0
 41
0.0
 42
0.0
 43
0.0
 44
0.0
 45
0.0
 46
0.0
 47
0.0
 48
0.0
 49
0.0
140
0.0
141
0.0
142
1.0
143
1.0
 70
688
 72
0
 73
0
 74
5
  7

 75
16
147
1.0
148
0.0
149
0.0
100
AcDbLayout
  1
Layout2
 70
1
 71
2
 10
0.0
 20
0.0
 11
12.0
 21
9.0
 12
0.0
 22
0.0
 32
0.0
 14
0.0
 24
0.0
 34
0.0
 15
0.0
 25
0.0
 35
0.0
146
0.0
 13
0.0
 23
0.0
 33
0.0
 16
1.0
 26
0.0
 36
0.0
 17
0.0
 27
1.0
 37
0.0
 76
0
330
23
  0
DICTIONARY
  5
B5
100
AcDbDictionary
281
1
  3
DIMASSOC
350
B8
  3
HIDETEXT
350
B7
  0
DICTIONARYVAR
  5
B7
100
DictionaryVariables
280
0
  1
2
  0
DICTIONARYVAR
  5
B8
100
DictionaryVariables
280
0
  1
1
  0
DICTIONARY
  5
B6
100
AcDbDictionary
281
1
  3
ColorSettings/BackgroundColor
350
B9
  3
ColorSettings/ColorMode
350
BA
  3
DimensionSettings/AngularFormat
350
BB
  3
DimensionSettings/AngularPrecision
350
BC
  3
DimensionSettings/DecimalPoint
350
BD
  3
DimensionSettings/DimensionFont
350
BE
  3
DimensionSettings/DimensionTextColor
350
BF
  3
DimensionSettings/KeepProportions
350
C0
  3
DimensionSettings/LinearFormat
350
C1
  3
DimensionSettings/LinearPrecision
350
C2
  3
Grid/DisplayGrid00
350
C3
  3
Grid/DisplayGrid01
350
C4
  3
Grid/DisplayGrid02
350
C5
  3
Grid/DisplayGrid03
350
C6
  3
Grid/GridSpacingX00
350
C7
  3
Grid/GridSpacingX01
350
C8
  3
Grid/GridSpacingX02
350
C9
  3
Grid/GridSpacingX03
350
CA
  3
Grid/GridSpacingY00
350
CB
  3
Grid/GridSpacingY01
350
CC
  3
Grid/GridSpacingY02
350
CD
  3
Grid/GridSpacingY03
350
CE
  3
Grid/IsometricGrid00
350
CF
  3
Grid/IsometricGrid01
350
D0
  3
Grid/IsometricGrid02
350
D1
  3
Grid/IsometricGrid03
350
D2
  3
Grid/IsometricProjection00
350
D3
  3
Grid/IsometricProjection01
350
D4
  3
Grid/IsometricProjection02
350
D5
  3
Grid/IsometricProjection03
350
D6
  3
Grid/MetaGridSpacingX00
350
D7
  3
Grid/MetaGridSpacingX01
350
D8
  3
Grid/MetaGridSpacingX02
350
D9
  3
Grid/MetaGridSpacingX03
350
DA
  3
Grid/MetaGridSpacingY00
350
DB
  3
Grid/MetaGridSpacingY01
350
DC
  3
Grid/MetaGridSpacingY02
350
DD
  3
Grid/MetaGridSpacingY03
350
DE
  3
LinetypeSettings/PSLTSCALE
350
DF
  3
MultiPageSettings/Columns
350
E0
  3
MultiPageSettings/GlueMarginsBottom
350
E1
  3
MultiPageSettings/GlueMarginsLeft
350
E2
  3
MultiPageSettings/GlueMarginsRight
350
E3
  3
MultiPageSettings/GlueMarginsTop
350
E4
  3
MultiPageSettings/PrintCropMarks
350
E5
  3
MultiPageSettings/Rows
350
E6
  3
PageSettings/OffsetX
350
E7
  3
PageSettings/OffsetY
350
E8
  3
PageSettings/PageOrientation
350
E9
  3
PageSettings/PaperHeight
350
EA
  3
PageSettings/PaperSizeName
350
EB
  3
PageSettings/PaperWidth
350
EC
  3
PageSettings/PointSize
350
ED
  3
PageSettings/Scale
350
EE
  3
PageSettings/ShowPaperBorders
350
EF
  3
PageTagSettings/EnablePageTags
350
F0
  3
PageTagSettings/TagAlignment
350
F1
  3
PageTagSettings/TagFont
350
F2
  3
PageTagSettings/TagPosition
350
F3
  3
QCADVersion
350
F4
  3
UnitSettings/PaperUnit
350
F5
  3
ViewportCenter
350
F6
  3
ViewportHeight
350
F7
  3
ViewportWidth
350
F8
  0
XRECORD
  5
B9
330
B6
100
AcDbXrecord
280
1
1000
Weiss
  0
XRECORD
  5
BA
330
B6
100
AcDbXrecord
280
1
1000
FullColor
  0
XRECORD
  5
BB
330
B6
100
AcDbXrecord
280
1
 90
0
  0
XRECORD
  5
BC
330
B6
100
AcDbXrecord
280
1
 90
0
  0
XRECORD
  5
BD
330
B6
100
AcDbXrecord
280
1
 90
46
  0
XRECORD
  5
BE
330
B6
100
AcDbXrecord
280
1
1000
Noto Sans
  0
XRECORD
  5
BF
330
B6
100
AcDbXrecord
280
1
1000
Von Layer
  0
XRECORD
  5
C0
330
B6
100
AcDbXrecord
280
1
290
1
  0
XRECORD
  5
C1
330
B6
100
AcDbXrecord
280
1
 90
2
  0
XRECORD
  5
C2
330
B6
100
AcDbXrecord
280
1
 90
4
  0
XRECORD
  5
C3
330
B6
100
AcDbXrecord
280
1
290
1
  0
XRECORD
  5
C4
330
B6
100
AcDbXrecord
280
1
290
1
  0
XRECORD
  5
C5
330
B6
100
AcDbXrecord
280
1
290
1
  0
XRECORD
  5
C6
330
B6
100
AcDbXrecord
280
1
290
1
  0
XRECORD
  5
C7
330
B6
100
AcDbXrecord
280
1
1000
auto
  0
XRECORD
  5
C8
330
B6
100
AcDbXrecord
280
1
1000
auto
  0
XRECORD
  5
C9
330
B6
100
AcDbXrecord
280
1
1000
auto
  0
XRECORD
  5
CA
330
B6
100
AcDbXrecord
280
1
1000
auto
  0
XRECORD
  5
CB
330
B6
100
AcDbXrecord
280
1
1000
auto
  0
XRECORD
  5
CC
330
B6
100
AcDbXrecord
280
1
1000
auto
  0
XRECORD
  5
CD
330
B6
100
AcDbXrecord
280
1
1000
auto
  0
XRECORD
  5
CE
330
B6
100
AcDbXrecord
280
1
1000
auto
  0
XRECORD
  5
CF
330
B6
100
AcDbXrecord
280
1
290
0
  0
XRECORD
  5
D0
330
B6
100
AcDbXrecord
280
1
290
0
  0
XRECORD
  5
D1
330
B6
100
AcDbXrecord
280
1
290
0
  0
XRECORD
  5
D2
330
B6
100
AcDbXrecord
280
1
290
0
  0
XRECORD
  5
D3
330
B6
100
AcDbXrecord
280
1
 90
65537
  0
XRECORD
  5
D4
330
B6
100
AcDbXrecord
280
1
 90
65537
  0
XRECORD
  5
D5
330
B6
100
AcDbXrecord
280
1
 90
65537
  0
XRECORD
  5
D6
330
B6
100
AcDbXrecord
280
1
 90
65537
  0
XRECORD
  5
D7
330
B6
100
AcDbXrecord
280
1
1000
auto
  0
XRECORD
  5
D8
330
B6
100
AcDbXrecord
280
1
1000
auto
  0
XRECORD
  5
D9
330
B6
100
AcDbXrecord
280
1
1000
auto
  0
XRECORD
  5
DA
330
B6
100
AcDbXrecord
280
1
1000
auto
  0
XRECORD
  5
DB
330
B6
100
AcDbXrecord
280
1
1000
auto
  0
XRECORD
  5
DC
330
B6
100
AcDbXrecord
280
1
1000
auto
  0
XRECORD
  5
DD
330
B6
100
AcDbXrecord
280
1
1000
auto
  0
XRECORD
  5
DE
330
B6
100
AcDbXrecord
280
1
1000
auto
  0
XRECORD
  5
DF
330
B6
100
AcDbXrecord
280
1
290
0
  0
XRECORD
  5
E0
330
B6
100
AcDbXrecord
280
1
 90
1
  0
XRECORD
  5
E1
330
B6
100
AcDbXrecord
280
1
 40
10.0
  0
XRECORD
  5
E2
330
B6
100
AcDbXrecord
280
1
 40
10.0
  0
XRECORD
  5
E3
330
B6
100
AcDbXrecord
280
1
 40
10.0
  0
XRECORD
  5
E4
330
B6
100
AcDbXrecord
280
1
 40
10.0
  0
XRECORD
  5
E5
330
B6
100
AcDbXrecord
280
1
290
0
  0
XRECORD
  5
E6
330
B6
100
AcDbXrecord
280
1
 90
1
  0
XRECORD
  5
E7
330
B6
100
AcDbXrecord
280
1
 40
-12.5729456824512535
  0
XRECORD
  5
E8
330
B6
100
AcDbXrecord
280
1
 40
-11.8472882189086803
  0
XRECORD
  5
E9
330
B6
100
AcDbXrecord
280
1
1000
Portrait
  0
XRECORD
  5
EA
330
B6
100
AcDbXrecord
280
1
1000
60
  0
XRECORD
  5
EB
330
B6
100
AcDbXrecord
280
1
1000
Custom
  0
XRECORD
  5
EC
330
B6
100
AcDbXrecord
280
1
1000
90
  0
XRECORD
  5
ED
330
B6
100
AcDbXrecord
280
1
1000
0.5
  0
XRECORD
  5
EE
330
B6
100
AcDbXrecord
280
1
1000
1:1
  0
XRECORD
  5
EF
330
B6
100
AcDbXrecord
280
1
290
1
  0
XRECORD
  5
F0
330
B6
100
AcDbXrecord
280
1
290
0
  0
XRECORD
  5
F1
330
B6
100
AcDbXrecord
280
1
1000
Inside
  0
XRECORD
  5
F2
330
B6
100
AcDbXrecord
280
1
1000
Arial,10,-1,5,50,0,0,0,0,0
  0
XRECORD
  5
F3
330
B6
100
AcDbXrecord
280
1
1000
TopLeft
  0
XRECORD
  5
F4
330
B6
100
AcDbXrecord
280
1
1000
3.26.4.10
  0
XRECORD
  5
F5
330
B6
100
AcDbXrecord
280
1
 90
4
  0
XRECORD
  5
F7
330
B6
100
AcDbXrecord
280
1
 40
109.2857142857142776
  0
XRECORD
  5
F8
330
B6
100
AcDbXrecord
280
1
 40
206.9686411149825744
  0
ENDSEC
  0
EOF
