<?xml version="1.0" encoding="UTF-8" standalone="no"?>
<svg
   viewBox="0 0 912.87669 312.88525"
   version="1.1"
   id="svg276"
   sodipodi:docname="Pyroll.svg"
   width="912.87665"
   height="312.88525"
   inkscape:version="1.2.1 (9c6d41e410, 2022-07-14)"
   xml:space="preserve"
   xmlns:inkscape="http://www.inkscape.org/namespaces/inkscape"
   xmlns:sodipodi="http://sodipodi.sourceforge.net/DTD/sodipodi-0.dtd"
   xmlns="http://www.w3.org/2000/svg"
   xmlns:svg="http://www.w3.org/2000/svg"><sodipodi:namedview
     id="namedview278"
     pagecolor="#ffffff"
     bordercolor="#666666"
     borderopacity="1.0"
     inkscape:pageshadow="2"
     inkscape:pageopacity="0.0"
     inkscape:pagecheckerboard="0"
     showgrid="false"
     fit-margin-top="0"
     fit-margin-left="0"
     fit-margin-right="0"
     fit-margin-bottom="0"
     inkscape:zoom="1.640625"
     inkscape:cx="502.24762"
     inkscape:cy="192"
     inkscape:window-width="3840"
     inkscape:window-height="2091"
     inkscape:window-x="0"
     inkscape:window-y="0"
     inkscape:window-maximized="1"
     inkscape:current-layer="layer2"
     inkscape:showpageshadow="2"
     inkscape:deskcolor="#d1d1d1" /><defs
     id="defs4"><style
       id="style2">
      .a {
        stroke: #000;
        stroke-width: 3.57px;
      }

      .a, .d {
        stroke-miterlimit: 10;
      }

      .b {
        fill: #303030;
      }

      .c {
        fill: #fd0;
      }

      .d, .k {
        fill: #fff;
      }

      .d {
        stroke: #fd0;
        stroke-width: 0.39px;
      }

      .e {
        fill: #cfba00;
      }

      .f {
        fill: #ffe600;
      }

      .g {
        fill: #4f4f4e;
      }

      .h {
        fill: #d4691e;
      }

      .i {
        fill: #d4851e;
      }

      .j {
        fill: #bd7100;
      }
    </style><rect
       x="258.78879"
       y="437.39072"
       width="103.55372"
       height="80.393494"
       id="rect4194" /></defs><g
     inkscape:groupmode="layer"
     id="layer1"
     inkscape:label="text"><g
       id="g14"
       transform="translate(-93.73,-229.25474)"><path
         d="M 93.73,481.07 V 233.38 h 68.16 q 29.94,0 47.83,19.17 17.89,19.17 17.88,51.45 0,31.91 -17.88,51.24 -17.88,19.33 -47.83,19.34 h -48 v 106.49 z m 20.17,-126.9 h 48 q 20.48,0 32.85,-13.57 12.37,-13.57 12.37,-36.6 0,-23.07 -12.22,-36.64 -12.22,-13.57 -33,-13.57 h -48 z"
         id="path6" /><path
         d="m 278.64,542.14 24.76,-73.63 -63,-174.06 h 22 l 41.6,117.4 q 2.75,8.14 5.5,17 2.75,8.86 4.28,13.92 1.53,-5.1 4.28,-14.09 2.75,-8.99 5.5,-17.13 l 38.51,-117.06 h 21.4 l -84.05,247.65 z"
         id="path8" /><path
         d="M 409.76,481.07 V 233.38 h 65.11 q 29.64,0 47.37,19 17.73,19 17.76,50.55 0,26.47 -12.84,44.28 -12.84,17.81 -35.16,22.91 l 50.13,111 H 518.27 L 470.89,371.81 h -41 v 109.26 z m 20.17,-129.28 h 44.94 q 20.16,0 32.39,-13.4 12.23,-13.4 12.23,-35.8 0,-22.38 -12.23,-35.62 -12.23,-13.24 -32.39,-13.23 h -44.94 z"
         id="path10" /><path
         d="m 628,484.12 q -28.43,0 -45.23,-18.66 Q 565.97,446.8 566,414.9 v -54.28 q 0,-31.89 16.81,-50.56 16.81,-18.67 45.19,-18.66 28.43,0 45.24,18.66 16.81,18.66 16.76,50.22 v 54.62 q 0,31.91 -16.81,50.56 -16.81,18.65 -45.19,18.66 z m 0,-19.68 q 19.88,0 30.87,-12.89 10.99,-12.89 11,-36.65 v -54.28 q 0,-23.75 -11.16,-36.65 -11.16,-12.9 -30.71,-12.89 -19.56,0 -30.71,12.89 -11.15,12.89 -11.16,36.65 v 54.28 q 0,23.76 11,36.65 11,12.89 30.87,12.89 z"
         id="path12" /></g><path
       d="M 723.1,480.45 V 232.76 h 20.18 v 227.33 h 42.65 v 20.36 z"
       id="path16"
       transform="translate(-93.73,-229.25474)" /><path
       class="a"
       d="m 822.55,466.76 c -11.4,-1.43 -16.08,-6.25 -16,-16.63 0.13,-53.71 0.59,-107.42 0.47,-161.14 0,-12.22 6.11,-20 17.22,-25.37 3.2,-1.56 6.68,-2.74 9.62,-4.62 9.13,-5.82 10.27,-17.05 1.68,-22.91 -9.52,-6.5 -20.81,-5.91 -31.34,-2.83 -9.21,2.7 -9.63,10.53 -9.63,18.17 -0.06,51.39 -0.8,102.79 -0.13,154.17 0.28,21.57 0.25,43.11 -0.39,64.65 -0.17,5.93 1.44,9.69 8.78,9.86 35.31,0.85 153.27,-1.24 187.64,-0.13 6,0.2 14.09,1.37 14.35,-6.87 0.17,-5.27 -8.72,-3.13 -14,-3.3 -23.51,-0.76 -163.24,-2.42 -168.27,-3.05 z"
       id="path18"
       transform="translate(-93.73,-229.25474)" /></g><g
     inkscape:groupmode="layer"
     id="layer2"
     inkscape:label="bird"><g
       id="g514"
       transform="matrix(0.50741515,0,0,0.50741515,732.91258,5.4151295)"
       style="stroke-width:1.97078"><g
         id="layer8"
         inkscape:label="back-foot"
         transform="translate(-80.38659,-42.780492)"
         style="stroke-width:1.97078"><path
           style="fill:#303030;fill-opacity:1;stroke:none;stroke-width:1.97078px;stroke-linecap:butt;stroke-linejoin:miter;stroke-opacity:1"
           d="m 198.51659,501.35322 c 13.23591,-21.53805 34.65851,-20.74255 46.46,0 h -46.46"
           id="path4041-7"
           sodipodi:nodetypes="ccc" /><path
           style="fill:#303030;fill-opacity:1;stroke:none;stroke-width:0;stroke-linecap:butt;stroke-linejoin:miter;stroke-dasharray:none;stroke-opacity:1"
           d="m 220.34659,489.09322 -8.46,-48.4 c -0.94853,-5.42658 11.07369,-6.51366 11.09,-1.16 l 0.15,49.25 c 0.006,1.9695 -2.53501,1.92753 -2.77,0.3"
           id="path4039-6"
           sodipodi:nodetypes="csssc" /></g><g
         id="layer1-6"
         inkscape:label="body"
         transform="translate(-55.7,-40.477272)"
         style="stroke-width:1.97078"><path
           style="fill:#ffdd00;fill-opacity:1;stroke:none;stroke-width:0;stroke-linecap:butt;stroke-linejoin:miter;stroke-dasharray:none;stroke-opacity:1"
           d="m 121.93,472.49 c 0,0 56.09181,-186.32227 71.38,-282.11 3.48,-21.80384 1.61551,-44.15815 5.77,-65.77 5.03048,-26.168779 7.46,-57.406439 33.96,-75.69 16.7538,-11.559214 45.00868,-10.39633 63.55845,-1.665829 17.21217,8.100955 28.45097,29.188367 31.63088,48.117465 4.29486,25.566084 -10.30471,51.084874 -25.28571,66.948924 -6.61709,7.00713 -15.36318,11.5255 -24.53362,15.29944 0.30386,7.27846 2.58416,14.94889 6.91,20.86 50.70551,69.28732 51.49868,137.95639 -45.21218,214.57664 C 205.54631,440.43838 121.93,472.49 121.93,472.49 Z"
           id="path2697"
           sodipodi:nodetypes="csssssscssc" /><path
           style="fill:#ffffff;fill-opacity:1;stroke:none;stroke-width:0;stroke-linecap:butt;stroke-linejoin:miter;stroke-dasharray:none;stroke-opacity:1"
           d="M 293.48,213.75 C 192.1354,286.76369 208.74,349.48405 238.9,411.48 285.6242,369.43001 353.11415,313.86154 293.48,213.75 Z"
           id="path2699"
           sodipodi:nodetypes="ccc" /></g><g
         id="layer2-7"
         inkscape:label="peak"
         transform="translate(-55.7,-40.477272)"
         style="stroke-width:1.97078"><path
           id="path227"
           class="st6"
           d="m 327.5,117.94922 c -5.97999,10.05999 -12.95029,16.78817 -25.83008,22.65039 35.02154,0.1358 54.77439,14.52841 77.75,34.90044 0.25,0.22 0.64055,-0.0291 0.56055,-0.36914 -6.31898,-25.71584 -35.77183,-47.76289 -52.36328,-57.10547 3.7e-4,-0.002 0.002,-0.004 0.002,-0.006 -0.04,-0.02 -0.0791,-0.0503 -0.11914,-0.0703 z"
           sodipodi:nodetypes="cccccccc"
           style="stroke-width:1.97078" /><path
           id="path231"
           class="st7"
           d="m 301.66992,140.59966 c 5.06572,6.84214 5.07681,6.83696 6.11914,16.40039 21.84198,1.6093 44.54119,8.48326 62.59204,16.97046 -12.81473,-13.20265 -28.43858,-34.66454 -68.71118,-33.37085 z"
           sodipodi:nodetypes="cccc"
           style="stroke-width:1.97078" /><path
           class="st0"
           d="m 331.32,127.24 c 2.13,-1.23 4.77,-0.34 5.9,1.98 l 0.35,0.71 -0.76,0.44 c -2.07,1.19 -4.64,0.33 -5.74,-1.92 l -0.4,-0.83 z"
           id="path261"
           style="stroke-width:1.97078" /></g><g
         id="layer3"
         inkscape:label="eye"
         transform="translate(-55.7,-40.477272)"
         style="stroke-width:1.97078"><path
           class="st0"
           d="M 261.49,115.46 244.33,98.78 264.88,84.71 c 11.43,-9.77 27.98,-7.62 36.97,4.82 l 15.84,16.37 c 1.42,1.46 1.04,4.02 -0.73,4.92 l -18.5,9.46 c -11.43,9.77 -27.98,7.61 -36.97,-4.82 z"
           id="path239"
           sodipodi:nodetypes="cccccccc"
           style="stroke-width:1.97078" /><path
           class="st8"
           d="m 277.01,87.27 c 7.83,-2.76 16.24,1.92 18.77,10.44 2.53,8.52 -1.76,17.66 -9.59,20.42 -7.83,2.76 -16.24,-1.92 -18.77,-10.44 -2.53,-8.52 1.76,-17.66 9.59,-20.42 z"
           id="path241"
           sodipodi:nodetypes="sssss"
           style="stroke-width:1.97078" /><path
           d="m 278.27,91.48 c 5.7,-2 11.81,1.39 13.65,7.59 1.84,6.2 -1.28,12.85 -6.98,14.85 -5.7,2 -11.81,-1.39 -13.65,-7.59 -1.84,-6.2 1.28,-12.85 6.98,-14.85 z"
           id="path243"
           sodipodi:nodetypes="sssss"
           style="stroke-width:1.97078" /><ellipse
           class="st9"
           cx="277.95999"
           cy="98.120003"
           rx="3.8699999"
           ry="4.21"
           id="ellipse245"
           style="stroke-width:1.97078" /></g><g
         id="layer6"
         inkscape:label="tail"
         transform="translate(-55.7,-40.477272)"
         style="stroke-width:1.97078"><path
           style="display:inline;fill:#1a1a1a;fill-opacity:1;stroke:none;stroke-width:0;stroke-linecap:butt;stroke-linejoin:miter;stroke-dasharray:none;stroke-opacity:1"
           d="M 171.92,436.19 78.68,520.07 55.7,467.34 150.85,408.17 Z"
           id="path3880" /><path
           style="display:inline;fill:#303030;fill-opacity:1;stroke:none;stroke-width:0;stroke-linecap:butt;stroke-linejoin:miter;stroke-dasharray:none;stroke-opacity:1"
           d="M 168.90626,432.18217 73.76,508.78 55.7,467.34 150.85,408.17 Z"
           id="path3884"
           sodipodi:nodetypes="ccccc" /><path
           style="display:inline;fill:#1a1a1a;fill-opacity:1;stroke:none;stroke-width:0;stroke-linecap:butt;stroke-linejoin:miter;stroke-dasharray:none;stroke-opacity:1"
           d="M 165.77768,428.02162 69.96405,500.06991 55.7,467.34 150.85,408.17 Z"
           id="path3886"
           sodipodi:nodetypes="ccccc" /><path
           style="display:inline;fill:#303030;fill-opacity:1;stroke:none;stroke-width:0;stroke-linecap:butt;stroke-linejoin:miter;stroke-dasharray:none;stroke-opacity:1"
           d="M 161.08111,421.59099 66.046825,491.08155 55.7,467.34 150.85,408.17 Z"
           id="path3888"
           sodipodi:nodetypes="ccccc" /><path
           style="display:inline;fill:#1a1a1a;fill-opacity:1;stroke:none;stroke-width:0;stroke-linecap:butt;stroke-linejoin:miter;stroke-dasharray:none;stroke-opacity:1"
           d="M 156.1175,415.175 61.59896,480.8756 55.7,467.34 150.85,408.17 Z"
           id="path3890"
           sodipodi:nodetypes="ccccc" /></g><g
         id="layer4"
         inkscape:label="wing"
         style="display:inline;stroke-width:1.97078"
         transform="translate(-55.7,-40.477272)"><path
           style="fill:#1a1a1a;fill-opacity:1;stroke:none;stroke-width:0;stroke-linecap:butt;stroke-linejoin:miter;stroke-dasharray:none;stroke-opacity:1"
           d="M 124.42,463.84 C 200.86793,396.07529 344.54735,241.21668 228.06732,182.65025 151.12094,143.96143 99.242597,364.20868 124.42,463.84 Z"
           id="path3581"
           sodipodi:nodetypes="csc" /><path
           style="fill:#303030;fill-opacity:1;stroke:none;stroke-width:0;stroke-linecap:butt;stroke-linejoin:miter;stroke-dasharray:none;stroke-opacity:1"
           d="M 120.56288,443.64605 C 194.21721,370.37647 344.54735,241.21668 228.06732,182.65025 151.12094,143.96143 106.70323,344.10306 120.56288,443.64605 Z"
           id="path3739"
           sodipodi:nodetypes="csc" /><path
           style="fill:#1a1a1a;fill-opacity:1;stroke:none;stroke-width:0;stroke-linecap:butt;stroke-linejoin:miter;stroke-dasharray:none;stroke-opacity:1"
           d="M 118.5082,421.53259 C 192.16253,348.26301 340.8305,237.94652 228.06732,182.65025 150.73909,144.7304 114.19283,329.57491 118.5082,421.53259 Z"
           id="path3741"
           sodipodi:nodetypes="csc" /><path
           style="fill:#303030;fill-opacity:1;stroke:none;stroke-width:0;stroke-linecap:butt;stroke-linejoin:miter;stroke-dasharray:none;stroke-opacity:1"
           d="M 118.25684,397.84929 C 191.91117,324.57971 337.57,235.18503 228.06732,182.65025 151.81551,146.06784 118.16638,312.615 118.25684,397.84929 Z"
           id="path3743"
           sodipodi:nodetypes="csc" /><path
           style="fill:#1a1a1a;fill-opacity:1;stroke:none;stroke-width:0;stroke-linecap:butt;stroke-linejoin:miter;stroke-dasharray:none;stroke-opacity:1"
           d="M 119.08346,372.67194 C 192.73779,299.40236 336.09593,238.07573 228.06732,182.65025 152.8201,144.04369 118.993,287.43765 119.08346,372.67194 Z"
           id="path4255"
           sodipodi:nodetypes="csc" /></g><g
         id="layer7"
         inkscape:label="front-foot"
         transform="translate(-55.7,-40.477272)"
         style="stroke-width:1.97078"><path
           style="fill:#1a1a1a;fill-opacity:1;stroke:none;stroke-width:0;stroke-linecap:butt;stroke-linejoin:miter;stroke-dasharray:none;stroke-opacity:1"
           d="m 180.18,495.22 -8.46,-48.4 c -0.94853,-5.42658 11.07369,-6.51366 11.09,-1.16 l 0.15,49.25 c 0.006,1.9695 -2.53501,1.92753 -2.77,0.3"
           id="path4039"
           sodipodi:nodetypes="csssc" /><path
           style="fill:#1a1a1a;fill-opacity:1;stroke:none;stroke-width:1.97078px;stroke-linecap:butt;stroke-linejoin:miter;stroke-opacity:1"
           d="m 158.35,507.48 c 13.23591,-21.53805 34.65851,-20.74255 46.46,0 h -46.46"
           id="path4041"
           sodipodi:nodetypes="ccc" /></g></g></g><style
     type="text/css"
     id="style2-3">
	.st0{fill:#303030;}
	.st1{fill:#FFDD00;}
	.st2{fill:#FFFFFF;stroke:#FFDD00;stroke-miterlimit:10;}
	.st3{fill:#CFBA00;}
	.st4{fill:#FFE600;}
	.st5{fill:#4F4F4E;}
	.st6{fill:#D4691E;}
	.st7{fill:#D4851E;}
	.st8{fill:#BD7100;}
	.st9{fill:#FFFFFF;}
	.st10{stroke:#000000;stroke-miterlimit:10;}
	.st11{fill:#303030;stroke:#FFFFFF;stroke-width:2;stroke-miterlimit:10;}
	.st12{fill:none;}
	.st13{fill:url(#SVGID_1_);stroke:#404040;stroke-miterlimit:10;}
	.st14{fill:url(#SVGID_2_);stroke:#404040;stroke-miterlimit:10;}
	.st15{fill:url(#SVGID_3_);stroke:#404040;stroke-miterlimit:10;}
	.st16{fill:url(#SVGID_4_);stroke:#404040;stroke-miterlimit:10;}
	.st17{fill:url(#SVGID_5_);stroke:#404040;stroke-miterlimit:10;}
	.st18{fill:url(#SVGID_6_);stroke:#404040;stroke-miterlimit:10;}
	.st19{fill:url(#SVGID_7_);stroke:#404040;stroke-miterlimit:10;}
	.st20{fill:url(#SVGID_8_);stroke:#404040;stroke-miterlimit:10;}
	.st21{fill:url(#SVGID_9_);stroke:#404040;stroke-miterlimit:10;}
	.st22{fill:url(#SVGID_10_);stroke:#404040;stroke-miterlimit:10;}
	.st23{fill:url(#SVGID_11_);stroke:#404040;stroke-miterlimit:10;}
	.st24{fill:url(#SVGID_12_);stroke:#404040;stroke-miterlimit:10;}
	.st25{fill:url(#SVGID_13_);stroke:#404040;stroke-miterlimit:10;}
	.st26{fill:url(#SVGID_14_);stroke:#404040;stroke-miterlimit:10;}
	.st27{fill:url(#SVGID_15_);stroke:#404040;stroke-miterlimit:10;}
	.st28{fill:url(#SVGID_16_);stroke:#404040;stroke-miterlimit:10;}
	.st29{fill:url(#SVGID_17_);stroke:#404040;stroke-miterlimit:10;}
	.st30{fill:url(#SVGID_18_);stroke:#404040;stroke-miterlimit:10;}
	.st31{fill:url(#SVGID_19_);stroke:#404040;stroke-miterlimit:10;}
	.st32{fill:url(#SVGID_20_);stroke:#404040;stroke-miterlimit:10;}
	.st33{fill:url(#SVGID_21_);stroke:#404040;stroke-miterlimit:10;}
	.st34{fill:url(#SVGID_22_);stroke:#404040;stroke-miterlimit:10;}
	.st35{fill:url(#SVGID_23_);stroke:#404040;stroke-miterlimit:10;}
	.st36{fill:url(#SVGID_24_);stroke:#404040;stroke-miterlimit:10;}
	.st37{fill:url(#SVGID_25_);stroke:#404040;stroke-miterlimit:10;}
	.st38{fill:url(#SVGID_26_);stroke:#404040;stroke-miterlimit:10;}
	.st39{fill:url(#SVGID_27_);stroke:#404040;stroke-miterlimit:10;}
	.st40{fill:url(#SVGID_28_);stroke:#404040;stroke-miterlimit:10;}
	.st41{fill:url(#SVGID_29_);stroke:#404040;stroke-miterlimit:10;}
	.st42{fill:url(#SVGID_30_);stroke:#404040;stroke-miterlimit:10;}
	.st43{fill:url(#SVGID_31_);stroke:#404040;stroke-miterlimit:10;}
	.st44{fill:url(#SVGID_32_);stroke:#404040;stroke-miterlimit:10;}
	.st45{fill:url(#SVGID_33_);stroke:#404040;stroke-miterlimit:10;}
	.st46{fill:url(#SVGID_34_);stroke:#404040;stroke-miterlimit:10;}
	.st47{fill:url(#SVGID_35_);stroke:#404040;stroke-miterlimit:10;}
	.st48{fill:url(#SVGID_36_);stroke:#404040;stroke-miterlimit:10;}
	.st49{fill:url(#SVGID_37_);stroke:#404040;stroke-miterlimit:10;}
	.st50{fill:url(#SVGID_38_);stroke:#404040;stroke-miterlimit:10;}
	.st51{fill:url(#SVGID_39_);stroke:#404040;stroke-miterlimit:10;}
	.st52{fill:url(#SVGID_40_);stroke:#404040;stroke-miterlimit:10;}
	.st53{fill:url(#SVGID_41_);stroke:#404040;stroke-miterlimit:10;}
	.st54{fill:url(#SVGID_42_);stroke:#404040;stroke-miterlimit:10;}
	.st55{fill:url(#SVGID_43_);stroke:#404040;stroke-miterlimit:10;}
	.st56{fill:url(#SVGID_44_);stroke:#404040;stroke-miterlimit:10;}
	.st57{fill:url(#SVGID_45_);stroke:#404040;stroke-miterlimit:10;}
	.st58{fill:url(#SVGID_46_);stroke:#404040;stroke-miterlimit:10;}
	.st59{fill:url(#SVGID_47_);stroke:#404040;stroke-miterlimit:10;}
	.st60{fill:url(#SVGID_48_);stroke:#404040;stroke-miterlimit:10;}
	.st61{fill:url(#SVGID_49_);stroke:#404040;stroke-miterlimit:10;}
	.st62{fill:url(#SVGID_50_);stroke:#404040;stroke-miterlimit:10;}
	.st63{fill:url(#SVGID_51_);stroke:#404040;stroke-miterlimit:10;}
	.st64{fill:url(#SVGID_52_);stroke:#404040;stroke-miterlimit:10;}
	.st65{fill:url(#SVGID_53_);stroke:#404040;stroke-miterlimit:10;}
	.st66{fill:url(#SVGID_54_);stroke:#404040;stroke-miterlimit:10;}
	.st67{fill:url(#SVGID_55_);stroke:#404040;stroke-miterlimit:10;}
	.st68{fill:url(#SVGID_56_);stroke:#404040;stroke-miterlimit:10;}
	.st69{fill:url(#SVGID_57_);stroke:#404040;stroke-miterlimit:10;}
	.st70{fill:url(#SVGID_58_);stroke:#404040;stroke-miterlimit:10;}
	.st71{fill:url(#SVGID_59_);stroke:#404040;stroke-miterlimit:10;}
	.st72{fill:url(#SVGID_60_);stroke:#404040;stroke-miterlimit:10;}
	.st73{fill:url(#SVGID_61_);stroke:#404040;stroke-miterlimit:10;}
	.st74{fill:url(#SVGID_62_);stroke:#404040;stroke-miterlimit:10;}
	.st75{fill:#4D4D4D;}
	.st76{fill:#4C4C4C;}
	.st77{fill:#4A4A4A;}
	.st78{fill:#494949;}
	.st79{fill:#484848;}
	.st80{fill:#474747;}
	.st81{fill:#454545;}
	.st82{fill:#444444;}
	.st83{fill:#434343;}
	.st84{fill:#424242;}
	.st85{fill:#404040;}
	.st86{fill:#3F3F3F;}
	.st87{fill:#3E3E3E;}
	.st88{fill:#3D3D3D;}
	.st89{fill:#3B3B3B;}
	.st90{fill:#3A3A3A;}
	.st91{fill:#393939;}
	.st92{fill:#383838;}
	.st93{fill:#363636;}
	.st94{fill:#353535;}
	.st95{fill:#343434;}
	.st96{fill:#323232;}
	.st97{fill:#313131;}
	.st98{fill:#2F2F2F;}
	.st99{fill:#2D2D2D;}
	.st100{fill:#2C2C2C;}
	.st101{fill:#2B2B2B;}
	.st102{fill:#2A2A2A;}
	.st103{fill:#282828;}
	.st104{fill:#272727;}
	.st105{fill:#262626;}
	.st106{fill:#252525;}
	.st107{fill:#232323;}
	.st108{fill:#222222;}
	.st109{fill:#212121;}
	.st110{fill:#202020;}
	.st111{fill:#1E1E1E;}
	.st112{fill:#1D1D1D;}
	.st113{fill:#1C1C1C;}
	.st114{fill:#1B1B1B;}
	.st115{fill:#191919;}
	.st116{fill:#181818;}
	.st117{fill:#171717;}
	.st118{fill:#151515;}
	.st119{fill:#141414;}
	.st120{fill:#131313;}
	.st121{fill:#121212;}
	.st122{fill:#101010;}
	.st123{fill:#0F0F0F;}
	.st124{fill:#0E0E0E;}
	.st125{fill:#0D0D0D;}
	.st126{fill:#0B0B0B;}
	.st127{fill:#0A0A0A;}
	.st128{fill:#090909;}
	.st129{fill:#080808;}
	.st130{fill:#060606;}
	.st131{fill:#050505;}
	.st132{fill:#040404;}
	.st133{fill:#030303;}
	.st134{fill:#010101;}
	.st135{fill:#D4D4D4;}
	.st136{fill:#FFFFFF;stroke:#D4D4D4;stroke-miterlimit:10;}
	.st137{fill:#DEDEDE;}
	.st138{fill:#FFFFFF;stroke:#DEDEDE;stroke-miterlimit:10;}
	.st139{fill:#8F8F8F;}
	.st140{fill:#A1A1A1;}
	.st141{fill:#FFFFFF;stroke:#FFDD00;stroke-width:0.6124;stroke-miterlimit:10;}
	.st142{fill:#FFFFFF;stroke:#FFDD00;stroke-width:0.3896;stroke-miterlimit:10;}
	.st143{stroke:#000000;stroke-width:3.5702;stroke-miterlimit:10;}
</style></svg>
