<?xml version="1.0" encoding="UTF-8" standalone="no"?>
<!-- Created with Inkscape (http://www.inkscape.org/) -->

<svg
   version="1.1"
   id="svg2"
   xml:space="preserve"
   width="226.66667"
   height="189.33333"
   viewBox="0 0 226.66667 189.33333"
   sodipodi:docname="round.svg"
   inkscape:version="1.1.2 (0a00cf5339, 2022-02-04)"
   xmlns:inkscape="http://www.inkscape.org/namespaces/inkscape"
   xmlns:sodipodi="http://sodipodi.sourceforge.net/DTD/sodipodi-0.dtd"
   xmlns="http://www.w3.org/2000/svg"
   xmlns:svg="http://www.w3.org/2000/svg"><defs
     id="defs6" /><sodipodi:namedview
     id="namedview4"
     pagecolor="#ffffff"
     bordercolor="#666666"
     borderopacity="1.0"
     inkscape:pageshadow="2"
     inkscape:pageopacity="0.0"
     inkscape:pagecheckerboard="0"
     showgrid="false"
     inkscape:zoom="3.3274649"
     inkscape:cx="50.188358"
     inkscape:cy="94.666664"
     inkscape:window-width="1920"
     inkscape:window-height="1007"
     inkscape:window-x="0"
     inkscape:window-y="0"
     inkscape:window-maximized="1"
     inkscape:current-layer="g8" /><g
     id="g8"
     inkscape:groupmode="layer"
     inkscape:label="round"
     transform="matrix(1.3333333,0,0,-1.3333333,0,189.33333)"><g
       id="g10"
       transform="matrix(0.06,0,0,-0.06,0,142)"><g
         id="g12"><g
           id="g14" /></g><g
         id="g16"><g
           id="g18" /><g
           id="g20"
           transform="matrix(47.216667,0,0,-47.34,0,2367)"><path
             d="m 10.402275,21.363636 0.02275,-0.12097 0.0235,-0.120829 0.02424,-0.120681 0.02498,-0.120531 0.02572,-0.120374 0.02646,-0.120213 0.0272,-0.120048 0.02794,-0.119879 0.02868,-0.119704 0.02942,-0.119526 0.03015,-0.119342 0.03088,-0.119154 0.03162,-0.118963 0.03235,-0.118765 0.03308,-0.118564 0.03381,-0.118358 0.03454,-0.118148 0.03526,-0.117932 0.03599,-0.117714 0.03671,-0.11749 0.03743,-0.117262 0.03815,-0.117029 0.03887,-0.116793 0.03959,-0.11655 0.04031,-0.116305 0.04102,-0.116055 0.04174,-0.1158 0.04245,-0.115541 0.04316,-0.115277 0.04387,-0.115009 0.04458,-0.114738 0.04528,-0.114461 0.04598,-0.11418 0.04669,-0.113895 0.04739,-0.113605 0.04808,-0.113312 0.04878,-0.113013 0.04948,-0.112711 0.05017,-0.112405 0.05086,-0.112093 0.05155,-0.111779 0.05223,-0.111459 0.05292,-0.111135 0.0536,-0.110808 0.05428,-0.110476 0.05496,-0.110139 0.05564,-0.1098 0.05631,-0.109454 0.05699,-0.109106 0.05766,-0.108753 0.05833,-0.108397 0.05899,-0.108035 0.05965,-0.10767 0.06032,-0.107301 0.06098,-0.106928 0.06163,-0.10655 0.06229,-0.106169 0.06294,-0.105784 0.06359,-0.105394 0.06424,-0.105001 0.06488,-0.104604 0.06552,-0.104202 0.06616,-0.103797 0.0668,-0.103388 0.06744,-0.102975 0.06807,-0.102557 0.0687,-0.102137 0.06933,-0.101712 0.06995,-0.101284 0.07057,-0.100851 0.07119,-0.100415 0.07181,-0.09998 0.07242,-0.09953 0.07304,-0.09908 0.07364,-0.09863 0.07425,-0.09818 0.07485,-0.09772 0.07545,-0.09726 0.07605,-0.09679 0.07664,-0.09632 0.07723,-0.09585 0.07782,-0.09537 0.07841,-0.09489 0.07899,-0.0944 0.07957,-0.09392 0.08015,-0.09342 0.08072,-0.09293 0.08129,-0.09243 0.08186,-0.09193 0.08242,-0.09142 0.08298,-0.09091 0.08354,-0.0904 0.0841,-0.08989 0.08465,-0.08937 0.0852,-0.08884 0.08574,-0.08832 0.08628,-0.08779 0.08682,-0.08726 0.08736,-0.08672 0.08789,-0.08618 0.08842,-0.08564 0.08894,-0.08509 0.08947,-0.08454 0.08998,-0.08399 0.0905,-0.08343 0.09101,-0.08288 0.09152,-0.08231 0.09202,-0.08175 0.09253,-0.081182 0.09302,-0.080611 0.09352,-0.080037 0.09401,-0.07946 0.0945,-0.07888 0.09498,-0.078297 0.09546,-0.077711 0.09594,-0.077122 0.09641,-0.07653 0.09688,-0.075935 0.09734,-0.075337 0.09781,-0.074737 0.09826,-0.074133 0.09872,-0.073527 0.09917,-0.072918 0.09962,-0.072307 L 18.470404,8.706581 18.570902,8.635506 18.671837,8.565051 18.773202,8.495218 18.874996,8.42601 18.977213,8.35743 19.079851,8.289481 19.182905,8.222165 19.286372,8.155484 19.390246,8.089441 19.494526,8.024039 19.599206,7.95928 19.704282,7.895166 19.809751,7.8317 19.915609,7.768885 20.021851,7.706722 20.128474,7.645214 20.235473,7.584364 20.342845,7.524173 20.450585,7.464644 20.55869,7.40578 20.667154,7.347582 20.775975,7.290053 20.885148,7.233195 20.994669,7.17701 21.104534,7.1215 21.214738,7.066667 21.325277,7.012513 21.436148,6.959041 21.547346,6.906252 21.658866,6.854148 21.770705,6.802732 21.882858,6.752005 21.995322,6.701969 22.108091,6.652626 22.221162,6.603978 22.33453,6.556027 22.448191,6.508775 22.562141,6.462223 22.676375,6.416373 22.790889,6.371227 22.905679,6.326787 23.02074,6.283054 23.136068,6.24003 23.251658,6.197717 23.367507,6.156116 23.48361,6.115229 23.599962,6.075057 23.71656,6.035602 23.833397,5.996865 23.950471,5.958848 24.067777,5.921553 24.18531,5.88498 24.303066,5.849131 24.421041,5.814008 24.539229,5.779611 24.657627,5.745942 24.77623,5.713003 24.895033,5.680794 25.014032,5.649317 25.133223,5.618573 25.2526,5.588563 25.37216,5.559288 25.491898,5.53075 25.61181,5.502949 l 0.12008,-0.027062 0.120244,-0.026323 0.120405,-0.025582 0.120559,-0.02484 0.12071,-0.024098 0.120856,-0.023355 0.120997,-0.02261 0.121135,-0.021865 0.121266,-0.021119 0.121395,-0.020373 0.121517,-0.019625 0.121636,-0.018877 0.121749,-0.018128 0.121859,-0.017378 0.121964,-0.016628 0.122064,-0.015877 0.122159,-0.015125 0.12225,-0.014373 0.122335,-0.013621 0.122418,-0.012867 0.122494,-0.012114 0.122567,-0.01136 0.122634,-0.010605 0.122697,-0.00985 0.122756,-0.00909 0.122809,-0.00834 0.122858,-0.00758 0.122902,-0.00683 0.122942,-0.00607 0.122978,-0.00531 0.123007,-0.00456 0.123033,-0.0038 0.123055,-0.00304 0.12307,-0.00228 0.123083,-0.00153 0.123089,-7.697e-4 0.123092,-1.21e-5 0.12309,7.456e-4 0.123082,0.0015 0.123071,0.00226 0.123055,0.00302 0.123034,0.00378 0.123009,0.00453 0.122978,0.00529 0.122943,0.00605 0.122904,0.0068 0.122859,0.00756 0.122811,0.00831 0.122757,0.00907 0.122699,0.00983 0.122637,0.010581 0.122569,0.011336 0.122496,0.01209 0.12242,0.012843 0.122339,0.013597 0.122253,0.014349 0.122162,0.015101 0.122066,0.015853 0.121967,0.016604 0.121863,0.017354 0.121753,0.018104 0.121639,0.018853 0.121522,0.019601 0.121398,0.020349 0.121271,0.021095 0.121138,0.021842 0.121002,0.022587 0.120861,0.023331 0.120714,0.024074 0.120564,0.024817 0.12041,0.025558 0.120249,0.026299 0.120086,0.027038 0.119917,0.027777 0.119743,0.028515 0.119566,0.029251 0.119384,0.029986 0.119196,0.03072 0.119006,0.031454 0.118809,0.032185 0.118609,0.032916 0.118405,0.033645 0.118195,0.034374 0.117981,0.0351 0.117763,0.035826 0.11754,0.03655 0.117314,0.037273 0.117081,0.037994 0.116846,0.038714 0.116605,0.039432 0.11636,0.040149 0.11611,0.040864 0.115857,0.041578 0.115599,0.042291 0.115337,0.043001 0.11507,0.04371 0.114798,0.044418 0.114523,0.045123 0.114243,0.045827 0.113959,0.04653 0.11367,0.04723 0.113378,0.047929 0.11308,0.048626 0.112779,0.049321 0.112473,0.050014 0.112163,0.050705 0.11185,0.051395 0.11153,0.052082 0.111208,0.052767 0.110881,0.053451 0.110551,0.054132 0.110214,0.054812 0.109876,0.055489 0.109532,0.056164 0.109184,0.056837 0.108832,0.057508 0.108476,0.058177 0.108116,0.058843 0.107752,0.059507 0.107384,0.060169 0.107011,0.060829 0.106635,0.061487 0.106254,0.062142 0.10587,0.062795 0.105482,0.063445 0.105089,0.064093 0.104692,0.064738 0.104292,0.065382 0.103888,0.066022 0.10348,0.066661 0.103067,0.067296 0.102651,0.067929 0.102231,0.06856 0.101807,0.069187 0.10138,0.069813 0.100948,0.070435 0.100512,0.071055 0.100073,0.071673 0.09963,0.072287 0.09918,0.072899 0.09873,0.073508 0.09828,0.074114 0.09782,0.074718 0.09736,0.075318 0.09689,0.075916 0.09642,0.076511 0.09595,0.077103 0.09548,0.077692 0.09499,0.078278 0.09451,0.078861 0.09403,0.079442 0.09353,0.080019 0.09304,0.080593 0.09254,0.081164 0.09204,0.08173 0.09154,0.0823 0.09103,0.08286 0.09052,0.08342 0.09,0.08397 0.08948,0.08453 0.08896,0.08507 0.08843,0.08562 0.08791,0.08616 0.08738,0.0867 0.08684,0.08724 0.0863,0.08777 0.08576,0.0883 0.08521,0.08883 0.08467,0.08935 0.08411,0.08987 0.08356,0.09039 0.083,0.0909 0.08244,0.09141 0.08188,0.09191 0.08131,0.09242 0.08074,0.09291 0.08017,0.09341 0.07959,0.0939 0.07901,0.09439 0.07843,0.09487 0.07784,0.09535 0.07725,0.09583 0.07666,0.0963 0.07607,0.09677 0.07547,0.09724 0.07487,0.0977 0.07427,0.09816 0.07366,0.09862 0.07305,0.09907 0.07244,0.09952 0.07183,0.09996 0.07121,0.100401 0.07059,0.100838 0.06997,0.101269 0.06935,0.101699 0.06872,0.102123 0.06809,0.102545 0.06746,0.102961 0.06682,0.103375 0.06618,0.103784 0.06555,0.10419 0.0649,0.10459 0.06426,0.104989 0.06361,0.105381 0.06296,0.105772 0.06231,0.106157 0.06165,0.106538 0.061,0.106916 0.06034,0.107289 0.05968,0.107658 0.05901,0.108024 0.05835,0.108385 0.05768,0.108742 0.05701,0.109094 0.05634,0.109444 0.05566,0.109788 0.05498,0.110129 0.0543,0.110465 0.05362,0.110797 0.05294,0.111125 0.05226,0.111449 0.05157,0.111769 0.05088,0.112083 0.05019,0.112395 0.0495,0.112701 0.0488,0.113004 0.04811,0.113302 0.04741,0.113597 0.04671,0.113885 0.04601,0.114171 0.0453,0.114452 0.0446,0.114729 0.04389,0.115001 0.04318,0.115269 0.04247,0.115532 0.04176,0.115792 0.04105,0.116046 0.04033,0.116297 0.03962,0.116543 0.0389,0.116785 0.03818,0.117022 0.03746,0.117254 0.03673,0.117483 0.03601,0.117707 0.03529,0.117926 0.03456,0.118141 0.03383,0.118351 0.0331,0.118558 0.03237,0.118759 0.03164,0.118955 0.03091,0.119149 0.03017,0.119336 0.02944,0.11952 0.0287,0.119699 0.02797,0.119873 0.02723,0.120043 0.02649,0.120208 0.02575,0.120369 0.02501,0.120525 0.02426,0.120677 0.02352,0.120824 0.02278,0.120966 7.14e-4,0.0039"
             style="fill:none;stroke:#000000;stroke-width:0.25;stroke-linecap:round;stroke-linejoin:round;stroke-miterlimit:10;stroke-dasharray:none;stroke-opacity:1"
             id="path22" /><path
             d="m 49.735562,28.636364 -0.02275,0.12097 -0.0235,0.120829 -0.02424,0.120681 -0.02498,0.12053 -0.02572,0.120374 -0.02646,0.120214 -0.0272,0.120048 -0.02794,0.119879 -0.02868,0.119704 -0.02942,0.119526 -0.03015,0.119342 -0.03088,0.119154 -0.03162,0.118962 -0.03235,0.118766 -0.03308,0.118564 -0.03381,0.118358 -0.03454,0.118147 -0.03526,0.117933 -0.03599,0.117714 -0.03671,0.11749 -0.03743,0.117262 -0.03815,0.117029 -0.03887,0.116792 -0.03959,0.116551 -0.04031,0.116305 -0.04102,0.116055 -0.04174,0.115799 -0.04245,0.115541 -0.04316,0.115278 -0.04387,0.115009 -0.04458,0.114738 -0.04528,0.114461 -0.04598,0.11418 -0.04668,0.113894 -0.04739,0.113606 -0.04809,0.113311 -0.04878,0.113014 -0.04948,0.112711 -0.05017,0.112405 -0.05086,0.112093 -0.05155,0.111779 -0.05223,0.111459 -0.05292,0.111135 -0.0536,0.110808 -0.05428,0.110476 -0.05496,0.110139 -0.05564,0.109799 -0.05631,0.109455 -0.05699,0.109106 -0.05766,0.108753 -0.05833,0.108396 -0.05899,0.108036 -0.05966,0.10767 -0.06032,0.107301 -0.06098,0.106927 -0.06163,0.106551 -0.06229,0.106169 -0.06294,0.105784 -0.06359,0.105394 -0.06424,0.105001 -0.06488,0.104603 -0.06553,0.104203 -0.06616,0.103797 -0.0668,0.103388 -0.06744,0.102974 -0.06807,0.102558 -0.0687,0.102137 -0.06933,0.101712 -0.06995,0.101284 -0.07057,0.100851 -0.07119,0.100415 -0.07181,0.09997 -0.07242,0.09953 -0.07304,0.09908 -0.07364,0.09863 -0.07425,0.09818 -0.07485,0.09772 -0.07545,0.09726 -0.07605,0.09679 -0.07664,0.09632 -0.07724,0.09585 -0.07782,0.09537 -0.07841,0.09489 -0.07899,0.0944 -0.07957,0.09392 -0.08015,0.09342 -0.08072,0.09293 -0.08129,0.09243 -0.08186,0.09193 -0.08242,0.09142 -0.08298,0.09091 -0.08354,0.0904 -0.0841,0.08989 -0.08465,0.08937 -0.0852,0.08884 -0.08574,0.08832 -0.08628,0.08779 -0.08682,0.08726 -0.08736,0.08672 -0.08789,0.08618 -0.08842,0.08564 -0.08894,0.08509 -0.08947,0.08454 -0.08998,0.08399 -0.0905,0.08344 -0.09101,0.08288 -0.09152,0.08232 -0.09202,0.08175 -0.09253,0.08118 -0.09302,0.08061 -0.09352,0.08004 -0.09401,0.07946 -0.0945,0.07888 -0.09498,0.0783 -0.09546,0.07771 -0.09594,0.07712 -0.09641,0.07653 -0.09688,0.07593 -0.09734,0.07534 -0.09781,0.07474 -0.09826,0.07413 -0.09872,0.07353 -0.09917,0.07292 -0.09962,0.07231 -0.100059,0.07169 -0.100499,0.07108 -0.100934,0.07046 -0.101365,0.06983 -0.101794,0.06921 -0.102218,0.06858 -0.102637,0.06795 -0.103054,0.06732 -0.103467,0.06668 -0.103875,0.06604 -0.104279,0.0654 -0.10468,0.06476 -0.105076,0.06411 -0.105469,0.06347 -0.105858,0.06282 -0.106242,0.06216 -0.106623,0.06151 -0.106999,0.06085 -0.107372,0.06019 -0.10774,0.05953 -0.108105,0.05886 -0.108465,0.0582 -0.108821,0.05753 -0.109173,0.05686 -0.10952,0.05618 -0.109865,0.05551 -0.110204,0.05483 -0.110539,0.05415 -0.110871,0.05347 -0.111198,0.05279 -0.11152,0.0521 -0.111839,0.05142 -0.112154,0.05073 -0.112463,0.05004 -0.112769,0.04934 -0.113071,0.04865 -0.113368,0.04795 -0.113661,0.04725 -0.11395,0.04655 -0.114234,0.04585 -0.114514,0.04515 -0.11479,0.04444 -0.115061,0.04373 -0.115328,0.04302 -0.115591,0.04231 -0.115848,0.0416 -0.116103,0.04089 -0.116353,0.04017 -0.116597,0.03945 -0.116838,0.03874 -0.117074,0.03802 -0.117305,0.0373 -0.117534,0.03657 -0.117756,0.03585 -0.117974,0.03512 -0.118188,0.0344 -0.118398,0.03367 -0.118603,0.03294 -0.118803,0.03221 -0.118999,0.03148 -0.119191,0.03074 -0.119378,0.03001 -0.11956,0.02927 -0.119738,0.02854 -0.119911,0.0278 -0.12008,0.02706 -0.120245,0.02632 -0.120404,0.02558 -0.120559,0.02484 -0.12071,0.0241 -0.120856,0.02336 -0.120998,0.02261 -0.121134,0.02186 -0.121267,0.02112 -0.121394,0.02037 -0.121517,0.01962 -0.121636,0.01888 -0.12175,0.01813 -0.121859,0.01738 -0.121963,0.01663 -0.122064,0.01588 -0.122159,0.01512 -0.12225,0.01437 -0.122336,0.01362 -0.122417,0.01287 -0.122495,0.01211 -0.122566,0.01136 -0.122634,0.0106 -0.122697,0.0099 -0.122756,0.0091 -0.122809,0.0083 -0.122858,0.0076 -0.122903,0.0068 -0.122942,0.0061 -0.122977,0.0053 -0.123007,0.0046 -0.123034,0.0038 -0.123054,0.003 -0.12307,0.0023 -0.123083,0.0015 -0.123089,7.69e-4 L 30.068918,45"
             style="fill:none;stroke:#000000;stroke-width:0.25;stroke-linecap:round;stroke-linejoin:round;stroke-miterlimit:10;stroke-dasharray:none;stroke-opacity:1"
             id="path24" /><path
             d="m 30.068918,45 -0.123091,-3.79e-4 -0.123087,-0.0011 -0.123077,-0.0019 -0.123063,-0.0027 -0.123045,-0.0034 -0.123021,-0.0042 -0.122994,-0.0049 -0.12296,-0.0057 -0.122924,-0.0064 -0.122881,-0.0072 -0.122835,-0.0079 -0.122784,-0.0087 -0.122728,-0.0095 -0.122667,-0.01021 -0.122602,-0.01097 -0.122532,-0.01172 -0.122458,-0.01248 -0.122379,-0.01323 -0.122295,-0.01399 -0.122206,-0.01474 -0.122113,-0.01549 -0.122016,-0.01624 -0.121914,-0.01699 -0.121806,-0.01774 -0.121696,-0.01849 -0.121579,-0.01924 -0.121458,-0.01999 -0.121333,-0.02073 -0.121203,-0.02148 -0.121069,-0.02223 -0.120929,-0.02297 -0.120786,-0.02371 -0.120638,-0.02446 -0.120485,-0.0252 -0.120327,-0.02594 -0.120166,-0.02668 -0.119999,-0.02742 -0.119828,-0.02816 -0.119652,-0.02889 -0.119472,-0.02963 -0.119288,-0.03037 -0.119099,-0.0311 -0.118905,-0.03183 -0.118706,-0.03256 -0.118504,-0.03329 -0.118297,-0.03402 -0.118086,-0.03475 -0.117869,-0.03548 -0.117649,-0.0362 -0.117423,-0.03692 -0.117194,-0.03764 -0.116961,-0.03837 -0.116722,-0.03908 -0.116479,-0.0398 -0.116232,-0.04052 -0.11598,-0.04123 -0.115725,-0.04194 -0.115464,-0.04266 -0.115199,-0.04337 -0.11493,-0.04407 -0.114657,-0.04478 -0.114379,-0.04549 -0.114097,-0.04619 -0.113811,-0.04689 -0.113519,-0.04759 -0.113225,-0.04829 -0.112926,-0.04899 -0.112621,-0.04968 -0.112314,-0.05037 -0.112002,-0.05106 -0.111685,-0.05175 -0.111365,-0.05244 -0.11104,-0.05312 -0.110711,-0.0538 -0.110377,-0.05448 -0.110041,-0.05516 -0.109698,-0.05584 -0.109353,-0.05651 -0.109003,-0.05718 -0.108649,-0.05785 -0.108291,-0.05852 -0.107929,-0.05919 -0.107562,-0.05985 -0.107192,-0.06051 -0.106818,-0.06117 -0.106439,-0.06182 -0.106057,-0.06248 -0.10567,-0.06313 -0.105279,-0.06378 -0.104885,-0.06443 -0.104487,-0.06507 -0.104084,-0.06571 -0.103677,-0.06635 -0.103267,-0.06699 -0.102853,-0.06762 -0.102435,-0.06826 -0.102013,-0.06888 -0.101587,-0.06951 -0.101157,-0.07013 -0.100724,-0.07076 -0.100286,-0.07137 -0.09985,-0.07199 -0.0994,-0.0726 -0.09895,-0.07321 -0.0985,-0.07382 -0.09804,-0.07443 -0.09758,-0.07503 -0.09712,-0.07563 -0.09665,-0.07622 -0.09618,-0.07682 -0.09571,-0.07741 -0.09523,-0.07799 -0.09475,-0.07858 -0.09426,-0.07916 -0.09377,-0.07974 -0.09328,-0.08031 -0.09278,-0.08089 -0.09228,-0.08146 -0.09178,-0.08202 -0.09127,-0.08259 -0.09076,-0.08315 -0.09025,-0.08371 -0.08973,-0.08426 -0.08921,-0.08481 -0.08869,-0.08536 -0.08816,-0.0859 -0.08763,-0.08644 -0.0871,-0.08698 -0.08656,-0.08751 -0.08602,-0.08805 -0.08548,-0.08857 -0.08493,-0.0891 -0.08438,-0.08962 -0.08383,-0.09014 -0.08327,-0.09065 -0.08271,-0.09116 -0.08215,-0.09167 -0.08158,-0.09217 -0.08102,-0.09267 -0.08044,-0.09317 -0.07987,-0.09366 -0.07929,-0.09415 -0.07871,-0.09464 -0.07813,-0.09512 -0.07754,-0.0956 -0.07695,-0.09608 -0.07636,-0.09655 -0.07576,-0.09702 -0.07516,-0.09748 -0.07456,-0.09794 -0.07396,-0.0984 -0.07335,-0.09885 -0.07274,-0.0993 -0.07213,-0.09975 -0.07151,-0.100188 -0.07089,-0.100627 -0.07027,-0.10106 -0.06965,-0.101492 -0.06902,-0.101918 -0.0684,-0.102341 -0.06776,-0.10276 -0.06713,-0.103176 -0.06649,-0.103586 -0.06585,-0.103994 -0.06521,-0.104397 -0.06457,-0.104796 -0.06392,-0.105192 -0.06328,-0.105583 -0.06262,-0.105971 -0.06197,-0.106354 -0.06132,-0.106734 -0.06066,-0.107109 -0.06,-0.10748 -0.05933,-0.107847 -0.05867,-0.108211 -0.058,-0.108569 -0.05733,-0.108925 -0.05666,-0.109275 -0.05599,-0.109622 -0.05531,-0.109964 -0.05463,-0.110303 -0.05395,-0.110637 -0.05327,-0.110967 -0.05259,-0.111293 -0.0519,-0.111614 -0.05121,-0.111931 -0.05052,-0.112245 -0.04983,-0.112554 -0.04914,-0.112857 -0.04844,-0.113159 -0.04775,-0.113454 -0.04705,-0.113746 -0.04635,-0.114034 -0.04564,-0.114316 -0.04494,-0.114596 -0.04423,-0.114869 -0.04352,-0.11514 -0.04282,-0.115405 -0.0421,-0.115667 -0.04139,-0.115924 -0.04068,-0.116176 -0.03996,-0.116425 -0.03924,-0.116668 -0.03853,-0.116907 -0.03781,-0.117143 -0.03708,-0.117373 -0.03636,-0.117598 -0.03564,-0.117821 -0.03491,-0.118037 -0.03418,-0.118251 -0.03346,-0.118458 -0.03273,-0.118662 -0.03199,-0.118861 -0.03126,-0.119056 -0.03053,-0.119246 -0.02979,-0.119431 -0.02906,-0.119613 -0.02832,-0.119789 -0.02759,-0.119961 -0.02684,-0.120129 -0.02611,-0.120292 -0.02536,-0.12045 -0.02462,-0.120604 -0.02388,-0.120753 -0.02314,-0.120898 -0.01165,-0.06243"
             style="fill:none;stroke:#000000;stroke-width:0.25;stroke-linecap:round;stroke-linejoin:round;stroke-miterlimit:10;stroke-dasharray:none;stroke-opacity:1"
             id="path26" /><path
             d="m 7.5689185,25 h 1.05 m 0.3835,0 h 0.013 m 0.3835,0 h 1.5599995 m 0.3835,0 h 0.013 m 0.3835,0 h 1.56 m 0.3835,0 h 0.013 m 0.3835,0 h 1.56 m 0.3835,0 h 0.013 m 0.3835,0 h 1.56 m 0.3835,0 h 0.013 m 0.3835,0 h 1.56 m 0.3835,0 h 0.013 m 0.3835,0 h 1.56 m 0.3835,0 h 0.013 m 0.3835,0 h 1.56 m 0.3835,0 h 0.013 m 0.3835,0 h 1.56 m 0.3835,0 h 0.013 m 0.3835,0 h 1.56 m 0.3835,0 h 0.013 m 0.3835,0 h 1.56 m 0.3835,0 h 0.013 m 0.3835,0 h 1.56 m 0.3835,0 h 0.013 m 0.3835,0 h 1.56 m 0.3835,0 h 0.013 m 0.3835,0 h 1.56 m 0.3835,0 h 0.013 m 0.3835,0 h 1.56 m 0.3835,0 h 0.013 m 0.3835,0 h 1.56 m 0.3835,0 h 0.013 m 0.3835,0 h 1.56 m 0.3835,0 h 0.013 m 0.3835,0 h 1.56 m 0.3835,0 h 0.013 m 0.3835,0 h 1.56 m 0.3835,0 h 0.013 m 0.3835,0 h 1.05"
             style="fill:none;stroke:#000000;stroke-width:0.13;stroke-linecap:round;stroke-linejoin:round;stroke-miterlimit:10;stroke-dasharray:none;stroke-opacity:1"
             id="path28" /><path
             d="m 30.068918,2.5 v 1.05 m 0,0.3835 v 0.013 m 0,0.3835 v 1.56 m 0,0.3835 v 0.013 m 0,0.3835 v 1.56 m 0,0.3835 v 0.013 m 0,0.3835 v 1.56 m 0,0.3835 v 0.013 m 0,0.3835 v 1.56 m 0,0.3835 v 0.013 m 0,0.3835 v 1.56 m 0,0.3835 v 0.013 m 0,0.3835 v 1.56 m 0,0.3835 v 0.013 m 0,0.3835 v 1.56 m 0,0.3835 v 0.013 m 0,0.3835 v 1.56 m 0,0.3835 v 0.013 m 0,0.3835 v 1.56 m 0,0.3835 v 0.013 m 0,0.3835 v 1.56 m 0,0.3835 v 0.013 m 0,0.3835 v 1.56 m 0,0.3835 v 0.013 m 0,0.3835 v 1.56 m 0,0.3835 v 0.013 m 0,0.3835 v 1.56 m 0,0.3835 v 0.013 m 0,0.3835 v 1.56 m 0,0.3835 v 0.013 m 0,0.3835 v 1.56 m 0,0.3835 v 0.013 m 0,0.3835 v 1.56 m 0,0.3835 v 0.013 m 0,0.3835 v 1.56 m 0,0.3835 v 0.013 m 0,0.3835 v 1.56 m 0,0.3835 v 0.013 m 0,0.3835 v 1.05"
             style="fill:none;stroke:#000000;stroke-width:0.13;stroke-linecap:round;stroke-linejoin:round;stroke-miterlimit:10;stroke-dasharray:none;stroke-opacity:1"
             id="path30" /><path
             d="M 7.5689185,27 H 8.4356108"
             style="fill:none;stroke:#000000;stroke-width:0.25;stroke-linecap:round;stroke-linejoin:round;stroke-miterlimit:10;stroke-dasharray:none;stroke-opacity:1"
             id="path32" /><path
             d="m 51.702226,27 h 0.866692"
             style="fill:none;stroke:#000000;stroke-width:0.25;stroke-linecap:round;stroke-linejoin:round;stroke-miterlimit:10;stroke-dasharray:none;stroke-opacity:1"
             id="path34" /><path
             d="M 7.5689185,23 H 8.4356108"
             style="fill:none;stroke:#000000;stroke-width:0.25;stroke-linecap:round;stroke-linejoin:round;stroke-miterlimit:10;stroke-dasharray:none;stroke-opacity:1"
             id="path36" /><path
             d="m 51.702226,23 h 0.866692"
             style="fill:none;stroke:#000000;stroke-width:0.25;stroke-linecap:round;stroke-linejoin:round;stroke-miterlimit:10;stroke-dasharray:none;stroke-opacity:1"
             id="path38" /><path
             d="m 8.4356108,27 0.1230144,0.0038 0.1225485,0.01135 0.1216187,0.01886 0.1202283,0.02631 0.1183826,0.03365 0.1160886,0.04087 0.113355,0.04793 0.1101923,0.05481 0.1066122,0.06149 0.1026284,0.06793 0.098256,0.07411 0.093511,0.08001 0.088413,0.08562 0.08298,0.09089 0.077232,0.09582 0.07119,0.100392 0.06488,0.104581 0.05833,0.108373 0.05155,0.111756 0.04458,0.114715 0.03744,0.11724 0.03016,0.119321 0.01348,0.06654"
             style="fill:none;stroke:#000000;stroke-width:0.25;stroke-linecap:round;stroke-linejoin:round;stroke-miterlimit:10;stroke-dasharray:none;stroke-opacity:1"
             id="path40" /><path
             d="m 10.402275,21.363636 -0.02609,0.120276 -0.03344,0.118443 -0.04066,0.116162 -0.04773,0.113441 -0.05461,0.110291 -0.0613,0.106723 -0.06774,0.102751 -0.073935,0.09839 -0.079847,0.09366 -0.085456,0.08857 -0.090742,0.08314 -0.095684,0.0774 -0.1002637,0.07137 -0.1044637,0.06507 -0.1082683,0.05852 -0.1116628,0.05175 -0.1146346,0.04479 -0.1171721,0.03765 -0.1192661,0.03037 -0.1209084,0.02298 -0.1220929,0.0155 -0.1228149,0.008 L 8.4356108,23"
             style="fill:none;stroke:#000000;stroke-width:0.25;stroke-linecap:round;stroke-linejoin:round;stroke-miterlimit:10;stroke-dasharray:none;stroke-opacity:1"
             id="path42" /><path
             d="M 51.702226,23 51.579212,22.9962 51.456663,22.98485 51.335044,22.96599 51.214816,22.93968 51.096434,22.90603 50.980345,22.86516 50.86699,22.81723 50.756798,22.76242 50.650185,22.70093 50.547557,22.633 l -0.09826,-0.07411 -0.09351,-0.08001 -0.08841,-0.08562 -0.08298,-0.09089 -0.07723,-0.09582 -0.07119,-0.100392 -0.06488,-0.104581 -0.05833,-0.108373 -0.05155,-0.111756 -0.04458,-0.114715 -0.03744,-0.11724 -0.03016,-0.119321 -0.01347,-0.06654"
             style="fill:none;stroke:#000000;stroke-width:0.25;stroke-linecap:round;stroke-linejoin:round;stroke-miterlimit:10;stroke-dasharray:none;stroke-opacity:1"
             id="path44" /><path
             d="m 49.735562,28.636364 0.02609,-0.120276 0.03344,-0.118443 0.04066,-0.116162 0.04773,-0.113441 0.05462,-0.110291 0.0613,-0.106723 0.06774,-0.102751 0.07393,-0.09839 0.07985,-0.09366 0.08546,-0.08857 0.09074,-0.08314 0.09568,-0.0774 0.100264,-0.07137 0.104463,-0.06507 0.108268,-0.05852 0.111663,-0.05175 0.114635,-0.04479 0.117172,-0.03765 0.119266,-0.03037 0.120908,-0.02298 0.122093,-0.0155 0.122815,-0.008 L 51.702226,27"
             style="fill:none;stroke:#000000;stroke-width:0.25;stroke-linecap:round;stroke-linejoin:round;stroke-miterlimit:10;stroke-dasharray:none;stroke-opacity:1"
             id="path46" /></g><g
           id="g48"
           transform="matrix(0.77328574,-0.96913202,0.96660717,0.77530561,1527.3617,729.07926)"><g
             id="g50"><text
               transform="translate(0,143)"
               style="font-variant:normal;font-weight:normal;font-size:133px;font-family:'Noto Sans';-inkscape-font-specification:NotoSans-Regular;writing-mode:lr-tb;fill:#008000;fill-opacity:1;fill-rule:nonzero;stroke:none"
               id="text54"><tspan
                 x="0"
                 y="0"
                 id="tspan52">r</tspan></text></g></g><g
           id="g56"
           transform="matrix(47.216667,0,0,-47.34,0,2367)" /><g
           id="g58"
           transform="matrix(0.30931429,-0.38765281,0.38664287,0.31012225,1652.7669,742.37393)"><g
             id="g60"><text
               transform="translate(0,143)"
               style="font-variant:normal;font-weight:normal;font-size:133px;font-family:'Noto Sans';-inkscape-font-specification:NotoSans-Regular;writing-mode:lr-tb;fill:#008000;fill-opacity:1;fill-rule:nonzero;stroke:none"
               id="text64"><tspan
                 x="0"
                 y="0"
                 id="tspan62">2</tspan></text></g></g><g
           id="g66"
           transform="matrix(47.216667,0,0,-47.34,0,2367)"><path
             d="M 30.068918,25 42.562819,40.617376"
             style="fill:none;stroke:#008000;stroke-width:0.13;stroke-linecap:round;stroke-linejoin:round;stroke-miterlimit:10;stroke-dasharray:none;stroke-opacity:1"
             id="path68" /></g><g
           id="g70"><path
             d="m 2009.6744,444.17341 -58.3916,104.72664 -30.6968,-24.62163 z"
             style="fill:#008000;fill-opacity:1;fill-rule:evenodd;stroke:none"
             id="path72" /></g><g
           id="g74"
           transform="matrix(47.216667,0,0,-47.34,0,2367)"><path
             d="m 42.562819,40.617376 -1.236673,-2.212223 -0.650128,0.520102 z"
             style="fill:#008000;fill-opacity:1;fill-rule:evenodd;stroke:#008000;stroke-width:0.13;stroke-linecap:round;stroke-linejoin:round;stroke-miterlimit:10;stroke-dasharray:none;stroke-opacity:1"
             id="path76" /></g><g
           id="g78"
           transform="matrix(0.5295955,1.1217741,-1.1188516,0.53097884,276.2068,659.0341)"><g
             id="g80"><text
               transform="translate(0,143)"
               style="font-variant:normal;font-weight:normal;font-size:133px;font-family:'Noto Sans';-inkscape-font-specification:NotoSans-Regular;writing-mode:lr-tb;fill:#008000;fill-opacity:1;fill-rule:nonzero;stroke:none"
               id="text84"><tspan
                 x="0"
                 y="0"
                 id="tspan82">r</tspan></text></g></g><g
           id="g86"
           transform="matrix(47.216667,0,0,-47.34,0,2367)" /><g
           id="g88"
           transform="matrix(0.2118382,0.44870964,-0.44754063,0.21239153,209.29571,766.20202)"><g
             id="g90"><text
               transform="translate(0,143)"
               style="font-variant:normal;font-weight:normal;font-size:133px;font-family:'Noto Sans';-inkscape-font-specification:NotoSans-Regular;writing-mode:lr-tb;fill:#008000;fill-opacity:1;fill-rule:nonzero;stroke:none"
               id="text94"><tspan
                 x="0"
                 y="0"
                 id="tspan92">1</tspan></text></g></g><g
           id="g96"
           transform="matrix(47.216667,0,0,-47.34,0,2367)"><path
             d="M 8.4356108,29 4.6129263,37.076006"
             style="fill:none;stroke:#008000;stroke-width:0.13;stroke-linecap:round;stroke-linejoin:round;stroke-miterlimit:10;stroke-dasharray:none;stroke-opacity:1"
             id="path98" /></g><g
           id="g100"><path
             d="m 357.89991,908.56266 -68.26776,-98.54045 35.53172,-16.86246 z"
             style="fill:#008000;fill-opacity:1;fill-rule:evenodd;stroke:none"
             id="path102" /></g><g
           id="g104"
           transform="matrix(47.216667,0,0,-47.34,0,2367)"><path
             d="m 7.5799486,30.807717 -1.4458402,2.081548 0.752525,0.356199 z"
             style="fill:#008000;fill-opacity:1;fill-rule:evenodd;stroke:#008000;stroke-width:0.13;stroke-linecap:round;stroke-linejoin:round;stroke-miterlimit:10;stroke-dasharray:none;stroke-opacity:1"
             id="path106" /></g><g
           id="g108"
           transform="matrix(0.96605778,-0.77599365,0.77397198,0.96858119,903.79319,653.78529)"><g
             id="g110"><text
               transform="translate(0,143)"
               style="font-variant:normal;font-weight:normal;font-size:133px;font-family:'Noto Sans';-inkscape-font-specification:NotoSans-Regular;writing-mode:lr-tb;fill:#000000;fill-opacity:1;fill-rule:nonzero;stroke:none"
               id="text114"><tspan
                 x="0"
                 y="0"
                 id="tspan112">α</tspan></text></g></g><g
           id="g116"
           transform="matrix(47.216667,0,0,-47.34,0,2367)" /><g
           id="g118"
           transform="matrix(0.38642311,-0.31039746,0.30958879,0.38743248,1049.2054,673.42783)"><g
             id="g120"><text
               transform="translate(0,143)"
               style="font-variant:normal;font-weight:normal;font-size:133px;font-family:'Noto Sans';-inkscape-font-specification:NotoSans-Regular;writing-mode:lr-tb;fill:#000000;fill-opacity:1;fill-rule:nonzero;stroke:none"
               id="text124"><tspan
                 x="0"
                 y="0"
                 id="tspan122">2</tspan></text></g></g><g
           id="g126"
           transform="matrix(47.216667,0,0,-47.34,0,2367)"><path
             d="M 30.068918,44.375 V 38.228828"
             style="fill:none;stroke:#000000;stroke-width:0.13;stroke-linecap:round;stroke-linejoin:round;stroke-miterlimit:10;stroke-dasharray:none;stroke-opacity:1"
             id="path128" /><path
             d="m 11.016858,28.522727 6.043728,-1.117486"
             style="fill:none;stroke:#000000;stroke-width:0.13;stroke-linecap:round;stroke-linejoin:round;stroke-miterlimit:10;stroke-dasharray:none;stroke-opacity:1"
             id="path130" /><path
             d="m 30.068918,39.478828 -0.12309,-5.23e-4 -0.123082,-0.0016 -0.123064,-0.0026 -0.123037,-0.0037 -0.123002,-0.0047 -0.122957,-0.0058 -0.122904,-0.0068 -0.122841,-0.0078 -0.122771,-0.0089 -0.12269,-0.0099 -0.122602,-0.01097 -0.122504,-0.01201 -0.122397,-0.01306 -0.122282,-0.0141 -0.122157,-0.01514 -0.122025,-0.01617 -0.121883,-0.01721 -0.121731,-0.01825 -0.121573,-0.01928 -0.121404,-0.02031 -0.121227,-0.02134 -0.121041,-0.02237 -0.120847,-0.0234 -0.120643,-0.02443 -0.120432,-0.02545 -0.12021,-0.02648 -0.119981,-0.0275 -0.119743,-0.02852 -0.119496,-0.02953 -0.119241,-0.03055 -0.118977,-0.03156 -0.118704,-0.03257 -0.118423,-0.03358 -0.118134,-0.03458 -0.117834,-0.03559 -0.117529,-0.03659 -0.117213,-0.03759 -0.116889,-0.03858 -0.116556,-0.03957 -0.116217,-0.04056 -0.115867,-0.04155 -0.11551,-0.04253 -0.115144,-0.04351 -0.11477,-0.04449 -0.114387,-0.04547 -0.113997,-0.04643 -0.113598,-0.0474 -0.113191,-0.04837 -0.112776,-0.04933 -0.112352,-0.05028 -0.111921,-0.05124 -0.111481,-0.05219 -0.111033,-0.05313 -0.110578,-0.05408 -0.110114,-0.05501 -0.109642,-0.05595 -0.109162,-0.05688 -0.108675,-0.0578 -0.10818,-0.05873 -0.107677,-0.05964 -0.107166,-0.06056 -0.106647,-0.06146 -0.10612,-0.06237 -0.105587,-0.06327 -0.105044,-0.06416 -0.104496,-0.06506 -0.103939,-0.06594 -0.103374,-0.06682 -0.102802,-0.0677 -0.102224,-0.06857 -0.101636,-0.06944 -0.101043,-0.0703 -0.100441,-0.07116 -0.09983,-0.07201 -0.09922,-0.07285 -0.09859,-0.07369 -0.09796,-0.07453 -0.09733,-0.07536 -0.09668,-0.07618 -0.09603,-0.077 -0.09537,-0.07782 -0.09471,-0.07863 -0.09404,-0.07943 -0.09336,-0.08022 -0.09267,-0.08101 -0.09198,-0.0818 -0.09128,-0.08258 -0.09058,-0.08335 -0.08986,-0.08412 -0.08915,-0.08488 -0.08842,-0.08564 -0.08769,-0.08638 -0.08695,-0.08713 -0.08621,-0.08786 -0.08546,-0.08859 -0.0847,-0.08931 -0.08394,-0.09003 -0.08317,-0.09074 -0.0824,-0.09145 -0.08162,-0.09214 -0.08083,-0.09283 -0.08004,-0.09352 -0.07924,-0.09419 -0.07844,-0.09486 -0.07763,-0.09553 -0.07681,-0.09618 -0.07599,-0.09683 -0.07517,-0.09748 -0.07434,-0.09811 -0.0735,-0.09874 -0.07266,-0.09936 -0.07181,-0.09998 -0.07096,-0.100582 -0.0701,-0.101182 -0.06924,-0.101775 -0.06837,-0.102359 -0.0675,-0.102937 -0.06662,-0.103507 -0.06574,-0.104069 -0.06485,-0.104624 -0.06396,-0.105172 -0.06306,-0.105712 -0.06216,-0.106245 -0.06125,-0.106768 -0.06034,-0.107286 -0.05943,-0.107795 -0.05851,-0.108296 -0.05759,-0.10879 -0.05666,-0.109275 -0.05573,-0.109753 -0.05479,-0.110223 -0.05386,-0.110685 -0.05291,-0.111138 -0.05197,-0.111585 -0.05102,-0.112022 -0.05006,-0.112452 -0.0491,-0.112873 -0.04814,-0.113287 -0.04718,-0.113691 -0.04621,-0.114089 -0.04524,-0.114478 -0.04426,-0.114858 -0.04329,-0.11523 -0.0423,-0.115594 -0.04132,-0.11595 -0.04033,-0.116296 -0.03934,-0.116635 -0.03835,-0.116966 -0.03735,-0.117287 -0.03636,-0.117601 -0.03535,-0.117905 -0.03435,-0.118202 -0.03334,-0.118489 -0.03233,-0.118769 -0.03132,-0.119039 -0.03031,-0.119301 -0.0293,-0.119555 -0.02828,-0.119799 -0.02726,-0.120036 -0.02624,-0.120263 -0.02522,-0.120481 -0.02419,-0.120692 -0.02316,-0.120893 -0.0059,-0.0315"
             style="fill:none;stroke:#000000;stroke-width:0.13;stroke-linecap:round;stroke-linejoin:round;stroke-miterlimit:10;stroke-dasharray:none;stroke-opacity:1"
             id="path132" /></g><g
           id="g134"><path
             d="m 1419.7541,498.07227 -115.9072,29.83834 -3.3897,-39.26704 z"
             style="fill:#000000;fill-opacity:1;fill-rule:evenodd;stroke:none"
             id="path136" /></g><g
           id="g138"
           transform="matrix(47.216667,0,0,-47.34,0,2367)"><path
             d="m 30.068918,39.478828 -2.454794,-0.630298 -0.07179,0.829468 2.526583,-0.19917 z"
             style="fill:#000000;fill-opacity:1;fill-rule:evenodd;stroke:#000000;stroke-width:0.13;stroke-linecap:round;stroke-linejoin:round;stroke-miterlimit:10;stroke-dasharray:none;stroke-opacity:1"
             id="path140" /></g><g
           id="g142"><path
             d="m 747.50692,1058.8768 12.44295,-119.32918 37.89565,10.4813 z"
             style="fill:#000000;fill-opacity:1;fill-rule:evenodd;stroke:none"
             id="path144" /></g><g
           id="g146"
           transform="matrix(47.216667,0,0,-47.34,0,2367)"><path
             d="m 15.831421,27.632514 0.263528,2.520684 0.802591,-0.221405 z"
             style="fill:#000000;fill-opacity:1;fill-rule:evenodd;stroke:#000000;stroke-width:0.13;stroke-linecap:round;stroke-linejoin:round;stroke-miterlimit:10;stroke-dasharray:none;stroke-opacity:1"
             id="path148" /></g><g
           id="g150"
           transform="matrix(0.91357039,-0.83745984,0.83527803,0.91595671,550.00894,1259.899)"><g
             id="g152"><text
               transform="translate(0,143)"
               style="font-variant:normal;font-weight:normal;font-size:133px;font-family:'Noto Sans';-inkscape-font-specification:NotoSans-Regular;writing-mode:lr-tb;fill:#000000;fill-opacity:1;fill-rule:nonzero;stroke:none"
               id="text156"><tspan
                 x="0"
                 y="0"
                 id="tspan154">α</tspan></text></g></g><g
           id="g158"
           transform="matrix(47.216667,0,0,-47.34,0,2367)" /><g
           id="g160"
           transform="matrix(0.36542816,-0.33498393,0.33411121,0.36638268,696.38873,1269.9996)"><g
             id="g162"><text
               transform="translate(0,143)"
               style="font-variant:normal;font-weight:normal;font-size:133px;font-family:'Noto Sans';-inkscape-font-specification:NotoSans-Regular;writing-mode:lr-tb;fill:#000000;fill-opacity:1;fill-rule:nonzero;stroke:none"
               id="text166"><tspan
                 x="0"
                 y="0"
                 id="tspan164">1</tspan></text></g></g><g
           id="g168"
           transform="matrix(47.216667,0,0,-47.34,0,2367)"><path
             d="M 8.4356108,26.375 V 20.217792"
             style="fill:none;stroke:#000000;stroke-width:0.13;stroke-linecap:round;stroke-linejoin:round;stroke-miterlimit:10;stroke-dasharray:none;stroke-opacity:1"
             id="path170" /><path
             d="m 11.016858,28.522727 6.05458,-1.119492"
             style="fill:none;stroke:#000000;stroke-width:0.13;stroke-linecap:round;stroke-linejoin:round;stroke-miterlimit:10;stroke-dasharray:none;stroke-opacity:1"
             id="path172" /><path
             d="m 8.4356108,21.467792 0.1230866,0.001 0.1230537,0.003 0.122988,0.005 0.1228894,0.007 0.122758,0.009 0.1225939,0.01105 0.1223969,0.01305 0.1221673,0.01505 0.1219051,0.01704 0.1216102,0.01903 0.1212831,0.02102 0.1209233,0.023 0.1205317,0.02497 0.120107,0.02694 0.119651,0.02889 0.119163,0.03085 0.118643,0.03279 0.118091,0.03472 0.117508,0.03665 0.116893,0.03857 0.116248,0.04047 0.115571,0.04236 0.114863,0.04425 0.114124,0.04612 0.113356,0.04798 0.112557,0.04982 0.111727,0.05166 0.110869,0.05347 0.109979,0.05528 0.109062,0.05707 0.108114,0.05884 0.107139,0.0606 0.106134,0.06235 0.105101,0.06407 0.10404,0.06578 0.102951,0.06747 0.101834,0.06915 0.100692,0.0708 0.09952,0.07244 0.09832,0.07405 0.0971,0.07565 0.09585,0.07723 0.09458,0.07878 0.09328,0.08032 0.09195,0.08183 0.0906,0.08332 0.08923,0.08479 0.08783,0.08624 0.08641,0.08766 0.08497,0.08906 0.0835,0.09044 0.08201,0.09179 0.0805,0.09312 0.07897,0.09442 0.07741,0.0957 0.07584,0.09695 0.07424,0.09818 0.07263,0.09938 0.071,0.100553 0.06934,0.101699 0.06767,0.102819 0.06598,0.103911 0.06428,0.104976 0.06255,0.106011 0.06081,0.10702 0.05905,0.108 0.05728,0.108949 0.05549,0.109872 0.05369,0.110764 0.05187,0.111626 0.05004,0.112459 0.0482,0.113261 0.04634,0.114035 0.04447,0.114776 0.04259,0.115488 0.0407,0.116168 0.03879,0.116818 0.03688,0.117436 0.03495,0.118023 0.03302,0.118579 0.03108,0.119102 0.02913,0.119594 0.02717,0.120055 0.02521,0.120482 0.02171,0.112604"
             style="fill:none;stroke:#000000;stroke-width:0.13;stroke-linecap:round;stroke-linejoin:round;stroke-miterlimit:10;stroke-dasharray:none;stroke-opacity:1"
             id="path174" /></g><g
           id="g176"><path
             d="m 398.30142,1350.7147 113.17295,-38.9868 6.49394,38.8724 z"
             style="fill:#000000;fill-opacity:1;fill-rule:evenodd;stroke:none"
             id="path178" /></g><g
           id="g180"
           transform="matrix(47.216667,0,0,-47.34,0,2367)"><path
             d="m 8.4356108,21.467792 2.3968852,0.823549 0.137535,-0.821131 -2.5344202,-0.0024 z"
             style="fill:#000000;fill-opacity:1;fill-rule:evenodd;stroke:#000000;stroke-width:0.13;stroke-linecap:round;stroke-linejoin:round;stroke-miterlimit:10;stroke-dasharray:none;stroke-opacity:1"
             id="path182" /></g><g
           id="g184"><path
             d="m 748.01933,1058.9718 -21.86988,117.9588 -36.94411,-13.4701 z"
             style="fill:#000000;fill-opacity:1;fill-rule:evenodd;stroke:none"
             id="path186" /></g><g
           id="g188"
           transform="matrix(47.216667,0,0,-47.34,0,2367)"><path
             d="M 15.842273,27.630508 15.379092,25.13877 14.596654,25.423309 Z"
             style="fill:#000000;fill-opacity:1;fill-rule:evenodd;stroke:#000000;stroke-width:0.13;stroke-linecap:round;stroke-linejoin:round;stroke-miterlimit:10;stroke-dasharray:none;stroke-opacity:1"
             id="path190" /></g><g
           id="g192"
           transform="matrix(0,-1.2410945,1.2378612,0,2532.1116,711.1336)"><g
             id="g194"><text
               transform="translate(0,143)"
               style="font-variant:normal;font-weight:normal;font-size:133px;font-family:'Noto Sans';-inkscape-font-specification:NotoSans-Regular;writing-mode:lr-tb;fill:#008000;fill-opacity:1;fill-rule:nonzero;stroke:none"
               id="text198"><tspan
                 x="0"
                 y="0"
                 id="tspan196">d</tspan></text></g></g><g
           id="g200"
           transform="matrix(47.216667,0,0,-47.34,0,2367)"><path
             d="M 54.068918,45 V 27"
             style="fill:none;stroke:#008000;stroke-width:0.13;stroke-linecap:round;stroke-linejoin:round;stroke-miterlimit:10;stroke-dasharray:none;stroke-opacity:1"
             id="path202" /></g><g
           id="g204"><path
             d="m 2552.9541,236.7 19.6556,118.35 h -39.3112 z"
             style="fill:#008000;fill-opacity:1;fill-rule:evenodd;stroke:none"
             id="path206" /></g><g
           id="g208"
           transform="matrix(47.216667,0,0,-47.34,0,2367)"><path
             d="m 54.068918,45 0.416285,-2.5 h -0.832569 z"
             style="fill:#008000;fill-opacity:1;fill-rule:evenodd;stroke:#008000;stroke-width:0.13;stroke-linecap:round;stroke-linejoin:round;stroke-miterlimit:10;stroke-dasharray:none;stroke-opacity:1"
             id="path210" /></g><g
           id="g212"><path
             d="m 2552.9541,1088.82 -19.6556,-118.35 h 39.3112 z"
             style="fill:#008000;fill-opacity:1;fill-rule:evenodd;stroke:none"
             id="path214" /></g><g
           id="g216"
           transform="matrix(47.216667,0,0,-47.34,0,2367)"><path
             d="m 54.068918,27 -0.416284,2.5 h 0.832569 z"
             style="fill:#008000;fill-opacity:1;fill-rule:evenodd;stroke:#008000;stroke-width:0.13;stroke-linecap:round;stroke-linejoin:round;stroke-miterlimit:10;stroke-dasharray:none;stroke-opacity:1"
             id="path218" /><path
             d="m 30.693918,45 h 24.625"
             style="fill:none;stroke:#008000;stroke-width:0.13;stroke-linecap:round;stroke-linejoin:round;stroke-miterlimit:10;stroke-dasharray:none;stroke-opacity:1"
             id="path220" /><path
             d="m 52.327226,27 h 2.991692"
             style="fill:none;stroke:#008000;stroke-width:0.13;stroke-linecap:round;stroke-linejoin:round;stroke-miterlimit:10;stroke-dasharray:none;stroke-opacity:1"
             id="path222" /></g></g></g></g></svg>
