<?xml version="1.0" encoding="UTF-8" standalone="no"?>
<!-- Created with Inkscape (http://www.inkscape.org/) -->

<svg
   version="1.1"
   id="svg2"
   xml:space="preserve"
   width="226.66667"
   height="208"
   viewBox="0 0 226.66667 208"
   sodipodi:docname="square.svg"
   inkscape:version="1.1.2 (0a00cf5339, 2022-02-04)"
   xmlns:inkscape="http://www.inkscape.org/namespaces/inkscape"
   xmlns:sodipodi="http://sodipodi.sourceforge.net/DTD/sodipodi-0.dtd"
   xmlns="http://www.w3.org/2000/svg"
   xmlns:svg="http://www.w3.org/2000/svg"><defs
     id="defs6" /><sodipodi:namedview
     id="namedview4"
     pagecolor="#ffffff"
     bordercolor="#666666"
     borderopacity="1.0"
     inkscape:pageshadow="2"
     inkscape:pageopacity="0.0"
     inkscape:pagecheckerboard="0"
     showgrid="false"
     inkscape:zoom="3.0288462"
     inkscape:cx="43.911111"
     inkscape:cy="104"
     inkscape:window-width="1920"
     inkscape:window-height="1007"
     inkscape:window-x="0"
     inkscape:window-y="0"
     inkscape:window-maximized="1"
     inkscape:current-layer="g8" /><g
     id="g8"
     inkscape:groupmode="layer"
     inkscape:label="square"
     transform="matrix(1.3333333,0,0,-1.3333333,0,208)"><g
       id="g10"
       transform="matrix(0.06,0,0,-0.06,0,156)"><g
         id="g12"><g
           id="g14" /></g><g
         id="g16"><g
           id="g18" /><g
           id="g20"
           transform="matrix(47.216667,0,0,-47.272727,0,2600)"><path
             d="m 5.625,23.112537 h 1.05 m 0.3835,0 h 0.013 m 0.3835,0 h 1.56 m 0.3835,0 h 0.013 m 0.3835,0 h 1.56 m 0.3835,0 h 0.013 m 0.3835,0 h 1.56 m 0.3835,0 h 0.013 m 0.3835,0 h 1.56 m 0.3835,0 h 0.013 m 0.3835,0 h 1.56 m 0.3835,0 h 0.013 m 0.3835,0 h 1.56 m 0.3835,0 h 0.013 m 0.3835,0 h 1.56 m 0.3835,0 h 0.013 m 0.3835,0 h 1.56 m 0.3835,0 h 0.013 m 0.3835,0 h 1.56 m 0.3835,0 h 0.013 m 0.3835,0 h 1.56 m 0.3835,0 h 0.013 m 0.3835,0 h 1.56 m 0.3835,0 h 0.013 m 0.3835,0 h 1.56 m 0.3835,0 h 0.013 m 0.3835,0 h 1.56 m 0.3835,0 h 0.013 m 0.3835,0 h 1.56 m 0.3835,0 h 0.013 m 0.3835,0 h 1.56 m 0.3835,0 h 0.013 m 0.3835,0 h 1.56 m 0.3835,0 h 0.013 m 0.3835,0 h 1.56 m 0.3835,0 h 0.013 m 0.3835,0 h 1.56 m 0.3835,0 h 0.013 m 0.3835,0 h 1.05"
             style="fill:none;stroke:#000000;stroke-width:0.13;stroke-linecap:round;stroke-linejoin:round;stroke-miterlimit:10;stroke-dasharray:none;stroke-opacity:1"
             id="path22" /><path
             d="m 28.125,2.6125369 v 1.39 m 0,0.3835 v 0.013 m 0,0.3835 v 1.56 m 0,0.3835 v 0.013 m 0,0.3835 v 1.56 m 0,0.3835 v 0.013 m 0,0.3835 v 1.5600001 m 0,0.3835 v 0.013 m 0,0.3835 v 1.56 m 0,0.3835 v 0.013 m 0,0.3835 v 1.56 m 0,0.3835 v 0.013 m 0,0.3835 v 1.56 m 0,0.3835 v 0.013 m 0,0.3835 v 1.56 m 0,0.3835 v 0.013 m 0,0.3835 v 1.56 m 0,0.3835 v 0.013 m 0,0.3835 v 1.56 m 0,0.3835 v 0.013 m 0,0.3835 v 1.56 m 0,0.3835 v 0.013 m 0,0.3835 v 1.56 m 0,0.3835 v 0.013 m 0,0.3835 v 1.56 m 0,0.3835 v 0.013 m 0,0.3835 v 1.56 m 0,0.3835 v 0.013 m 0,0.3835 v 1.56 m 0,0.3835 v 0.013 m 0,0.3835 v 1.56 m 0,0.3835 v 0.013 m 0,0.3835 v 1.56 m 0,0.3835 v 0.013 m 0,0.3835 v 1.39"
             style="fill:none;stroke:#000000;stroke-width:0.13;stroke-linecap:round;stroke-linejoin:round;stroke-miterlimit:10;stroke-dasharray:none;stroke-opacity:1"
             id="path24" /><path
             d="M 5.625,25.112537 H 6.8338191"
             style="fill:none;stroke:#000000;stroke-width:0.25;stroke-linecap:round;stroke-linejoin:round;stroke-miterlimit:10;stroke-dasharray:none;stroke-opacity:1"
             id="path26" /><path
             d="M 5.625,21.112537 H 6.8338191"
             style="fill:none;stroke:#000000;stroke-width:0.25;stroke-linecap:round;stroke-linejoin:round;stroke-miterlimit:10;stroke-dasharray:none;stroke-opacity:1"
             id="path28" /><path
             d="M 49.416181,25.112537 H 50.625"
             style="fill:none;stroke:#000000;stroke-width:0.25;stroke-linecap:round;stroke-linejoin:round;stroke-miterlimit:10;stroke-dasharray:none;stroke-opacity:1"
             id="path30" /><path
             d="M 49.416181,21.112537 H 50.625"
             style="fill:none;stroke:#000000;stroke-width:0.25;stroke-linecap:round;stroke-linejoin:round;stroke-miterlimit:10;stroke-dasharray:none;stroke-opacity:1"
             id="path32" /><path
             d="M 30.903633,41.429242 46.637547,26.235178"
             style="fill:none;stroke:#000000;stroke-width:0.25;stroke-linecap:round;stroke-linejoin:round;stroke-miterlimit:10;stroke-dasharray:none;stroke-opacity:1"
             id="path34" /><path
             d="M 30.903633,4.795832 46.637547,19.989896"
             style="fill:none;stroke:#000000;stroke-width:0.25;stroke-linecap:round;stroke-linejoin:round;stroke-miterlimit:10;stroke-dasharray:none;stroke-opacity:1"
             id="path36" /><path
             d="M 9.6124526,26.235178 25.346366,41.429242"
             style="fill:none;stroke:#000000;stroke-width:0.25;stroke-linecap:round;stroke-linejoin:round;stroke-miterlimit:10;stroke-dasharray:none;stroke-opacity:1"
             id="path38" /><path
             d="M 9.6124526,19.989896 25.346366,4.795832"
             style="fill:none;stroke:#000000;stroke-width:0.25;stroke-linecap:round;stroke-linejoin:round;stroke-miterlimit:10;stroke-dasharray:none;stroke-opacity:1"
             id="path40" /><path
             d="m 6.8338191,25.112537 0.154135,0.003 0.1539059,0.0089 0.1534485,0.01483 0.1527629,0.02073 0.1518505,0.0266 0.1507125,0.03244 0.1493508,0.03822 0.147767,0.04395 0.1459638,0.04961 0.1439439,0.0552 0.14171,0.0607 0.1392658,0.06612 0.1366146,0.07143 0.1337605,0.07665 0.1307077,0.08174 0.1274607,0.08672 0.1240245,0.09157 0.120404,0.09628 0.1166047,0.100845 0.1042402,0.09714"
             style="fill:none;stroke:#000000;stroke-width:0.25;stroke-linecap:round;stroke-linejoin:round;stroke-miterlimit:10;stroke-dasharray:none;stroke-opacity:1"
             id="path42" /><path
             d="m 9.6124526,19.989896 -0.1129391,0.104934 -0.1168987,0.100504 -0.1206847,0.09593 -0.1242914,0.0912 -0.1277135,0.08635 -0.1309459,0.08136 -0.1339838,0.07625 -0.1368226,0.07103 -0.1394582,0.06571 -0.1418868,0.06029 -0.1441044,0.05478 -0.1461081,0.04918 -0.1478948,0.04351 -0.1494617,0.03778 -0.1508066,0.032 -0.1519276,0.02616 -0.1528228,0.02029 -0.1534911,0.01438 -0.1539313,0.0085 -0.1424604,0.0025"
             style="fill:none;stroke:#000000;stroke-width:0.25;stroke-linecap:round;stroke-linejoin:round;stroke-miterlimit:10;stroke-dasharray:none;stroke-opacity:1"
             id="path44" /><path
             d="m 30.903633,41.429242 -0.112939,0.104934 -0.116898,0.100504 -0.120685,0.09592 -0.124292,0.0912 -0.127713,0.08635 -0.130946,0.08136 -0.133984,0.07626 -0.136822,0.07104 -0.139458,0.06571 -0.141887,0.06029 -0.144105,0.05477 -0.146108,0.04918 -0.147895,0.04351 -0.149461,0.03778 -0.150807,0.032 -0.151928,0.02616 -0.152822,0.02029 -0.153491,0.01438 -0.153932,0.0085 -0.154143,0.0025 -0.154125,-0.0034 -0.15388,-0.0094 L 27.651908,42.5238 27.499206,42.50262 27.347434,42.47557 27.196817,42.44269 27.047578,42.40403 26.89994,42.35965 26.754122,42.30962 26.61034,42.254 26.468808,42.19288 26.329736,42.12636 26.19333,42.05453 26.059794,41.97749 25.929326,41.89537 25.802119,41.80828 25.678362,41.71635 25.55824,41.61972 l -0.116309,-0.101185 -0.09557,-0.08931"
             style="fill:none;stroke:#000000;stroke-width:0.25;stroke-linecap:round;stroke-linejoin:round;stroke-miterlimit:10;stroke-dasharray:none;stroke-opacity:1"
             id="path46" /><path
             d="m 25.346366,4.795832 0.11294,-0.1049341 0.116898,-0.1005042 0.120685,-0.095925 0.124291,-0.091203 0.127714,-0.086346 0.130946,-0.081361 0.133983,-0.076255 0.136823,-0.071035 0.139458,-0.06571 0.141887,-0.060287 0.144105,-0.054775 0.146108,-0.049182 0.147894,-0.043515 0.149462,-0.037784 0.150807,-0.031996 0.151927,-0.026161 0.152823,-0.020288 0.153491,-0.014384 0.153932,-0.00846 0.154143,-0.00252 0.154125,0.00342 0.153879,0.00936 0.153405,0.01528 0.152702,0.02118 0.151772,0.027048 0.150617,0.032877 0.149238,0.038656 0.147638,0.044378 0.145819,0.050034 0.143782,0.055616 0.141532,0.061115 0.139072,0.066523 0.136405,0.071833 0.133536,0.077036 0.130469,0.082124 0.127207,0.087091 0.123756,0.091928 0.120123,0.096628 0.116309,0.1011853 0.09556,0.089312"
             style="fill:none;stroke:#000000;stroke-width:0.25;stroke-linecap:round;stroke-linejoin:round;stroke-miterlimit:10;stroke-dasharray:none;stroke-opacity:1"
             id="path48" /><path
             d="m 46.637547,26.235178 0.112939,-0.104935 0.116899,-0.100504 0.120685,-0.09592 0.124291,-0.0912 0.127714,-0.08635 0.130946,-0.08136 0.133983,-0.07625 0.136823,-0.07104 0.139458,-0.06571 0.141887,-0.06029 0.144104,-0.05478 0.146109,-0.04918 0.147894,-0.04351 0.149462,-0.03778 0.150807,-0.032 0.151927,-0.02616 0.152823,-0.02029 0.153491,-0.01438 0.153932,-0.0085 0.14246,-0.0025"
             style="fill:none;stroke:#000000;stroke-width:0.25;stroke-linecap:round;stroke-linejoin:round;stroke-miterlimit:10;stroke-dasharray:none;stroke-opacity:1"
             id="path50" /><path
             d="m 49.416181,21.112537 -0.154135,-0.003 -0.153906,-0.0089 -0.153449,-0.01483 -0.152763,-0.02073 -0.15185,-0.0266 -0.150712,-0.03244 -0.149351,-0.03822 -0.147767,-0.04395 -0.145964,-0.04961 -0.143944,-0.0552 -0.14171,-0.0607 -0.139266,-0.06612 -0.136614,-0.07144 -0.133761,-0.07664 -0.130708,-0.08174 -0.12746,-0.08672 -0.124025,-0.09157 -0.120404,-0.09628 -0.116605,-0.100845 -0.10424,-0.09714"
             style="fill:none;stroke:#000000;stroke-width:0.25;stroke-linecap:round;stroke-linejoin:round;stroke-miterlimit:10;stroke-dasharray:none;stroke-opacity:1"
             id="path52" /><path
             d="m 28.943065,44.902534 -0.956722,-0.923896 m -0.280542,-0.270917 -1.12217,-1.083667 m -0.280543,-0.270917 -0.956722,-0.923895"
             style="fill:none;stroke:#000000;stroke-width:0.13;stroke-linecap:round;stroke-linejoin:round;stroke-miterlimit:10;stroke-dasharray:none;stroke-opacity:1"
             id="path54" /><path
             d="m 30.903633,41.429242 -0.956722,0.923895 m -0.280542,0.270917 -1.12217,1.083667 m -0.280543,0.270917 -0.956722,0.923896"
             style="fill:none;stroke:#000000;stroke-width:0.13;stroke-linecap:round;stroke-linejoin:round;stroke-miterlimit:10;stroke-dasharray:none;stroke-opacity:1"
             id="path56" /><path
             d="m 6.8338191,25.112537 h 0.805 m 0.39,0 h 0.805"
             style="fill:none;stroke:#000000;stroke-width:0.13;stroke-linecap:round;stroke-linejoin:round;stroke-miterlimit:10;stroke-dasharray:none;stroke-opacity:1"
             id="path58" /><path
             d="m 8.173773,24.845861 0.9747054,0.941262 m 0.2805426,0.270917 1.12217,1.083667 m 0.280543,0.270917 1.12217,1.083667 m 0.280542,0.270916 0.974706,0.941262"
             style="fill:none;stroke:#000000;stroke-width:0.13;stroke-linecap:round;stroke-linejoin:round;stroke-miterlimit:10;stroke-dasharray:none;stroke-opacity:1"
             id="path60" /><path
             d="m 43.040848,29.708469 0.974706,-0.941262 m 0.280542,-0.270916 1.12217,-1.083667 m 0.280543,-0.270917 1.12217,-1.083667 m 0.280542,-0.270917 0.974706,-0.941262"
             style="fill:none;stroke:#000000;stroke-width:0.13;stroke-linecap:round;stroke-linejoin:round;stroke-miterlimit:10;stroke-dasharray:none;stroke-opacity:1"
             id="path62" /><path
             d="m 47.416181,25.112537 h 0.805 m 0.39,0 h 0.805"
             style="fill:none;stroke:#000000;stroke-width:0.13;stroke-linecap:round;stroke-linejoin:round;stroke-miterlimit:10;stroke-dasharray:none;stroke-opacity:1"
             id="path64" /></g><g
           id="g66"
           transform="matrix(0.72009948,1.0080504,-1.006855,0.72095446,699.41391,1395.7256)"><g
             id="g68"><text
               transform="translate(0,143)"
               style="font-variant:normal;font-weight:normal;font-size:133px;font-family:'Noto Sans';-inkscape-font-specification:NotoSans-Regular;writing-mode:lr-tb;fill:#008000;fill-opacity:1;fill-rule:nonzero;stroke:none"
               id="text72"><tspan
                 x="0"
                 y="0"
                 id="tspan70">r</tspan></text></g></g><g
           id="g74"
           transform="matrix(47.216667,0,0,-47.272727,0,2600)" /><g
           id="g76"
           transform="matrix(0.28803979,0.40322018,-0.402742,0.28838178,652.57496,1512.9475)"><g
             id="g78"><text
               transform="translate(0,143)"
               style="font-variant:normal;font-weight:normal;font-size:133px;font-family:'Noto Sans';-inkscape-font-specification:NotoSans-Regular;writing-mode:lr-tb;fill:#008000;fill-opacity:1;fill-rule:nonzero;stroke:none"
               id="text82"><tspan
                 x="0"
                 y="0"
                 id="tspan80">1</tspan></text></g></g><g
           id="g84"
           transform="matrix(47.216667,0,0,-47.272727,0,2600)"><path
             d="m 6.8338191,29.112537 6.3616039,-8.8949"
             style="fill:none;stroke:#008000;stroke-width:0.13;stroke-linecap:round;stroke-linejoin:round;stroke-miterlimit:10;stroke-dasharray:none;stroke-opacity:1"
             id="path86" /></g><g
           id="g88"><path
             d="m 432.53934,1377.5743 84.65574,84.6793 -31.97501,22.8955 z"
             style="fill:#008000;fill-opacity:1;fill-rule:evenodd;stroke:none"
             id="path90" /></g><g
           id="g92"
           transform="matrix(47.216667,0,0,-47.272727,0,2600)"><path
             d="M 9.1607343,25.859006 10.953655,24.067713 10.276458,23.583384 Z"
             style="fill:#008000;fill-opacity:1;fill-rule:evenodd;stroke:#008000;stroke-width:0.13;stroke-linecap:round;stroke-linejoin:round;stroke-miterlimit:10;stroke-dasharray:none;stroke-opacity:1"
             id="path94" /></g><g
           id="g96"
           transform="matrix(0.64439285,1.0581646,-1.0569097,0.64515794,1256.8978,263.64191)"><g
             id="g98"><text
               transform="translate(0,143)"
               style="font-variant:normal;font-weight:normal;font-size:133px;font-family:'Noto Sans';-inkscape-font-specification:NotoSans-Regular;writing-mode:lr-tb;fill:#008000;fill-opacity:1;fill-rule:nonzero;stroke:none"
               id="text102"><tspan
                 x="0"
                 y="0"
                 id="tspan100">r</tspan></text></g></g><g
           id="g104"
           transform="matrix(47.216667,0,0,-47.272727,0,2600)" /><g
           id="g106"
           transform="matrix(0.25775714,0.42326583,-0.42276388,0.25806318,1201.6062,377.11285)"><g
             id="g108"><text
               transform="translate(0,143)"
               style="font-variant:normal;font-weight:normal;font-size:133px;font-family:'Noto Sans';-inkscape-font-specification:NotoSans-Regular;writing-mode:lr-tb;fill:#008000;fill-opacity:1;fill-rule:nonzero;stroke:none"
               id="text112"><tspan
                 x="0"
                 y="0"
                 id="tspan110">2</tspan></text></g></g><g
           id="g114"
           transform="matrix(47.216667,0,0,-47.272727,0,2600)"><path
             d="m 28.125,38.551882 -5.812544,9.533523"
             style="fill:none;stroke:#008000;stroke-width:0.13;stroke-linecap:round;stroke-linejoin:round;stroke-miterlimit:10;stroke-dasharray:none;stroke-opacity:1"
             id="path116" /></g><g
           id="g118"><path
             d="m 1229.6505,616.09791 -78.2312,-90.66167 33.5646,-20.48848 z"
             style="fill:#008000;fill-opacity:1;fill-rule:evenodd;stroke:none"
             id="path120" /></g><g
           id="g122"
           transform="matrix(47.216667,0,0,-47.272727,0,2600)"><path
             d="m 26.042722,41.967159 -1.656856,1.917843 0.710864,0.433411 z"
             style="fill:#008000;fill-opacity:1;fill-rule:evenodd;stroke:#008000;stroke-width:0.13;stroke-linecap:round;stroke-linejoin:round;stroke-miterlimit:10;stroke-dasharray:none;stroke-opacity:1"
             id="path124" /></g><g
           id="g126"
           transform="matrix(0,-1.2393309,1.2378612,0,2301.8609,1030.2475)"><g
             id="g128"><text
               transform="translate(0,143)"
               style="font-variant:normal;font-weight:normal;font-size:133px;font-family:'Noto Sans';-inkscape-font-specification:NotoSans-Regular;writing-mode:lr-tb;fill:#800000;fill-opacity:1;fill-rule:nonzero;stroke:none"
               id="text132"><tspan
                 x="0"
                 y="0"
                 id="tspan130">d</tspan></text></g></g><g
           id="g134"
           transform="matrix(47.216667,0,0,-47.272727,0,2600)" /><g
           id="g136"
           transform="matrix(0,-0.49573235,0.49514446,0,2408.0693,928.8935)"><g
             id="g138"><text
               transform="translate(0,143)"
               style="font-variant:normal;font-weight:normal;font-size:133px;font-family:'Noto Sans';-inkscape-font-specification:NotoSans-Regular;writing-mode:lr-tb;fill:#800000;fill-opacity:1;fill-rule:nonzero;stroke:none"
               id="text142"><tspan
                 x="0"
                 y="0"
                 id="tspan140">t</tspan></text></g></g><g
           id="g144"
           transform="matrix(47.216667,0,0,-47.272727,0,2600)"><path
             d="m 53.125,44.112537 v -19"
             style="fill:none;stroke:#800000;stroke-width:0.13;stroke-linecap:round;stroke-linejoin:round;stroke-miterlimit:10;stroke-dasharray:none;stroke-opacity:1"
             id="path146" /></g><g
           id="g148"><path
             d="m 2508.3854,514.68008 19.6556,118.18181 h -39.3112 z"
             style="fill:#800000;fill-opacity:1;fill-rule:evenodd;stroke:none"
             id="path150" /></g><g
           id="g152"
           transform="matrix(47.216667,0,0,-47.272727,0,2600)"><path
             d="m 53.125,44.112537 0.416285,-2.5 h -0.83257 z"
             style="fill:#800000;fill-opacity:1;fill-rule:evenodd;stroke:#800000;stroke-width:0.13;stroke-linecap:round;stroke-linejoin:round;stroke-miterlimit:10;stroke-dasharray:none;stroke-opacity:1"
             id="path154" /></g><g
           id="g156"><path
             d="m 2508.3854,1412.8619 -19.6556,-118.1818 h 39.3112 z"
             style="fill:#800000;fill-opacity:1;fill-rule:evenodd;stroke:none"
             id="path158" /></g><g
           id="g160"
           transform="matrix(47.216667,0,0,-47.272727,0,2600)"><path
             d="m 53.125,25.112537 -0.416285,2.5 h 0.83257 z"
             style="fill:#800000;fill-opacity:1;fill-rule:evenodd;stroke:#800000;stroke-width:0.13;stroke-linecap:round;stroke-linejoin:round;stroke-miterlimit:10;stroke-dasharray:none;stroke-opacity:1"
             id="path162" /><path
             d="M 28.75,44.112537 H 54.375"
             style="fill:none;stroke:#800000;stroke-width:0.13;stroke-linecap:round;stroke-linejoin:round;stroke-miterlimit:10;stroke-dasharray:none;stroke-opacity:1"
             id="path164" /><path
             d="m 51.25,25.112537 h 3.125"
             style="fill:none;stroke:#800000;stroke-width:0.13;stroke-linecap:round;stroke-linejoin:round;stroke-miterlimit:10;stroke-dasharray:none;stroke-opacity:1"
             id="path166" /></g><g
           id="g168"
           transform="matrix(1.2378612,0,0,1.2393309,1235.0054,71.546669)"><g
             id="g170"><text
               transform="translate(0,143)"
               style="font-variant:normal;font-weight:normal;font-size:133px;font-family:'Noto Sans';-inkscape-font-specification:NotoSans-Regular;writing-mode:lr-tb;fill:#800000;fill-opacity:1;fill-rule:nonzero;stroke:none"
               id="text174"><tspan
                 x="0"
                 y="0"
                 id="tspan172">b</tspan></text></g></g><g
           id="g176"
           transform="matrix(47.216667,0,0,-47.272727,0,2600)" /><g
           id="g178"
           transform="matrix(0.49514446,0,0,0.49573235,1336.2392,177.88126)"><g
             id="g180"><text
               transform="translate(0,143)"
               style="font-variant:normal;font-weight:normal;font-size:133px;font-family:'Noto Sans';-inkscape-font-specification:NotoSans-Regular;writing-mode:lr-tb;fill:#800000;fill-opacity:1;fill-rule:nonzero;stroke:none"
               id="text184"><tspan
                 x="0 71.015625"
                 y="0"
                 sodipodi:role="line"
                 id="tspan182">kn</tspan></text></g></g><g
           id="g186"
           transform="matrix(47.216667,0,0,-47.272727,0,2600)"><path
             d="M 8.449924,49.112537 H 47.800076"
             style="fill:none;stroke:#800000;stroke-width:0.13;stroke-linecap:round;stroke-linejoin:round;stroke-miterlimit:10;stroke-dasharray:none;stroke-opacity:1"
             id="path188" /></g><g
           id="g190"><path
             d="m 398.97725,278.31644 118.04166,-19.67891 v 39.35782 z"
             style="fill:#800000;fill-opacity:1;fill-rule:evenodd;stroke:none"
             id="path192" /></g><g
           id="g194"
           transform="matrix(47.216667,0,0,-47.272727,0,2600)"><path
             d="m 8.449924,49.112537 2.5,0.416284 v -0.832569 z"
             style="fill:#800000;fill-opacity:1;fill-rule:evenodd;stroke:#800000;stroke-width:0.13;stroke-linecap:round;stroke-linejoin:round;stroke-miterlimit:10;stroke-dasharray:none;stroke-opacity:1"
             id="path196" /></g><g
           id="g198"><path
             d="m 2256.9603,278.31644 -118.0417,19.67891 v -39.35782 z"
             style="fill:#800000;fill-opacity:1;fill-rule:evenodd;stroke:none"
             id="path200" /></g><g
           id="g202"
           transform="matrix(47.216667,0,0,-47.272727,0,2600)"><path
             d="m 47.800076,49.112537 -2.5,-0.416285 v 0.832569 z"
             style="fill:#800000;fill-opacity:1;fill-rule:evenodd;stroke:#800000;stroke-width:0.13;stroke-linecap:round;stroke-linejoin:round;stroke-miterlimit:10;stroke-dasharray:none;stroke-opacity:1"
             id="path204" /><path
             d="m 8.449924,25.737537 v 24.625"
             style="fill:none;stroke:#800000;stroke-width:0.13;stroke-linecap:round;stroke-linejoin:round;stroke-miterlimit:10;stroke-dasharray:none;stroke-opacity:1"
             id="path206" /><path
             d="m 47.800076,25.737537 v 24.625"
             style="fill:none;stroke:#800000;stroke-width:0.13;stroke-linecap:round;stroke-linejoin:round;stroke-miterlimit:10;stroke-dasharray:none;stroke-opacity:1"
             id="path208" /></g><g
           id="g210"
           transform="matrix(1.2378612,0,0,1.2393309,1278.1255,967.36474)"><g
             id="g212"><text
               transform="translate(0,143)"
               style="font-variant:normal;font-weight:normal;font-size:133px;font-family:'Noto Sans';-inkscape-font-specification:NotoSans-Regular;writing-mode:lr-tb;fill:#800000;fill-opacity:1;fill-rule:nonzero;stroke:none"
               id="text216"><tspan
                 x="0"
                 y="0"
                 id="tspan214">δ</tspan></text></g></g><g
           id="g218"
           transform="matrix(47.216667,0,0,-47.272727,0,2600)"><path
             d="m 10.06204,26.669339 8.968747,8.661018"
             style="fill:none;stroke:#800000;stroke-width:0.13;stroke-linecap:round;stroke-linejoin:round;stroke-miterlimit:10;stroke-dasharray:none;stroke-opacity:1"
             id="path220" /><path
             d="m 46.18796,26.669339 -8.968747,8.661018"
             style="fill:none;stroke:#800000;stroke-width:0.13;stroke-linecap:round;stroke-linejoin:round;stroke-miterlimit:10;stroke-dasharray:none;stroke-opacity:1"
             id="path222" /><path
             d="m 18.131612,34.462034 0.107711,-0.110306 0.108928,-0.109104 0.110132,-0.107889 0.111323,-0.10666 0.1125,-0.105418 0.113663,-0.104163 0.114811,-0.102895 0.115946,-0.101615 0.117067,-0.100321 0.118173,-0.09902 0.119265,-0.0977 0.120341,-0.09637 0.121404,-0.09503 0.12245,-0.09367 0.123482,-0.09231 0.1245,-0.09093 0.125501,-0.08955 0.126486,-0.08815 0.127457,-0.08674 0.128412,-0.08532 0.129351,-0.08389 0.130274,-0.08245 0.131181,-0.081 0.132071,-0.07954 0.132947,-0.07807 0.133804,-0.07659 0.134646,-0.0751 0.135471,-0.0736 0.136279,-0.07209 0.137071,-0.07057 0.137846,-0.06905 0.138604,-0.06751 0.139344,-0.06597 0.140068,-0.06442 0.140774,-0.06286 0.141463,-0.0613 0.142134,-0.05972 0.142789,-0.05814 0.143425,-0.05655 0.144044,-0.05496 0.144644,-0.05336 0.145228,-0.05175 0.145794,-0.05013 0.146341,-0.04851 0.14687,-0.04689 0.147381,-0.04525 0.147874,-0.04361 0.14835,-0.04197 0.148806,-0.04032 0.149244,-0.03867 0.149664,-0.03701 0.150066,-0.03535 0.150449,-0.03368 0.150813,-0.03201 0.151159,-0.03033 0.151487,-0.02865 0.151795,-0.02697 0.152085,-0.02528 0.152356,-0.02359 0.152609,-0.0219 0.152842,-0.02021 0.153057,-0.01851 0.153253,-0.01681 0.153431,-0.01511 0.153588,-0.0134 0.153728,-0.0117 0.153848,-0.01 0.15395,-0.0083 0.154032,-0.0066 0.154095,-0.0049 0.15414,-0.0032 0.154166,-0.0014 0.154172,2.66e-4 0.15416,0.002 0.154128,0.0037 0.154078,0.0054 0.154008,0.0071 0.15392,0.0088 0.153813,0.01052 0.153686,0.01223 0.153541,0.01394 0.153378,0.01564 0.153194,0.01734 0.152992,0.01904 0.152772,0.02074 0.152532,0.02243 0.152274,0.02412 0.151997,0.02581 0.151701,0.02749 0.151387,0.02917 0.151053,0.03085 0.150702,0.03253 0.150331,0.0342 0.149943,0.03587 0.149536,0.03753 0.14911,0.03918 0.148666,0.04084 0.148203,0.04248 0.147723,0.04412 0.147225,0.04576 0.146707,0.04739 0.146172,0.04902 0.14562,0.05064 0.145048,0.05225 0.14446,0.05386 0.143853,0.05546 0.143229,0.05705 0.142587,0.05863 0.141928,0.06021 0.14125,0.06178 0.140556,0.06335 0.139845,0.0649 0.139115,0.06645 0.13837,0.06799 0.137607,0.06952 0.136826,0.07105 0.13603,0.07256 0.135216,0.07407 0.134386,0.07556 0.133539,0.07705 0.132676,0.07852 0.131796,0.07999 0.130901,0.08145 0.129988,0.0829 0.12906,0.08433 0.128117,0.08576 0.127157,0.08718 0.126182,0.08859 0.125191,0.08998 0.124184,0.09136 0.123163,0.09274 0.122127,0.0941 0.121074,0.09545 0.120008,0.09678 0.118927,0.09811 0.11783,0.09942 0.11672,0.100726 0.115595,0.102014 0.114455,0.103291 0.113302,0.104555 0.112135,0.105805 0.110954,0.107044 0.10976,0.108268 0.108551,0.10948 0.07407,0.07612"
             style="fill:none;stroke:#800000;stroke-width:0.13;stroke-linecap:round;stroke-linejoin:round;stroke-miterlimit:10;stroke-dasharray:none;stroke-opacity:1"
             id="path224" /></g><g
           id="g226"><path
             d="m 856.11428,970.88565 102.15172,62.40545 -25.70992,29.7736 z"
             style="fill:#800000;fill-opacity:1;fill-rule:evenodd;stroke:none"
             id="path228" /></g><g
           id="g230"
           transform="matrix(47.216667,0,0,-47.272727,0,2600)"><path
             d="M 18.131612,34.462034 20.295079,33.14192 19.75057,32.512094 Z"
             style="fill:#800000;fill-opacity:1;fill-rule:evenodd;stroke:#800000;stroke-width:0.13;stroke-linecap:round;stroke-linejoin:round;stroke-miterlimit:10;stroke-dasharray:none;stroke-opacity:1"
             id="path232" /></g><g
           id="g234"><path
             d="m 1799.8232,970.88565 -76.4418,92.17905 -25.7099,-29.7736 z"
             style="fill:#800000;fill-opacity:1;fill-rule:evenodd;stroke:none"
             id="path236" /></g><g
           id="g238"
           transform="matrix(47.216667,0,0,-47.272727,0,2600)"><path
             d="M 38.118388,34.462034 36.49943,32.512094 35.95492,33.14192 Z"
             style="fill:#800000;fill-opacity:1;fill-rule:evenodd;stroke:#800000;stroke-width:0.13;stroke-linecap:round;stroke-linejoin:round;stroke-miterlimit:10;stroke-dasharray:none;stroke-opacity:1"
             id="path240" /></g></g></g></g></svg>
