<?xml version="1.0" encoding="UTF-8" standalone="no"?>
<!-- Created with Inkscape (http://www.inkscape.org/) -->

<svg
   version="1.1"
   id="svg2"
   xml:space="preserve"
   width="226.66667"
   height="113.33333"
   viewBox="0 0 226.66667 113.33333"
   sodipodi:docname="circular_oval.svg"
   inkscape:version="1.1.2 (0a00cf5339, 2022-02-04)"
   xmlns:inkscape="http://www.inkscape.org/namespaces/inkscape"
   xmlns:sodipodi="http://sodipodi.sourceforge.net/DTD/sodipodi-0.dtd"
   xmlns="http://www.w3.org/2000/svg"
   xmlns:svg="http://www.w3.org/2000/svg"><defs
     id="defs6" /><sodipodi:namedview
     id="namedview4"
     pagecolor="#ffffff"
     bordercolor="#666666"
     borderopacity="1.0"
     inkscape:pageshadow="2"
     inkscape:pageopacity="0.0"
     inkscape:pagecheckerboard="0"
     showgrid="false"
     inkscape:zoom="5.5588238"
     inkscape:cx="75.555552"
     inkscape:cy="56.666664"
     inkscape:window-width="1920"
     inkscape:window-height="1007"
     inkscape:window-x="0"
     inkscape:window-y="0"
     inkscape:window-maximized="1"
     inkscape:current-layer="g8" /><g
     id="g8"
     inkscape:groupmode="layer"
     inkscape:label="circular_oval"
     transform="matrix(1.3333333,0,0,-1.3333333,0,113.33333)"><g
       id="g10"
       transform="matrix(0.06,0,0,-0.06,0,85)"><g
         id="g12"><g
           id="g14" /></g><g
         id="g16"><g
           id="g18" /><g
           id="g20"
           transform="matrix(47.216667,0,0,-47.233333,0,1417)"><path
             d="m 5.2943338,15 h 1.05 m 0.3835,0 h 0.013 m 0.3835,0 h 1.56 m 0.3835,0 h 0.013 m 0.3835,0 h 1.5600002 m 0.3835,0 h 0.013 m 0.3835,0 h 1.56 m 0.3835,0 h 0.013 m 0.3835,0 h 1.56 m 0.3835,0 h 0.013 m 0.3835,0 h 1.56 m 0.3835,0 h 0.013 m 0.3835,0 h 1.56 m 0.3835,0 h 0.013 m 0.3835,0 h 1.56 m 0.3835,0 h 0.013 m 0.3835,0 h 1.56 m 0.3835,0 h 0.013 m 0.3835,0 h 1.56 m 0.3835,0 h 0.013 m 0.3835,0 h 1.56 m 0.3835,0 h 0.013 m 0.3835,0 h 1.56 m 0.3835,0 h 0.013 m 0.3835,0 h 1.56 m 0.3835,0 h 0.013 m 0.3835,0 h 1.56 m 0.3835,0 h 0.013 m 0.3835,0 h 1.56 m 0.3835,0 h 0.013 m 0.3835,0 h 1.56 m 0.3835,0 h 0.013 m 0.3835,0 h 1.56 m 0.3835,0 h 0.013 m 0.3835,0 h 1.56 m 0.3835,0 h 0.013 m 0.3835,0 h 1.56 m 0.3835,0 h 0.013 m 0.3835,0 h 1.05"
             style="fill:none;stroke:#000000;stroke-width:0.13;stroke-linecap:round;stroke-linejoin:round;stroke-miterlimit:10;stroke-dasharray:none;stroke-opacity:1"
             id="path22" /><path
             d="m 27.794334,3.5 v 0.58 m 0,0.3835 v 0.013 m 0,0.3835 v 1.56 m 0,0.3835 v 0.013 m 0,0.3835 v 1.56 m 0,0.3835 v 0.013 m 0,0.3835 v 1.56 m 0,0.3835 v 0.013 m 0,0.3835 v 1.56 m 0,0.3835 v 0.013 m 0,0.3835 v 1.56 m 0,0.3835 v 0.013 m 0,0.3835 v 1.56 m 0,0.3835 v 0.013 m 0,0.3835 v 1.56 m 0,0.3835 v 0.013 m 0,0.3835 v 1.56 m 0,0.3835 v 0.013 m 0,0.3835 v 1.56 m 0,0.3835 v 0.013 m 0,0.3835 v 0.58"
             style="fill:none;stroke:#000000;stroke-width:0.13;stroke-linecap:round;stroke-linejoin:round;stroke-miterlimit:10;stroke-dasharray:none;stroke-opacity:1"
             id="path24" /><path
             d="m 44.571489,18.034483 -0.06855,0.06182 -0.06878,0.06157 -0.069,0.06131 -0.06923,0.06106 -0.06945,0.0608 -0.06968,0.06054 -0.0699,0.06029 -0.07012,0.06003 -0.07035,0.05977 -0.07056,0.05951 -0.07079,0.05925 -0.071,0.05898 -0.07122,0.05872 -0.07144,0.05846 -0.07165,0.0582 -0.07187,0.05793 -0.07208,0.05767 -0.07229,0.0574 -0.0725,0.05713 -0.07271,0.05686 -0.07292,0.05659 -0.07313,0.05632 -0.07334,0.05605 -0.07355,0.05578 -0.07375,0.05551 -0.07396,0.05524 -0.07416,0.05496 -0.07436,0.05469 -0.07456,0.05441 -0.07476,0.05414 -0.07496,0.05386 -0.07516,0.05359 -0.07536,0.05331 -0.07556,0.05303 -0.07575,0.05275 -0.07594,0.05247 -0.07614,0.05219 -0.07633,0.05191 -0.07652,0.05163 -0.07671,0.05134 -0.0769,0.05106 -0.07709,0.05078 -0.07728,0.05049 -0.07746,0.0502 -0.07765,0.04992 -0.07783,0.04963 -0.07801,0.04934 -0.07819,0.04905 -0.07838,0.04877 -0.07855,0.04848 -0.07873,0.04819 -0.07891,0.04789 -0.07909,0.0476 -0.07926,0.04731 -0.07944,0.04702 -0.07961,0.04672 -0.07978,0.04643 -0.07995,0.04613 -0.08012,0.04584 -0.08029,0.04554 -0.08046,0.04525 -0.08062,0.04495 -0.08079,0.04465 -0.08095,0.04435 -0.08112,0.04405 -0.08128,0.04375 -0.08144,0.04345 -0.0816,0.04315 -0.08176,0.04285 -0.08192,0.04255 -0.08207,0.04225 -0.08223,0.04194 -0.08238,0.04164 -0.08254,0.04133 -0.08269,0.04103 -0.08284,0.04072 -0.08299,0.04042 -0.08314,0.04011 -0.08329,0.0398 -0.08343,0.03949 -0.08358,0.03919 -0.08372,0.03888 -0.08386,0.03857 -0.08401,0.03826 -0.08415,0.03795 -0.08429,0.03764 -0.08442,0.03733 -0.08456,0.03701 -0.0847,0.0367 -0.08483,0.03639 -0.08497,0.03607 -0.0851,0.03576 -0.08523,0.03545 -0.08536,0.03513 -0.08549,0.03482 -0.08562,0.0345 -0.08575,0.03419 -0.08587,0.03387 -0.08599,0.03355 -0.08612,0.03323 -0.08624,0.03291 -0.08636,0.0326 -0.08648,0.03228 -0.0866,0.03196 -0.08672,0.03164 -0.08683,0.03132 -0.08695,0.031 -0.08706,0.03067 -0.08717,0.03035 -0.08729,0.03003 -0.0874,0.02971 -0.08751,0.02938 -0.08761,0.02906 -0.08772,0.02874 -0.08783,0.02841 -0.08793,0.02809 -0.08803,0.02776 -0.08814,0.02744 -0.08824,0.02711 -0.08834,0.02679 -0.08843,0.02646 -0.08853,0.02614 -0.08863,0.02581 -0.08872,0.02548 -0.08882,0.02515 -0.08891,0.02482 -0.089,0.0245 -0.08909,0.02417 -0.08918,0.02384 -0.08926,0.02351 -0.08935,0.02318 -0.08944,0.02285 -0.08952,0.02252 -0.0896,0.02219 -0.08968,0.02186 -0.08976,0.02153 -0.08984,0.02119 -0.08992,0.02086 -0.09,0.02053 -0.09007,0.0202 -0.09014,0.01987 -0.09022,0.01953 -0.09029,0.0192 -0.09036,0.01886 -0.09043,0.01853 -0.0905,0.0182 -0.09056,0.01786 -0.09063,0.01753 -0.09069,0.01719 -0.09075,0.01686 -0.09082,0.01652 -0.09088,0.01619 -0.09094,0.01585 -0.09099,0.01552 -0.09105,0.01518 -0.09111,0.01484 -0.09116,0.01451 -0.09121,0.01417 -0.09126,0.01384 -0.09131,0.0135 -0.09136,0.01316 -0.09141,0.01282 -0.09146,0.01249 -0.09151,0.01215 -0.09155,0.01181 -0.09159,0.01147 -0.09163,0.01113 -0.09167,0.01079 -0.09171,0.01046 -0.09175,0.01012 -0.09179,0.0098 -0.09182,0.0094 -0.09186,0.0091 -0.09189,0.0088 -0.09192,0.0084 -0.09195,0.0081 -0.09198,0.0077 -0.09201,0.0074 -0.09204,0.0071 -0.09206,0.0067 -0.09209,0.0064 -0.09211,0.006 -0.09213,0.0057 -0.09215,0.0054 -0.09217,0.005 -0.09219,0.0047 -0.09221,0.0043 -0.09222,0.004 -0.09223,0.0037 -0.09225,0.0033 -0.09226,0.003 -0.09227,0.0026 -0.09228,0.0023 -0.09229,0.002 -0.09229,0.0016 -0.0923,0.0013 -0.0923,9.35e-4 -0.09231,5.95e-4 -0.09231,2.54e-4 -0.09231,-8.7e-5 -0.09231,-4.28e-4 -0.0923,-7.69e-4 -0.0923,-0.0011 -0.0923,-0.0014 -0.09229,-0.0018 -0.09228,-0.0021 -0.09228,-0.0025 -0.09226,-0.0028 -0.09225,-0.0032 -0.09224,-0.0035 -0.09223,-0.0038 -0.09221,-0.0042 -0.0922,-0.0045 -0.09218,-0.0049 -0.09216,-0.0052 -0.09214,-0.0055 -0.09212,-0.0059 -0.0921,-0.0062 -0.09207,-0.0066 -0.09205,-0.0069 -0.09202,-0.0072 -0.092,-0.0076 -0.09197,-0.0079 -0.09194,-0.0083 -0.09191,-0.0086 -0.09187,-0.0089 -0.09184,-0.0093 -0.09181,-0.0096 -0.09177,-0.01 -0.09173,-0.01029 -0.09169,-0.01063 -0.09165,-0.01097 -0.09161,-0.01131 -0.09157,-0.01165 -0.09153,-0.01198 -0.09148,-0.01232 -0.09144,-0.01266 -0.09139,-0.013 -0.09134,-0.01333 -0.09129,-0.01367 -0.09124,-0.01401 -0.09119,-0.01434 -0.09113,-0.01468 -0.09108,-0.01502 -0.09102,-0.01535 -0.09096,-0.01569 -0.09091,-0.01602 -0.09085,-0.01636 -0.09078,-0.0167 -0.09072,-0.01703 -0.09066,-0.01737 -0.09059,-0.0177 -0.09053,-0.01803 -0.09046,-0.01837 -0.09039,-0.0187 -0.09032,-0.01904 -0.09025,-0.01937 -0.09018,-0.0197 -0.09011,-0.02004 -0.09003,-0.02037 -0.08996,-0.0207 -0.08988,-0.02103 -0.0898,-0.02136 -0.08972,-0.02169 -0.08964,-0.02203 -0.08956,-0.02236 -0.08948,-0.02269 -0.08939,-0.02302 -0.08931,-0.02335 -0.08922,-0.02368 -0.08913,-0.02401 -0.08904,-0.02434 -0.08895,-0.02466 -0.08886,-0.02499 -0.08877,-0.02532 -0.08867,-0.02565 -0.08858,-0.02597 -0.08848,-0.0263 -0.08838,-0.02663 -0.08828,-0.02695 -0.08818,-0.02728 -0.08808,-0.02761 -0.08798,-0.02793 -0.08788,-0.02825 -0.08777,-0.02858 -0.08767,-0.0289 -0.08756,-0.02923 -0.08745,-0.02955 -0.08734,-0.02987 -0.08723,-0.0302 -0.08712,-0.03052 -0.087,-0.03084 -0.08689,-0.03116 -0.08677,-0.03148 -0.08666,-0.0318 -0.08654,-0.03212 -0.08642,-0.03244 -0.0863,-0.03276 -0.08618,-0.03308 -0.08606,-0.03339 -0.08593,-0.03371 -0.08581,-0.03403 -0.08568,-0.03435 -0.08555,-0.03466 -0.08542,-0.03498 -0.08529,-0.03529 -0.08516,-0.03561 -0.08503,-0.03592 -0.0849,-0.03624 -0.08476,-0.03655 -0.08463,-0.03686 -0.08449,-0.03717 -0.08435,-0.03749 -0.08422,-0.0378 -0.08407,-0.03811 -0.08393,-0.03842 -0.08379,-0.03873 -0.08365,-0.03904 -0.0835,-0.03934 -0.08336,-0.03965 -0.08321,-0.03996 -0.08306,-0.04027 -0.08291,-0.04057 -0.08276,-0.04088 -0.08261,-0.04118 -0.08246,-0.04149 -0.0823,-0.04179 -0.08215,-0.0421 -0.08199,-0.0424 -0.08184,-0.0427 -0.08168,-0.043 -0.08152,-0.04331 -0.08136,-0.04361 -0.0812,-0.04391 -0.08103,-0.04421 -0.08087,-0.04451 -0.08071,-0.0448 -0.08054,-0.0451 -0.08037,-0.0454 -0.0802,-0.0457 -0.08003,-0.04599 -0.07987,-0.04629 -0.07969,-0.04658 -0.07952,-0.04687 -0.07935,-0.04717 -0.07917,-0.04746 -0.079,-0.04775 -0.07882,-0.04804 -0.07864,-0.04833 -0.07846,-0.04862 -0.07828,-0.04891 -0.0781,-0.0492 -0.07792,-0.04949 -0.07774,-0.04978 -0.07755,-0.05007 -0.07737,-0.05035 -0.07718,-0.05064 -0.07699,-0.05092 -0.0768,-0.05121 -0.07661,-0.05149 -0.07642,-0.05177 -0.07623,-0.05205 -0.07604,-0.05233 -0.07585,-0.05261 -0.07565,-0.05289 -0.07545,-0.05317 -0.07526,-0.05345 -0.07506,-0.05373 -0.07486,-0.05401 -0.07466,-0.05428 -0.07446,-0.05456 -0.07426,-0.05483 -0.07405,-0.0551 -0.07385,-0.05538 -0.07365,-0.05565 -0.07344,-0.05592 -0.07323,-0.05619 -0.07303,-0.05646 -0.07282,-0.05673 -0.07261,-0.057 -0.0724,-0.05727 -0.07218,-0.05753 -0.07197,-0.0578 -0.07176,-0.05807 -0.07154,-0.05833 -0.07133,-0.05859 -0.07111,-0.05886 -0.07089,-0.05912 -0.07067,-0.05938 -0.07045,-0.05964 -0.07023,-0.0599 -0.07001,-0.06016 -0.06979,-0.06042 -0.06957,-0.06067 -0.06934,-0.06093 -0.06911,-0.06119 -0.06889,-0.06144 -0.06866,-0.0617 -0.03353,-0.03029"
             style="fill:none;stroke:#000000;stroke-width:0.25;stroke-linecap:round;stroke-linejoin:round;stroke-miterlimit:10;stroke-dasharray:none;stroke-opacity:1"
             id="path26" /><path
             d="m 11.017178,11.965517 0.06855,-0.06182 0.06878,-0.06157 0.069,-0.06131 0.06923,-0.06106 0.06945,-0.0608 0.06968,-0.06054 0.0699,-0.06029 0.07012,-0.06003 0.07035,-0.05977 0.07057,-0.05951 0.07078,-0.05925 0.071,-0.05898 0.07122,-0.05872 0.07144,-0.05846 0.07165,-0.0582 0.07187,-0.05793 0.07208,-0.05767 0.07229,-0.0574 0.0725,-0.05713 0.07271,-0.05686 0.07292,-0.05659 0.07313,-0.05632 0.07334,-0.05605 0.07355,-0.05578 0.07375,-0.05551 0.07396,-0.05524 0.07416,-0.05496 0.07436,-0.05469 0.07456,-0.05442 0.07476,-0.05414 0.07496,-0.05386 0.07516,-0.05359 0.07536,-0.05331 0.07555,-0.05303 0.07575,-0.052751 0.07594,-0.05247 0.07614,-0.05219 0.07633,-0.051908 0.07652,-0.051626 0.07671,-0.051343 0.0769,-0.051059 0.07709,-0.050775 0.07728,-0.05049 0.07746,-0.050205 0.07765,-0.049918 0.07783,-0.049631 0.07801,-0.049344 0.07819,-0.049055 0.07837,-0.048766 0.07855,-0.048476 0.07873,-0.048186 0.07891,-0.047895 0.07909,-0.047603 0.07926,-0.047311 0.07944,-0.047018 0.07961,-0.046724 0.07978,-0.04643 0.07995,-0.046135 0.08012,-0.04584 0.08029,-0.045543 0.08046,-0.045247 0.08062,-0.044949 0.08079,-0.044651 0.08095,-0.044353 0.08112,-0.044054 0.08128,-0.043754 0.08144,-0.043453 0.0816,-0.043152 0.08176,-0.042851 0.08192,-0.042549 0.08207,-0.042246 0.08223,-0.041942 0.08238,-0.041639 0.08254,-0.041334 0.08269,-0.041029 0.08284,-0.040724 0.08299,-0.040417 0.08314,-0.040111 0.08329,-0.039803 0.08343,-0.039496 0.08358,-0.039187 0.08372,-0.038878 0.08386,-0.038569 0.08401,-0.038259 0.08415,-0.037949 0.08429,-0.037638 0.08442,-0.037326 0.08456,-0.037014 0.0847,-0.036702 0.08483,-0.036389 0.08497,-0.036075 0.0851,-0.035762 0.08523,-0.035447 0.08536,-0.035132 0.08549,-0.034817 0.08562,-0.034501 0.08574,-0.034184 0.08587,-0.033868 0.08599,-0.03355 0.08612,-0.033232 0.08624,-0.032914 0.08636,-0.032596 0.08648,-0.032277 0.0866,-0.031957 0.08672,-0.031637 0.08683,-0.031317 0.08695,-0.030996 0.08706,-0.030675 0.08717,-0.030353 0.08729,-0.030031 0.0874,-0.029708 0.08751,-0.029385 0.08761,-0.029062 0.08772,-0.028738 0.08783,-0.028414 0.08793,-0.02809 0.08803,-0.027765 0.08813,-0.02744 0.08824,-0.027114 0.08834,-0.026788 0.08843,-0.026462 0.08853,-0.026135 0.08863,-0.025808 0.08872,-0.025481 0.08881,-0.025153 0.08891,-0.024825 0.089,-0.024496 0.08909,-0.024168 0.08918,-0.023839 0.08926,-0.023509 0.08935,-0.023179 0.08943,-0.022849 0.08952,-0.022519 0.0896,-0.022188 0.08968,-0.021857 0.08976,-0.021526 0.08984,-0.021194 0.08992,-0.020862 0.09,-0.02053 0.09007,-0.020198 0.09014,-0.019865 0.09022,-0.019532 0.09029,-0.019199 0.09036,-0.018865 0.09043,-0.018532 0.0905,-0.018198 0.09056,-0.017864 0.09063,-0.017529 0.09069,-0.017194 0.09075,-0.016859 0.09082,-0.016524 0.09088,-0.016189 0.09094,-0.015853 0.09099,-0.015517 0.09105,-0.015181 0.09111,-0.014845 0.09116,-0.014508 0.09121,-0.014171 0.09126,-0.013835 0.09132,-0.013497 0.09136,-0.01316 0.09141,-0.012823 0.09146,-0.012485 0.09151,-0.012148 0.09155,-0.01181 0.09159,-0.011471 0.09163,-0.011133 0.09167,-0.010795 0.09171,-0.010456 0.09175,-0.010118 0.09179,-0.00978 0.09182,-0.00944 0.09186,-0.0091 0.09189,-0.00876 0.09192,-0.00842 0.09195,-0.00808 0.09198,-0.00774 0.09201,-0.0074 0.09204,-0.00706 0.09206,-0.00672 0.09209,-0.00638 0.09211,-0.00604 0.09213,-0.0057 0.09215,-0.00536 0.09217,-0.00502 0.09219,-0.00468 0.0922,-0.00434 0.09222,-0.004 0.09223,-0.00366 0.09225,-0.00332 0.09226,-0.00298 0.09227,-0.00264 0.09228,-0.0023 0.09229,-0.00196 0.09229,-0.00162 0.0923,-0.00128 0.0923,-9.355e-4 0.0923,-5.947e-4 0.09231,-2.538e-4 0.09231,8.7e-5 0.09231,4.278e-4 0.0923,7.687e-4 0.0923,0.00111 0.0923,0.00145 0.09229,0.00179 0.09228,0.00213 0.09227,0.00247 0.09227,0.00281 0.09225,0.00315 0.09224,0.00349 0.09223,0.00383 0.09221,0.00418 0.0922,0.00452 0.09218,0.00486 0.09216,0.0052 0.09214,0.00554 0.09212,0.00588 0.0921,0.00622 0.09208,0.00656 0.09205,0.0069 0.09202,0.00724 0.092,0.00758 0.09197,0.00792 0.09194,0.00826 0.09191,0.0086 0.09187,0.00893 0.09184,0.00927 0.09181,0.00961 0.09177,0.00995 0.09173,0.01029 0.09169,0.010629 0.09165,0.010968 0.09161,0.011306 0.09157,0.011644 0.09153,0.011982 0.09148,0.01232 0.09144,0.012658 0.09139,0.012995 0.09134,0.013333 0.09129,0.01367 0.09124,0.014007 0.09119,0.014343 0.09113,0.01468 0.09108,0.015016 0.09102,0.015352 0.09097,0.015689 0.09091,0.016024 0.09085,0.01636 0.09078,0.016695 0.09072,0.01703 0.09066,0.017365 0.09059,0.0177 0.09053,0.018034 0.09046,0.018368 0.09039,0.018702 0.09032,0.019036 0.09025,0.019369 0.09018,0.019702 0.09011,0.020035 0.09003,0.020368 0.08996,0.0207 0.08988,0.021032 0.0898,0.021364 0.08972,0.021695 0.08964,0.022026 0.08956,0.022357 0.08948,0.022688 0.08939,0.023018 0.08931,0.023348 0.08922,0.023677 0.08913,0.024007 0.08904,0.024336 0.08895,0.024664 0.08886,0.024992 0.08877,0.02532 0.08867,0.025648 0.08858,0.025975 0.08848,0.026302 0.08838,0.026629 0.08828,0.026955 0.08818,0.02728 0.08808,0.027606 0.08798,0.027931 0.08788,0.028256 0.08777,0.02858 0.08767,0.028904 0.08756,0.029227 0.08745,0.02955 0.08734,0.029873 0.08723,0.030195 0.08712,0.030517 0.087,0.030839 0.08689,0.03116 0.08677,0.03148 0.08666,0.031801 0.08654,0.03212 0.08642,0.032439 0.0863,0.032758 0.08618,0.033077 0.08606,0.033395 0.08593,0.033712 0.08581,0.034029 0.08568,0.034346 0.08555,0.034662 0.08542,0.034978 0.0853,0.035293 0.08516,0.035608 0.08503,0.035922 0.0849,0.036236 0.08476,0.036549 0.08463,0.036861 0.08449,0.037174 0.08435,0.037485 0.08422,0.037796 0.08407,0.038107 0.08393,0.038417 0.08379,0.038727 0.08365,0.039036 0.0835,0.039345 0.08336,0.039653 0.08321,0.03996 0.08306,0.040267 0.08291,0.040574 0.08276,0.04088 0.08261,0.041185 0.08246,0.04149 0.0823,0.041794 0.08215,0.042097 0.08199,0.0424 0.08184,0.042703 0.08168,0.043005 0.08152,0.043306 0.08136,0.043607 0.0812,0.043907 0.08103,0.044206 0.08087,0.044505 0.0807,0.044804 0.08054,0.045101 0.08037,0.045398 0.0802,0.045695 0.08003,0.04599 0.07986,0.046286 0.07969,0.04658 0.07952,0.046874 0.07935,0.047168 0.07917,0.04746 0.079,0.047752 0.07882,0.048044 0.07864,0.048334 0.07846,0.048624 0.07828,0.048914 0.0781,0.049202 0.07792,0.04949 0.07774,0.049778 0.07755,0.050064 0.07737,0.050351 0.07718,0.050636 0.07699,0.05092 0.0768,0.051204 0.07661,0.051488 0.07642,0.05177 0.07623,0.052052 0.07604,0.052333 0.07585,0.052613 0.07565,0.052894 0.07545,0.05317 0.07526,0.05345 0.07506,0.05373 0.07486,0.05401 0.07466,0.05428 0.07446,0.05456 0.07426,0.05483 0.07406,0.0551 0.07385,0.05538 0.07365,0.05565 0.07344,0.05592 0.07323,0.05619 0.07302,0.05646 0.07282,0.05673 0.07261,0.057 0.0724,0.05727 0.07218,0.05754 0.07197,0.0578 0.07176,0.05807 0.07154,0.05833 0.07133,0.05859 0.07111,0.05886 0.07089,0.05912 0.07067,0.05938 0.07045,0.05964 0.07023,0.0599 0.07001,0.06016 0.06979,0.06042 0.06956,0.06067 0.06934,0.06093 0.06912,0.06119 0.06889,0.06144 0.06866,0.0617 0.03353,0.03029"
             style="fill:none;stroke:#000000;stroke-width:0.25;stroke-linecap:round;stroke-linejoin:round;stroke-miterlimit:10;stroke-dasharray:none;stroke-opacity:1"
             id="path28" /><path
             d="M 5.2943338,17 H 8.3328333"
             style="fill:none;stroke:#000000;stroke-width:0.25;stroke-linecap:round;stroke-linejoin:round;stroke-miterlimit:10;stroke-dasharray:none;stroke-opacity:1"
             id="path30" /><path
             d="m 47.255834,17 h 3.0385"
             style="fill:none;stroke:#000000;stroke-width:0.25;stroke-linecap:round;stroke-linejoin:round;stroke-miterlimit:10;stroke-dasharray:none;stroke-opacity:1"
             id="path32" /><path
             d="M 5.2943338,13 H 8.3328333"
             style="fill:none;stroke:#000000;stroke-width:0.25;stroke-linecap:round;stroke-linejoin:round;stroke-miterlimit:10;stroke-dasharray:none;stroke-opacity:1"
             id="path34" /><path
             d="m 47.255834,13 h 3.0385"
             style="fill:none;stroke:#000000;stroke-width:0.25;stroke-linecap:round;stroke-linejoin:round;stroke-miterlimit:10;stroke-dasharray:none;stroke-opacity:1"
             id="path36" /><path
             d="m 8.3328333,13 0.092299,-0.0011 0.09225,-0.0032 0.092152,-0.0053 0.092005,-0.0074 0.091808,-0.0096 0.091563,-0.01168 0.091269,-0.01379 0.090927,-0.0159 0.090535,-0.01799 0.090096,-0.02007 0.089609,-0.02215 0.089074,-0.02421 0.088492,-0.02626 0.087862,-0.02829 0.087186,-0.03031 0.086463,-0.03232 0.085695,-0.0343 0.08488,-0.03627 0.08402,-0.03822 0.08312,-0.04015 0.08217,-0.04206 0.08118,-0.04394 0.08014,-0.0458 0.07906,-0.04764 0.07794,-0.04945 0.07678,-0.05124 0.07558,-0.05299 0.07433,-0.05473 0.07305,-0.05643 0.07173,-0.0581 0.07037,-0.05974 0.06071,-0.05385"
             style="fill:none;stroke:#000000;stroke-width:0.25;stroke-linecap:round;stroke-linejoin:round;stroke-miterlimit:10;stroke-dasharray:none;stroke-opacity:1"
             id="path38" /><path
             d="m 8.3328333,17 0.092299,0.0011 0.09225,0.0032 0.092152,0.0053 0.092005,0.0074 0.091808,0.0096 0.091563,0.01168 0.091269,0.01379 0.090927,0.0159 0.090535,0.01799 0.090096,0.02008 0.089609,0.02215 0.089074,0.02421 0.088492,0.02626 0.087862,0.02829 0.087186,0.03031 0.086463,0.03232 0.085695,0.0343 0.08488,0.03627 0.08402,0.03822 0.08312,0.04015 0.08217,0.04206 0.08118,0.04394 0.08014,0.0458 0.07906,0.04764 0.07794,0.04945 0.07678,0.05124 0.07558,0.053 0.07433,0.05472 0.07305,0.05643 0.07173,0.0581 0.07037,0.05974 0.06071,0.05385"
             style="fill:none;stroke:#000000;stroke-width:0.25;stroke-linecap:round;stroke-linejoin:round;stroke-miterlimit:10;stroke-dasharray:none;stroke-opacity:1"
             id="path40" /><path
             d="m 44.571489,18.034483 0.06914,-0.06115 0.07054,-0.05954 0.07189,-0.0579 0.07321,-0.05622 0.07449,-0.05452 0.07572,-0.05278 0.07692,-0.05102 0.07808,-0.04923 0.07919,-0.04742 0.08027,-0.04558 0.0813,-0.04372 0.08228,-0.04183 0.08323,-0.03992 0.08413,-0.03799 0.08498,-0.03603 0.08579,-0.03407 0.08655,-0.03208 0.08727,-0.03007 0.08794,-0.02805 0.08856,-0.02601 0.08914,-0.02396 0.08967,-0.0219 0.09015,-0.01982 0.09058,-0.01774 0.09097,-0.01564 0.09131,-0.01354 0.09159,-0.01143 0.09183,-0.0093 0.09202,-0.0072 0.09217,-0.0051 0.09226,-0.0029 L 47.255834,17"
             style="fill:none;stroke:#000000;stroke-width:0.25;stroke-linecap:round;stroke-linejoin:round;stroke-miterlimit:10;stroke-dasharray:none;stroke-opacity:1"
             id="path42" /><path
             d="m 44.571489,11.965517 0.06914,0.06115 0.07054,0.05954 0.07189,0.0579 0.07321,0.05622 0.07449,0.05452 0.07572,0.05278 0.07692,0.05102 0.07808,0.04923 0.07919,0.04742 0.08027,0.04558 0.0813,0.04372 0.08228,0.04183 0.08323,0.03992 0.08413,0.03799 0.08498,0.03604 0.08579,0.03407 0.08655,0.03208 0.08727,0.03007 0.08794,0.02805 0.08856,0.02601 0.08914,0.02396 0.08967,0.0219 0.09015,0.01982 0.09058,0.01774 0.09097,0.01564 0.09131,0.01354 0.09159,0.01143 0.09183,0.0093 0.09202,0.0072 0.09217,0.0051 0.09226,0.0029 L 47.255834,13"
             style="fill:none;stroke:#000000;stroke-width:0.25;stroke-linecap:round;stroke-linejoin:round;stroke-miterlimit:10;stroke-dasharray:none;stroke-opacity:1"
             id="path44" /></g><g
           id="g46"
           transform="matrix(0.68586177,1.0308461,-1.0304823,0.68610387,764.2151,609.48732)"><g
             id="g48"><text
               transform="translate(0,143)"
               style="font-variant:normal;font-weight:normal;font-size:133px;font-family:'Noto Sans';-inkscape-font-specification:NotoSans-Regular;writing-mode:lr-tb;fill:#008000;fill-opacity:1;fill-rule:nonzero;stroke:none"
               id="text52"><tspan
                 x="0"
                 y="0"
                 id="tspan50">r</tspan></text></g></g><g
           id="g54"
           transform="matrix(47.216667,0,0,-47.233333,0,1417)" /><g
           id="g56"
           transform="matrix(0.27434471,0.41233844,-0.41219294,0.27444155,713.46853,724.97103)"><g
             id="g58"><text
               transform="translate(0,143)"
               style="font-variant:normal;font-weight:normal;font-size:133px;font-family:'Noto Sans';-inkscape-font-specification:NotoSans-Regular;writing-mode:lr-tb;fill:#008000;fill-opacity:1;fill-rule:nonzero;stroke:none"
               id="text62"><tspan
                 x="0"
                 y="0"
                 id="tspan60">1</tspan></text></g></g><g
           id="g64"
           transform="matrix(47.216667,0,0,-47.233333,0,1417)"><path
             d="M 8.3328333,21 14.391607,11.896913"
             style="fill:none;stroke:#008000;stroke-width:0.13;stroke-linecap:round;stroke-linejoin:round;stroke-miterlimit:10;stroke-dasharray:none;stroke-opacity:1"
             id="path66" /></g><g
           id="g68"><path
             d="M 498.09397,582.38134 579.86,669.78777 547.13465,691.57659 Z"
             style="fill:#008000;fill-opacity:1;fill-rule:evenodd;stroke:none"
             id="path70" /></g><g
           id="g72"
           transform="matrix(47.216667,0,0,-47.233333,0,1417)"><path
             d="m 10.549113,17.67012 1.73172,-1.850525 -0.693089,-0.461301 z"
             style="fill:#008000;fill-opacity:1;fill-rule:evenodd;stroke:#008000;stroke-width:0.13;stroke-linecap:round;stroke-linejoin:round;stroke-miterlimit:10;stroke-dasharray:none;stroke-opacity:1"
             id="path74" /></g><g
           id="g76"
           transform="matrix(0.46576122,1.1472992,-1.1468944,0.46592563,1155.4574,517.58196)"><g
             id="g78"><text
               transform="translate(0,143)"
               style="font-variant:normal;font-weight:normal;font-size:133px;font-family:'Noto Sans';-inkscape-font-specification:NotoSans-Regular;writing-mode:lr-tb;fill:#008000;fill-opacity:1;fill-rule:nonzero;stroke:none"
               id="text82"><tspan
                 x="0"
                 y="0"
                 id="tspan80">r</tspan></text></g></g><g
           id="g84"
           transform="matrix(47.216667,0,0,-47.233333,0,1417)" /><g
           id="g86"
           transform="matrix(0.18630449,0.45891969,-0.45875776,0.18637025,1082.6344,620.5702)"><g
             id="g88"><text
               transform="translate(0,143)"
               style="font-variant:normal;font-weight:normal;font-size:133px;font-family:'Noto Sans';-inkscape-font-specification:NotoSans-Regular;writing-mode:lr-tb;fill:#008000;fill-opacity:1;fill-rule:nonzero;stroke:none"
               id="text92"><tspan
                 x="0"
                 y="0"
                 id="tspan90">2</tspan></text></g></g><g
           id="g94"
           transform="matrix(47.216667,0,0,-47.233333,0,1417)"><path
             d="M 24.014412,8.7567936 18.370013,22.655608"
             style="fill:none;stroke:#008000;stroke-width:0.13;stroke-linecap:round;stroke-linejoin:round;stroke-miterlimit:10;stroke-dasharray:none;stroke-opacity:1"
             id="path96" /></g><g
           id="g98"><path
             d="m 867.3708,346.90011 62.62585,102.00746 -36.42229,14.79655 z"
             style="fill:#008000;fill-opacity:1;fill-rule:evenodd;stroke:none"
             id="path100" /></g><g
           id="g102"
           transform="matrix(47.216667,0,0,-47.233333,0,1417)"><path
             d="m 18.370013,22.655608 1.326351,-2.15965 -0.771387,-0.313265 z"
             style="fill:#008000;fill-opacity:1;fill-rule:evenodd;stroke:#008000;stroke-width:0.13;stroke-linecap:round;stroke-linejoin:round;stroke-miterlimit:10;stroke-dasharray:none;stroke-opacity:1"
             id="path104" /></g><g
           id="g106"
           transform="matrix(0,-1.2382981,1.2378612,0,2320.1913,485.17294)"><g
             id="g108"><text
               transform="translate(0,143)"
               style="font-variant:normal;font-weight:normal;font-size:133px;font-family:'Noto Sans';-inkscape-font-specification:NotoSans-Regular;writing-mode:lr-tb;fill:#008000;fill-opacity:1;fill-rule:nonzero;stroke:none"
               id="text112"><tspan
                 x="0"
                 y="0"
                 id="tspan110">d</tspan></text></g></g><g
           id="g114"
           transform="matrix(47.216667,0,0,-47.233333,0,1417)"><path
             d="M 53.455666,24.5 V 17"
             style="fill:none;stroke:#008000;stroke-width:0.13;stroke-linecap:round;stroke-linejoin:round;stroke-miterlimit:10;stroke-dasharray:none;stroke-opacity:1"
             id="path116" /></g><g
           id="g118"><path
             d="m 2523.9984,259.78333 19.6555,118.08334 h -39.3111 z"
             style="fill:#008000;fill-opacity:1;fill-rule:evenodd;stroke:none"
             id="path120" /></g><g
           id="g122"
           transform="matrix(47.216667,0,0,-47.233333,0,1417)"><path
             d="M 53.455666,24.5 53.871951,22 h -0.83257 z"
             style="fill:#008000;fill-opacity:1;fill-rule:evenodd;stroke:#008000;stroke-width:0.13;stroke-linecap:round;stroke-linejoin:round;stroke-miterlimit:10;stroke-dasharray:none;stroke-opacity:1"
             id="path124" /></g><g
           id="g126"><path
             d="M 2523.9984,614.03333 2504.3428,495.95 h 39.3111 z"
             style="fill:#008000;fill-opacity:1;fill-rule:evenodd;stroke:none"
             id="path128" /></g><g
           id="g130"
           transform="matrix(47.216667,0,0,-47.233333,0,1417)"><path
             d="m 53.455666,17 -0.416285,2.5 h 0.83257 z"
             style="fill:#008000;fill-opacity:1;fill-rule:evenodd;stroke:#008000;stroke-width:0.13;stroke-linecap:round;stroke-linejoin:round;stroke-miterlimit:10;stroke-dasharray:none;stroke-opacity:1"
             id="path132" /><path
             d="M 28.419334,24.5 H 54.705666"
             style="fill:none;stroke:#008000;stroke-width:0.13;stroke-linecap:round;stroke-linejoin:round;stroke-miterlimit:10;stroke-dasharray:none;stroke-opacity:1"
             id="path134" /><path
             d="m 50.919334,17 h 3.786332"
             style="fill:none;stroke:#008000;stroke-width:0.13;stroke-linecap:round;stroke-linejoin:round;stroke-miterlimit:10;stroke-dasharray:none;stroke-opacity:1"
             id="path136" /></g></g></g></g></svg>
