<?xml version="1.0" encoding="UTF-8" standalone="no"?>
<!-- Created with Inkscape (http://www.inkscape.org/) -->

<svg
   version="1.1"
   id="svg2"
   xml:space="preserve"
   width="226.66667"
   height="150.66667"
   viewBox="0 0 226.66667 150.66667"
   sodipodi:docname="flat_oval.dxf.svg"
   inkscape:version="1.1.2 (0a00cf5339, 2022-02-04)"
   xmlns:inkscape="http://www.inkscape.org/namespaces/inkscape"
   xmlns:sodipodi="http://sodipodi.sourceforge.net/DTD/sodipodi-0.dtd"
   xmlns="http://www.w3.org/2000/svg"
   xmlns:svg="http://www.w3.org/2000/svg"><defs
     id="defs6" /><sodipodi:namedview
     id="namedview4"
     pagecolor="#ffffff"
     bordercolor="#666666"
     borderopacity="1.0"
     inkscape:pageshadow="2"
     inkscape:pageopacity="0.0"
     inkscape:pagecheckerboard="0"
     showgrid="false"
     inkscape:zoom="4.1814158"
     inkscape:cx="113.35873"
     inkscape:cy="75.333336"
     inkscape:window-width="1920"
     inkscape:window-height="1007"
     inkscape:window-x="0"
     inkscape:window-y="0"
     inkscape:window-maximized="1"
     inkscape:current-layer="g8" /><g
     id="g8"
     inkscape:groupmode="layer"
     inkscape:label="flat_oval.dxf"
     transform="matrix(1.3333333,0,0,-1.3333333,0,150.66667)"><g
       id="g10"
       transform="matrix(0.06,0,0,-0.06,0,113)"><g
         id="g12"><g
           id="g14" /></g><g
         id="g16"><g
           id="g18" /><g
           id="g20"
           transform="matrix(47.216667,0,0,-47.075,0,1883)"><path
             d="m 6.125,15.6875 h 1.05 m 0.3835,0 h 0.013 m 0.3835,0 h 1.56 m 0.3835,0 h 0.013 m 0.3835,0 h 1.56 m 0.3835,0 h 0.013 m 0.3835,0 h 1.56 m 0.3835,0 h 0.013 m 0.3835,0 h 1.56 m 0.3835,0 h 0.013 m 0.3835,0 h 1.56 m 0.3835,0 h 0.013 m 0.3835,0 h 1.56 m 0.3835,0 h 0.013 m 0.3835,0 h 1.56 m 0.3835,0 h 0.013 m 0.3835,0 h 1.56 m 0.3835,0 h 0.013 m 0.3835,0 h 1.56 m 0.3835,0 h 0.013 m 0.3835,0 h 1.56 m 0.3835,0 h 0.013 m 0.3835,0 h 1.56 m 0.3835,0 h 0.013 m 0.3835,0 h 1.56 m 0.3835,0 h 0.013 m 0.3835,0 h 1.56 m 0.3835,0 h 0.013 m 0.3835,0 h 1.56 m 0.3835,0 h 0.013 m 0.3835,0 h 1.56 m 0.3835,0 h 0.013 m 0.3835,0 h 1.56 m 0.3835,0 h 0.013 m 0.3835,0 h 1.56 m 0.3835,0 h 0.013 m 0.3835,0 h 1.56 m 0.3835,0 h 0.013 m 0.3835,0 h 1.05"
             style="fill:none;stroke:#000000;stroke-width:0.13;stroke-linecap:round;stroke-linejoin:round;stroke-miterlimit:10;stroke-dasharray:none;stroke-opacity:1"
             id="path22" /><path
             d="m 28.625,4.1875 v 0.58 m 0,0.3835 v 0.013 m 0,0.3835 v 1.56 m 0,0.3835 v 0.013 m 0,0.3835 v 1.56 m 0,0.3835 v 0.013 m 0,0.3835 v 1.56 m 0,0.3835 v 0.013 m 0,0.3835 v 1.56 m 0,0.3835 v 0.013 m 0,0.3835 v 1.56 m 0,0.3835 v 0.013 m 0,0.3835 v 1.56 m 0,0.3835 v 0.013 m 0,0.3835 v 1.56 m 0,0.3835 v 0.013 m 0,0.3835 v 1.56 m 0,0.3835 v 0.013 m 0,0.3835 v 1.56 m 0,0.3835 v 0.013 m 0,0.3835 v 0.58"
             style="fill:none;stroke:#000000;stroke-width:0.13;stroke-linecap:round;stroke-linejoin:round;stroke-miterlimit:10;stroke-dasharray:none;stroke-opacity:1"
             id="path24" /><path
             d="m 21.625,25.6875 -0.118166,-6.98e-4 -0.118149,-0.0021 -0.118116,-0.0035 -0.118067,-0.0049 -0.118,-0.0063 -0.117919,-0.0077 -0.117819,-0.0091 -0.117704,-0.01046 -0.117572,-0.01185 -0.117424,-0.01324 -0.117259,-0.01462 -0.117078,-0.01601 -0.116881,-0.01739 -0.116668,-0.01877 -0.116437,-0.02015 -0.116191,-0.02152 -0.115929,-0.02289 -0.11565,-0.02426 -0.115355,-0.02563 -0.115044,-0.02699 -0.114718,-0.02835 -0.114374,-0.0297 -0.114016,-0.03105 -0.11364,-0.03239 -0.11325,-0.03374 -0.112844,-0.03507 -0.112421,-0.0364 -0.111983,-0.03773 -0.111529,-0.03905 -0.111061,-0.04036 -0.110575,-0.04167 -0.110076,-0.04298 -0.109559,-0.04428 -0.109029,-0.04557 -0.108483,-0.04685 -0.107922,-0.04813 -0.107346,-0.0494 -0.106754,-0.05067 -0.106148,-0.05193 -0.105527,-0.05317 -0.104892,-0.05442 -0.104241,-0.05565 -0.103576,-0.05688 -0.102897,-0.0581 -0.102203,-0.05931 -0.101495,-0.06052 -0.100772,-0.06171 -0.100037,-0.0629 -0.09929,-0.06408 -0.09852,-0.06525 -0.09774,-0.0664 -0.09695,-0.06755 -0.09615,-0.0687 -0.09533,-0.06983 -0.0945,-0.07095 -0.09365,-0.07206 -0.09279,-0.07316 -0.09192,-0.07425 -0.09104,-0.07534 -0.09014,-0.07641 -0.08923,-0.07747 -0.08831,-0.07851 -0.08738,-0.07955 -0.08643,-0.08058 -0.08547,-0.0816 -0.0845,-0.0826 -0.08352,-0.08359 -0.08253,-0.08457 -0.08152,-0.08554 -0.08051,-0.0865 -0.07948,-0.08745 -0.07844,-0.08838 -0.07739,-0.0893 -0.07633,-0.09021 -0.07526,-0.0911 -0.07418,-0.09199 -0.07309,-0.09286 -0.07198,-0.09371 -0.07087,-0.09456 -0.06975,-0.09539 -0.06862,-0.09621 -0.06747,-0.09701 -0.06632,-0.0978 -0.06516,-0.09858 -0.06399,-0.09934 -0.06281,-0.10009 -0.06163,-0.100824 -0.06043,-0.101546 -0.05923,-0.102253 -0.05801,-0.102946 -0.0568,-0.103624 -0.05557,-0.104288 -0.05433,-0.104937 -0.05309,-0.105572 -0.05184,-0.106192 -0.05058,-0.106797 -0.04931,-0.107387 -0.04804,-0.107963 -0.04676,-0.108522 -0.04547,-0.109068 -0.04418,-0.109597 -0.04288,-0.110111 -0.04158,-0.110611 -0.04027,-0.111094 -0.0067,-0.01893"
             style="fill:none;stroke:#000000;stroke-width:0.25;stroke-linecap:round;stroke-linejoin:round;stroke-miterlimit:10;stroke-dasharray:none;stroke-opacity:1"
             id="path26" /><path
             d="m 35.625,25.6875 0.118166,-6.98e-4 0.118149,-0.0021 0.118116,-0.0035 0.118066,-0.0049 0.118001,-0.0063 0.117918,-0.0077 0.11782,-0.0091 0.117704,-0.01046 0.117572,-0.01185 0.117424,-0.01324 0.117259,-0.01462 0.117078,-0.01601 0.116881,-0.01739 0.116667,-0.01877 0.116438,-0.02015 0.116191,-0.02152 0.115928,-0.02289 0.115651,-0.02426 0.115355,-0.02563 0.115044,-0.02699 0.114717,-0.02835 0.114375,-0.0297 0.114016,-0.03105 0.11364,-0.03239 0.11325,-0.03374 0.112843,-0.03507 0.112422,-0.0364 0.111983,-0.03773 0.111529,-0.03905 0.11106,-0.04036 0.110576,-0.04167 0.110075,-0.04298 0.10956,-0.04428 0.109029,-0.04557 0.108483,-0.04685 0.107922,-0.04813 0.107346,-0.0494 0.106754,-0.05067 0.106148,-0.05193 0.105527,-0.05317 0.104892,-0.05442 0.104241,-0.05565 0.103576,-0.05688 0.102897,-0.0581 0.102203,-0.05931 0.101495,-0.06052 0.100772,-0.06171 0.100037,-0.0629 0.09929,-0.06408 0.09852,-0.06525 0.09774,-0.0664 0.09695,-0.06755 0.09615,-0.0687 0.09533,-0.06983 0.0945,-0.07095 0.09365,-0.07206 0.09279,-0.07316 0.09192,-0.07425 0.09104,-0.07534 0.09014,-0.07641 0.08923,-0.07747 0.08831,-0.07851 0.08738,-0.07955 0.08643,-0.08058 0.08547,-0.0816 0.0845,-0.0826 0.08352,-0.08359 0.08253,-0.08457 0.08152,-0.08554 0.08051,-0.0865 0.07948,-0.08745 0.07844,-0.08838 0.07739,-0.0893 0.07633,-0.09021 0.07526,-0.0911 0.07418,-0.09199 0.07308,-0.09286 0.07198,-0.09371 0.07087,-0.09456 0.06975,-0.09539 0.06862,-0.09621 0.06747,-0.09701 0.06632,-0.0978 0.06516,-0.09858 0.06399,-0.09934 0.06281,-0.10009 0.06163,-0.100824 0.06043,-0.101546 0.05923,-0.102253 0.05802,-0.102946 0.0568,-0.103624 0.05557,-0.104288 0.05433,-0.104937 0.05309,-0.105572 0.05184,-0.106192 0.05058,-0.106797 0.04931,-0.107387 0.04804,-0.107963 0.04676,-0.108522 0.04547,-0.109068 0.04418,-0.109597 0.04288,-0.110111 0.04158,-0.110611 0.04027,-0.111094 0.0067,-0.01893"
             style="fill:none;stroke:#000000;stroke-width:0.25;stroke-linecap:round;stroke-linejoin:round;stroke-miterlimit:10;stroke-dasharray:none;stroke-opacity:1"
             id="path28" /><path
             d="m 21.625,5.6875 -0.118166,6.982e-4 -0.118149,0.00209 -0.118116,0.00349 -0.118067,0.00489 -0.118,0.00628 -0.117919,0.00767 -0.117819,0.00907 -0.117704,0.010459 -0.117572,0.011849 -0.117424,0.013238 -0.117259,0.014624 -0.117078,0.016009 -0.116881,0.017391 -0.116668,0.018771 -0.116437,0.020148 -0.116191,0.021523 -0.115929,0.022894 -0.11565,0.024263 -0.115355,0.025627 -0.115044,0.026989 -0.114718,0.028346 -0.114374,0.0297 -0.114016,0.031049 -0.11364,0.032395 -0.11325,0.033735 -0.112844,0.035071 -0.112421,0.036402 -0.111983,0.037728 -0.111529,0.039048 -0.111061,0.040364 -0.110575,0.041673 -0.110076,0.042977 -0.109559,0.044275 -0.109029,0.045566 -0.108483,0.046851 -0.107922,0.04813 -0.107346,0.049402 -0.106754,0.050667 -0.106148,0.051925 -0.105527,0.053175 -0.104892,0.054419 -0.104241,0.055654 -0.103576,0.056882 -0.102897,0.058102 -0.102203,0.059314 -0.101495,0.060518 -0.100772,0.061713 -0.100037,0.062899 -0.09929,0.064077 -0.09852,0.065246 -0.09774,0.066405 -0.09695,0.067556 -0.09615,0.068697 -0.09533,0.069828 -0.0945,0.07095 -0.09365,0.072061 -0.09279,0.073163 -0.09192,0.074254 -0.09104,0.075335 -0.09014,0.076406 -0.08923,0.077466 -0.08831,0.078515 -0.08738,0.079553 -0.08643,0.08058 -0.08547,0.081595 -0.0845,0.0826 -0.08352,0.083592 -0.08253,0.084574 -0.08152,0.085543 -0.08051,0.0865 -0.07948,0.087445 -0.07844,0.088379 -0.07739,0.089299 -0.07633,0.090207 -0.07526,0.091103 -0.07418,0.091986 -0.07309,0.092856 -0.07198,0.093713 -0.07087,0.094557 -0.06975,0.095388 -0.06862,0.096206 -0.06747,0.097009 -0.06632,0.0978 -0.06516,0.09858 -0.06399,0.09934 -0.06281,0.10009 -0.06163,0.100824 -0.06043,0.101546 -0.05923,0.102253 -0.05801,0.102946 -0.0568,0.103624 -0.05557,0.104288 -0.05433,0.104937 -0.05309,0.105572 -0.05184,0.106192 -0.05058,0.106797 -0.04931,0.107387 -0.04804,0.107963 -0.04676,0.108522 -0.04547,0.109068 -0.04418,0.109597 -0.04288,0.110111 -0.04158,0.110611 -0.04027,0.111094 -0.0067,0.01893"
             style="fill:none;stroke:#000000;stroke-width:0.25;stroke-linecap:round;stroke-linejoin:round;stroke-miterlimit:10;stroke-dasharray:none;stroke-opacity:1"
             id="path30" /><path
             d="m 35.625,5.6875 0.118166,6.982e-4 0.118149,0.00209 0.118116,0.00349 0.118066,0.00489 0.118001,0.00628 0.117918,0.00767 0.11782,0.00907 0.117704,0.010459 0.117572,0.011849 0.117424,0.013238 0.117259,0.014624 0.117078,0.016009 0.116881,0.017391 0.116667,0.018771 0.116438,0.020148 0.116191,0.021523 0.115928,0.022894 0.115651,0.024263 0.115355,0.025627 0.115044,0.026989 0.114717,0.028346 0.114375,0.0297 0.114016,0.031049 0.11364,0.032395 0.11325,0.033735 0.112843,0.035071 0.112422,0.036402 0.111983,0.037728 0.111529,0.039048 0.11106,0.040364 0.110576,0.041673 0.110075,0.042977 0.10956,0.044275 0.109029,0.045566 0.108483,0.046851 0.107922,0.04813 0.107346,0.049402 0.106754,0.050667 0.106148,0.051925 0.105527,0.053175 0.104892,0.054419 0.104241,0.055654 0.103576,0.056882 0.102897,0.058102 0.102203,0.059314 0.101495,0.060518 0.100772,0.061713 0.100037,0.062899 0.09929,0.064077 0.09852,0.065246 0.09774,0.066405 0.09695,0.067556 0.09615,0.068697 0.09533,0.069828 0.0945,0.07095 0.09365,0.072061 0.09279,0.073163 0.09192,0.074254 0.09104,0.075335 0.09014,0.076406 0.08923,0.077466 0.08831,0.078515 0.08738,0.079553 0.08643,0.08058 0.08547,0.081595 0.0845,0.0826 0.08352,0.083592 0.08253,0.084574 0.08152,0.085543 0.08051,0.0865 0.07948,0.087445 0.07844,0.088379 0.07739,0.089299 0.07633,0.090207 0.07526,0.091103 0.07418,0.091986 0.07308,0.092856 0.07198,0.093713 0.07087,0.094557 0.06975,0.095388 0.06862,0.096206 0.06747,0.097009 0.06632,0.0978 0.06516,0.09858 0.06399,0.09934 0.06281,0.10009 0.06163,0.100824 0.06043,0.101546 0.05923,0.102253 0.05802,0.102946 0.0568,0.103624 0.05557,0.104288 0.05433,0.104937 0.05309,0.105572 0.05184,0.106192 0.05058,0.106797 0.04931,0.107387 0.04804,0.107963 0.04676,0.108522 0.04547,0.109068 0.04418,0.109597 0.04288,0.110111 0.04158,0.110611 0.04027,0.111094 0.0067,0.01893"
             style="fill:none;stroke:#000000;stroke-width:0.25;stroke-linecap:round;stroke-linejoin:round;stroke-miterlimit:10;stroke-dasharray:none;stroke-opacity:1"
             id="path32" /><path
             d="m 21.625,25.6875 h 7"
             style="fill:none;stroke:#000000;stroke-width:0.25;stroke-linecap:round;stroke-linejoin:round;stroke-miterlimit:10;stroke-dasharray:none;stroke-opacity:1"
             id="path34" /><path
             d="m 35.625,25.6875 h -7"
             style="fill:none;stroke:#000000;stroke-width:0.25;stroke-linecap:round;stroke-linejoin:round;stroke-miterlimit:10;stroke-dasharray:none;stroke-opacity:1"
             id="path36" /><path
             d="m 21.625,5.6875 h 7"
             style="fill:none;stroke:#000000;stroke-width:0.25;stroke-linecap:round;stroke-linejoin:round;stroke-miterlimit:10;stroke-dasharray:none;stroke-opacity:1"
             id="path38" /><path
             d="m 35.625,5.6875 h -7"
             style="fill:none;stroke:#000000;stroke-width:0.25;stroke-linecap:round;stroke-linejoin:round;stroke-miterlimit:10;stroke-dasharray:none;stroke-opacity:1"
             id="path40" /><path
             d="m 6.125,17.6875 h 4.186291"
             style="fill:none;stroke:#000000;stroke-width:0.25;stroke-linecap:round;stroke-linejoin:round;stroke-miterlimit:10;stroke-dasharray:none;stroke-opacity:1"
             id="path42" /><path
             d="M 51.125,17.6875 H 46.938708"
             style="fill:none;stroke:#000000;stroke-width:0.25;stroke-linecap:round;stroke-linejoin:round;stroke-miterlimit:10;stroke-dasharray:none;stroke-opacity:1"
             id="path44" /><path
             d="m 6.125,13.6875 h 4.186291"
             style="fill:none;stroke:#000000;stroke-width:0.25;stroke-linecap:round;stroke-linejoin:round;stroke-miterlimit:10;stroke-dasharray:none;stroke-opacity:1"
             id="path46" /><path
             d="M 51.125,13.6875 H 46.938708"
             style="fill:none;stroke:#000000;stroke-width:0.25;stroke-linecap:round;stroke-linejoin:round;stroke-miterlimit:10;stroke-dasharray:none;stroke-opacity:1"
             id="path48" /><path
             d="m 10.311291,17.6875 0.1181,0.0035 0.117688,0.01046 0.116864,0.01739 0.115634,0.02426 0.114,0.03105 0.111967,0.03772 0.109545,0.04427 0.106739,0.05066 0.103562,0.05688 0.100022,0.06289 0.09614,0.06869 0.09191,0.07424 0.08737,0.07954 0.08252,0.08456 0.07738,0.08929 0.07197,0.0937 0.06631,0.09779 0.06042,0.101531 0.05432,0.104923 0.04803,0.107947 0.03513,0.09207"
             style="fill:none;stroke:#000000;stroke-width:0.25;stroke-linecap:round;stroke-linejoin:round;stroke-miterlimit:10;stroke-dasharray:none;stroke-opacity:1"
             id="path50" /><path
             d="m 46.938708,17.6875 -0.118099,0.0035 -0.117688,0.01046 -0.116864,0.01739 -0.115634,0.02426 -0.114,0.03105 -0.111967,0.03772 -0.109545,0.04427 -0.106739,0.05066 -0.103562,0.05688 -0.100022,0.06289 -0.09613,0.06869 -0.09191,0.07424 -0.08737,0.07954 -0.08252,0.08456 -0.07738,0.08929 -0.07197,0.0937 -0.06631,0.09779 -0.06042,0.101531 -0.05432,0.104923 -0.04803,0.107947 -0.03513,0.09207"
             style="fill:none;stroke:#000000;stroke-width:0.25;stroke-linecap:round;stroke-linejoin:round;stroke-miterlimit:10;stroke-dasharray:none;stroke-opacity:1"
             id="path52" /><path
             d="m 46.938708,13.6875 -0.118099,-0.0035 -0.117688,-0.01046 -0.116864,-0.01739 -0.115634,-0.02426 -0.114,-0.03105 -0.111967,-0.03772 -0.109545,-0.04427 -0.106739,-0.05066 -0.103562,-0.05687 -0.100022,-0.06289 -0.09613,-0.06869 -0.09191,-0.07424 -0.08737,-0.07954 -0.08252,-0.08456 -0.07738,-0.08929 -0.07197,-0.0937 -0.06631,-0.09779 -0.06042,-0.101531 -0.05432,-0.104923 -0.04803,-0.107947 -0.03513,-0.09207"
             style="fill:none;stroke:#000000;stroke-width:0.25;stroke-linecap:round;stroke-linejoin:round;stroke-miterlimit:10;stroke-dasharray:none;stroke-opacity:1"
             id="path54" /><path
             d="m 10.311291,13.6875 0.1181,-0.0035 0.117688,-0.01046 0.116864,-0.01739 0.115634,-0.02426 0.114,-0.03105 0.111967,-0.03772 0.109545,-0.04427 0.106739,-0.05066 0.103562,-0.05687 0.100022,-0.06289 0.09614,-0.06869 0.09191,-0.07424 0.08737,-0.07954 0.08252,-0.08456 0.07738,-0.08929 0.07197,-0.0937 0.06631,-0.09779 0.06042,-0.101531 0.05432,-0.104923 0.04803,-0.107947 0.03513,-0.09207"
             style="fill:none;stroke:#000000;stroke-width:0.25;stroke-linecap:round;stroke-linejoin:round;stroke-miterlimit:10;stroke-dasharray:none;stroke-opacity:1"
             id="path56" /><path
             d="m 10.311291,17.6875 h 0.805 m 0.390001,0 h 0.804999"
             style="fill:none;stroke:#000000;stroke-width:0.13;stroke-linecap:round;stroke-linejoin:round;stroke-miterlimit:10;stroke-dasharray:none;stroke-opacity:1"
             id="path58" /><path
             d="m 11.530243,17.135215 0.268333,0.758961 m 0.13,0.367696 0.268334,0.758961"
             style="fill:none;stroke:#000000;stroke-width:0.13;stroke-linecap:round;stroke-linejoin:round;stroke-miterlimit:10;stroke-dasharray:none;stroke-opacity:1"
             id="path60" /><path
             d="m 45.05309,19.020833 0.268334,-0.758961 m 0.13,-0.367696 0.268333,-0.758961"
             style="fill:none;stroke:#000000;stroke-width:0.13;stroke-linecap:round;stroke-linejoin:round;stroke-miterlimit:10;stroke-dasharray:none;stroke-opacity:1"
             id="path62" /><path
             d="m 44.938708,17.6875 h 0.805 m 0.39,0 h 0.805"
             style="fill:none;stroke:#000000;stroke-width:0.13;stroke-linecap:round;stroke-linejoin:round;stroke-miterlimit:10;stroke-dasharray:none;stroke-opacity:1"
             id="path64" /></g><g
           id="g66"
           transform="matrix(1.0420849,0.66609668,-0.66810122,1.0389583,820.96728,925.17973)"><g
             id="g68"><text
               transform="translate(0,143)"
               style="font-variant:normal;font-weight:normal;font-size:133px;font-family:'Noto Sans';-inkscape-font-specification:NotoSans-Regular;writing-mode:lr-tb;fill:#008000;fill-opacity:1;fill-rule:nonzero;stroke:none"
               id="text72"><tspan
                 x="0"
                 y="0"
                 id="tspan70">r</tspan></text></g></g><g
           id="g74"
           transform="matrix(47.216667,0,0,-47.075,0,1883)" /><g
           id="g76"
           transform="matrix(0.41683397,0.26643867,-0.26724049,0.41558332,820.87745,1050.9056)"><g
             id="g78"><text
               transform="translate(0,143)"
               style="font-variant:normal;font-weight:normal;font-size:133px;font-family:'Noto Sans';-inkscape-font-specification:NotoSans-Regular;writing-mode:lr-tb;fill:#008000;fill-opacity:1;fill-rule:nonzero;stroke:none"
               id="text82"><tspan
                 x="0"
                 y="0"
                 id="tspan80">1</tspan></text></g></g><g
           id="g84"
           transform="matrix(47.216667,0,0,-47.075,0,1883)"><path
             d="m 10.311291,19.6875 7.522724,-4.822966"
             style="fill:none;stroke:#008000;stroke-width:0.13;stroke-linecap:round;stroke-linejoin:round;stroke-miterlimit:10;stroke-dasharray:none;stroke-opacity:1"
             id="path86" /></g><g
           id="g88"><path
             d="m 566.36287,1007.0258 109.98112,47.0213 -21.2171,32.9945 z"
             style="fill:#008000;fill-opacity:1;fill-rule:evenodd;stroke:none"
             id="path90" /></g><g
           id="g92"
           transform="matrix(47.216667,0,0,-47.075,0,1883)"><path
             d="m 11.994978,18.608055 2.329286,-0.998859 -0.449356,-0.700893 z"
             style="fill:#008000;fill-opacity:1;fill-rule:evenodd;stroke:#008000;stroke-width:0.13;stroke-linecap:round;stroke-linejoin:round;stroke-miterlimit:10;stroke-dasharray:none;stroke-opacity:1"
             id="path94" /></g><g
           id="g96"
           transform="matrix(0.80558936,0.93703436,-0.93985426,0.80317231,986.36815,787.76648)"><g
             id="g98"><text
               transform="translate(0,143)"
               style="font-variant:normal;font-weight:normal;font-size:133px;font-family:'Noto Sans';-inkscape-font-specification:NotoSans-Regular;writing-mode:lr-tb;fill:#008000;fill-opacity:1;fill-rule:nonzero;stroke:none"
               id="text102"><tspan
                 x="0"
                 y="0"
                 id="tspan100">r</tspan></text></g></g><g
           id="g104"
           transform="matrix(47.216667,0,0,-47.075,0,1883)" /><g
           id="g106"
           transform="matrix(0.32223575,0.37481375,-0.3759417,0.32126893,949.97313,908.14234)"><g
             id="g108"><text
               transform="translate(0,143)"
               style="font-variant:normal;font-weight:normal;font-size:133px;font-family:'Noto Sans';-inkscape-font-specification:NotoSans-Regular;writing-mode:lr-tb;fill:#008000;fill-opacity:1;fill-rule:nonzero;stroke:none"
               id="text112"><tspan
                 x="0"
                 y="0"
                 id="tspan110">2</tspan></text></g></g><g
           id="g114"
           transform="matrix(47.216667,0,0,-47.075,0,1883)"><path
             d="m 21.625,15.6875 -6.507914,7.592566"
             style="fill:none;stroke:#008000;stroke-width:0.13;stroke-linecap:round;stroke-linejoin:round;stroke-miterlimit:10;stroke-dasharray:none;stroke-opacity:1"
             id="path116" /></g><g
           id="g118"><path
             d="m 713.77842,787.09089 91.74412,76.60171 -29.84724,25.5066 z"
             style="fill:#008000;fill-opacity:1;fill-rule:evenodd;stroke:none"
             id="path120" /></g><g
           id="g122"
           transform="matrix(47.216667,0,0,-47.075,0,1883)"><path
             d="M 15.117086,23.280066 17.060131,21.652839 16.427998,21.11101 Z"
             style="fill:#008000;fill-opacity:1;fill-rule:evenodd;stroke:#008000;stroke-width:0.13;stroke-linecap:round;stroke-linejoin:round;stroke-miterlimit:10;stroke-dasharray:none;stroke-opacity:1"
             id="path124" /></g><g
           id="g126"
           transform="matrix(1.2378612,0,0,1.2341471,1260.4628,329.34036)"><g
             id="g128"><text
               transform="translate(0,143)"
               style="font-variant:normal;font-weight:normal;font-size:133px;font-family:'Noto Sans';-inkscape-font-specification:NotoSans-Regular;writing-mode:lr-tb;fill:#000000;fill-opacity:1;fill-rule:nonzero;stroke:none"
               id="text132"><tspan
                 x="0"
                 y="0"
                 id="tspan130">b</tspan></text></g></g><g
           id="g134"
           transform="matrix(47.216667,0,0,-47.075,0,1883)" /><g
           id="g136"
           transform="matrix(0.49514446,0,0,0.49365886,1361.6966,435.23018)"><g
             id="g138"><text
               transform="translate(0,143)"
               style="font-variant:normal;font-weight:normal;font-size:133px;font-family:'Noto Sans';-inkscape-font-specification:NotoSans-Regular;writing-mode:lr-tb;fill:#000000;fill-opacity:1;fill-rule:nonzero;stroke:none"
               id="text142"><tspan
                 x="0"
                 y="0"
                 id="tspan140">d</tspan></text></g></g><g
           id="g144"
           transform="matrix(47.216667,0,0,-47.075,0,1883)" /><g
           id="g146"
           transform="matrix(1.2378612,0,0,1.2341471,1402.1901,329.34036)"><g
             id="g148"><text
               transform="translate(0,143)"
               style="font-variant:normal;font-weight:normal;font-size:133px;font-family:'Noto Sans';-inkscape-font-specification:NotoSans-Regular;writing-mode:lr-tb;fill:#000000;fill-opacity:1;fill-rule:nonzero;stroke:none"
               id="text152"><tspan
                 x="0"
                 y="0"
                 id="tspan150">'</tspan></text></g></g><g
           id="g154"
           transform="matrix(47.216667,0,0,-47.075,0,1883)"><path
             d="m 21.625,28.6875 h 14"
             style="fill:none;stroke:#000000;stroke-width:0.13;stroke-linecap:round;stroke-linejoin:round;stroke-miterlimit:10;stroke-dasharray:none;stroke-opacity:1"
             id="path156" /></g><g
           id="g158"><path
             d="m 1021.0604,532.53594 118.0417,-19.5966 v 39.1932 z"
             style="fill:#000000;fill-opacity:1;fill-rule:evenodd;stroke:none"
             id="path160" /></g><g
           id="g162"
           transform="matrix(47.216667,0,0,-47.075,0,1883)"><path
             d="m 21.625,28.6875 2.5,0.416285 v -0.83257 z"
             style="fill:#000000;fill-opacity:1;fill-rule:evenodd;stroke:#000000;stroke-width:0.13;stroke-linecap:round;stroke-linejoin:round;stroke-miterlimit:10;stroke-dasharray:none;stroke-opacity:1"
             id="path164" /></g><g
           id="g166"><path
             d="m 1682.0938,532.53594 -118.0417,19.5966 v -39.1932 z"
             style="fill:#000000;fill-opacity:1;fill-rule:evenodd;stroke:none"
             id="path168" /></g><g
           id="g170"
           transform="matrix(47.216667,0,0,-47.075,0,1883)"><path
             d="m 35.625,28.6875 -2.5,-0.416285 v 0.83257 z"
             style="fill:#000000;fill-opacity:1;fill-rule:evenodd;stroke:#000000;stroke-width:0.13;stroke-linecap:round;stroke-linejoin:round;stroke-miterlimit:10;stroke-dasharray:none;stroke-opacity:1"
             id="path172" /><path
             d="m 21.625,26.3125 v 3.625"
             style="fill:none;stroke:#000000;stroke-width:0.13;stroke-linecap:round;stroke-linejoin:round;stroke-miterlimit:10;stroke-dasharray:none;stroke-opacity:1"
             id="path174" /><path
             d="m 35.625,26.3125 v 3.625"
             style="fill:none;stroke:#000000;stroke-width:0.13;stroke-linecap:round;stroke-linejoin:round;stroke-miterlimit:10;stroke-dasharray:none;stroke-opacity:1"
             id="path176" /></g><g
           id="g178"
           transform="matrix(0,-1.2341471,1.2378612,0,2280.97,910.16375)"><g
             id="g180"><text
               transform="translate(0,143)"
               style="font-variant:normal;font-weight:normal;font-size:133px;font-family:'Noto Sans';-inkscape-font-specification:NotoSans-Regular;writing-mode:lr-tb;fill:#008000;fill-opacity:1;fill-rule:nonzero;stroke:none"
               id="text184"><tspan
                 x="0"
                 y="0"
                 id="tspan182">d</tspan></text></g></g><g
           id="g186"
           transform="matrix(47.216667,0,0,-47.075,0,1883)"><path
             d="m 52.625,25.6875 v -8"
             style="fill:none;stroke:#008000;stroke-width:0.13;stroke-linecap:round;stroke-linejoin:round;stroke-miterlimit:10;stroke-dasharray:none;stroke-opacity:1"
             id="path188" /></g><g
           id="g190"><path
             d="m 2484.7771,673.76094 19.6556,117.6875 h -39.3112 z"
             style="fill:#008000;fill-opacity:1;fill-rule:evenodd;stroke:none"
             id="path192" /></g><g
           id="g194"
           transform="matrix(47.216667,0,0,-47.075,0,1883)"><path
             d="m 52.625,25.6875 0.416285,-2.5 h -0.83257 z"
             style="fill:#008000;fill-opacity:1;fill-rule:evenodd;stroke:#008000;stroke-width:0.13;stroke-linecap:round;stroke-linejoin:round;stroke-miterlimit:10;stroke-dasharray:none;stroke-opacity:1"
             id="path196" /></g><g
           id="g198"><path
             d="m 2484.7771,1050.3609 -19.6556,-117.68746 h 39.3112 z"
             style="fill:#008000;fill-opacity:1;fill-rule:evenodd;stroke:none"
             id="path200" /></g><g
           id="g202"
           transform="matrix(47.216667,0,0,-47.075,0,1883)"><path
             d="m 52.625,17.6875 -0.416285,2.5 h 0.83257 z"
             style="fill:#008000;fill-opacity:1;fill-rule:evenodd;stroke:#008000;stroke-width:0.13;stroke-linecap:round;stroke-linejoin:round;stroke-miterlimit:10;stroke-dasharray:none;stroke-opacity:1"
             id="path204" /><path
             d="M 36.25,25.6875 H 53.875"
             style="fill:none;stroke:#008000;stroke-width:0.13;stroke-linecap:round;stroke-linejoin:round;stroke-miterlimit:10;stroke-dasharray:none;stroke-opacity:1"
             id="path206" /><path
             d="m 51.75,17.6875 h 2.125"
             style="fill:none;stroke:#008000;stroke-width:0.13;stroke-linecap:round;stroke-linejoin:round;stroke-miterlimit:10;stroke-dasharray:none;stroke-opacity:1"
             id="path208" /></g><g
           id="g210"
           transform="matrix(1.2378612,0,0,1.2341471,1258.6408,138.33102)"><g
             id="g212"><text
               transform="translate(0,143)"
               style="font-variant:normal;font-weight:normal;font-size:133px;font-family:'Noto Sans';-inkscape-font-specification:NotoSans-Regular;writing-mode:lr-tb;fill:#008000;fill-opacity:1;fill-rule:nonzero;stroke:none"
               id="text216"><tspan
                 x="0"
                 y="0"
                 id="tspan214">b</tspan></text></g></g><g
           id="g218"
           transform="matrix(47.216667,0,0,-47.075,0,1883)" /><g
           id="g220"
           transform="matrix(0.49514446,0,0,0.49365886,1359.8746,244.22085)"><g
             id="g222"><text
               transform="translate(0,143)"
               style="font-variant:normal;font-weight:normal;font-size:133px;font-family:'Noto Sans';-inkscape-font-specification:NotoSans-Regular;writing-mode:lr-tb;fill:#008000;fill-opacity:1;fill-rule:nonzero;stroke:none"
               id="text226"><tspan
                 x="0 71.015625"
                 y="0"
                 sodipodi:role="line"
                 id="tspan224">kn</tspan></text></g></g><g
           id="g228"
           transform="matrix(47.216667,0,0,-47.075,0,1883)"><path
             d="m 11.725505,32.6875 h 33.79899"
             style="fill:none;stroke:#008000;stroke-width:0.13;stroke-linecap:round;stroke-linejoin:round;stroke-miterlimit:10;stroke-dasharray:none;stroke-opacity:1"
             id="path230" /></g><g
           id="g232"><path
             d="m 553.63926,344.23594 118.04167,-19.5966 v 39.1932 z"
             style="fill:#008000;fill-opacity:1;fill-rule:evenodd;stroke:none"
             id="path234" /></g><g
           id="g236"
           transform="matrix(47.216667,0,0,-47.075,0,1883)"><path
             d="m 11.725505,32.6875 2.5,0.416285 v -0.83257 z"
             style="fill:#008000;fill-opacity:1;fill-rule:evenodd;stroke:#008000;stroke-width:0.13;stroke-linecap:round;stroke-linejoin:round;stroke-miterlimit:10;stroke-dasharray:none;stroke-opacity:1"
             id="path238" /></g><g
           id="g240"><path
             d="m 2149.5149,344.23594 -118.0417,19.5966 v -39.1932 z"
             style="fill:#008000;fill-opacity:1;fill-rule:evenodd;stroke:none"
             id="path242" /></g><g
           id="g244"
           transform="matrix(47.216667,0,0,-47.075,0,1883)"><path
             d="m 45.524495,32.6875 -2.5,-0.416285 v 0.83257 z"
             style="fill:#008000;fill-opacity:1;fill-rule:evenodd;stroke:#008000;stroke-width:0.13;stroke-linecap:round;stroke-linejoin:round;stroke-miterlimit:10;stroke-dasharray:none;stroke-opacity:1"
             id="path246" /><path
             d="m 11.725505,18.3125 v 15.625"
             style="fill:none;stroke:#008000;stroke-width:0.13;stroke-linecap:round;stroke-linejoin:round;stroke-miterlimit:10;stroke-dasharray:none;stroke-opacity:1"
             id="path248" /><path
             d="m 45.524495,18.3125 v 15.625"
             style="fill:none;stroke:#008000;stroke-width:0.13;stroke-linecap:round;stroke-linejoin:round;stroke-miterlimit:10;stroke-dasharray:none;stroke-opacity:1"
             id="path250" /></g></g></g></g></svg>
