<?xml version="1.0" encoding="UTF-8" standalone="no"?>
<!-- Created with Inkscape (http://www.inkscape.org/) -->

<svg
   version="1.1"
   id="svg2"
   xml:space="preserve"
   width="226.66667"
   height="132"
   viewBox="0 0 226.66667 132"
   sodipodi:docname="oval_3radii.svg"
   inkscape:version="1.1.2 (0a00cf5339, 2022-02-04)"
   xmlns:inkscape="http://www.inkscape.org/namespaces/inkscape"
   xmlns:sodipodi="http://sodipodi.sourceforge.net/DTD/sodipodi-0.dtd"
   xmlns="http://www.w3.org/2000/svg"
   xmlns:svg="http://www.w3.org/2000/svg"><defs
     id="defs6" /><sodipodi:namedview
     id="namedview4"
     pagecolor="#ffffff"
     bordercolor="#666666"
     borderopacity="1.0"
     inkscape:pageshadow="2"
     inkscape:pageopacity="0.0"
     inkscape:pagecheckerboard="0"
     showgrid="false"
     inkscape:zoom="4.7727273"
     inkscape:cx="113.35238"
     inkscape:cy="66"
     inkscape:window-width="1920"
     inkscape:window-height="1007"
     inkscape:window-x="0"
     inkscape:window-y="0"
     inkscape:window-maximized="1"
     inkscape:current-layer="g8" /><g
     id="g8"
     inkscape:groupmode="layer"
     inkscape:label="oval_3radii"
     transform="matrix(1.3333333,0,0,-1.3333333,0,132)"><g
       id="g10"
       transform="matrix(0.06,0,0,-0.06,0,99)"><g
         id="g12"><g
           id="g14" /></g><g
         id="g16"><g
           id="g18" /><g
           id="g20"
           transform="matrix(47.216667,0,0,-47.142857,0,1650)"><path
             d="m 6.125,15.1875 h 1.05 m 0.3835,0 h 0.013 m 0.3835,0 h 1.56 m 0.3835,0 h 0.013 m 0.3835,0 h 1.56 m 0.3835,0 h 0.013 m 0.3835,0 h 1.56 m 0.3835,0 h 0.013 m 0.3835,0 h 1.56 m 0.3835,0 h 0.013 m 0.3835,0 h 1.56 m 0.3835,0 h 0.013 m 0.3835,0 h 1.56 m 0.3835,0 h 0.013 m 0.3835,0 h 1.56 m 0.3835,0 h 0.013 m 0.3835,0 h 1.56 m 0.3835,0 h 0.013 m 0.3835,0 h 1.56 m 0.3835,0 h 0.013 m 0.3835,0 h 1.56 m 0.3835,0 h 0.013 m 0.3835,0 h 1.56 m 0.3835,0 h 0.013 m 0.3835,0 h 1.56 m 0.3835,0 h 0.013 m 0.3835,0 h 1.56 m 0.3835,0 h 0.013 m 0.3835,0 h 1.56 m 0.3835,0 h 0.013 m 0.3835,0 h 1.56 m 0.3835,0 h 0.013 m 0.3835,0 h 1.56 m 0.3835,0 h 0.013 m 0.3835,0 h 1.56 m 0.3835,0 h 0.013 m 0.3835,0 h 1.56 m 0.3835,0 h 0.013 m 0.3835,0 h 1.05"
             style="fill:none;stroke:#000000;stroke-width:0.13;stroke-linecap:round;stroke-linejoin:round;stroke-miterlimit:10;stroke-dasharray:none;stroke-opacity:1"
             id="path22" /><path
             d="m 28.625,3.6875 v 0.58 m 0,0.3835 v 0.013 m 0,0.3835 v 1.56 m 0,0.3835 v 0.013 m 0,0.3835 v 1.56 m 0,0.3835 v 0.013 m 0,0.3835 v 1.56 m 0,0.3835 v 0.013 m 0,0.3835 v 1.56 m 0,0.3835 v 0.013 m 0,0.3835 v 1.56 m 0,0.3835 v 0.013 m 0,0.3835 v 1.56 m 0,0.3835 v 0.013 m 0,0.3835 v 1.56 m 0,0.3835 v 0.013 m 0,0.3835 v 1.56 m 0,0.3835 v 0.013 m 0,0.3835 v 1.56 m 0,0.3835 v 0.013 m 0,0.3835 v 0.58"
             style="fill:none;stroke:#000000;stroke-width:0.13;stroke-linecap:round;stroke-linejoin:round;stroke-miterlimit:10;stroke-dasharray:none;stroke-opacity:1"
             id="path24" /><path
             d="m 6.125,17.1875 h 2.5"
             style="fill:none;stroke:#000000;stroke-width:0.25;stroke-linecap:round;stroke-linejoin:round;stroke-miterlimit:10;stroke-dasharray:none;stroke-opacity:1"
             id="path26" /><path
             d="m 51.125,17.1875 h -2.5"
             style="fill:none;stroke:#000000;stroke-width:0.25;stroke-linecap:round;stroke-linejoin:round;stroke-miterlimit:10;stroke-dasharray:none;stroke-opacity:1"
             id="path28" /><path
             d="m 6.125,13.1875 h 2.5"
             style="fill:none;stroke:#000000;stroke-width:0.25;stroke-linecap:round;stroke-linejoin:round;stroke-miterlimit:10;stroke-dasharray:none;stroke-opacity:1"
             id="path30" /><path
             d="m 51.125,13.1875 h -2.5"
             style="fill:none;stroke:#000000;stroke-width:0.25;stroke-linecap:round;stroke-linejoin:round;stroke-miterlimit:10;stroke-dasharray:none;stroke-opacity:1"
             id="path32" /><path
             d="m 28.625,25.1875 -0.139626,-2.44e-4 -0.139625,-7.31e-4 -0.13962,-0.0012 -0.139616,-0.0017 -0.139609,-0.0022 -0.139601,-0.0027 -0.13959,-0.0032 -0.139579,-0.0037 -0.139564,-0.0041 -0.13955,-0.0046 -0.139532,-0.0051 -0.139514,-0.0056 -0.139494,-0.0061 -0.139471,-0.0066 -0.139447,-0.0071 -0.139422,-0.0076 -0.139395,-0.008 -0.139366,-0.0085 -0.139335,-0.009 -0.139303,-0.0095 -0.139269,-0.01 -0.139233,-0.01047 -0.139196,-0.01095 -0.139157,-0.01144 -0.139116,-0.01193 -0.139073,-0.01241 -0.13903,-0.0129 -0.138983,-0.01338 -0.138936,-0.01387 -0.138887,-0.01435 -0.138835,-0.01484 -0.138783,-0.01532 -0.138729,-0.01581 -0.138673,-0.01629 -0.138615,-0.01677 -0.138555,-0.01726 -0.138495,-0.01774 -0.138432,-0.01822 -0.138367,-0.01871 -0.138301,-0.01919 -0.138233,-0.01967 -0.138164,-0.02016 -0.138093,-0.02064 -0.13802,-0.02112 -0.137945,-0.0216 -0.137869,-0.02208 -0.13779,-0.02257 -0.137712,-0.02304 -0.13763,-0.02353 -0.137547,-0.02401 -0.137463,-0.02449 -0.137376,-0.02496 -0.137288,-0.02545 -0.137199,-0.02592 -0.137107,-0.0264 -0.137014,-0.02688 -0.13692,-0.02736 -0.136823,-0.02784 -0.136725,-0.02831 -0.136626,-0.02879 -0.136524,-0.02927 -0.136421,-0.02975 -0.136317,-0.03022 -0.13621,-0.0307 -0.136102,-0.03117 -0.135993,-0.03165 -0.135881,-0.03212 -0.135769,-0.03259 -0.135653,-0.03307 -0.135538,-0.03354 -0.13542,-0.03402 -0.135299,-0.03449 -0.135179,-0.03496 -0.135056,-0.03543 -0.134932,-0.0359 -0.134805,-0.03637 -0.134678,-0.03684 -0.134548,-0.03731 -0.134417,-0.03778 -0.134284,-0.03825 -0.13415,-0.03872 -0.134014,-0.03919 -0.133877,-0.03966 -0.133737,-0.04012 -0.02572,-0.0078"
             style="fill:none;stroke:#000000;stroke-width:0.25;stroke-linecap:round;stroke-linejoin:round;stroke-miterlimit:10;stroke-dasharray:none;stroke-opacity:1"
             id="path34" /><path
             d="m 40.211989,23.472506 -0.13371,0.04021 -0.13385,0.03975 -0.133987,0.03928 -0.134124,0.03881 -0.134259,0.03834 -0.134392,0.03787 -0.134523,0.0374 -0.134652,0.03693 -0.134781,0.03646 -0.134908,0.03599 -0.135032,0.03552 -0.135155,0.03505 -0.135277,0.03458 -0.135397,0.03411 -0.135515,0.03363 -0.135631,0.03316 -0.135747,0.03269 -0.135859,0.03221 -0.135972,0.03174 -0.136081,0.03126 -0.13619,0.03079 -0.136296,0.03031 -0.136401,0.02984 -0.136505,0.02936 -0.136606,0.02888 -0.136706,0.02841 -0.136805,0.02793 -0.136901,0.02745 -0.136996,0.02697 -0.137089,0.0265 -0.137181,0.02602 -0.137272,0.02554 -0.137359,0.02506 -0.137446,0.02458 -0.137531,0.0241 -0.137614,0.02362 -0.137696,0.02314 -0.137776,0.02266 -0.137854,0.02218 -0.13793,0.02169 -0.138006,0.02121 -0.138079,0.02073 -0.13815,0.02025 -0.13822,0.01977 -0.138288,0.01928 -0.138355,0.0188 -0.138419,0.01832 -0.138483,0.01783 -0.138544,0.01735 -0.138604,0.01687 -0.138661,0.01638 -0.138718,0.0159 -0.138773,0.01541 -0.138826,0.01493 -0.138877,0.01445 -0.138926,0.01396 -0.138975,0.01348 -0.13902,0.01299 -0.139066,0.01251 -0.139108,0.01202 -0.139149,0.01153 -0.139188,0.01105 -0.139226,0.01056 -0.139262,0.01008 -0.139297,0.0096 -0.139329,0.0091 -0.13936,0.0086 -0.13939,0.0081 -0.139416,0.0076 -0.139443,0.0072 -0.139467,0.0067 -0.139489,0.0062 -0.13951,0.0057 -0.139529,0.0052 -0.139546,0.0047 -0.139562,0.0042 -0.139576,0.0037 -0.139589,0.0033 -0.139598,0.0028 -0.139608,0.0023 -0.139615,0.0018 -0.13962,0.0013 -0.139623,8.24e-4 -0.139626,3.38e-4 -0.02687,9e-6"
             style="fill:none;stroke:#000000;stroke-width:0.25;stroke-linecap:round;stroke-linejoin:round;stroke-miterlimit:10;stroke-dasharray:none;stroke-opacity:1"
             id="path36" /><path
             d="m 17.038011,6.9024941 0.13371,-0.040213 0.133849,-0.039746 0.133988,-0.039278 0.134124,-0.038811 0.134259,-0.038342 0.134391,-0.037873 0.134524,-0.037404 0.134652,-0.036934 0.134781,-0.036464 0.134907,-0.035993 0.135033,-0.035522 0.135155,-0.03505 0.135277,-0.034578 0.135397,-0.034106 0.135514,-0.033633 0.135632,-0.03316 0.135746,-0.032686 0.13586,-0.032212 0.135972,-0.031738 0.136081,-0.031263 0.136189,-0.030788 0.136297,-0.030312 0.136401,-0.029836 0.136504,-0.02936 0.136607,-0.028883 0.136706,-0.028406 0.136804,-0.027929 0.136901,-0.027451 0.136997,-0.026973 0.137089,-0.026495 0.137181,-0.026016 0.137271,-0.025537 0.13736,-0.025058 0.137446,-0.024578 0.137531,-0.024098 0.137614,-0.023618 0.137696,-0.023137 0.137776,-0.022657 0.137854,-0.022176 0.13793,-0.021694 0.138006,-0.021213 0.138079,-0.020731 0.13815,-0.020249 0.13822,-0.019766 0.138288,-0.019284 0.138355,-0.018801 0.138419,-0.018318 0.138483,-0.017835 0.138544,-0.017351 0.138603,-0.016867 0.138662,-0.016383 0.138718,-0.015899 0.138773,-0.015415 0.138826,-0.014931 0.138877,-0.014446 0.138926,-0.013961 0.138975,-0.013476 0.13902,-0.012991 0.139065,-0.012505 0.139108,-0.01202 0.139149,-0.011534 0.139189,-0.011048 0.139226,-0.010562 0.139262,-0.010077 0.139297,-0.00959 0.139329,-0.0091 0.13936,-0.00862 0.139389,-0.00813 0.139417,-0.00764 0.139443,-0.00716 0.139467,-0.00667 0.139489,-0.00618 0.13951,-0.0057 0.139529,-0.00521 0.139546,-0.00472 0.139562,-0.00424 0.139576,-0.00375 0.139588,-0.00326 0.139599,-0.00277 0.139608,-0.00229 0.139614,-0.0018 0.139621,-0.00131 0.139623,-8.248e-4 0.139626,-3.375e-4 0.02687,-9e-6"
             style="fill:none;stroke:#000000;stroke-width:0.25;stroke-linecap:round;stroke-linejoin:round;stroke-miterlimit:10;stroke-dasharray:none;stroke-opacity:1"
             id="path38" /><path
             d="m 28.625,5.1875 0.139626,2.437e-4 0.139624,7.311e-4 0.139621,0.00122 0.139616,0.00171 0.139609,0.00219 0.139601,0.00268 0.13959,0.00317 0.139579,0.00365 0.139564,0.00414 0.13955,0.00463 0.139532,0.00512 0.139514,0.0056 0.139493,0.00609 0.139472,0.00658 0.139447,0.00706 0.139422,0.00755 0.139395,0.00804 0.139366,0.00852 0.139335,0.00901 0.139303,0.0095 0.139269,0.00998 0.139233,0.010469 0.139196,0.010955 0.139157,0.011441 0.139116,0.011926 0.139073,0.012412 0.13903,0.012897 0.138983,0.013383 0.138936,0.013868 0.138887,0.014353 0.138835,0.014837 0.138783,0.015322 0.138729,0.015806 0.138673,0.01629 0.138615,0.016774 0.138555,0.017258 0.138495,0.017742 0.138432,0.018225 0.138367,0.018708 0.138301,0.019191 0.138233,0.019674 0.138164,0.020156 0.138093,0.020638 0.138019,0.02112 0.137946,0.021602 0.137868,0.022083 0.137791,0.022564 0.137712,0.023045 0.13763,0.023526 0.137547,0.024006 0.137463,0.024486 0.137376,0.024965 0.137288,0.025445 0.137199,0.025924 0.137107,0.026403 0.137014,0.026881 0.13692,0.027359 0.136823,0.027837 0.136725,0.028314 0.136626,0.028792 0.136524,0.029268 0.136421,0.029745 0.136317,0.030221 0.13621,0.030696 0.136102,0.031172 0.135993,0.031646 0.135881,0.032121 0.135768,0.032595 0.135654,0.033069 0.135538,0.033542 0.135419,0.034015 0.1353,0.034488 0.135179,0.03496 0.135056,0.035431 0.134932,0.035902 0.134805,0.036373 0.134678,0.036844 0.134548,0.037313 0.134417,0.037783 0.134284,0.038252 0.13415,0.03872 0.134014,0.039188 0.133877,0.039656 0.133737,0.040123 0.02572,0.00777"
             style="fill:none;stroke:#000000;stroke-width:0.25;stroke-linecap:round;stroke-linejoin:round;stroke-miterlimit:10;stroke-dasharray:none;stroke-opacity:1"
             id="path40" /><path
             d="m 8.625,17.1875 0.1033858,0.0013 0.1033168,0.004 0.1031786,0.0067 0.1029716,0.0093 0.1026958,0.012 0.1023512,0.01465 0.1019385,0.01729 0.1014574,0.01992 0.1009087,0.02254 0.1002926,0.02514 0.099609,0.02772 0.09886,0.03028 0.098044,0.03283 0.097162,0.03535 0.09622,0.03785 0.09521,0.04033 0.09413,0.04277 0.09299,0.04519 0.0918,0.04758 0.09054,0.04994 0.08921,0.05226 0.08783,0.05455 0.08639,0.0568 0.0849,0.05902 0.08334,0.06119 0.08173,0.06332 0.08007,0.06542 0.07835,0.06746 0.07658,0.06947 0.07476,0.07142 0.07289,0.07333 0.07097,0.07519 0.069,0.077 0.06699,0.07876 0.06493,0.08046 0.06283,0.08211 0.06069,0.08371 0.0585,0.08525 0.05628,0.08673 0.05402,0.08816 0.05172,0.08953 0.04939,0.09083 0.03834,0.07461"
             style="fill:none;stroke:#000000;stroke-width:0.25;stroke-linecap:round;stroke-linejoin:round;stroke-miterlimit:10;stroke-dasharray:none;stroke-opacity:1"
             id="path42" /><path
             d="m 45.048197,19.396835 0.04748,-0.09185 0.04984,-0.09059 0.05216,-0.08927 0.05445,-0.08789 0.0567,-0.08646 0.05892,-0.08496 0.0611,-0.08341 0.06323,-0.08181 0.06532,-0.08014 0.06737,-0.07843 0.06938,-0.07666 0.07134,-0.07484 0.07325,-0.07297 0.07511,-0.07106 0.07692,-0.06909 0.07868,-0.06708 0.08039,-0.06502 0.08204,-0.06293 0.08364,-0.06078 0.08518,-0.0586 0.08667,-0.05638 0.0881,-0.05412 0.08947,-0.05183 0.09078,-0.0495 0.09203,-0.04713 0.09321,-0.04474 0.09434,-0.04231 0.0954,-0.03986 0.0964,-0.03738 0.09733,-0.03488 0.0982,-0.03235 0.09901,-0.0298 0.09974,-0.02723 0.100414,-0.02465 0.101018,-0.02204 0.101553,-0.01942 0.102022,-0.01679 0.102421,-0.01415 0.102753,-0.0115 0.103016,-0.0088 0.10321,-0.0062 0.103335,-0.0035 0.08388,-8.79e-4"
             style="fill:none;stroke:#000000;stroke-width:0.25;stroke-linecap:round;stroke-linejoin:round;stroke-miterlimit:10;stroke-dasharray:none;stroke-opacity:1"
             id="path44" /><path
             d="m 12.201803,10.978165 -0.04748,0.09185 -0.04983,0.09059 -0.05216,0.08927 -0.05445,0.0879 -0.0567,0.08646 -0.05892,0.08496 -0.06109,0.08341 -0.06323,0.08181 -0.06532,0.08014 -0.06738,0.07843 -0.06938,0.07666 -0.07134,0.07484 -0.07325,0.07297 -0.07511,0.07106 -0.07692,0.06909 -0.07868,0.06708 -0.08039,0.06502 -0.08204,0.06292 -0.08364,0.06078 -0.08518,0.0586 -0.08667,0.05638 -0.0881,0.05412 -0.08947,0.05182 -0.09078,0.0495 -0.09203,0.04713 -0.09321,0.04474 -0.09434,0.04231 -0.0954,0.03986 -0.0964,0.03738 -0.097334,0.03488 -0.098203,0.03235 -0.099006,0.0298 -0.099743,0.02723 -0.100414,0.02465 -0.1010175,0.02204 -0.1015534,0.01942 -0.1020216,0.01679 -0.1024215,0.01415 -0.1027531,0.0115 -0.1030159,0.0088 -0.10321,0.0062 -0.1033351,0.0035 L 8.625,13.1875"
             style="fill:none;stroke:#000000;stroke-width:0.25;stroke-linecap:round;stroke-linejoin:round;stroke-miterlimit:10;stroke-dasharray:none;stroke-opacity:1"
             id="path46" /><path
             d="m 48.625,13.1875 -0.103386,-0.0013 -0.103317,-0.004 -0.103178,-0.0067 -0.102972,-0.0093 -0.102696,-0.012 -0.102351,-0.01465 -0.101938,-0.01729 -0.101458,-0.01992 -0.100908,-0.02253 -0.100293,-0.02514 -0.09961,-0.02772 -0.09886,-0.03028 -0.09804,-0.03283 -0.09716,-0.03535 -0.09622,-0.03785 -0.09521,-0.04033 -0.09413,-0.04278 -0.093,-0.04519 -0.0918,-0.04758 -0.09054,-0.04994 -0.08921,-0.05226 -0.08783,-0.05455 -0.08639,-0.0568 -0.0849,-0.05902 -0.08334,-0.06119 -0.08173,-0.06332 -0.08007,-0.06542 -0.07835,-0.06746 -0.07658,-0.06947 -0.07476,-0.07142 -0.07289,-0.07333 -0.07097,-0.07519 -0.069,-0.077 -0.06699,-0.07876 -0.06493,-0.08046 -0.06283,-0.08211 -0.06069,-0.08371 -0.0585,-0.08525 -0.05628,-0.08673 -0.05402,-0.08816 -0.05172,-0.08953 -0.04939,-0.09083 -0.03833,-0.07461"
             style="fill:none;stroke:#000000;stroke-width:0.25;stroke-linecap:round;stroke-linejoin:round;stroke-miterlimit:10;stroke-dasharray:none;stroke-opacity:1"
             id="path48" /><path
             d="m 17.038011,23.472506 -0.09877,-0.03059 -0.09837,-0.03186 -0.09794,-0.03313 -0.09751,-0.0344 -0.09706,-0.03565 -0.09659,-0.0369 -0.0961,-0.03815 -0.0956,-0.03939 -0.09508,-0.04062 -0.09455,-0.04185 -0.094,-0.04306 -0.09344,-0.04428 -0.09286,-0.04548 -0.09226,-0.04668 -0.09165,-0.04787 -0.09102,-0.04905 -0.09038,-0.05022 -0.08973,-0.05138 -0.08906,-0.05254 -0.08837,-0.05368 -0.08767,-0.05482 -0.08695,-0.05595 -0.08622,-0.05707 -0.08548,-0.05818 -0.08472,-0.05928 -0.08394,-0.06037 -0.08316,-0.06145 -0.08235,-0.06252 -0.08154,-0.06358 -0.08071,-0.06462 -0.07987,-0.06566 -0.07901,-0.06669 -0.07815,-0.06771 -0.07727,-0.06871 -0.07637,-0.0697 -0.07546,-0.07068 -0.07454,-0.07165 -0.07361,-0.07261 -0.07267,-0.07356 -0.07171,-0.07449 -0.07074,-0.07541 -0.06976,-0.07632 -0.06877,-0.07721 -0.06776,-0.0781 -0.06675,-0.07897 -0.06572,-0.07982 -0.06469,-0.08066 -0.06364,-0.08149 -0.06258,-0.08231 -0.06151,-0.08311 -0.06043,-0.0839 -0.05934,-0.08467 -0.05824,-0.08543 -0.05713,-0.08618 -0.05602,-0.08691 -0.05489,-0.08763 -0.05375,-0.08833 -0.0526,-0.08901 -0.05145,-0.08969 -0.05029,-0.09034 -0.04911,-0.09099 -0.04793,-0.09161 -0.04139,-0.0815"
             style="fill:none;stroke:#000000;stroke-width:0.25;stroke-linecap:round;stroke-linejoin:round;stroke-miterlimit:10;stroke-dasharray:none;stroke-opacity:1"
             id="path50" /><path
             d="m 45.048197,19.396835 -0.04688,0.09216 -0.04807,0.09154 -0.04925,0.09091 -0.05042,0.09027 -0.05158,0.08961 -0.05274,0.08894 -0.05388,0.08825 -0.05502,0.08754 -0.05615,0.08683 -0.05726,0.08609 -0.05837,0.08535 -0.05947,0.08458 -0.06056,0.08381 -0.06164,0.08302 -0.0627,0.08221 -0.06376,0.0814 -0.06481,0.08057 -0.06584,0.07972 -0.06687,0.07887 -0.06788,0.07799 -0.06888,0.07711 -0.06987,0.07621 -0.07085,0.0753 -0.07182,0.07438 -0.07278,0.07345 -0.07372,0.0725 -0.07465,0.07154 -0.07557,0.07057 -0.07647,0.06959 -0.07737,0.06859 -0.07825,0.06759 -0.07911,0.06657 -0.07997,0.06554 -0.08081,0.0645 -0.08163,0.06345 -0.08245,0.0624 -0.08325,0.06132 -0.08403,0.06024 -0.08481,0.05915 -0.08556,0.05805 -0.08631,0.05694 -0.08703,0.05582 -0.08775,0.05469 -0.08845,0.05355 -0.08913,0.0524 -0.0898,0.05125 -0.09046,0.05008 -0.0911,0.04891 -0.09172,0.04773 -0.09233,0.04654 -0.09293,0.04534 -0.0935,0.04414 -0.09407,0.04292 -0.09461,0.04171 -0.09514,0.04048 -0.09566,0.03925 -0.09616,0.03801 -0.09664,0.03676 -0.09711,0.03551 -0.09756,0.03425 -0.09799,0.03299 -0.09841,0.03172 -0.08734,0.02698"
             style="fill:none;stroke:#000000;stroke-width:0.25;stroke-linecap:round;stroke-linejoin:round;stroke-miterlimit:10;stroke-dasharray:none;stroke-opacity:1"
             id="path52" /><path
             d="m 12.201803,10.978165 0.04688,-0.09216 0.04807,-0.09154 0.04925,-0.09091 0.05042,-0.09027 0.05158,-0.08961 0.05274,-0.08894 0.05388,-0.08825 0.05502,-0.08754 0.05615,-0.08683 0.05726,-0.08609 0.05837,-0.08535 0.05947,-0.084583 0.06056,-0.083808 0.06163,-0.083018 0.0627,-0.082215 0.06376,-0.081397 0.06481,-0.080566 0.06584,-0.079722 0.06687,-0.078864 0.06788,-0.077994 0.06888,-0.07711 0.06987,-0.076213 0.07085,-0.075304 0.07182,-0.074382 0.07278,-0.073447 0.07372,-0.072501 0.07465,-0.071542 0.07557,-0.070571 0.07648,-0.069588 0.07737,-0.068594 0.07825,-0.067588 0.07911,-0.066572 0.07997,-0.065544 0.08081,-0.064504 0.08163,-0.063455 0.08245,-0.062394 0.08325,-0.061324 0.08403,-0.060243 0.08481,-0.059151 0.08556,-0.05805 0.08631,-0.05694 0.08704,-0.05582 0.08775,-0.05469 0.08845,-0.053551 0.08913,-0.052404 0.0898,-0.051247 0.09046,-0.050083 0.0911,-0.048909 0.09172,-0.047728 0.09233,-0.046538 0.09292,-0.045341 0.0935,-0.044136 0.09407,-0.042924 0.09461,-0.041705 0.09514,-0.040478 0.09566,-0.039245 0.09616,-0.038006 0.09664,-0.03676 0.09711,-0.035508 0.09756,-0.03425 0.09799,-0.032986 0.09841,-0.031717 0.08734,-0.026978"
             style="fill:none;stroke:#000000;stroke-width:0.25;stroke-linecap:round;stroke-linejoin:round;stroke-miterlimit:10;stroke-dasharray:none;stroke-opacity:1"
             id="path54" /><path
             d="m 40.211989,6.9024941 0.09877,0.03059 0.09836,0.031864 0.09795,0.033133 0.09751,0.034396 0.09705,0.035653 0.09659,0.036905 0.0961,0.03815 0.0956,0.039389 0.09508,0.040621 0.09455,0.041847 0.094,0.043065 0.09344,0.044276 0.09286,0.04548 0.09226,0.046677 0.09165,0.047865 0.09102,0.049046 0.09038,0.050218 0.08973,0.051382 0.08905,0.052537 0.08837,0.053684 0.08767,0.054821 0.08695,0.05595 0.08622,0.057069 0.08548,0.058179 0.08472,0.059278 0.08394,0.060368 0.08316,0.061448 0.08235,0.062518 0.08154,0.063577 0.08071,0.064626 0.07987,0.065663 0.07901,0.06669 0.07815,0.067706 0.07726,0.06871 0.07637,0.069703 0.07546,0.070684 0.07454,0.071654 0.07361,0.072611 0.07267,0.073556 0.07171,0.074489 0.07074,0.07541 0.06976,0.076318 0.06877,0.077213 0.06776,0.078095 0.06675,0.078965 0.06572,0.079821 0.06468,0.080663 0.06364,0.081493 0.06258,0.082308 0.06151,0.08311 0.06043,0.083898 0.05934,0.084673 0.05824,0.08543 0.05713,0.08618 0.05602,0.08691 0.05489,0.08763 0.05375,0.08833 0.0526,0.08901 0.05145,0.08969 0.05029,0.09034 0.04911,0.09099 0.04793,0.09161 0.04139,0.0815"
             style="fill:none;stroke:#000000;stroke-width:0.25;stroke-linecap:round;stroke-linejoin:round;stroke-miterlimit:10;stroke-dasharray:none;stroke-opacity:1"
             id="path56" /></g><g
           id="g58"
           transform="matrix(0.93310124,0.81213019,-0.81340171,0.9316426,797.98512,719.66553)"><g
             id="g60"><text
               transform="translate(0,143)"
               style="font-variant:normal;font-weight:normal;font-size:133px;font-family:'Noto Sans';-inkscape-font-specification:NotoSans-Regular;writing-mode:lr-tb;fill:#008000;fill-opacity:1;fill-rule:nonzero;stroke:none"
               id="text64"><tspan
                 x="0"
                 y="0"
                 id="tspan62">r</tspan></text></g></g><g
           id="g66"
           transform="matrix(47.216667,0,0,-47.142857,0,1650)" /><g
           id="g68"
           transform="matrix(0.37324049,0.32485208,-0.32536068,0.37265704,779.44292,844.20418)"><g
             id="g70"><text
               transform="translate(0,143)"
               style="font-variant:normal;font-weight:normal;font-size:133px;font-family:'Noto Sans';-inkscape-font-specification:NotoSans-Regular;writing-mode:lr-tb;fill:#008000;fill-opacity:1;fill-rule:nonzero;stroke:none"
               id="text74"><tspan
                 x="0"
                 y="0"
                 id="tspan72">2</tspan></text></g></g><g
           id="g76"
           transform="matrix(47.216667,0,0,-47.142857,0,1650)"><path
             d="m 8.625,21.1875 8.416253,-7.336604"
             style="fill:none;stroke:#008000;stroke-width:0.13;stroke-linecap:round;stroke-linejoin:round;stroke-miterlimit:10;stroke-dasharray:none;stroke-opacity:1"
             id="path78" /></g><g
           id="g80"><path
             d="m 549.61167,775.07148 101.89568,62.65099 -25.83146,29.58647 z"
             style="fill:#008000;fill-opacity:1;fill-rule:evenodd;stroke:none"
             id="path82" /></g><g
           id="g84"
           transform="matrix(47.216667,0,0,-47.142857,0,1650)"><path
             d="m 11.640205,18.55909 2.158044,-1.328961 -0.547083,-0.627591 z"
             style="fill:#008000;fill-opacity:1;fill-rule:evenodd;stroke:#008000;stroke-width:0.13;stroke-linecap:round;stroke-linejoin:round;stroke-miterlimit:10;stroke-dasharray:none;stroke-opacity:1"
             id="path86" /></g><g
           id="g88"
           transform="matrix(0.77690037,0.96219788,-0.96370435,0.77568591,919.61891,582.94942)"><g
             id="g90"><text
               transform="translate(0,143)"
               style="font-variant:normal;font-weight:normal;font-size:133px;font-family:'Noto Sans';-inkscape-font-specification:NotoSans-Regular;writing-mode:lr-tb;fill:#008000;fill-opacity:1;fill-rule:nonzero;stroke:none"
               id="text94"><tspan
                 x="0"
                 y="0"
                 id="tspan92">r</tspan></text></g></g><g
           id="g96"
           transform="matrix(47.216667,0,0,-47.142857,0,1650)" /><g
           id="g98"
           transform="matrix(0.31076015,0.38487915,-0.38548174,0.31027436,879.6019,702.34899)"><g
             id="g100"><text
               transform="translate(0,143)"
               style="font-variant:normal;font-weight:normal;font-size:133px;font-family:'Noto Sans';-inkscape-font-specification:NotoSans-Regular;writing-mode:lr-tb;fill:#008000;fill-opacity:1;fill-rule:nonzero;stroke:none"
               id="text104"><tspan
                 x="0"
                 y="0"
                 id="tspan102">2</tspan></text></g></g><g
           id="g106"
           transform="matrix(47.216667,0,0,-47.142857,0,1650)"><path
             d="m 19.355408,15.815505 -5.02092,6.22819"
             style="fill:none;stroke:#008000;stroke-width:0.13;stroke-linecap:round;stroke-linejoin:round;stroke-miterlimit:10;stroke-dasharray:none;stroke-opacity:1"
             id="path108" /></g><g
           id="g110"><path
             d="m 676.82672,610.79724 89.38707,79.43773 -30.60466,24.63371 z"
             style="fill:#008000;fill-opacity:1;fill-rule:evenodd;stroke:none"
             id="path112" /></g><g
           id="g114"
           transform="matrix(47.216667,0,0,-47.142857,0,1650)"><path
             d="m 14.334488,22.043695 1.893125,-1.685043 -0.648175,-0.522533 z"
             style="fill:#008000;fill-opacity:1;fill-rule:evenodd;stroke:#008000;stroke-width:0.13;stroke-linecap:round;stroke-linejoin:round;stroke-miterlimit:10;stroke-dasharray:none;stroke-opacity:1"
             id="path116" /></g><g
           id="g118"
           transform="matrix(0.18359029,1.2222574,-1.2241711,0.1833033,1300.166,616.07319)"><g
             id="g120"><text
               transform="translate(0,143)"
               style="font-variant:normal;font-weight:normal;font-size:133px;font-family:'Noto Sans';-inkscape-font-specification:NotoSans-Regular;writing-mode:lr-tb;fill:#008000;fill-opacity:1;fill-rule:nonzero;stroke:none"
               id="text124"><tspan
                 x="0"
                 y="0"
                 id="tspan122">r</tspan></text></g></g><g
           id="g126"
           transform="matrix(47.216667,0,0,-47.142857,0,1650)" /><g
           id="g128"
           transform="matrix(0.07343612,0.48890298,-0.48966844,0.07332132,1205.2153,698.92928)"><g
             id="g130"><text
               transform="translate(0,143)"
               style="font-variant:normal;font-weight:normal;font-size:133px;font-family:'Noto Sans';-inkscape-font-specification:NotoSans-Regular;writing-mode:lr-tb;fill:#008000;fill-opacity:1;fill-rule:nonzero;stroke:none"
               id="text134"><tspan
                 x="0"
                 y="0"
                 id="tspan132">3</tspan></text></g></g><g
           id="g136"
           transform="matrix(47.216667,0,0,-47.142857,0,1650)"><path
             d="m 24.094333,15.390146 -1.402951,9.354808"
             style="fill:none;stroke:#008000;stroke-width:0.13;stroke-linecap:round;stroke-linejoin:round;stroke-miterlimit:10;stroke-dasharray:none;stroke-opacity:1"
             id="path138" /></g><g
           id="g140"><path
             d="m 1071.4114,483.45216 36.9453,113.6431 -38.8764,5.82122 z"
             style="fill:#008000;fill-opacity:1;fill-rule:evenodd;stroke:none"
             id="path142" /></g><g
           id="g144"
           transform="matrix(47.216667,0,0,-47.142857,0,1650)"><path
             d="m 22.691382,24.744954 0.782462,-2.410611 -0.823362,-0.123481 z"
             style="fill:#008000;fill-opacity:1;fill-rule:evenodd;stroke:#008000;stroke-width:0.13;stroke-linecap:round;stroke-linejoin:round;stroke-miterlimit:10;stroke-dasharray:none;stroke-opacity:1"
             id="path146" /><path
             d="m 8.625,17.1875 h 1.0403686 m 0.3900004,0 h 1.040368"
             style="fill:none;stroke:#000000;stroke-width:0.13;stroke-linecap:round;stroke-linejoin:round;stroke-miterlimit:10;stroke-dasharray:none;stroke-opacity:1"
             id="path148" /><path
             d="m 11.095737,17.1875 0.465738,0.930298 m 0.17459,0.348738 0.465738,0.930299"
             style="fill:none;stroke:#000000;stroke-width:0.13;stroke-linecap:round;stroke-linejoin:round;stroke-miterlimit:10;stroke-dasharray:none;stroke-opacity:1"
             id="path150" /><path
             d="m 45.048197,19.396835 0.465738,-0.930299 m 0.17459,-0.348738 0.465738,-0.930298"
             style="fill:none;stroke:#000000;stroke-width:0.13;stroke-linecap:round;stroke-linejoin:round;stroke-miterlimit:10;stroke-dasharray:none;stroke-opacity:1"
             id="path152" /><path
             d="m 46.154263,17.1875 h 1.040368 m 0.39,0 H 48.625"
             style="fill:none;stroke:#000000;stroke-width:0.13;stroke-linecap:round;stroke-linejoin:round;stroke-miterlimit:10;stroke-dasharray:none;stroke-opacity:1"
             id="path154" /></g><g
           id="g156"
           transform="matrix(1.2378612,0,0,1.2359261,1258.6137,114.95899)"><g
             id="g158"><text
               transform="translate(0,143)"
               style="font-variant:normal;font-weight:normal;font-size:133px;font-family:'Noto Sans';-inkscape-font-specification:NotoSans-Regular;writing-mode:lr-tb;fill:#008000;fill-opacity:1;fill-rule:nonzero;stroke:none"
               id="text162"><tspan
                 x="0"
                 y="0"
                 id="tspan160">b</tspan></text></g></g><g
           id="g164"
           transform="matrix(47.216667,0,0,-47.142857,0,1650)" /><g
           id="g166"
           transform="matrix(0.49514446,0,0,0.49437045,1359.8475,221.00145)"><g
             id="g168"><text
               transform="translate(0,143)"
               style="font-variant:normal;font-weight:normal;font-size:133px;font-family:'Noto Sans';-inkscape-font-specification:NotoSans-Regular;writing-mode:lr-tb;fill:#008000;fill-opacity:1;fill-rule:nonzero;stroke:none"
               id="text172"><tspan
                 x="0 71.015625"
                 y="0"
                 sodipodi:role="line"
                 id="tspan170">kn</tspan></text></g></g><g
           id="g174"
           transform="matrix(47.216667,0,0,-47.142857,0,1650)"><path
             d="M 11.095737,28.1875 H 46.154263"
             style="fill:none;stroke:#008000;stroke-width:0.13;stroke-linecap:round;stroke-linejoin:round;stroke-miterlimit:10;stroke-dasharray:none;stroke-opacity:1"
             id="path176" /></g><g
           id="g178"><path
             d="m 523.90372,321.16071 118.04167,-19.62484 v 39.24969 z"
             style="fill:#008000;fill-opacity:1;fill-rule:evenodd;stroke:none"
             id="path180" /></g><g
           id="g182"
           transform="matrix(47.216667,0,0,-47.142857,0,1650)"><path
             d="m 11.095737,28.1875 2.5,0.416285 v -0.83257 z"
             style="fill:#008000;fill-opacity:1;fill-rule:evenodd;stroke:#008000;stroke-width:0.13;stroke-linecap:round;stroke-linejoin:round;stroke-miterlimit:10;stroke-dasharray:none;stroke-opacity:1"
             id="path184" /></g><g
           id="g186"><path
             d="m 2179.2504,321.16071 -118.0416,19.62485 v -39.24969 z"
             style="fill:#008000;fill-opacity:1;fill-rule:evenodd;stroke:none"
             id="path188" /></g><g
           id="g190"
           transform="matrix(47.216667,0,0,-47.142857,0,1650)"><path
             d="m 46.154263,28.1875 -2.5,-0.416285 v 0.83257 z"
             style="fill:#008000;fill-opacity:1;fill-rule:evenodd;stroke:#008000;stroke-width:0.13;stroke-linecap:round;stroke-linejoin:round;stroke-miterlimit:10;stroke-dasharray:none;stroke-opacity:1"
             id="path192" /><path
             d="m 11.095737,17.8125 v 11.625"
             style="fill:none;stroke:#008000;stroke-width:0.13;stroke-linecap:round;stroke-linejoin:round;stroke-miterlimit:10;stroke-dasharray:none;stroke-opacity:1"
             id="path194" /><path
             d="m 46.154263,17.8125 v 11.625"
             style="fill:none;stroke:#008000;stroke-width:0.13;stroke-linecap:round;stroke-linejoin:round;stroke-miterlimit:10;stroke-dasharray:none;stroke-opacity:1"
             id="path196" /></g><g
           id="g198"
           transform="matrix(0,-1.2359261,1.2378612,0,2280.97,699.37149)"><g
             id="g200"><text
               transform="translate(0,143)"
               style="font-variant:normal;font-weight:normal;font-size:133px;font-family:'Noto Sans';-inkscape-font-specification:NotoSans-Regular;writing-mode:lr-tb;fill:#008000;fill-opacity:1;fill-rule:nonzero;stroke:none"
               id="text204"><tspan
                 x="0"
                 y="0"
                 id="tspan202">d</tspan></text></g></g><g
           id="g206"
           transform="matrix(47.216667,0,0,-47.142857,0,1650)"><path
             d="m 52.625,25.1875 v -8"
             style="fill:none;stroke:#008000;stroke-width:0.13;stroke-linecap:round;stroke-linejoin:round;stroke-miterlimit:10;stroke-dasharray:none;stroke-opacity:1"
             id="path208" /></g><g
           id="g210"><path
             d="m 2484.7771,462.58929 19.6556,117.85714 h -39.3112 z"
             style="fill:#008000;fill-opacity:1;fill-rule:evenodd;stroke:none"
             id="path212" /></g><g
           id="g214"
           transform="matrix(47.216667,0,0,-47.142857,0,1650)"><path
             d="m 52.625,25.1875 0.416285,-2.5 h -0.83257 z"
             style="fill:#008000;fill-opacity:1;fill-rule:evenodd;stroke:#008000;stroke-width:0.13;stroke-linecap:round;stroke-linejoin:round;stroke-miterlimit:10;stroke-dasharray:none;stroke-opacity:1"
             id="path216" /></g><g
           id="g218"><path
             d="M 2484.7771,839.73214 2465.1215,721.875 h 39.3112 z"
             style="fill:#008000;fill-opacity:1;fill-rule:evenodd;stroke:none"
             id="path220" /></g><g
           id="g222"
           transform="matrix(47.216667,0,0,-47.142857,0,1650)"><path
             d="m 52.625,17.1875 -0.416285,2.5 h 0.83257 z"
             style="fill:#008000;fill-opacity:1;fill-rule:evenodd;stroke:#008000;stroke-width:0.13;stroke-linecap:round;stroke-linejoin:round;stroke-miterlimit:10;stroke-dasharray:none;stroke-opacity:1"
             id="path224" /><path
             d="M 29.25,25.1875 H 53.875"
             style="fill:none;stroke:#008000;stroke-width:0.13;stroke-linecap:round;stroke-linejoin:round;stroke-miterlimit:10;stroke-dasharray:none;stroke-opacity:1"
             id="path226" /><path
             d="m 51.75,17.1875 h 2.125"
             style="fill:none;stroke:#008000;stroke-width:0.13;stroke-linecap:round;stroke-linejoin:round;stroke-miterlimit:10;stroke-dasharray:none;stroke-opacity:1"
             id="path228" /></g></g></g></g></svg>
