<?xml version="1.0" encoding="UTF-8" standalone="no"?>
<!-- Created with Inkscape (http://www.inkscape.org/) -->

<svg
   version="1.1"
   id="svg2"
   xml:space="preserve"
   width="226.66667"
   height="132"
   viewBox="0 0 226.66667 132"
   sodipodi:docname="oval_3radii_flanked.svg"
   inkscape:version="1.1.2 (0a00cf5339, 2022-02-04)"
   xmlns:inkscape="http://www.inkscape.org/namespaces/inkscape"
   xmlns:sodipodi="http://sodipodi.sourceforge.net/DTD/sodipodi-0.dtd"
   xmlns="http://www.w3.org/2000/svg"
   xmlns:svg="http://www.w3.org/2000/svg"><defs
     id="defs6" /><sodipodi:namedview
     id="namedview4"
     pagecolor="#ffffff"
     bordercolor="#666666"
     borderopacity="1.0"
     inkscape:pageshadow="2"
     inkscape:pageopacity="0.0"
     inkscape:pagecheckerboard="0"
     showgrid="false"
     inkscape:zoom="4.7727273"
     inkscape:cx="113.35238"
     inkscape:cy="66"
     inkscape:window-width="1920"
     inkscape:window-height="1007"
     inkscape:window-x="0"
     inkscape:window-y="0"
     inkscape:window-maximized="1"
     inkscape:current-layer="g8" /><g
     id="g8"
     inkscape:groupmode="layer"
     inkscape:label="oval_3radii_flanked"
     transform="matrix(1.3333333,0,0,-1.3333333,0,132)"><g
       id="g10"
       transform="matrix(0.06,0,0,-0.06,0,99)"><g
         id="g12"><g
           id="g14" /></g><g
         id="g16"><g
           id="g18" /><g
           id="g20"
           transform="matrix(47.216667,0,0,-47.142857,0,1650)"><path
             d="m 5.625,14.112537 h 1.05 m 0.3835,0 h 0.013 m 0.3835,0 h 1.56 m 0.3835,0 h 0.013 m 0.3835,0 h 1.56 m 0.3835,0 h 0.013 m 0.3835,0 h 1.56 m 0.3835,0 h 0.013 m 0.3835,0 h 1.56 m 0.3835,0 h 0.013 m 0.3835,0 h 1.56 m 0.3835,0 h 0.013 m 0.3835,0 h 1.56 m 0.3835,0 h 0.013 m 0.3835,0 h 1.56 m 0.3835,0 h 0.013 m 0.3835,0 h 1.56 m 0.3835,0 h 0.013 m 0.3835,0 h 1.56 m 0.3835,0 h 0.013 m 0.3835,0 h 1.56 m 0.3835,0 h 0.013 m 0.3835,0 h 1.56 m 0.3835,0 h 0.013 m 0.3835,0 h 1.56 m 0.3835,0 h 0.013 m 0.3835,0 h 1.56 m 0.3835,0 h 0.013 m 0.3835,0 h 1.56 m 0.3835,0 h 0.013 m 0.3835,0 h 1.56 m 0.3835,0 h 0.013 m 0.3835,0 h 1.56 m 0.3835,0 h 0.013 m 0.3835,0 h 1.56 m 0.3835,0 h 0.013 m 0.3835,0 h 1.56 m 0.3835,0 h 0.013 m 0.3835,0 h 1.05"
             style="fill:none;stroke:#000000;stroke-width:0.13;stroke-linecap:round;stroke-linejoin:round;stroke-miterlimit:10;stroke-dasharray:none;stroke-opacity:1"
             id="path22" /><path
             d="m 28.125,1.6125369 v 0.41 m 0,0.3835 v 0.013 m 0,0.3835 v 1.56 m 0,0.3835 v 0.013 m 0,0.3835 v 1.56 m 0,0.3835 v 0.013 m 0,0.3835 v 1.56 m 0,0.3835 v 0.013 m 0,0.3835 v 1.5600001 m 0,0.3835 v 0.013 m 0,0.3835 v 1.56 m 0,0.3835 v 0.013 m 0,0.3835 v 1.56 m 0,0.3835 v 0.013 m 0,0.3835 v 1.56 m 0,0.3835 v 0.013 m 0,0.3835 v 1.56 m 0,0.3835 v 0.013 m 0,0.3835 v 1.56 m 0,0.3835 v 0.013 m 0,0.3835 v 1.56 m 0,0.3835 v 0.013 m 0,0.3835 v 0.41"
             style="fill:none;stroke:#000000;stroke-width:0.13;stroke-linecap:round;stroke-linejoin:round;stroke-miterlimit:10;stroke-dasharray:none;stroke-opacity:1"
             id="path24" /><path
             d="M 5.625,16.112537 H 8.7834748"
             style="fill:none;stroke:#000000;stroke-width:0.25;stroke-linecap:round;stroke-linejoin:round;stroke-miterlimit:10;stroke-dasharray:none;stroke-opacity:1"
             id="path26" /><path
             d="M 50.625,16.112537 H 47.466525"
             style="fill:none;stroke:#000000;stroke-width:0.25;stroke-linecap:round;stroke-linejoin:round;stroke-miterlimit:10;stroke-dasharray:none;stroke-opacity:1"
             id="path28" /><path
             d="M 50.625,12.112537 H 47.466525"
             style="fill:none;stroke:#000000;stroke-width:0.25;stroke-linecap:round;stroke-linejoin:round;stroke-miterlimit:10;stroke-dasharray:none;stroke-opacity:1"
             id="path30" /><path
             d="M 5.625,12.112537 H 8.7834748"
             style="fill:none;stroke:#000000;stroke-width:0.25;stroke-linecap:round;stroke-linejoin:round;stroke-miterlimit:10;stroke-dasharray:none;stroke-opacity:1"
             id="path32" /><path
             d="m 28.125,25.612537 -0.139626,-2.44e-4 -0.139625,-7.31e-4 -0.13962,-0.0012 -0.139616,-0.0017 -0.139609,-0.0022 -0.139601,-0.0027 -0.13959,-0.0032 -0.139579,-0.0037 -0.139564,-0.0041 -0.13955,-0.0046 -0.139532,-0.0051 -0.139514,-0.0056 -0.139494,-0.0061 -0.139471,-0.0066 -0.139447,-0.0071 -0.139422,-0.0076 -0.139395,-0.008 -0.139366,-0.0085 -0.139335,-0.009 -0.139303,-0.0095 -0.139269,-0.01 -0.139233,-0.01047 -0.139196,-0.01095 -0.139157,-0.01144 -0.139116,-0.01193 -0.139073,-0.01241 -0.13903,-0.0129 -0.138983,-0.01338 -0.138936,-0.01387 -0.138887,-0.01435 -0.138835,-0.01484 -0.138783,-0.01532 -0.138729,-0.01581 -0.138673,-0.01629 -0.138615,-0.01677 -0.138555,-0.01726 -0.138495,-0.01774 -0.138432,-0.01823 -0.138367,-0.01871 -0.138301,-0.01919 -0.138233,-0.01967 -0.138164,-0.02016 -0.138093,-0.02064 -0.13802,-0.02112 -0.137945,-0.0216 -0.137869,-0.02208 -0.13779,-0.02256 -0.137712,-0.02304 -0.13763,-0.02352 -0.137547,-0.02401 -0.137463,-0.02449 -0.137376,-0.02496 -0.137288,-0.02545 -0.137199,-0.02592 -0.137107,-0.0264 -0.137014,-0.02688 -0.13692,-0.02736 -0.136823,-0.02784 -0.136725,-0.02831 -0.136626,-0.02879 -0.136524,-0.02927 -0.136421,-0.02974 -0.136317,-0.03022 -0.13621,-0.0307 -0.136102,-0.03117 -0.135993,-0.03165 -0.135881,-0.03212 -0.135769,-0.0326 -0.135653,-0.03307 -0.135538,-0.03354 -0.13542,-0.03402 -0.135299,-0.03449 -0.135179,-0.03496 -0.135056,-0.03543 -0.134932,-0.0359 -0.134805,-0.03637 -0.134678,-0.03684 -0.134548,-0.03731 -0.134417,-0.03778 -0.134284,-0.03825 -0.13415,-0.03872 -0.134014,-0.03919 -0.133877,-0.03966 -0.133737,-0.04012 -0.133596,-0.04059 -0.133454,-0.04106 -0.13331,-0.04152 -0.133164,-0.04199 -0.133016,-0.04245 -0.132868,-0.04292 -0.132717,-0.04338 -0.132564,-0.04384 -0.132411,-0.0443 -0.132256,-0.04477 -0.05917,-0.0202"
             style="fill:none;stroke:#000000;stroke-width:0.25;stroke-linecap:round;stroke-linejoin:round;stroke-miterlimit:10;stroke-dasharray:none;stroke-opacity:1"
             id="path34" /><path
             d="m 41.074801,23.458311 -0.132185,0.04497 -0.132342,0.04451 -0.132496,0.04405 -0.132649,0.04359 -0.1328,0.04312 -0.13295,0.04266 -0.133098,0.04219 -0.133245,0.04173 -0.133389,0.04126 -0.133533,0.0408 -0.133674,0.04033 -0.133815,0.03987 -0.133952,0.0394 -0.13409,0.03893 -0.134224,0.03846 -0.134358,0.03799 -0.13449,0.03752 -0.134619,0.03705 -0.134749,0.03658 -0.134875,0.03611 -0.135,0.03564 -0.135124,0.03517 -0.135246,0.0347 -0.135366,0.03423 -0.135485,0.03375 -0.135602,0.03328 -0.135718,0.03281 -0.135831,0.03233 -0.135943,0.03186 -0.136053,0.03138 -0.136162,0.03091 -0.136269,0.03043 -0.136375,0.02996 -0.136478,0.02948 -0.13658,0.029 -0.136681,0.02853 -0.13678,0.02805 -0.136877,0.02757 -0.136972,0.0271 -0.137065,0.02662 -0.137158,0.02614 -0.137249,0.02566 -0.137336,0.02518 -0.137424,0.0247 -0.13751,0.02422 -0.137593,0.02374 -0.137675,0.02326 -0.137756,0.02278 -0.137834,0.0223 -0.137911,0.02182 -0.137987,0.02134 -0.13806,0.02085 -0.138132,0.02037 -0.138203,0.01989 -0.13827,0.01941 -0.138338,0.01892 -0.138403,0.01844 -0.138467,0.01796 -0.138529,0.01747 -0.138588,0.01699 -0.138647,0.01651 -0.138704,0.01602 -0.138759,0.01554 -0.138812,0.01505 -0.138864,0.01457 -0.138914,0.01408 -0.138963,0.0136 -0.139009,0.01311 -0.139054,0.01263 -0.139097,0.01214 -0.139139,0.01166 -0.139178,0.01117 -0.139217,0.01069 -0.139253,0.0102 -0.139288,0.0097 -0.139321,0.0092 -0.139352,0.0087 -0.139382,0.0083 -0.13941,0.0078 -0.139437,0.0073 -0.13946,0.0068 -0.139484,0.0063 -0.139505,0.0058 -0.139524,0.0053 -0.139542,0.0048 -0.139558,0.0044 -0.139573,0.0039 -0.139585,0.0034 -0.139596,0.0029 -0.139606,0.0024 -0.139613,0.0019 -0.139619,0.0014 -0.139623,9.49e-4 -0.139625,4.62e-4 -0.06253,4.9e-5"
             style="fill:none;stroke:#000000;stroke-width:0.25;stroke-linecap:round;stroke-linejoin:round;stroke-miterlimit:10;stroke-dasharray:none;stroke-opacity:1"
             id="path36" /><path
             d="m 15.175199,4.7667623 0.132185,-0.044973 0.132342,-0.044511 0.132496,-0.044049 0.132649,-0.043586 0.1328,-0.043123 0.13295,-0.042659 0.133098,-0.042195 0.133245,-0.04173 0.133389,-0.041264 0.133533,-0.040798 0.133674,-0.040332 0.133815,-0.039865 0.133952,-0.039398 0.134089,-0.03893 0.134225,-0.038462 0.134358,-0.037993 0.134489,-0.037524 0.13462,-0.037054 0.134749,-0.036584 0.134875,-0.036113 0.135,-0.035642 0.135124,-0.035171 0.135246,-0.034699 0.135366,-0.034227 0.135485,-0.033754 0.135602,-0.033281 0.135717,-0.032807 0.135831,-0.032333 0.135943,-0.031859 0.136054,-0.031384 0.136162,-0.030909 0.136269,-0.030434 0.136375,-0.029958 0.136478,-0.029482 0.13658,-0.029005 0.136681,-0.028528 0.13678,-0.028051 0.136876,-0.027573 0.136972,-0.027095 0.137066,-0.026617 0.137158,-0.026138 0.137248,-0.025659 0.137337,-0.02518 0.137424,-0.024701 0.13751,-0.024221 0.137593,-0.023741 0.137675,-0.02326 0.137756,-0.022779 0.137834,-0.022299 0.137911,-0.021817 0.137987,-0.021336 0.13806,-0.020854 0.138132,-0.020372 0.138202,-0.01989 0.138271,-0.019407 0.138338,-0.018924 0.138403,-0.018441 0.138467,-0.017958 0.138528,-0.017475 0.138589,-0.016991 0.138647,-0.016507 0.138704,-0.016023 0.138759,-0.015539 0.138812,-0.015054 0.138864,-0.01457 0.138914,-0.014085 0.138963,-0.0136 0.139009,-0.013115 0.139054,-0.012629 0.139097,-0.012144 0.139138,-0.011658 0.139179,-0.011173 0.139217,-0.010687 0.139253,-0.010201 0.139288,-0.00971 0.139321,-0.00923 0.139352,-0.00874 0.139382,-0.00826 0.13941,-0.00777 0.139436,-0.00728 0.139461,-0.0068 0.139484,-0.00631 0.139505,-0.00582 0.139524,-0.00533 0.139542,-0.00485 0.139558,-0.00436 0.139573,-0.00387 0.139585,-0.00339 0.139596,-0.0029 0.139606,-0.00241 0.139613,-0.00192 0.139619,-0.00144 0.139623,-9.493e-4 0.139625,-4.62e-4 0.06253,-4.88e-5"
             style="fill:none;stroke:#000000;stroke-width:0.25;stroke-linecap:round;stroke-linejoin:round;stroke-miterlimit:10;stroke-dasharray:none;stroke-opacity:1"
             id="path38" /><path
             d="m 28.125,2.6125369 0.139626,2.437e-4 0.139624,7.31e-4 0.139621,0.00122 0.139616,0.00171 0.139609,0.00219 0.139601,0.00268 0.13959,0.00317 0.139579,0.00365 0.139564,0.00414 0.13955,0.00463 0.139532,0.00512 0.139514,0.0056 0.139493,0.00609 0.139472,0.00658 0.139447,0.00706 0.139422,0.00755 0.139395,0.00804 0.139366,0.00852 0.139335,0.00901 0.139303,0.0095 0.139269,0.00998 0.139233,0.010469 0.139196,0.010955 0.139157,0.011441 0.139116,0.011926 0.139073,0.012412 0.139029,0.012897 0.138984,0.013383 0.138936,0.013868 0.138887,0.014352 0.138835,0.014837 0.138783,0.015322 0.138729,0.015806 0.138673,0.01629 0.138615,0.016774 0.138555,0.017258 0.138495,0.017742 0.138432,0.018225 0.138367,0.018708 0.138301,0.019191 0.138233,0.019674 0.138164,0.020156 0.138093,0.020638 0.138019,0.02112 0.137946,0.021602 0.137868,0.022083 0.137791,0.022564 0.137712,0.023045 0.13763,0.023526 0.137547,0.024006 0.137463,0.024486 0.137376,0.024965 0.137288,0.025445 0.137199,0.025924 0.137107,0.026403 0.137014,0.026881 0.13692,0.027359 0.136823,0.027837 0.136725,0.028314 0.136626,0.028792 0.136524,0.029268 0.136421,0.029745 0.136317,0.030221 0.13621,0.030696 0.136102,0.031172 0.135993,0.031646 0.135881,0.032121 0.135768,0.032595 0.135654,0.033069 0.135538,0.033542 0.135419,0.034015 0.1353,0.034488 0.135179,0.03496 0.135056,0.035431 0.134932,0.035902 0.134805,0.036373 0.134678,0.036844 0.134548,0.037314 0.134417,0.037783 0.134284,0.038252 0.13415,0.03872 0.134014,0.039189 0.133877,0.039656 0.133737,0.040123 0.133596,0.04059 0.133454,0.041056 0.13331,0.041521 0.133164,0.041986 0.133016,0.042451 0.132868,0.042915 0.132717,0.043379 0.132564,0.043842 0.132411,0.044304 0.132256,0.044766 0.05917,0.020196"
             style="fill:none;stroke:#000000;stroke-width:0.25;stroke-linecap:round;stroke-linejoin:round;stroke-miterlimit:10;stroke-dasharray:none;stroke-opacity:1"
             id="path40" /><path
             d="m 10.59609,17.2673 1.666295,3.573381"
             style="fill:none;stroke:#000000;stroke-width:0.25;stroke-linecap:round;stroke-linejoin:round;stroke-miterlimit:10;stroke-dasharray:none;stroke-opacity:1"
             id="path42" /><path
             d="m 45.65391,17.2673 -1.666295,3.573381"
             style="fill:none;stroke:#000000;stroke-width:0.25;stroke-linecap:round;stroke-linejoin:round;stroke-miterlimit:10;stroke-dasharray:none;stroke-opacity:1"
             id="path44" /><path
             d="M 10.59609,10.957773 12.262385,7.3843928"
             style="fill:none;stroke:#000000;stroke-width:0.25;stroke-linecap:round;stroke-linejoin:round;stroke-miterlimit:10;stroke-dasharray:none;stroke-opacity:1"
             id="path46" /><path
             d="M 45.65391,10.957773 43.987615,7.3843928"
             style="fill:none;stroke:#000000;stroke-width:0.25;stroke-linecap:round;stroke-linejoin:round;stroke-miterlimit:10;stroke-dasharray:none;stroke-opacity:1"
             id="path48" /><path
             d="m 8.7834748,16.112537 0.1033513,0.0027 0.1030751,0.008 0.1025235,0.01332 0.101698,0.01861 0.1006006,0.02383 0.099235,0.029 0.097603,0.03409 0.095711,0.03909 0.093563,0.04398 0.091165,0.04876 0.088524,0.0534 0.085646,0.05791 0.082539,0.06226 0.07921,0.06644 0.07567,0.07044 0.07193,0.07426 0.068,0.07788 0.06388,0.08129 0.0596,0.08448 0.05515,0.08745 0.05056,0.09018 0.04338,0.0874"
             style="fill:none;stroke:#000000;stroke-width:0.25;stroke-linecap:round;stroke-linejoin:round;stroke-miterlimit:10;stroke-dasharray:none;stroke-opacity:1"
             id="path50" /><path
             d="m 45.65391,17.2673 0.0461,-0.09254 0.05082,-0.09003 0.05541,-0.08729 0.05984,-0.08431 0.06412,-0.0811 0.06822,-0.07768 0.07215,-0.07405 0.07588,-0.07022 0.0794,-0.06621 0.08272,-0.06202 0.08581,-0.05766 0.08868,-0.05315 0.09131,-0.04849 0.09369,-0.04371 0.09582,-0.03881 0.0977,-0.03381 0.09932,-0.02871 0.10067,-0.02354 0.101751,-0.01831 0.102562,-0.01303 0.103098,-0.0077 0.09754,-0.0024"
             style="fill:none;stroke:#000000;stroke-width:0.25;stroke-linecap:round;stroke-linejoin:round;stroke-miterlimit:10;stroke-dasharray:none;stroke-opacity:1"
             id="path52" /><path
             d="m 10.59609,10.957773 -0.0461,0.09254 -0.05082,0.09003 -0.0554,0.08729 -0.05984,0.08431 -0.06412,0.0811 -0.06822,0.07768 -0.07215,0.07405 -0.07588,0.07022 -0.0794,0.06621 -0.08272,0.06202 -0.085814,0.05766 -0.088679,0.05315 -0.091307,0.04849 -0.093691,0.04371 -0.095824,0.03881 -0.097702,0.03381 -0.099318,0.02871 -0.1006695,0.02354 -0.1017516,0.01831 -0.1025618,0.01303 -0.103098,0.0077 -0.097545,0.0024"
             style="fill:none;stroke:#000000;stroke-width:0.25;stroke-linecap:round;stroke-linejoin:round;stroke-miterlimit:10;stroke-dasharray:none;stroke-opacity:1"
             id="path54" /><path
             d="m 47.466525,12.112537 -0.103351,-0.0027 -0.103075,-0.008 -0.102524,-0.01333 -0.101698,-0.01861 -0.1006,-0.02384 -0.09924,-0.029 -0.0976,-0.03409 -0.09571,-0.03909 -0.09356,-0.04398 -0.09117,-0.04876 -0.08852,-0.05341 -0.08565,-0.05791 -0.08254,-0.06226 -0.07921,-0.06644 -0.07567,-0.07044 -0.07193,-0.07426 -0.068,-0.07788 -0.06388,-0.08129 -0.0596,-0.08448 -0.05515,-0.08745 -0.05056,-0.09018 -0.04338,-0.0874"
             style="fill:none;stroke:#000000;stroke-width:0.25;stroke-linecap:round;stroke-linejoin:round;stroke-miterlimit:10;stroke-dasharray:none;stroke-opacity:1"
             id="path56" /><path
             d="m 15.175199,23.458311 -0.09748,-0.03448 -0.09674,-0.03649 -0.09597,-0.03848 -0.09515,-0.04046 -0.09429,-0.04242 -0.0934,-0.04436 -0.09246,-0.04628 -0.09148,-0.04818 -0.09047,-0.05007 -0.08941,-0.05193 -0.08832,-0.05376 -0.08719,-0.05558 -0.08602,-0.05737 -0.08481,-0.05914 -0.08358,-0.06088 -0.0823,-0.06259 -0.08099,-0.06428 -0.07964,-0.06594 -0.07826,-0.06757 -0.07684,-0.06918 -0.0754,-0.07075 -0.07392,-0.0723 -0.07241,-0.07381 -0.07087,-0.07529 -0.06929,-0.07674 -0.06769,-0.07815 -0.06606,-0.07954 -0.0644,-0.08089 -0.06272,-0.0822 -0.061,-0.08348 -0.05926,-0.08472 -0.0575,-0.08593 -0.05571,-0.0871 -0.0539,-0.08824 -0.05206,-0.08933 -0.0502,-0.09039 -0.04832,-0.09141 -0.04642,-0.09239 -0.04087,-0.08553"
             style="fill:none;stroke:#000000;stroke-width:0.25;stroke-linecap:round;stroke-linejoin:round;stroke-miterlimit:10;stroke-dasharray:none;stroke-opacity:1"
             id="path58" /><path
             d="m 43.987615,20.840681 -0.04466,0.09325 -0.04658,0.09231 -0.04848,0.09132 -0.05036,0.0903 -0.05222,0.08924 -0.05405,0.08814 -0.05586,0.08701 -0.05765,0.08583 -0.05941,0.08462 -0.06115,0.08338 -0.06286,0.08209 -0.06454,0.08078 -0.0662,0.07942 -0.06783,0.07804 -0.06943,0.07662 -0.071,0.07517 -0.07254,0.07368 -0.07404,0.07217 -0.07552,0.07062 -0.07696,0.06904 -0.07838,0.06744 -0.07975,0.0658 -0.0811,0.06414 -0.08241,0.06245 -0.08368,0.06073 -0.08492,0.05899 -0.08612,0.05722 -0.08728,0.05543 -0.08841,0.05361 -0.0895,0.05177 -0.09055,0.04991 -0.09156,0.04803 -0.09254,0.04612 -0.09347,0.0442 -0.09437,0.04226 -0.09522,0.0403 -0.09603,0.03832 -0.0968,0.03633 -0.08939,0.03154"
             style="fill:none;stroke:#000000;stroke-width:0.25;stroke-linecap:round;stroke-linejoin:round;stroke-miterlimit:10;stroke-dasharray:none;stroke-opacity:1"
             id="path60" /><path
             d="m 12.262385,7.3843928 0.04466,-0.093251 0.04658,-0.092308 0.04848,-0.091325 0.05036,-0.090303 0.05222,-0.089242 0.05405,-0.088144 0.05586,-0.087007 0.05765,-0.085833 0.05941,-0.084623 0.06115,-0.083376 0.06286,-0.082094 0.06454,-0.080777 0.0662,-0.079425 0.06783,-0.078039 0.06943,-0.07662 0.071,-0.075168 0.07254,-0.073684 0.07404,-0.072168 0.07552,-0.070621 0.07696,-0.069045 0.07837,-0.067439 0.07975,-0.065804 0.0811,-0.06414 0.0824,-0.06245 0.08368,-0.060732 0.08492,-0.058989 0.08612,-0.05722 0.08728,-0.055428 0.08841,-0.053611 0.0895,-0.051771 0.09055,-0.04991 0.09157,-0.048026 0.09254,-0.046123 0.09347,-0.044199 0.09437,-0.042257 0.09522,-0.040297 0.09603,-0.038319 0.0968,-0.036325 0.08939,-0.031538"
             style="fill:none;stroke:#000000;stroke-width:0.25;stroke-linecap:round;stroke-linejoin:round;stroke-miterlimit:10;stroke-dasharray:none;stroke-opacity:1"
             id="path62" /><path
             d="m 41.074801,4.7667623 0.09748,0.034484 0.09674,0.036492 0.09597,0.038484 0.09515,0.040461 0.09429,0.042419 0.0934,0.04436 0.09246,0.046282 0.09148,0.048184 0.09047,0.050065 0.08941,0.051925 0.08832,0.053763 0.08719,0.055578 0.08602,0.057369 0.08481,0.059135 0.08358,0.060876 0.0823,0.062591 0.08099,0.06428 0.07964,0.065941 0.07826,0.067573 0.07684,0.069177 0.0754,0.070751 0.07392,0.072295 0.07241,0.073808 0.07087,0.07529 0.06929,0.076739 0.06769,0.078156 0.06606,0.079539 0.0644,0.080888 0.06272,0.082202 0.061,0.083481 0.05927,0.084725 0.0575,0.085932 0.05571,0.087103 0.0539,0.088236 0.05206,0.089332 0.0502,0.090389 0.04832,0.091408 0.04642,0.092388 0.04087,0.085529"
             style="fill:none;stroke:#000000;stroke-width:0.25;stroke-linecap:round;stroke-linejoin:round;stroke-miterlimit:10;stroke-dasharray:none;stroke-opacity:1"
             id="path64" /><path
             d="M 8.7834748,16.112537 H 10.057615"
             style="fill:none;stroke:#000000;stroke-width:0.13;stroke-linecap:round;stroke-linejoin:round;stroke-miterlimit:10;stroke-dasharray:none;stroke-opacity:1"
             id="path66" /><path
             d="M 10.057615,16.112537 10.59609,17.2673"
             style="fill:none;stroke:#000000;stroke-width:0.13;stroke-linecap:round;stroke-linejoin:round;stroke-miterlimit:10;stroke-dasharray:none;stroke-opacity:1"
             id="path68" /><path
             d="m 45.65391,17.2673 0.538475,-1.154763"
             style="fill:none;stroke:#000000;stroke-width:0.13;stroke-linecap:round;stroke-linejoin:round;stroke-miterlimit:10;stroke-dasharray:none;stroke-opacity:1"
             id="path70" /><path
             d="m 46.192385,16.112537 h 1.27414"
             style="fill:none;stroke:#000000;stroke-width:0.13;stroke-linecap:round;stroke-linejoin:round;stroke-miterlimit:10;stroke-dasharray:none;stroke-opacity:1"
             id="path72" /></g><g
           id="g74"
           transform="matrix(1.0732955,0.61575059,-0.61671465,1.0716177,746.90341,748.87541)"><g
             id="g76"><text
               transform="translate(0,143)"
               style="font-variant:normal;font-weight:normal;font-size:133px;font-family:'Noto Sans';-inkscape-font-specification:NotoSans-Regular;writing-mode:lr-tb;fill:#008000;fill-opacity:1;fill-rule:nonzero;stroke:none"
               id="text80"><tspan
                 x="0"
                 y="0"
                 id="tspan78">r</tspan></text></g></g><g
           id="g82"
           transform="matrix(47.216667,0,0,-47.142857,0,1650)" /><g
           id="g84"
           transform="matrix(0.42931821,0.24630024,-0.24668586,0.4286471,752.9367,874.63839)"><g
             id="g86"><text
               transform="translate(0,143)"
               style="font-variant:normal;font-weight:normal;font-size:133px;font-family:'Noto Sans';-inkscape-font-specification:NotoSans-Regular;writing-mode:lr-tb;fill:#008000;fill-opacity:1;fill-rule:nonzero;stroke:none"
               id="text90"><tspan
                 x="0"
                 y="0"
                 id="tspan88">1</tspan></text></g></g><g
           id="g92"
           transform="matrix(47.216667,0,0,-47.142857,0,1650)"><path
             d="M 8.7834748,18.112537 16.530652,13.661016"
             style="fill:none;stroke:#008000;stroke-width:0.13;stroke-linecap:round;stroke-linejoin:round;stroke-miterlimit:10;stroke-dasharray:none;stroke-opacity:1"
             id="path94" /></g><g
           id="g96"><path
             d="m 496.60543,843.09734 112.1414,41.70174 -19.58521,34.0317 z"
             style="fill:#008000;fill-opacity:1;fill-rule:evenodd;stroke:none"
             id="path98" /></g><g
           id="g100"
           transform="matrix(47.216667,0,0,-47.142857,0,1650)"><path
             d="M 10.517588,17.116117 12.892626,16.231535 12.477832,15.50965 Z"
             style="fill:#008000;fill-opacity:1;fill-rule:evenodd;stroke:#008000;stroke-width:0.13;stroke-linecap:round;stroke-linejoin:round;stroke-miterlimit:10;stroke-dasharray:none;stroke-opacity:1"
             id="path102" /></g><g
           id="g104"
           transform="matrix(0.64359146,1.0557449,-1.0573979,0.64258539,697.74646,214.35016)"><g
             id="g106"><text
               transform="translate(0,143)"
               style="font-variant:normal;font-weight:normal;font-size:133px;font-family:'Noto Sans';-inkscape-font-specification:NotoSans-Regular;writing-mode:lr-tb;fill:#008000;fill-opacity:1;fill-rule:nonzero;stroke:none"
               id="text110"><tspan
                 x="0"
                 y="0"
                 id="tspan108">r</tspan></text></g></g><g
           id="g112"
           transform="matrix(47.216667,0,0,-47.142857,0,1650)" /><g
           id="g114"
           transform="matrix(0.25743658,0.42229798,-0.42295915,0.25703416,642.36897,327.46748)"><g
             id="g116"><text
               transform="translate(0,143)"
               style="font-variant:normal;font-weight:normal;font-size:133px;font-family:'Noto Sans';-inkscape-font-specification:NotoSans-Regular;writing-mode:lr-tb;fill:#008000;fill-opacity:1;fill-rule:nonzero;stroke:none"
               id="text120"><tspan
                 x="0"
                 y="0"
                 id="tspan118">2</tspan></text></g></g><g
           id="g122"
           transform="matrix(47.216667,0,0,-47.142857,0,1650)"><path
             d="m 16.793924,18.727589 -6.324896,10.39158"
             style="fill:none;stroke:#008000;stroke-width:0.13;stroke-linecap:round;stroke-linejoin:round;stroke-miterlimit:10;stroke-dasharray:none;stroke-opacity:1"
             id="path124" /></g><g
           id="g126"><path
             d="m 670.20815,565.77756 -78.16254,-90.47178 33.58012,-20.40679 z"
             style="fill:#008000;fill-opacity:1;fill-rule:evenodd;stroke:none"
             id="path128" /></g><g
           id="g130"
           transform="matrix(47.216667,0,0,-47.142857,0,1650)"><path
             d="m 14.194313,22.998658 -1.655401,1.919098 0.711192,0.432871 z"
             style="fill:#008000;fill-opacity:1;fill-rule:evenodd;stroke:#008000;stroke-width:0.13;stroke-linecap:round;stroke-linejoin:round;stroke-miterlimit:10;stroke-dasharray:none;stroke-opacity:1"
             id="path132" /></g><g
           id="g134"
           transform="matrix(0.22725812,1.2149191,-1.2168213,0.22690287,1216.5324,608.39662)"><g
             id="g136"><text
               transform="translate(0,143)"
               style="font-variant:normal;font-weight:normal;font-size:133px;font-family:'Noto Sans';-inkscape-font-specification:NotoSans-Regular;writing-mode:lr-tb;fill:#008000;fill-opacity:1;fill-rule:nonzero;stroke:none"
               id="text140"><tspan
                 x="0"
                 y="0"
                 id="tspan138">r</tspan></text></g></g><g
           id="g142"
           transform="matrix(47.216667,0,0,-47.142857,0,1650)" /><g
           id="g144"
           transform="matrix(0.09090325,0.48596765,-0.48672851,0.09076115,1124.6105,694.59053)"><g
             id="g146"><text
               transform="translate(0,143)"
               style="font-variant:normal;font-weight:normal;font-size:133px;font-family:'Noto Sans';-inkscape-font-specification:NotoSans-Regular;writing-mode:lr-tb;fill:#008000;fill-opacity:1;fill-rule:nonzero;stroke:none"
               id="text150"><tspan
                 x="0"
                 y="0"
                 id="tspan148">3</tspan></text></g></g><g
           id="g152"
           transform="matrix(47.216667,0,0,-47.142857,0,1650)"><path
             d="m 22.596499,15.234549 -1.811384,9.698798"
             style="fill:none;stroke:#008000;stroke-width:0.13;stroke-linecap:round;stroke-linejoin:round;stroke-miterlimit:10;stroke-dasharray:none;stroke-opacity:1"
             id="path154" /></g><g
           id="g156"><path
             d="m 981.40387,474.57079 40.99263,112.25102 -38.64293,7.20582 z"
             style="fill:#008000;fill-opacity:1;fill-rule:evenodd;stroke:none"
             id="path158" /></g><g
           id="g160"
           transform="matrix(47.216667,0,0,-47.142857,0,1650)"><path
             d="m 20.785115,24.933347 0.868183,-2.381082 -0.818418,-0.152851 -0.04976,2.533933 z"
             style="fill:#008000;fill-opacity:1;fill-rule:evenodd;stroke:#008000;stroke-width:0.13;stroke-linecap:round;stroke-linejoin:round;stroke-miterlimit:10;stroke-dasharray:none;stroke-opacity:1"
             id="path162" /></g><g
           id="g164"
           transform="matrix(0.66510232,-1.0423695,1.0440015,0.66406262,1628.1715,617.93157)"><g
             id="g166"><text
               transform="translate(0,143)"
               style="font-variant:normal;font-weight:normal;font-size:133px;font-family:'Noto Sans';-inkscape-font-specification:NotoSans-Regular;writing-mode:lr-tb;fill:#008000;fill-opacity:1;fill-rule:nonzero;stroke:none"
               id="text170"><tspan
                 x="0"
                 y="0"
                 id="tspan168">α</tspan></text></g></g><g
           id="g172"
           transform="matrix(47.216667,0,0,-47.142857,0,1650)" /><g
           id="g174"
           transform="matrix(0.26604093,-0.41694781,0.41760061,0.26562505,1772.1397,589.66186)"><g
             id="g176"><text
               transform="translate(0,143)"
               style="font-variant:normal;font-weight:normal;font-size:133px;font-family:'Noto Sans';-inkscape-font-specification:NotoSans-Regular;writing-mode:lr-tb;fill:#008000;fill-opacity:1;fill-rule:nonzero;stroke:none"
               id="text180"><tspan
                 x="0"
                 y="0"
                 id="tspan178">1</tspan></text></g></g><g
           id="g182"
           transform="matrix(47.216667,0,0,-47.142857,0,1650)"><path
             d="m 43.723478,21.407123 -1.696897,3.639008"
             style="fill:none;stroke:#008000;stroke-width:0.13;stroke-linecap:round;stroke-linejoin:round;stroke-miterlimit:10;stroke-dasharray:none;stroke-opacity:1"
             id="path184" /><path
             d="m 44.293244,16.112537 h -7.95799"
             style="fill:none;stroke:#008000;stroke-width:0.13;stroke-linecap:round;stroke-linejoin:round;stroke-miterlimit:10;stroke-dasharray:none;stroke-opacity:1"
             id="path186" /><path
             d="m 42.554854,23.913246 -0.09344,-0.04426 -0.09291,-0.04538 -0.09235,-0.04649 -0.09179,-0.0476 -0.09121,-0.0487 -0.09062,-0.04979 -0.09002,-0.05087 -0.0894,-0.05195 -0.08877,-0.05302 -0.08812,-0.05409 -0.08747,-0.05514 -0.0868,-0.05618 -0.08612,-0.05722 -0.08542,-0.05826 -0.08472,-0.05928 -0.084,-0.06029 -0.08327,-0.0613 -0.08253,-0.06229 -0.08177,-0.06328 -0.08101,-0.06425 -0.08023,-0.06522 -0.07944,-0.06618 -0.07864,-0.06713 -0.07783,-0.06807 -0.077,-0.069 -0.07617,-0.06992 -0.07532,-0.07083 -0.07447,-0.07173 -0.0736,-0.07262 -0.07272,-0.0735 -0.07184,-0.07437 -0.07094,-0.07523 -0.07003,-0.07607 -0.06911,-0.07691 -0.06818,-0.07773 -0.06724,-0.07855 -0.06629,-0.07935 -0.06533,-0.08014 -0.06437,-0.08092 -0.06339,-0.08169 -0.0624,-0.08244 -0.06141,-0.08319 -0.06041,-0.08392 -0.05939,-0.08464 -0.05837,-0.08534 -0.05734,-0.08604 -0.05631,-0.08672 -0.05526,-0.08739 -0.05421,-0.08805 -0.05314,-0.08869 -0.05208,-0.08933 -0.051,-0.08995 -0.04991,-0.09055 -0.04882,-0.09114 -0.04772,-0.09172 -0.04662,-0.09229 -0.04551,-0.09284 -0.04439,-0.09338 -0.04326,-0.09391 -0.04213,-0.09442 -0.04099,-0.09492 -0.03985,-0.09541 -0.0387,-0.09588 -0.03755,-0.09634 -0.03639,-0.09678 -0.03522,-0.09721 -0.03405,-0.09763 -0.03288,-0.09803 -0.0317,-0.09842 -0.03051,-0.09879 -0.02932,-0.09915 -0.02813,-0.0995 -0.02693,-0.09983 -0.02573,-0.100143 -0.02453,-0.100446 -0.02332,-0.100733 -0.02211,-0.101005 -0.02089,-0.101264 -0.01967,-0.101508 -0.01845,-0.101737 -0.01723,-0.101951 -0.016,-0.102151 -0.01478,-0.102335 -0.01355,-0.102506 -0.01231,-0.102661 -0.01108,-0.102801 -0.0098,-0.102927 -0.0086,-0.103038 -0.0074,-0.103134 -0.0061,-0.103215 -0.0049,-0.103281 -0.0036,-0.103333 -0.0024,-0.103369 -0.0012,-0.10339 -1.18e-4,-0.04513"
             style="fill:none;stroke:#008000;stroke-width:0.13;stroke-linecap:round;stroke-linejoin:round;stroke-miterlimit:10;stroke-dasharray:none;stroke-opacity:1"
             id="path188" /></g><g
           id="g190"><path
             d="m 2009.2984,522.66125 -87.839,81.14096 -21.5948,-32.79729 z"
             style="fill:#008000;fill-opacity:1;fill-rule:evenodd;stroke:none"
             id="path192" /></g><g
           id="g194"
           transform="matrix(47.216667,0,0,-47.142857,0,1650)"><path
             d="m 42.554854,23.913246 -1.860338,-1.721172 -0.457355,0.6957 z"
             style="fill:#008000;fill-opacity:1;fill-rule:evenodd;stroke:#008000;stroke-width:0.13;stroke-linecap:round;stroke-linejoin:round;stroke-miterlimit:10;stroke-dasharray:none;stroke-opacity:1"
             id="path196" /></g><g
           id="g198"><path
             d="m 1774.6504,890.40898 -2.3658,-119.45653 38.8973,5.68016 z"
             style="fill:#008000;fill-opacity:1;fill-rule:evenodd;stroke:none"
             id="path200" /></g><g
           id="g202"
           transform="matrix(47.216667,0,0,-47.142857,0,1650)"><path
             d="m 37.585254,16.112537 -0.05011,2.533926 0.823805,-0.120488 -0.773699,-2.413438 z"
             style="fill:#008000;fill-opacity:1;fill-rule:evenodd;stroke:#008000;stroke-width:0.13;stroke-linecap:round;stroke-linejoin:round;stroke-miterlimit:10;stroke-dasharray:none;stroke-opacity:1"
             id="path204" /></g><g
           id="g206"
           transform="matrix(1.2378612,0,0,1.2359261,1235.0325,24.207255)"><g
             id="g208"><text
               transform="translate(0,143)"
               style="font-variant:normal;font-weight:normal;font-size:133px;font-family:'Noto Sans';-inkscape-font-specification:NotoSans-Regular;writing-mode:lr-tb;fill:#008000;fill-opacity:1;fill-rule:nonzero;stroke:none"
               id="text212"><tspan
                 x="0"
                 y="0"
                 id="tspan210">b</tspan></text></g></g><g
           id="g214"
           transform="matrix(47.216667,0,0,-47.142857,0,1650)" /><g
           id="g216"
           transform="matrix(0.49514446,0,0,0.49437045,1336.2663,130.24972)"><g
             id="g218"><text
               transform="translate(0,143)"
               style="font-variant:normal;font-weight:normal;font-size:133px;font-family:'Noto Sans';-inkscape-font-specification:NotoSans-Regular;writing-mode:lr-tb;fill:#008000;fill-opacity:1;fill-rule:nonzero;stroke:none"
               id="text222"><tspan
                 x="0 71.015625"
                 y="0"
                 sodipodi:role="line"
                 id="tspan220">kn</tspan></text></g></g><g
           id="g224"
           transform="matrix(47.216667,0,0,-47.142857,0,1650)"><path
             d="m 10.057615,30.112537 h 36.13477"
             style="fill:none;stroke:#008000;stroke-width:0.13;stroke-linecap:round;stroke-linejoin:round;stroke-miterlimit:10;stroke-dasharray:none;stroke-opacity:1"
             id="path226" /></g><g
           id="g228"><path
             d="m 474.88707,230.40898 118.04167,-19.62485 v 39.24969 z"
             style="fill:#008000;fill-opacity:1;fill-rule:evenodd;stroke:none"
             id="path230" /></g><g
           id="g232"
           transform="matrix(47.216667,0,0,-47.142857,0,1650)"><path
             d="m 10.057615,30.112537 2.5,0.416284 v -0.832569 z"
             style="fill:#008000;fill-opacity:1;fill-rule:evenodd;stroke:#008000;stroke-width:0.13;stroke-linecap:round;stroke-linejoin:round;stroke-miterlimit:10;stroke-dasharray:none;stroke-opacity:1"
             id="path234" /></g><g
           id="g236"><path
             d="m 2181.0504,230.40898 -118.0416,19.62484 v -39.24969 z"
             style="fill:#008000;fill-opacity:1;fill-rule:evenodd;stroke:none"
             id="path238" /></g><g
           id="g240"
           transform="matrix(47.216667,0,0,-47.142857,0,1650)"><path
             d="m 46.192385,30.112537 -2.5,-0.416285 v 0.832569 z"
             style="fill:#008000;fill-opacity:1;fill-rule:evenodd;stroke:#008000;stroke-width:0.13;stroke-linecap:round;stroke-linejoin:round;stroke-miterlimit:10;stroke-dasharray:none;stroke-opacity:1"
             id="path242" /><path
             d="m 10.057615,16.737537 v 14.625"
             style="fill:none;stroke:#008000;stroke-width:0.13;stroke-linecap:round;stroke-linejoin:round;stroke-miterlimit:10;stroke-dasharray:none;stroke-opacity:1"
             id="path244" /><path
             d="m 46.192385,16.737537 v 14.625"
             style="fill:none;stroke:#008000;stroke-width:0.13;stroke-linecap:round;stroke-linejoin:round;stroke-miterlimit:10;stroke-dasharray:none;stroke-opacity:1"
             id="path246" /></g><g
           id="g248"
           transform="matrix(0,-1.2359261,1.2378612,0,2304.5783,714.65256)"><g
             id="g250"><text
               transform="translate(0,143)"
               style="font-variant:normal;font-weight:normal;font-size:133px;font-family:'Noto Sans';-inkscape-font-specification:NotoSans-Regular;writing-mode:lr-tb;fill:#008000;fill-opacity:1;fill-rule:nonzero;stroke:none"
               id="text254"><tspan
                 x="0"
                 y="0"
                 id="tspan252">d</tspan></text></g></g><g
           id="g256"
           transform="matrix(47.216667,0,0,-47.142857,0,1650)"><path
             d="m 53.125,16.112537 v 9.5"
             style="fill:none;stroke:#008000;stroke-width:0.13;stroke-linecap:round;stroke-linejoin:round;stroke-miterlimit:10;stroke-dasharray:none;stroke-opacity:1"
             id="path258" /></g><g
           id="g260"><path
             d="m 2508.3854,890.40898 -19.6556,-117.85715 h 39.3112 z"
             style="fill:#008000;fill-opacity:1;fill-rule:evenodd;stroke:none"
             id="path262" /></g><g
           id="g264"
           transform="matrix(47.216667,0,0,-47.142857,0,1650)"><path
             d="m 53.125,16.112537 -0.416285,2.5 h 0.83257 z"
             style="fill:#008000;fill-opacity:1;fill-rule:evenodd;stroke:#008000;stroke-width:0.13;stroke-linecap:round;stroke-linejoin:round;stroke-miterlimit:10;stroke-dasharray:none;stroke-opacity:1"
             id="path266" /></g><g
           id="g268"><path
             d="m 2508.3854,442.55183 19.6556,117.85715 h -39.3112 z"
             style="fill:#008000;fill-opacity:1;fill-rule:evenodd;stroke:none"
             id="path270" /></g><g
           id="g272"
           transform="matrix(47.216667,0,0,-47.142857,0,1650)"><path
             d="m 53.125,25.612537 0.416285,-2.5 h -0.83257 z"
             style="fill:#008000;fill-opacity:1;fill-rule:evenodd;stroke:#008000;stroke-width:0.13;stroke-linecap:round;stroke-linejoin:round;stroke-miterlimit:10;stroke-dasharray:none;stroke-opacity:1"
             id="path274" /><path
             d="m 51.25,16.112537 h 3.125"
             style="fill:none;stroke:#008000;stroke-width:0.13;stroke-linecap:round;stroke-linejoin:round;stroke-miterlimit:10;stroke-dasharray:none;stroke-opacity:1"
             id="path276" /><path
             d="M 28.75,25.612537 H 54.375"
             style="fill:none;stroke:#008000;stroke-width:0.13;stroke-linecap:round;stroke-linejoin:round;stroke-miterlimit:10;stroke-dasharray:none;stroke-opacity:1"
             id="path278" /></g></g></g></g></svg>
