<?xml version="1.0" encoding="UTF-8" standalone="no"?>
<!-- Created with Inkscape (http://www.inkscape.org/) -->

<svg
   version="1.1"
   id="svg2"
   xml:space="preserve"
   width="226.66667"
   height="132"
   viewBox="0 0 226.66667 132"
   sodipodi:docname="swedish_oval.svg"
   inkscape:version="1.1.2 (0a00cf5339, 2022-02-04)"
   xmlns:inkscape="http://www.inkscape.org/namespaces/inkscape"
   xmlns:sodipodi="http://sodipodi.sourceforge.net/DTD/sodipodi-0.dtd"
   xmlns="http://www.w3.org/2000/svg"
   xmlns:svg="http://www.w3.org/2000/svg"><defs
     id="defs6" /><sodipodi:namedview
     id="namedview4"
     pagecolor="#ffffff"
     bordercolor="#666666"
     borderopacity="1.0"
     inkscape:pageshadow="2"
     inkscape:pageopacity="0.0"
     inkscape:pagecheckerboard="0"
     showgrid="false"
     inkscape:zoom="4.7727273"
     inkscape:cx="113.35238"
     inkscape:cy="66"
     inkscape:window-width="1920"
     inkscape:window-height="1007"
     inkscape:window-x="0"
     inkscape:window-y="0"
     inkscape:window-maximized="1"
     inkscape:current-layer="g8" /><g
     id="g8"
     inkscape:groupmode="layer"
     inkscape:label="swedish_oval"
     transform="matrix(1.3333333,0,0,-1.3333333,0,132)"><g
       id="g10"
       transform="matrix(0.06,0,0,-0.06,0,99)"><g
         id="g12"><g
           id="g14" /></g><g
         id="g16"><g
           id="g18" /><g
           id="g20"
           transform="matrix(47.216667,0,0,-47.142857,0,1650)"><path
             d="m 6.125,13.1875 h 1.05 m 0.3835,0 h 0.013 m 0.3835,0 h 1.56 m 0.3835,0 h 0.013 m 0.3835,0 h 1.56 m 0.3835,0 h 0.013 m 0.3835,0 h 1.56 m 0.3835,0 h 0.013 m 0.3835,0 h 1.56 m 0.3835,0 h 0.013 m 0.3835,0 h 1.56 m 0.3835,0 h 0.013 m 0.3835,0 h 1.56 m 0.3835,0 h 0.013 m 0.3835,0 h 1.56 m 0.3835,0 h 0.013 m 0.3835,0 h 1.56 m 0.3835,0 h 0.013 m 0.3835,0 h 1.56 m 0.3835,0 h 0.013 m 0.3835,0 h 1.56 m 0.3835,0 h 0.013 m 0.3835,0 h 1.56 m 0.3835,0 h 0.013 m 0.3835,0 h 1.56 m 0.3835,0 h 0.013 m 0.3835,0 h 1.56 m 0.3835,0 h 0.013 m 0.3835,0 h 1.56 m 0.3835,0 h 0.013 m 0.3835,0 h 1.56 m 0.3835,0 h 0.013 m 0.3835,0 h 1.56 m 0.3835,0 h 0.013 m 0.3835,0 h 1.56 m 0.3835,0 h 0.013 m 0.3835,0 h 1.56 m 0.3835,0 h 0.013 m 0.3835,0 h 1.05"
             style="fill:none;stroke:#000000;stroke-width:0.13;stroke-linecap:round;stroke-linejoin:round;stroke-miterlimit:10;stroke-dasharray:none;stroke-opacity:1"
             id="path22" /></g><g
           id="g24"
           transform="matrix(0.47370896,-1.1418468,1.1436346,0.47296845,1630.11,750.48791)"><g
             id="g26"><text
               transform="translate(0,143)"
               style="font-variant:normal;font-weight:normal;font-size:133px;font-family:'Noto Sans';-inkscape-font-specification:NotoSans-Regular;writing-mode:lr-tb;fill:#800000;fill-opacity:1;fill-rule:nonzero;stroke:none"
               id="text30"><tspan
                 x="0"
                 y="0"
                 id="tspan28">α</tspan></text></g></g><g
           id="g32"
           transform="matrix(47.216667,0,0,-47.142857,0,1650)" /><g
           id="g34"
           transform="matrix(0.18948358,-0.45673874,0.45745384,0.18918738,1766.9743,697.68694)"><g
             id="g36"><text
               transform="translate(0,143)"
               style="font-variant:normal;font-weight:normal;font-size:133px;font-family:'Noto Sans';-inkscape-font-specification:NotoSans-Regular;writing-mode:lr-tb;fill:#800000;fill-opacity:1;fill-rule:nonzero;stroke:none"
               id="text40"><tspan
                 x="0"
                 y="0"
                 id="tspan38">1</tspan></text></g></g><g
           id="g42"
           transform="matrix(47.216667,0,0,-47.142857,0,1650)"><path
             d="m 41.238515,21.573985 0.751166,-0.751166"
             style="fill:none;stroke:#800000;stroke-width:0.13;stroke-linecap:round;stroke-linejoin:round;stroke-miterlimit:10;stroke-dasharray:none;stroke-opacity:1"
             id="path44" /><path
             d="m 45.343146,15.1875 h -8.18769"
             style="fill:none;stroke:#800000;stroke-width:0.13;stroke-linecap:round;stroke-linejoin:round;stroke-miterlimit:10;stroke-dasharray:none;stroke-opacity:1"
             id="path46" /><path
             d="m 41.105798,21.706702 -0.104428,-0.106128 -0.102701,-0.107801 -0.100946,-0.109445 -0.09917,-0.111061 -0.09736,-0.112648 -0.09553,-0.114206 -0.09367,-0.115733 -0.09179,-0.117231 -0.08989,-0.118698 -0.08796,-0.120134 -0.08601,-0.121539 -0.08403,-0.122912 -0.08203,-0.124252 -0.08002,-0.125562 -0.07798,-0.126837 -0.07592,-0.12808 -0.07384,-0.129289 -0.07174,-0.130465 -0.06963,-0.131606 -0.0675,-0.132714 -0.06534,-0.133786 -0.06317,-0.134824 -0.06099,-0.135827 -0.05879,-0.136794 -0.05657,-0.137725 -0.05434,-0.138621 -0.05209,-0.13948 -0.04983,-0.140304 -0.04756,-0.14109 -0.04528,-0.141839 -0.04298,-0.142552 -0.04067,-0.143228 -0.03835,-0.143866 -0.03603,-0.144466 -0.03369,-0.14503 -0.03134,-0.145554 -0.02899,-0.146042 -0.02662,-0.146491 -0.02426,-0.146901 -0.02188,-0.147274 -0.0195,-0.147608 -0.01711,-0.147904 -0.01472,-0.148161 -0.01233,-0.14838 -0.0099,-0.148559 -0.0075,-0.1487 -0.0051,-0.148802 -0.0027,-0.148866 -4.81e-4,-0.09419"
             style="fill:none;stroke:#800000;stroke-width:0.13;stroke-linecap:round;stroke-linejoin:round;stroke-miterlimit:10;stroke-dasharray:none;stroke-opacity:1"
             id="path48" /></g><g
           id="g50"><path
             d="m 1940.8787,626.68403 -55.7703,105.71106 -31.2993,-23.74765 z"
             style="fill:#800000;fill-opacity:1;fill-rule:evenodd;stroke:none"
             id="path52" /></g><g
           id="g54"
           transform="matrix(47.216667,0,0,-47.142857,0,1650)"><path
             d="M 41.105798,21.706702 39.92464,19.464346 39.261753,19.968084 Z"
             style="fill:#800000;fill-opacity:1;fill-rule:evenodd;stroke:#800000;stroke-width:0.13;stroke-linecap:round;stroke-linejoin:round;stroke-miterlimit:10;stroke-dasharray:none;stroke-opacity:1"
             id="path56" /></g><g
           id="g58"><path
             d="m 1813.3776,934.01786 -3.5199,-119.42818 38.9504,5.30524 z"
             style="fill:#800000;fill-opacity:1;fill-rule:evenodd;stroke:none"
             id="path60" /></g><g
           id="g62"
           transform="matrix(47.216667,0,0,-47.142857,0,1650)"><path
             d="m 38.405456,15.1875 -0.07455,2.533325 0.824929,-0.112536 -0.75038,-2.420789 z"
             style="fill:#800000;fill-opacity:1;fill-rule:evenodd;stroke:#800000;stroke-width:0.13;stroke-linecap:round;stroke-linejoin:round;stroke-miterlimit:10;stroke-dasharray:none;stroke-opacity:1"
             id="path64" /><path
             d="m 28.625,1.6875 v 0.58 m 0,0.3835 v 0.013 m 0,0.3835 v 1.56 m 0,0.3835 v 0.013 m 0,0.3835 v 1.56 m 0,0.3835 v 0.013 m 0,0.3835 v 1.56 m 0,0.3835 v 0.013 m 0,0.3835 v 1.56 m 0,0.3835 v 0.013 m 0,0.3835 v 1.56 m 0,0.3835 v 0.013 m 0,0.3835 v 1.56 m 0,0.3835 v 0.013 m 0,0.3835 v 1.56 m 0,0.3835 v 0.013 m 0,0.3835 v 1.56 m 0,0.3835 v 0.013 m 0,0.3835 v 1.56 m 0,0.3835 v 0.013 m 0,0.3835 v 0.58"
             style="fill:none;stroke:#000000;stroke-width:0.13;stroke-linecap:round;stroke-linejoin:round;stroke-miterlimit:10;stroke-dasharray:none;stroke-opacity:1"
             id="path66" /><path
             d="M 6.125,15.1875 H 7.9681457"
             style="fill:none;stroke:#000000;stroke-width:0.25;stroke-linecap:round;stroke-linejoin:round;stroke-miterlimit:10;stroke-dasharray:none;stroke-opacity:1"
             id="path68" /><path
             d="M 49.281854,15.1875 H 51.125"
             style="fill:none;stroke:#000000;stroke-width:0.25;stroke-linecap:round;stroke-linejoin:round;stroke-miterlimit:10;stroke-dasharray:none;stroke-opacity:1"
             id="path70" /><path
             d="M 6.125,11.1875 H 7.9681457"
             style="fill:none;stroke:#000000;stroke-width:0.25;stroke-linecap:round;stroke-linejoin:round;stroke-miterlimit:10;stroke-dasharray:none;stroke-opacity:1"
             id="path72" /><path
             d="M 49.281854,11.1875 H 51.125"
             style="fill:none;stroke:#000000;stroke-width:0.25;stroke-linecap:round;stroke-linejoin:round;stroke-miterlimit:10;stroke-dasharray:none;stroke-opacity:1"
             id="path74" /><path
             d="M 19.281854,23.1875 H 37.968146"
             style="fill:none;stroke:#000000;stroke-width:0.25;stroke-linecap:round;stroke-linejoin:round;stroke-miterlimit:10;stroke-dasharray:none;stroke-opacity:1"
             id="path76" /><path
             d="M 19.281854,3.1875 H 37.968146"
             style="fill:none;stroke:#000000;stroke-width:0.25;stroke-linecap:round;stroke-linejoin:round;stroke-miterlimit:10;stroke-dasharray:none;stroke-opacity:1"
             id="path78" /><path
             d="m 10.796573,16.359073 5.656854,5.656854"
             style="fill:none;stroke:#000000;stroke-width:0.25;stroke-linecap:round;stroke-linejoin:round;stroke-miterlimit:10;stroke-dasharray:none;stroke-opacity:1"
             id="path80" /><path
             d="m 46.453427,16.359073 -5.656854,5.656854"
             style="fill:none;stroke:#000000;stroke-width:0.25;stroke-linecap:round;stroke-linejoin:round;stroke-miterlimit:10;stroke-dasharray:none;stroke-opacity:1"
             id="path82" /><path
             d="M 10.796573,10.015927 16.453427,4.3590729"
             style="fill:none;stroke:#000000;stroke-width:0.25;stroke-linecap:round;stroke-linejoin:round;stroke-miterlimit:10;stroke-dasharray:none;stroke-opacity:1"
             id="path84" /><path
             d="M 46.453427,10.015927 40.796573,4.3590729"
             style="fill:none;stroke:#000000;stroke-width:0.25;stroke-linecap:round;stroke-linejoin:round;stroke-miterlimit:10;stroke-dasharray:none;stroke-opacity:1"
             id="path86" /><path
             d="m 7.9681457,15.1875 0.1488578,0.0028 0.1486516,0.0083 0.1482394,0.01384 0.1476219,0.01934 0.1467998,0.02482 0.1457743,0.03027 0.144547,0.03567 0.1431194,0.04103 0.1414934,0.04632 0.1396715,0.05156 0.1376561,0.05672 0.1354499,0.0618 0.1330561,0.0668 0.130478,0.07171 0.1277191,0.07651 0.124783,0.08121 0.121675,0.0858 0.118397,0.09027 0.114956,0.09461 0.111355,0.09883 0.107601,0.1029 0.01053,0.01049"
             style="fill:none;stroke:#000000;stroke-width:0.25;stroke-linecap:round;stroke-linejoin:round;stroke-miterlimit:10;stroke-dasharray:none;stroke-opacity:1"
             id="path88" /><path
             d="m 7.9681457,11.1875 0.1488578,-0.0028 0.1486516,-0.0083 0.1482394,-0.01384 0.1476219,-0.01934 0.1467998,-0.02482 0.1457743,-0.03027 0.144547,-0.03567 0.1431194,-0.04103 0.1414934,-0.04632 0.1396715,-0.05156 0.1376561,-0.05672 0.1354499,-0.0618 0.1330561,-0.0668 0.130478,-0.07171 0.1277191,-0.07651 0.124783,-0.08121 0.121675,-0.0858 0.118397,-0.09027 0.114956,-0.09461 0.111355,-0.09882 0.107601,-0.1029 0.01053,-0.01049"
             style="fill:none;stroke:#000000;stroke-width:0.25;stroke-linecap:round;stroke-linejoin:round;stroke-miterlimit:10;stroke-dasharray:none;stroke-opacity:1"
             id="path90" /><path
             d="m 16.453427,22.015927 0.107218,0.103299 0.110987,0.09924 0.114604,0.09504 0.118061,0.09071 0.121355,0.08625 0.124481,0.08168 0.127434,0.07699 0.130211,0.07219 0.132807,0.0673 0.135219,0.06231 0.137445,0.05723 0.139479,0.05208 0.14132,0.04685 0.142966,0.04156 0.144413,0.03621 0.145661,0.03081 0.146707,0.02537 0.147549,0.01989 0.148187,0.01438 0.14862,0.0089 0.148846,0.0033 0.01486,2.8e-5"
             style="fill:none;stroke:#000000;stroke-width:0.25;stroke-linecap:round;stroke-linejoin:round;stroke-miterlimit:10;stroke-dasharray:none;stroke-opacity:1"
             id="path92" /><path
             d="m 16.453427,4.3590729 0.107218,-0.1032991 0.110987,-0.099238 0.114604,-0.095038 0.118061,-0.090708 0.121355,-0.086251 0.124481,-0.081675 0.127434,-0.076986 0.130211,-0.072191 0.132807,-0.067295 0.135219,-0.062306 0.137445,-0.057231 0.139479,-0.052076 0.14132,-0.046849 0.142966,-0.041558 0.144413,-0.036209 0.145661,-0.030809 0.146707,-0.025367 0.147549,-0.01989 0.148187,-0.014385 0.14862,-0.00886 0.148846,-0.00332 0.01486,-2.76e-5"
             style="fill:none;stroke:#000000;stroke-width:0.25;stroke-linecap:round;stroke-linejoin:round;stroke-miterlimit:10;stroke-dasharray:none;stroke-opacity:1"
             id="path94" /><path
             d="m 37.968146,23.1875 0.148857,-0.0028 0.148652,-0.0083 0.148239,-0.01384 0.147622,-0.01934 0.1468,-0.02482 0.145774,-0.03027 0.144547,-0.03567 0.14312,-0.04103 0.141493,-0.04632 0.139672,-0.05156 0.137656,-0.05672 0.13545,-0.0618 0.133056,-0.0668 0.130478,-0.07171 0.127719,-0.07651 0.124783,-0.08121 0.121675,-0.0858 0.118397,-0.09027 0.114956,-0.09461 0.111355,-0.09883 0.107601,-0.1029 0.01053,-0.01049"
             style="fill:none;stroke:#000000;stroke-width:0.25;stroke-linecap:round;stroke-linejoin:round;stroke-miterlimit:10;stroke-dasharray:none;stroke-opacity:1"
             id="path96" /><path
             d="m 37.968146,3.1875 0.148857,0.00277 0.148652,0.00831 0.148239,0.013835 0.147622,0.019342 0.1468,0.024822 0.145774,0.030268 0.144547,0.035672 0.14312,0.041026 0.141493,0.046324 0.139672,0.051558 0.137656,0.05672 0.13545,0.061803 0.133056,0.066801 0.130478,0.071706 0.127719,0.076512 0.124783,0.081212 0.121675,0.0858 0.118397,0.090269 0.114956,0.094612 0.111355,0.098825 0.107601,0.1029002 0.01053,0.010486"
             style="fill:none;stroke:#000000;stroke-width:0.25;stroke-linecap:round;stroke-linejoin:round;stroke-miterlimit:10;stroke-dasharray:none;stroke-opacity:1"
             id="path98" /><path
             d="m 46.453427,16.359073 0.107218,-0.103299 0.110987,-0.09924 0.114604,-0.09504 0.118061,-0.09071 0.121355,-0.08625 0.124481,-0.08168 0.127434,-0.07699 0.130211,-0.07219 0.132807,-0.06729 0.135219,-0.06231 0.137445,-0.05723 0.139479,-0.05208 0.14132,-0.04685 0.142966,-0.04156 0.144413,-0.03621 0.145661,-0.03081 0.146707,-0.02537 0.147549,-0.01989 0.148187,-0.01439 0.14862,-0.0089 0.148846,-0.0033 0.01486,-2.8e-5"
             style="fill:none;stroke:#000000;stroke-width:0.25;stroke-linecap:round;stroke-linejoin:round;stroke-miterlimit:10;stroke-dasharray:none;stroke-opacity:1"
             id="path100" /><path
             d="m 46.453427,10.015927 0.107218,0.103299 0.110987,0.09924 0.114604,0.09504 0.118061,0.09071 0.121355,0.08625 0.124481,0.08168 0.127434,0.07699 0.130211,0.07219 0.132807,0.06729 0.135219,0.06231 0.137445,0.05723 0.139479,0.05208 0.14132,0.04685 0.142966,0.04156 0.144413,0.03621 0.145661,0.03081 0.146707,0.02537 0.147549,0.01989 0.148187,0.01439 0.14862,0.0089 0.148846,0.0033 0.01486,2.8e-5"
             style="fill:none;stroke:#000000;stroke-width:0.25;stroke-linecap:round;stroke-linejoin:round;stroke-miterlimit:10;stroke-dasharray:none;stroke-opacity:1"
             id="path102" /><path
             d="m 7.9681457,15.1875 h 0.6334272 m 0.39,0 H 9.625"
             style="fill:none;stroke:#000000;stroke-width:0.13;stroke-linecap:round;stroke-linejoin:round;stroke-miterlimit:10;stroke-dasharray:none;stroke-opacity:1"
             id="path104" /><path
             d="m 9.625,15.1875 0.447901,0.447901 m 0.275771,0.275771 0.447901,0.447901"
             style="fill:none;stroke:#000000;stroke-width:0.13;stroke-linecap:round;stroke-linejoin:round;stroke-miterlimit:10;stroke-dasharray:none;stroke-opacity:1"
             id="path106" /><path
             d="m 16.453427,22.015927 0.447901,0.447901 M 17.177099,22.739599 17.625,23.1875"
             style="fill:none;stroke:#000000;stroke-width:0.13;stroke-linecap:round;stroke-linejoin:round;stroke-miterlimit:10;stroke-dasharray:none;stroke-opacity:1"
             id="path108" /><path
             d="m 39.625,23.1875 0.447901,-0.447901 m 0.275771,-0.275771 0.447901,-0.447901"
             style="fill:none;stroke:#000000;stroke-width:0.13;stroke-linecap:round;stroke-linejoin:round;stroke-miterlimit:10;stroke-dasharray:none;stroke-opacity:1"
             id="path110" /><path
             d="m 46.453427,16.359073 0.447901,-0.447901 M 47.177099,15.635401 47.625,15.1875"
             style="fill:none;stroke:#000000;stroke-width:0.13;stroke-linecap:round;stroke-linejoin:round;stroke-miterlimit:10;stroke-dasharray:none;stroke-opacity:1"
             id="path112" /><path
             d="m 47.625,15.1875 h 0.633427 m 0.39,0 h 0.633427"
             style="fill:none;stroke:#000000;stroke-width:0.13;stroke-linecap:round;stroke-linejoin:round;stroke-miterlimit:10;stroke-dasharray:none;stroke-opacity:1"
             id="path114" /><path
             d="m 17.625,23.1875 h 0.758427 m 0.39,0 h 1.56 m 0.39,0 h 1.56 m 0.39,0 h 1.56 m 0.39,0 h 1.56 m 0.39,0 h 1.56 m 0.39,0 h 0.758427"
             style="fill:none;stroke:#000000;stroke-width:0.13;stroke-linecap:round;stroke-linejoin:round;stroke-miterlimit:10;stroke-dasharray:none;stroke-opacity:1"
             id="path116" /><path
             d="m 27.968146,23.1875 h 0.758427 m 0.39,0 h 1.56 m 0.39,0 h 1.56 m 0.39,0 h 1.56 m 0.39,0 h 1.56 m 0.39,0 h 1.56 m 0.39,0 H 39.625"
             style="fill:none;stroke:#000000;stroke-width:0.13;stroke-linecap:round;stroke-linejoin:round;stroke-miterlimit:10;stroke-dasharray:none;stroke-opacity:1"
             id="path118" /></g><g
           id="g120"
           transform="matrix(0.73075042,0.9975898,-0.99915168,0.7296081,754.79611,912.95274)"><g
             id="g122"><text
               transform="translate(0,143)"
               style="font-variant:normal;font-weight:normal;font-size:133px;font-family:'Noto Sans';-inkscape-font-specification:NotoSans-Regular;writing-mode:lr-tb;fill:#008000;fill-opacity:1;fill-rule:nonzero;stroke:none"
               id="text126"><tspan
                 x="0"
                 y="0"
                 id="tspan124">r</tspan></text></g></g><g
           id="g128"
           transform="matrix(47.216667,0,0,-47.142857,0,1650)" /><g
           id="g130"
           transform="matrix(0.29230017,0.39903592,-0.39966067,0.29184324,709.20308,1030.3426)"><g
             id="g132"><text
               transform="translate(0,143)"
               style="font-variant:normal;font-weight:normal;font-size:133px;font-family:'Noto Sans';-inkscape-font-specification:NotoSans-Regular;writing-mode:lr-tb;fill:#008000;fill-opacity:1;fill-rule:nonzero;stroke:none"
               id="text136"><tspan
                 x="0"
                 y="0"
                 id="tspan134">1</tspan></text></g></g><g
           id="g138"
           transform="matrix(47.216667,0,0,-47.142857,0,1650)"><path
             d="M 7.9681457,19.1875 14.424037,10.360389"
             style="fill:none;stroke:#008000;stroke-width:0.13;stroke-linecap:round;stroke-linejoin:round;stroke-miterlimit:10;stroke-dasharray:none;stroke-opacity:1"
             id="path140" /></g><g
           id="g142"><path
             d="m 487.72353,897.65369 85.54909,83.54434 -31.73038,23.17037 z"
             style="fill:#008000;fill-opacity:1;fill-rule:evenodd;stroke:none"
             id="path144" /></g><g
           id="g146"
           transform="matrix(47.216667,0,0,-47.142857,0,1650)"><path
             d="m 10.329478,15.958861 1.811841,-1.772153 -0.672016,-0.491493 z"
             style="fill:#008000;fill-opacity:1;fill-rule:evenodd;stroke:#008000;stroke-width:0.13;stroke-linecap:round;stroke-linejoin:round;stroke-miterlimit:10;stroke-dasharray:none;stroke-opacity:1"
             id="path148" /></g><g
           id="g150"
           transform="matrix(0.78969597,0.95175724,-0.95324736,0.78846151,766.2842,248.5007)"><g
             id="g152"><text
               transform="translate(0,143)"
               style="font-variant:normal;font-weight:normal;font-size:133px;font-family:'Noto Sans';-inkscape-font-specification:NotoSans-Regular;writing-mode:lr-tb;fill:#008000;fill-opacity:1;fill-rule:nonzero;stroke:none"
               id="text156"><tspan
                 x="0"
                 y="0"
                 id="tspan154">r</tspan></text></g></g><g
           id="g158"
           transform="matrix(47.216667,0,0,-47.142857,0,1650)" /><g
           id="g160"
           transform="matrix(0.31587839,0.38070289,-0.38129894,0.3153846,727.86716,368.42299)"><g
             id="g162"><text
               transform="translate(0,143)"
               style="font-variant:normal;font-weight:normal;font-size:133px;font-family:'Noto Sans';-inkscape-font-specification:NotoSans-Regular;writing-mode:lr-tb;fill:#008000;fill-opacity:1;fill-rule:nonzero;stroke:none"
               id="text166"><tspan
                 x="0"
                 y="0"
                 id="tspan164">2</tspan></text></g></g><g
           id="g168"
           transform="matrix(47.216667,0,0,-47.142857,0,1650)"><path
             d="m 19.281854,19.1875 -7.123518,8.598847"
             style="fill:none;stroke:#008000;stroke-width:0.13;stroke-linecap:round;stroke-linejoin:round;stroke-miterlimit:10;stroke-dasharray:none;stroke-opacity:1"
             id="path170" /></g><g
           id="g172"><path
             d="M 789.93702,600.23207 699.49582,521.9928 729.7684,496.95338 Z"
             style="fill:#008000;fill-opacity:1;fill-rule:evenodd;stroke:none"
             id="path174" /></g><g
           id="g176"
           transform="matrix(47.216667,0,0,-47.142857,0,1650)"><path
             d="m 16.730046,22.267805 -1.91545,1.65962 0.641141,0.53114 z"
             style="fill:#008000;fill-opacity:1;fill-rule:evenodd;stroke:#008000;stroke-width:0.13;stroke-linecap:round;stroke-linejoin:round;stroke-miterlimit:10;stroke-dasharray:none;stroke-opacity:1"
             id="path178" /></g><g
           id="g180"
           transform="matrix(0,-1.2359261,1.2378612,0,2280.97,793.61858)"><g
             id="g182"><text
               transform="translate(0,143)"
               style="font-variant:normal;font-weight:normal;font-size:133px;font-family:'Noto Sans';-inkscape-font-specification:NotoSans-Regular;writing-mode:lr-tb;fill:#008000;fill-opacity:1;fill-rule:nonzero;stroke:none"
               id="text186"><tspan
                 x="0"
                 y="0"
                 id="tspan184">d</tspan></text></g></g><g
           id="g188"
           transform="matrix(47.216667,0,0,-47.142857,0,1650)"><path
             d="m 52.625,23.1875 v -8"
             style="fill:none;stroke:#008000;stroke-width:0.13;stroke-linecap:round;stroke-linejoin:round;stroke-miterlimit:10;stroke-dasharray:none;stroke-opacity:1"
             id="path190" /></g><g
           id="g192"><path
             d="m 2484.7771,556.875 19.6556,117.85714 h -39.3112 z"
             style="fill:#008000;fill-opacity:1;fill-rule:evenodd;stroke:none"
             id="path194" /></g><g
           id="g196"
           transform="matrix(47.216667,0,0,-47.142857,0,1650)"><path
             d="m 52.625,23.1875 0.416285,-2.5 h -0.83257 z"
             style="fill:#008000;fill-opacity:1;fill-rule:evenodd;stroke:#008000;stroke-width:0.13;stroke-linecap:round;stroke-linejoin:round;stroke-miterlimit:10;stroke-dasharray:none;stroke-opacity:1"
             id="path198" /></g><g
           id="g200"><path
             d="m 2484.7771,934.01786 -19.6556,-117.85715 h 39.3112 z"
             style="fill:#008000;fill-opacity:1;fill-rule:evenodd;stroke:none"
             id="path202" /></g><g
           id="g204"
           transform="matrix(47.216667,0,0,-47.142857,0,1650)"><path
             d="m 52.625,15.1875 -0.416285,2.5 h 0.83257 z"
             style="fill:#008000;fill-opacity:1;fill-rule:evenodd;stroke:#008000;stroke-width:0.13;stroke-linecap:round;stroke-linejoin:round;stroke-miterlimit:10;stroke-dasharray:none;stroke-opacity:1"
             id="path206" /><path
             d="M 40.25,23.1875 H 53.875"
             style="fill:none;stroke:#008000;stroke-width:0.13;stroke-linecap:round;stroke-linejoin:round;stroke-miterlimit:10;stroke-dasharray:none;stroke-opacity:1"
             id="path208" /><path
             d="m 51.75,15.1875 h 2.125"
             style="fill:none;stroke:#008000;stroke-width:0.13;stroke-linecap:round;stroke-linejoin:round;stroke-miterlimit:10;stroke-dasharray:none;stroke-opacity:1"
             id="path210" /></g><g
           id="g212"
           transform="matrix(1.2378612,0,0,1.2359261,1258.6408,20.673278)"><g
             id="g214"><text
               transform="translate(0,143)"
               style="font-variant:normal;font-weight:normal;font-size:133px;font-family:'Noto Sans';-inkscape-font-specification:NotoSans-Regular;writing-mode:lr-tb;fill:#800000;fill-opacity:1;fill-rule:nonzero;stroke:none"
               id="text218"><tspan
                 x="0"
                 y="0"
                 id="tspan216">b</tspan></text></g></g><g
           id="g220"
           transform="matrix(47.216667,0,0,-47.142857,0,1650)" /><g
           id="g222"
           transform="matrix(0.49514446,0,0,0.49437045,1359.8746,126.71574)"><g
             id="g224"><text
               transform="translate(0,143)"
               style="font-variant:normal;font-weight:normal;font-size:133px;font-family:'Noto Sans';-inkscape-font-specification:NotoSans-Regular;writing-mode:lr-tb;fill:#800000;fill-opacity:1;fill-rule:nonzero;stroke:none"
               id="text228"><tspan
                 x="0 71.015625"
                 y="0"
                 sodipodi:role="line"
                 id="tspan226">kn</tspan></text></g></g><g
           id="g230"
           transform="matrix(47.216667,0,0,-47.142857,0,1650)"><path
             d="m 9.625,30.1875 h 38"
             style="fill:none;stroke:#800000;stroke-width:0.13;stroke-linecap:round;stroke-linejoin:round;stroke-miterlimit:10;stroke-dasharray:none;stroke-opacity:1"
             id="path232" /></g><g
           id="g234"><path
             d="m 454.46042,226.875 118.04166,-19.62485 v 39.2497 z"
             style="fill:#800000;fill-opacity:1;fill-rule:evenodd;stroke:none"
             id="path236" /></g><g
           id="g238"
           transform="matrix(47.216667,0,0,-47.142857,0,1650)"><path
             d="m 9.625,30.1875 2.5,0.416285 v -0.83257 z"
             style="fill:#800000;fill-opacity:1;fill-rule:evenodd;stroke:#800000;stroke-width:0.13;stroke-linecap:round;stroke-linejoin:round;stroke-miterlimit:10;stroke-dasharray:none;stroke-opacity:1"
             id="path240" /></g><g
           id="g242"><path
             d="m 2248.6937,226.875 -118.0416,19.62485 v -39.2497 z"
             style="fill:#800000;fill-opacity:1;fill-rule:evenodd;stroke:none"
             id="path244" /></g><g
           id="g246"
           transform="matrix(47.216667,0,0,-47.142857,0,1650)"><path
             d="m 47.625,30.1875 -2.5,-0.416285 v 0.83257 z"
             style="fill:#800000;fill-opacity:1;fill-rule:evenodd;stroke:#800000;stroke-width:0.13;stroke-linecap:round;stroke-linejoin:round;stroke-miterlimit:10;stroke-dasharray:none;stroke-opacity:1"
             id="path248" /><path
             d="m 9.625,15.8125 v 15.625"
             style="fill:none;stroke:#800000;stroke-width:0.13;stroke-linecap:round;stroke-linejoin:round;stroke-miterlimit:10;stroke-dasharray:none;stroke-opacity:1"
             id="path250" /><path
             d="m 47.625,15.8125 v 15.625"
             style="fill:none;stroke:#800000;stroke-width:0.13;stroke-linecap:round;stroke-linejoin:round;stroke-miterlimit:10;stroke-dasharray:none;stroke-opacity:1"
             id="path252" /></g><g
           id="g254"
           transform="matrix(1.2378612,0,0,1.2359261,1276.4505,209.24471)"><g
             id="g256"><text
               transform="translate(0,143)"
               style="font-variant:normal;font-weight:normal;font-size:133px;font-family:'Noto Sans';-inkscape-font-specification:NotoSans-Regular;writing-mode:lr-tb;fill:#800000;fill-opacity:1;fill-rule:nonzero;stroke:none"
               id="text260"><tspan
                 x="0"
                 y="0"
                 id="tspan258">b</tspan></text></g></g><g
           id="g262"
           transform="matrix(47.216667,0,0,-47.142857,0,1650)" /><g
           id="g264"
           transform="matrix(0.49514446,0,0,0.49437045,1377.6843,315.28717)"><g
             id="g266"><text
               transform="translate(0,143)"
               style="font-variant:normal;font-weight:normal;font-size:133px;font-family:'Noto Sans';-inkscape-font-specification:NotoSans-Regular;writing-mode:lr-tb;fill:#800000;fill-opacity:1;fill-rule:nonzero;stroke:none"
               id="text270"><tspan
                 x="0"
                 y="0"
                 id="tspan268">d</tspan></text></g></g><g
           id="g272"
           transform="matrix(47.216667,0,0,-47.142857,0,1650)"><path
             d="m 17.625,26.1875 h 22"
             style="fill:none;stroke:#800000;stroke-width:0.13;stroke-linecap:round;stroke-linejoin:round;stroke-miterlimit:10;stroke-dasharray:none;stroke-opacity:1"
             id="path274" /></g><g
           id="g276"><path
             d="m 832.19375,415.44643 118.04167,-19.62485 v 39.2497 z"
             style="fill:#800000;fill-opacity:1;fill-rule:evenodd;stroke:none"
             id="path278" /></g><g
           id="g280"
           transform="matrix(47.216667,0,0,-47.142857,0,1650)"><path
             d="m 17.625,26.1875 2.5,0.416285 v -0.83257 z"
             style="fill:#800000;fill-opacity:1;fill-rule:evenodd;stroke:#800000;stroke-width:0.13;stroke-linecap:round;stroke-linejoin:round;stroke-miterlimit:10;stroke-dasharray:none;stroke-opacity:1"
             id="path282" /></g><g
           id="g284"><path
             d="m 1870.9604,415.44643 -118.0416,19.62485 v -39.2497 z"
             style="fill:#800000;fill-opacity:1;fill-rule:evenodd;stroke:none"
             id="path286" /></g><g
           id="g288"
           transform="matrix(47.216667,0,0,-47.142857,0,1650)"><path
             d="m 39.625,26.1875 -2.5,-0.416285 v 0.83257 z"
             style="fill:#800000;fill-opacity:1;fill-rule:evenodd;stroke:#800000;stroke-width:0.13;stroke-linecap:round;stroke-linejoin:round;stroke-miterlimit:10;stroke-dasharray:none;stroke-opacity:1"
             id="path290" /><path
             d="m 17.625,23.8125 v 3.625"
             style="fill:none;stroke:#800000;stroke-width:0.13;stroke-linecap:round;stroke-linejoin:round;stroke-miterlimit:10;stroke-dasharray:none;stroke-opacity:1"
             id="path292" /><path
             d="m 39.625,23.8125 v 3.625"
             style="fill:none;stroke:#800000;stroke-width:0.13;stroke-linecap:round;stroke-linejoin:round;stroke-miterlimit:10;stroke-dasharray:none;stroke-opacity:1"
             id="path294" /></g></g></g></g></svg>
